<svg width="48" height="48" viewBox="0 0 48 48" fill="none" xmlns="http://www.w3.org/2000/svg">
<path d="M41.6938 11.0186C41.6938 11.0186 43.4743 11.0822 44.2898 11.6788C45.4539 12.5297 46.858 14.5698 46.943 14.8904C46.943 14.8904 46.5491 15.8591 46.1362 16.1905C45.5578 16.6518 42.8271 15.9267 42.2268 16.4394C41.0891 17.4189 40.2589 18.2035 39.7376 18.723C39.3399 19.1134 39.0698 19.5998 38.9587 20.1259C38.7413 21.1613 38.3082 22.1478 37.6833 23.0305C37.0099 23.9876 36.0668 24.757 34.9555 25.2559C34.8776 25.2935 34.7896 25.3099 34.702 25.3031C34.6144 25.2964 34.5306 25.2667 34.4605 25.2177C34.3904 25.1686 34.3368 25.1022 34.306 25.0261C34.2751 24.95 34.2683 24.8673 34.2864 24.7878L34.4533 24.0316C34.4743 23.9093 34.5233 23.7926 34.5971 23.6893C34.6708 23.5859 34.7675 23.4983 34.8808 23.4323C35.7206 22.8902 36.3612 22.1242 36.717 21.2366C36.7468 21.1557 36.7515 21.0687 36.7306 20.9855C36.7096 20.9023 36.6639 20.8261 36.5985 20.7657C36.5331 20.7053 36.4507 20.663 36.3606 20.6436C36.2705 20.6243 36.1764 20.6287 36.0888 20.6562C34.8702 21.0166 33.6121 21.2508 32.3375 21.3543C32.3968 20.4772 32.2074 19.6009 31.7881 18.812C31.3688 18.0232 30.734 17.349 29.9465 16.8561C29.9348 16.8466 29.9196 16.8418 29.9041 16.8427C29.8885 16.8435 29.874 16.8501 29.8638 16.8609C29.8535 16.8716 29.8482 16.8857 29.8492 16.9C29.8501 16.9144 29.8572 16.9278 29.8689 16.9373C30.6493 17.6881 32.0696 19.4752 31.4634 22.2134C30.8177 25.1125 29.109 26.4153 27.45 28.1483C25.4968 30.1951 25.3738 31.4654 27.6931 34.3064C29.3462 36.333 29.9641 38.2973 30.0094 39.3363C30.0285 39.7759 29.6287 40.1182 29.1822 39.9613L28.2861 39.6461C28.1957 39.6128 28.1178 39.5557 28.0624 39.4818C28.0069 39.408 27.9762 39.3206 27.9742 39.2307C28.2158 36.87 24.5333 33.6597 22.9959 32.2474C22.5786 31.8672 22.4014 31.2612 22.6855 30.785C23.5274 29.3834 24.5509 27.6058 24.2961 25.3168C23.8246 21.1122 21.3253 21.8724 21.3253 17.5704C21.3253 17.5704 19.2183 17.4947 15.3777 20.1557C9.09476 24.5078 4.88518 25.7023 0.564313 23.1319C0.492609 23.0881 0.436999 23.0252 0.404841 22.9515C0.372682 22.8778 0.36549 22.7969 0.384216 22.7193C0.397709 22.667 0.422801 22.6179 0.457903 22.5751C0.493005 22.5322 0.537352 22.4966 0.588139 22.4704C0.638925 22.4442 0.695045 22.428 0.752945 22.4229C0.810845 22.4178 0.869265 22.4238 0.924507 22.4406C2.30964 22.8654 6.70079 24.3454 12.6381 17.7165C16.038 13.9191 21.4936 8.7986 29.0372 10.9631C33.5865 12.27 39.6117 14.0381 39.6117 14.0381C39.5984 13.699 39.6551 13.3607 39.7786 13.0411C39.869 12.7984 39.9988 12.5699 40.1637 12.3633C39.9193 12.1161 39.5972 11.9458 39.2427 11.8763C38.6204 11.7343 37.7609 11.7559 37.0464 11.4637C36.3729 11.1904 35.8062 10.7602 35.6173 10.3476C35.4592 10.0013 35.6349 9.89169 35.9278 9.82811L35.9863 9.81458C36.028 9.80567 36.0716 9.80911 36.111 9.82441C36.1505 9.83971 36.1837 9.86609 36.206 9.89981C36.3882 10.1571 36.6141 10.3855 36.8751 10.5762C37.7009 11.2405 38.433 11.1228 39.086 11.1688C39.3177 11.1869 39.5477 11.2204 39.7742 11.2689C40.0875 11.3324 40.3716 11.4847 40.5868 11.7045C40.5868 11.7045 40.398 11.2229 39.6117 11.0281C38.7756 10.8211 38.1724 11.0795 37.165 10.2678C36.9076 10.0679 36.684 9.83351 36.5017 9.57242C36.309 9.28507 36.1885 8.96149 36.1488 8.62544C36.1064 8.35351 36.1298 8.04507 36.5691 8.00989C37.1767 7.96119 37.8869 8.09512 38.7654 8.34946C41.0232 9.00558 41.6938 11.0186 41.6938 11.0186Z" fill="#FF6C0E"/>
</svg>
