<svg width="300" height="78" viewBox="0 0 300 78" fill="none" xmlns="http://www.w3.org/2000/svg">
<path d="M11.3853 7.61851C12.1798 4.65292 13.0294 1.72665 13.2772 1.11308L13.7216 0L28.939 0.161259C41.6549 0.294986 44.5261 0.428713 46.4179 0.979354C47.6608 1.3412 49.6982 2.14357 50.941 2.765C52.1839 3.38644 54.0089 4.66865 54.9922 5.61654C55.9755 6.56443 57.297 8.22422 57.9263 9.30583C58.5556 10.3874 59.4838 12.5113 59.9833 14.0256C60.4868 15.5399 61.0571 18.1948 61.2498 19.9253C61.4504 21.7621 61.4504 24.3816 61.2459 26.2184C61.0532 27.949 60.4356 31.1348 59.8732 33.298C59.3108 35.4613 58.2764 38.4701 57.5802 39.9844C56.884 41.4987 55.4877 43.9766 54.4848 45.4908C53.4779 47.0051 51.2714 49.5892 49.5841 51.2371C47.8968 52.8812 45.5447 54.8517 44.353 55.6108C43.1613 56.366 40.9508 57.6128 39.4366 58.3758C37.9223 59.1349 34.9134 60.307 32.7502 60.9756C30.587 61.6403 27.2241 62.4742 25.2772 62.8203C23.0157 63.2254 18.3234 63.5361 12.2978 63.6777C7.10607 63.7957 2.19356 63.78 1.38334 63.6423C-0.00506584 63.4024 -0.0837288 63.3119 0.0421319 62.1084C0.112929 61.4043 1.19061 57.0228 2.43349 52.3738C3.67636 47.7209 5.39122 41.2627 6.24471 38.0178C7.10214 34.773 8.32928 31.0562 8.97431 29.7582C9.62329 28.4524 11.1533 26.3993 12.404 25.1604C13.643 23.9293 15.5427 22.4858 16.6243 21.9509C17.7059 21.4121 19.6528 20.6962 20.9508 20.358C22.2487 20.0197 23.9753 19.7405 24.7856 19.7365C25.9301 19.7287 26.2605 19.8821 26.2644 20.417C26.2644 20.7946 25.4581 24.1141 24.4749 27.7916C23.4916 31.4691 21.9576 37.2233 21.0688 40.5744C20.1799 43.9254 19.3893 47.1585 19.3146 47.7524C19.2084 48.6019 19.3736 48.8851 20.0658 49.0739C20.5535 49.2037 22.0127 49.1801 23.3106 49.0228C24.6086 48.8655 26.9095 48.3148 28.4237 47.7996C29.938 47.2843 32.1327 46.2892 33.2969 45.5852C34.4651 44.8851 36.5064 43.2489 37.8397 41.951C39.1691 40.653 40.9902 38.3521 41.8869 36.8379C42.7797 35.3236 43.881 32.9795 44.3255 31.6265C44.7738 30.2735 45.3206 27.886 45.5447 26.3167C45.765 24.7474 45.8319 22.6707 45.6903 21.6953C45.5487 20.7198 45.1672 19.3944 44.8446 18.7454C44.5261 18.0964 43.885 17.1485 43.4208 16.6412C42.9607 16.1338 41.8751 15.3393 41.0098 14.8712C39.5034 14.061 38.8309 14.0177 25.0137 13.829C17.0805 13.7228 10.4453 13.4946 10.2644 13.3216C10.0835 13.1525 10.5869 10.588 11.3853 7.61851Z" fill="#FF6C0E"/>
<path d="M184.814 10.6824C184.979 10.1397 185.675 7.53198 186.359 4.88104L187.606 0.0629304H194.643C200.951 0.0629304 201.718 0.133727 202.025 0.751232C202.257 1.21534 201.943 2.98133 201.058 6.15931C200.334 8.75519 199.826 11.0993 199.925 11.3707C200.059 11.7247 201.412 11.8624 204.829 11.8624C209.062 11.8624 209.545 11.9332 209.541 12.5507C209.537 12.9283 208.979 15.3629 208.295 17.9588C207.614 20.5546 206.776 22.9932 206.434 23.3786C205.903 23.9765 205.14 24.0787 201.191 24.0669C197.172 24.0551 196.523 24.1456 196.232 24.7434C196.051 25.121 195.429 27.2017 194.859 29.3649C194.285 31.5281 193.164 35.6855 192.369 38.6078C191.362 42.2971 190.91 44.7789 190.89 46.7376C190.867 49.2312 190.977 49.6717 191.85 50.5646C192.389 51.1231 193.585 51.7563 194.505 51.9766C195.421 52.1929 196.884 52.3738 197.75 52.3738C199.205 52.3738 199.319 52.4525 199.311 53.4554C199.303 54.0493 198.772 56.3935 198.123 58.6669C197.478 60.9363 196.731 62.9225 196.464 63.0759C196.196 63.2293 195.004 63.4968 193.817 63.6659C192.625 63.835 189.616 63.9766 187.13 63.9727C183.087 63.9727 182.403 63.8665 180.688 62.9894C179.634 62.4506 178.328 61.4791 177.785 60.8301C177.246 60.1811 176.487 59.0287 176.102 58.2735C175.716 57.5145 175.236 55.7445 175.04 54.3404C174.831 52.8458 174.823 50.5567 175.024 48.834C175.213 47.2096 176.593 41.3689 178.096 35.8546C179.594 30.3364 180.825 25.4278 180.829 24.9401C180.837 24.063 180.786 24.0551 174.839 24.0158C171.539 23.9922 168.428 23.8624 167.929 23.7208C167.095 23.4848 167.484 22.9735 178.068 11.8938L181.29 11.7798C184.338 11.6697 184.527 11.6107 184.814 10.6824Z" fill="#FF6C0E"/>
<path d="M83.8812 13.1407C85.6117 12.417 88.1762 11.5831 89.5842 11.2881C90.9884 10.9892 93.8674 10.7296 95.9756 10.7139C98.0838 10.6982 100.739 10.883 101.875 11.1269C103.012 11.3747 104.825 11.9882 105.907 12.4956C106.988 12.9991 108.581 14.0099 109.447 14.7375C110.312 15.4612 111.578 16.9283 112.263 17.9902C112.947 19.0561 113.789 20.8968 114.135 22.0886C114.481 23.2764 114.76 25.0935 114.76 26.1201C114.756 27.1466 114.442 29.007 114.056 30.2499C113.671 31.4927 112.719 33.3964 111.94 34.478C111.165 35.5596 109.84 36.9677 109.002 37.6048C108.164 38.2459 106.505 39.241 105.317 39.8231C104.125 40.4053 101.561 41.2823 99.6138 41.7779C96.6128 42.541 94.6658 42.7101 77.5881 43.1309V44.9598C77.5881 46.364 77.8674 47.186 78.7877 48.4997C79.5822 49.6285 80.715 50.5724 82.1309 51.2765C83.3109 51.8586 85.5134 52.5429 87.0277 52.7947C88.6127 53.0543 90.8664 53.1329 92.3374 52.9795C93.7416 52.8301 95.9559 52.4407 97.2539 52.1103C98.5518 51.7799 100.676 51.0916 101.974 50.5842C103.272 50.0769 104.668 49.6049 105.073 49.542C105.565 49.4633 105.864 49.6914 105.95 50.2106C106.021 50.6432 105.793 51.8822 105.439 52.9638C105.089 54.0454 104.412 55.5479 103.932 56.307C103.456 57.0621 102.202 58.4702 101.144 59.4338C100.086 60.3974 98.3355 61.5853 97.2539 62.073C96.1722 62.5607 94.0483 63.2647 92.5341 63.6384C90.7484 64.0749 88.2548 64.3109 85.4544 64.3031C82.7759 64.2991 80.0778 64.0396 78.3747 63.6266C76.8605 63.2608 74.8231 62.5843 73.8516 62.1241C72.8762 61.66 71.2675 60.6492 70.2725 59.8783C69.2774 59.1034 67.8614 57.6796 67.1259 56.7121C66.3904 55.7485 65.3953 53.9785 64.9194 52.7789C64.4435 51.5833 63.8496 49.188 63.6018 47.4574C63.3501 45.6875 63.2714 43.1034 63.4209 41.5577C63.5664 40.0434 63.9322 37.7425 64.2311 36.4446C64.5301 35.1466 65.2774 32.8457 65.8988 31.3315C66.5202 29.8172 67.8536 27.2961 68.8644 25.7267C69.8752 24.1574 71.8103 21.7543 73.1633 20.3894C74.5163 19.0207 76.77 17.1249 78.1781 16.177C79.5822 15.2292 82.1506 13.8644 83.8812 13.1407Z" fill="#FF6C0E"/>
<path d="M228.228 12.8575C229.742 12.2557 232.129 11.5399 233.537 11.2606C234.942 10.9853 237.864 10.7375 240.027 10.7178C242.454 10.6942 244.861 10.9145 246.32 11.296C247.618 11.6343 249.545 12.3855 250.6 12.9676C251.658 13.5497 253.435 14.9971 254.548 16.1888C255.842 17.5694 256.904 19.2056 257.486 20.712C258.151 22.4347 258.395 23.8664 258.387 26.0217C258.385 27.9883 258.118 29.6927 257.589 31.1348C257.148 32.3226 256.012 34.183 255.064 35.2646C254.112 36.3462 252.464 37.8015 251.398 38.5016C250.336 39.2017 248.228 40.2125 246.714 40.7474C245.199 41.2863 242.985 41.9313 241.797 42.1791C240.605 42.4308 235.583 42.7455 230.627 42.8831C223.244 43.0837 221.557 43.2371 221.25 43.7209C221.006 44.0985 221.026 44.9048 221.305 45.9825C221.541 46.9028 222.312 48.2951 223.016 49.0818C223.72 49.8684 225.136 50.9304 226.163 51.4417C227.189 51.953 229.313 52.5784 230.883 52.834C233.058 53.1841 234.525 53.1841 237.077 52.8301C238.914 52.5784 241.482 52.0316 242.78 51.6187C244.078 51.2057 245.982 50.5016 247.009 50.0493C248.035 49.597 249.097 49.2234 249.368 49.2234C249.722 49.2194 249.797 49.7347 249.636 51.0916C249.514 52.1221 248.983 53.8488 248.456 54.9304C247.929 56.012 246.702 57.7072 245.73 58.6983C244.755 59.6934 242.855 61.0622 241.502 61.7465C240.149 62.4309 237.939 63.245 236.586 63.5558C235.233 63.8626 232.975 64.2323 231.571 64.3739C230.163 64.5155 227.508 64.4329 225.671 64.189C223.83 63.9451 221.443 63.4614 220.361 63.1192C219.28 62.7731 217.51 62.0454 216.428 61.4987C215.347 60.952 213.565 59.6069 212.472 58.5056C211.378 57.4043 210.009 55.5282 209.435 54.3404C208.861 53.1487 208.118 51.1152 207.783 49.8173C207.445 48.4957 207.181 45.8094 207.185 43.7209C207.189 41.4121 207.476 38.7809 207.945 36.8379C208.357 35.1073 209.081 32.7159 209.549 31.5281C210.021 30.3364 211.071 28.2125 211.893 26.8084C212.711 25.4003 214.698 22.8359 216.31 21.1053C218.025 19.2685 220.538 17.1249 222.359 15.9529C224.07 14.8476 226.713 13.4553 228.228 12.8575Z" fill="#FF6C0E"/>
<path d="M291.551 12.0787C292.417 11.709 293.833 11.2645 294.698 11.0876C295.563 10.9106 297.113 10.7493 298.139 10.7257C299.673 10.6903 300.008 10.8044 300 11.3707C300 11.7483 299.194 14.9774 298.214 18.5487C297.109 22.5723 296.181 25.2272 295.764 25.5379C295.394 25.8093 294.56 26.0296 293.911 26.0257C293.262 26.0178 291.756 26.297 290.568 26.6432C289.376 26.9932 287.43 27.7877 286.242 28.4131C285.05 29.0384 283.249 30.3954 282.234 31.4259C281.219 32.4564 279.752 34.36 278.977 35.6579C278.202 36.9559 277.235 38.9028 276.834 39.9844C276.428 41.066 275.359 44.7828 274.458 48.244C273.553 51.7052 272.507 55.245 272.13 56.1103C271.752 56.9756 270.816 58.3915 270.053 59.2568C269.286 60.1221 267.705 61.2549 266.537 61.778C264.897 62.5135 263.449 62.7809 260.181 62.9579C256.326 63.1703 255.953 63.1271 255.953 62.5017C255.956 62.1241 256.664 59.2018 257.53 56.012C258.395 52.8222 259.445 48.9716 259.866 47.4574C260.283 45.9431 261.899 39.9254 263.453 34.0847C265.003 28.2439 266.769 21.6048 267.374 19.3354C267.976 17.062 268.664 14.4543 269.329 11.8624H275.622C279.422 11.8624 281.994 12.0158 282.112 12.2557C282.218 12.472 281.97 13.9312 281.557 15.5005C281.148 17.0699 280.688 18.8831 280.543 19.532C280.295 20.6254 280.472 20.5232 282.961 18.1161C284.44 16.6844 286.623 14.8948 287.815 14.1318C289.003 13.3688 290.686 12.4445 291.551 12.0787Z" fill="#FF6C0E"/>
<path d="M124.491 24.7238C121.301 18.4071 118.697 12.9243 118.701 12.5428C118.705 11.8938 119.244 11.8506 133.439 12.059L136.845 18.7454C138.717 22.4229 140.444 25.475 140.68 25.5301C140.916 25.5851 144.117 22.5291 154.481 11.8624H163.134C168.224 11.8624 171.748 12.0118 171.689 12.2242C171.634 12.4248 169.824 14.415 167.669 16.649C165.514 18.8831 159.976 24.6058 155.362 29.3649C150.753 34.124 146.985 38.1516 146.992 38.3128C147 38.4741 149.663 43.9176 152.908 50.4072C156.153 56.8969 158.717 62.3837 158.611 62.6C158.489 62.8399 155.594 62.9933 143.862 62.9933L140.519 56.307C138.678 52.6295 136.955 49.5262 136.684 49.4122C136.4 49.2942 133.14 52.2873 129.077 56.3935C125.163 60.3463 118.969 66.6394 108.66 77.1763L100.499 77.1645C94.3669 77.1566 92.2784 77.0307 92.0975 76.661C91.9559 76.37 93.6826 74.3287 96.3414 71.6463C98.8035 69.1566 107.185 60.6059 114.965 52.6373C122.745 44.6688 129.376 37.715 129.702 37.1801C130.269 36.244 130.06 35.7484 124.491 24.7238Z" fill="#FF6C0E"/>
<path d="M87.6176 23.4101C88.8054 22.8477 90.4888 22.2498 91.3541 22.0846C92.2194 21.9195 93.4583 21.7582 94.1073 21.7346C94.7563 21.7071 96.1722 21.9549 97.2538 22.2813C98.3354 22.6117 99.6216 23.2764 100.117 23.7641C100.735 24.3737 101.006 25.0974 101.002 26.1201C100.994 27.241 100.684 27.9136 99.7121 28.9244C98.8782 29.7936 97.6825 30.4701 96.2705 30.8792C95.0827 31.2214 92.6048 31.6855 90.7641 31.9097C88.9234 32.1338 85.6943 32.3148 83.5861 32.3148C80.5261 32.3148 79.712 32.1968 79.5547 31.7248C79.4485 31.4023 79.9322 30.3089 80.6363 29.298C81.3403 28.2872 82.709 26.7808 83.6845 25.947C84.6599 25.1132 86.4298 23.9726 87.6176 23.4101Z" fill="#FEFFFE"/>
<path d="M230.588 23.8231C231.669 23.2056 233.439 22.4937 234.521 22.2341C235.602 21.9745 236.975 21.7464 237.569 21.7307C238.163 21.711 239.492 21.8683 240.519 22.0768C241.679 22.3128 242.871 22.9106 243.665 23.65C244.448 24.3816 244.944 25.2233 244.944 25.8251C244.944 26.3639 244.633 27.3393 244.255 27.9883C243.878 28.6373 242.773 29.593 241.797 30.1161C240.822 30.6392 238.965 31.2725 237.667 31.5242C236.369 31.772 232.609 32.0984 229.309 32.244C223.756 32.4918 223.307 32.4603 223.311 31.8231C223.311 31.4455 223.736 30.4701 224.255 29.6599C224.77 28.8497 225.966 27.4534 226.91 26.5645C227.85 25.6717 229.506 24.4367 230.588 23.8231Z" fill="#FEFFFE"/>
</svg>
