<svg width="300" height="46" viewBox="0 0 300 46" fill="none" xmlns="http://www.w3.org/2000/svg">
<path fill-rule="evenodd" clip-rule="evenodd" d="M103.443 0.000235099C103.64 -0.0214731 103.706 1.45469 103.706 6.70808C103.706 11.0497 103.794 13.4376 103.925 13.4376C104.057 13.4376 104.189 13.3291 104.254 13.2206C104.32 13.112 104.89 12.743 105.504 12.4174C106.14 12.1134 107.149 11.7227 107.763 11.5707C108.355 11.3971 109.803 11.2668 110.943 11.2668C112.083 11.2668 113.618 11.4188 114.342 11.5924C115.066 11.7661 116.447 12.3088 117.412 12.7647C118.618 13.3508 119.583 14.0238 120.482 14.9138C121.206 15.6085 122.127 16.7373 122.5 17.3668C122.895 18.0181 123.487 19.2772 123.816 20.1672C124.276 21.4914 124.408 22.2946 124.496 24.4003C124.561 26.354 124.496 27.3526 124.232 28.4163C124.035 29.1978 123.465 30.6523 122.961 31.6726C122.281 33.0619 121.667 33.9085 120.504 35.059C119.386 36.1662 118.487 36.8174 117.303 37.3818C116.404 37.816 114.978 38.3153 114.123 38.5107C113.004 38.7712 111.886 38.858 109.956 38.7929C107.939 38.7277 107.018 38.5758 106.009 38.2285C105.285 37.968 104.32 37.4904 103.86 37.2082C103.421 36.9042 103.004 36.6655 102.939 36.6655C102.873 36.6655 102.829 37.0128 102.829 38.185H96.4693L96.5789 5.07996L97.1491 3.99455C97.4781 3.38672 98.1798 2.49668 98.75 1.97569C99.2982 1.4764 100.132 0.911981 100.57 0.716607C101.031 0.521233 101.798 0.282442 102.281 0.195609C102.763 0.108776 103.289 0.0219433 103.421 0.000235099H103.443ZM106.36 18.8647C106.053 19.0384 105.395 19.5594 104.868 20.0369L103.925 20.927L103.969 29.3932C105.219 30.522 106.14 31.1081 106.798 31.4338C107.851 31.9331 108.289 31.9982 110.197 31.9982C112.039 31.9982 112.544 31.9114 113.311 31.4989C113.838 31.2384 114.583 30.7391 114.956 30.3918C115.351 30.0662 115.965 29.1978 116.338 28.5032C116.908 27.3743 116.974 26.9836 116.996 25.2686C116.996 23.6188 116.908 23.1412 116.425 22.1209C116.118 21.4697 115.526 20.5579 115.11 20.1021C114.693 19.6245 113.816 18.9949 113.158 18.691C112.259 18.2786 111.535 18.1049 110.307 18.0615C109.364 18.0181 108.289 18.1266 107.785 18.2786C107.303 18.4522 106.667 18.7127 106.36 18.8647V18.8647ZM18.6404 0.195609V7.14225L10.1316 7.25079L9.32018 7.90204C8.85965 8.24937 8.28947 8.83549 8.02632 9.16111C7.63158 9.70382 7.56579 10.1163 7.45614 15.3914H15.5702V22.338H7.45614V30.5437C7.45614 35.6018 7.36842 39.227 7.21491 40.0302C7.08333 40.7466 6.77632 41.7018 6.55702 42.1576C6.33772 42.5918 5.72368 43.3733 5.19737 43.8726C4.69298 44.3719 3.77193 45.0014 3.17982 45.2619C2.56579 45.5441 1.62281 45.8046 0 46V28.0256C0 12.4174 0.0438597 9.89919 0.350877 8.77037C0.526316 8.05399 1.05263 6.79492 1.49123 5.97C1.99561 5.03655 2.80702 3.99455 3.61842 3.25647C4.34211 2.58352 5.48246 1.7586 6.14035 1.43298C6.79825 1.10736 7.82895 0.694899 8.44298 0.542941C9.21053 0.325859 10.9211 0.239026 18.6404 0.195609V0.195609ZM277.741 16.3248C279.671 16.3682 280.11 16.4551 281.36 17.0412C282.149 17.4102 283.026 17.9095 283.882 18.5825L284.868 17.9747C285.417 17.6273 286.447 17.1497 287.171 16.8675C288.246 16.4768 288.925 16.3683 290.899 16.3683C293.18 16.3683 293.399 16.4117 294.737 17.0629C295.526 17.4537 296.513 18.0398 296.93 18.3871C297.346 18.7344 298.026 19.4942 298.421 20.0804C298.816 20.6665 299.342 21.7736 299.583 22.5551C299.978 23.8359 300 24.5957 300 37.7509H294.298V31.7377C294.298 28.4163 294.189 25.312 294.079 24.8345C293.969 24.3569 293.684 23.7273 293.465 23.4234C293.246 23.1195 292.61 22.6419 292.083 22.3597C291.382 21.969 290.768 21.817 289.803 21.817C289.057 21.7953 288.07 21.969 286.513 22.5551L286.623 37.7509H280.921V31.6291C280.921 27.7651 280.833 25.1601 280.68 24.6174C280.548 24.1398 280.066 23.4017 279.627 22.9676C279.145 22.49 278.443 22.0775 277.851 21.9039C277.281 21.7519 276.382 21.6868 275.702 21.7736C275.088 21.8387 274.32 22.0341 273.443 22.4466L273.465 37.7509H267.763L267.741 18.9732L269.013 18.3871C269.715 18.0615 270.877 17.5839 271.601 17.3451C272.325 17.0846 273.509 16.7373 274.232 16.5853C275.022 16.39 276.425 16.3031 277.741 16.3248V16.3248ZM59.6491 0.195609V38.4021H52.193L52.3026 5.51413L52.8728 4.32018C53.1798 3.66893 53.8158 2.75718 54.2544 2.30131C54.693 1.86714 55.4605 1.28102 55.9649 1.02052C56.4693 0.781732 57.1491 0.477816 57.4561 0.390983C57.7632 0.30415 58.3772 0.217318 59.6491 0.195609V0.195609ZM167.325 0.195609V38.4021H159.868L159.934 22.0558C159.978 7.31591 160.022 5.64438 160.351 4.75434C160.548 4.21163 161.206 3.25647 161.776 2.60522C162.346 1.97569 163.224 1.2376 163.706 0.998814C164.189 0.760024 164.825 0.477816 165.132 0.390983C165.439 0.30415 166.053 0.217318 167.325 0.195609V0.195609ZM179.386 0.195609V38.4021H171.93L172.039 5.51413L172.522 4.47213C172.807 3.90772 173.443 2.99597 173.947 2.45327C174.474 1.88885 175.285 1.2376 175.768 0.998814C176.25 0.760024 176.886 0.477816 177.193 0.390983C177.5 0.30415 178.114 0.217318 179.386 0.195609V0.195609ZM143.421 11.2234C144.211 11.2668 145.439 11.4405 146.162 11.6141C146.886 11.7878 147.961 12.1569 148.575 12.4391C149.167 12.7213 150.219 13.3508 150.877 13.8501C151.535 14.3494 152.5 15.2611 153.004 15.8907C153.531 16.5202 154.232 17.6056 154.605 18.322C154.956 19.0384 155.439 20.406 155.702 21.3611C155.987 22.4466 156.14 23.7925 156.14 24.943C156.14 25.9633 156.075 27.1138 155.811 28.1992H135.746L135.965 28.8071C136.075 29.1327 136.557 29.8274 136.996 30.3266C137.456 30.8694 138.355 31.5423 139.035 31.8462C140.11 32.3672 140.504 32.4323 142.544 32.4323C144.561 32.4323 145 32.3672 146.053 31.8679C146.711 31.564 147.675 30.9562 149.123 29.7188L151.864 31.1299C153.377 31.9114 154.605 32.6711 154.605 32.8231C154.605 32.9533 154.211 33.6046 153.728 34.2341C153.246 34.842 152.39 35.732 151.798 36.1879C151.228 36.6437 150.219 37.2516 149.561 37.5772C148.904 37.9028 147.719 38.337 146.93 38.5541C145.855 38.8363 144.759 38.9231 142.544 38.9231C140.241 38.9014 139.189 38.7929 137.829 38.4238C136.864 38.1633 135.395 37.5772 134.539 37.143C133.684 36.6872 132.434 35.7754 131.689 35.0373C130.943 34.2993 130.022 33.0619 129.561 32.2153C129.123 31.3686 128.553 29.9142 128.289 28.959C127.982 27.7434 127.851 26.5494 127.851 24.943C127.851 23.6188 127.982 22.1209 128.18 21.3611C128.355 20.6448 128.882 19.3206 129.32 18.4305C129.89 17.28 130.592 16.3465 131.667 15.2611C132.522 14.4145 133.772 13.4376 134.43 13.0686C135.088 12.6996 136.316 12.1786 137.171 11.8964C138.026 11.6359 139.452 11.3536 140.351 11.2668C141.25 11.18 142.632 11.1583 143.421 11.2234V11.2234ZM138.092 18.9298C137.654 19.2554 137.039 19.9284 136.732 20.4494C136.447 20.9487 136.096 21.6868 135.965 22.0775L135.746 22.7722H148.465C148.465 22.0124 148.268 21.4046 148.048 20.927C147.829 20.4494 147.325 19.733 146.908 19.3206C146.491 18.9081 145.724 18.3871 145.175 18.1483C144.605 17.8878 143.553 17.6707 142.654 17.6273C141.579 17.5839 140.789 17.6707 140 17.9312C139.408 18.1483 138.531 18.5825 138.092 18.9298V18.9298ZM34.2105 11.2885C36.1184 11.2668 37.1272 11.3754 38.3772 11.7227C39.2763 11.9615 40.7675 12.5476 43.3114 13.8284L44.2982 13.3074C44.8465 13.0252 45.8114 12.7213 47.5877 12.4608V38.4021L41.5789 38.2936L41.3377 37.4252C41.2061 36.9477 41.0307 36.6437 40.9649 36.774C40.8991 36.9042 40.2193 37.295 39.4518 37.6857C38.6842 38.0548 37.2149 38.5324 36.1842 38.7494C34.8684 39.0099 33.8377 39.0751 32.6754 38.9665C31.7763 38.9014 30.4386 38.6843 29.7149 38.5107C28.9912 38.337 27.6974 37.8377 26.864 37.447C26.0088 37.0345 24.8026 36.2313 24.1447 35.6452C23.4868 35.0808 22.5 33.9085 21.9298 33.0836C21.3596 32.2153 20.6579 30.7174 20.2851 29.6103C19.693 27.8519 19.6272 27.396 19.6491 25.0515C19.6711 22.859 19.7588 22.1644 20.2412 20.7099C20.5702 19.7547 21.1842 18.3437 21.6447 17.5839C22.1053 16.8241 23.0702 15.6519 23.7939 14.9789C24.5614 14.2626 25.8114 13.4159 26.7544 12.9383C27.6535 12.5042 29.1447 11.9398 30.0439 11.7227C31.1842 11.4188 32.4561 11.2885 34.2105 11.2885V11.2885ZM30.7456 18.843C30.307 19.0818 29.5833 19.6462 29.1447 20.1021C28.7061 20.5579 28.136 21.3177 27.8947 21.7953C27.6535 22.2729 27.3465 23.2932 27.2149 24.0747C27.0175 25.095 27.0175 25.8113 27.193 26.6797C27.3246 27.3309 27.6974 28.3729 28.0482 28.959C28.3772 29.5669 29.1009 30.3701 29.6272 30.7608C30.1535 31.1733 31.0746 31.6291 31.6886 31.8028C32.2807 31.9765 33.5307 32.1067 34.4298 32.1067C35.614 32.1067 36.4035 31.9548 37.2807 31.6074C37.9386 31.3469 38.9035 30.8042 39.4079 30.4135L40.3509 29.7188V21.2526C38.9035 19.7113 37.9386 19.0167 37.2807 18.7127C36.4912 18.3654 35.5702 18.1483 34.6491 18.0832C33.8596 18.0398 32.8509 18.1049 32.3903 18.2135C31.9518 18.3437 31.2061 18.6259 30.7456 18.843V18.843ZM78.3991 11.2885C80.1535 11.2668 81.2939 11.3754 82.5658 11.701C83.5307 11.9398 85 12.5259 87.3904 13.8284L88.5965 13.264C89.2544 12.9601 90.2632 12.6344 91.886 12.4608V38.4021H85.7456L85.636 37.7509C85.5702 37.4035 85.4167 37.0562 85.307 36.9911C85.1754 36.926 84.6711 37.1213 84.1447 37.4252C83.6404 37.7292 82.6316 38.1633 81.9079 38.3804C81.1842 38.6192 79.8465 38.858 78.9474 38.9448C77.9605 39.0317 76.6447 39.0099 75.6579 38.858C74.7588 38.706 73.3772 38.3804 72.5877 38.1199C71.7982 37.8377 70.4167 37.143 69.5175 36.5569C68.5746 35.9274 67.5 34.9722 66.9518 34.2775C66.4254 33.6263 65.6579 32.3889 65.2412 31.564C64.8246 30.7391 64.3202 29.3498 64.1228 28.5249C63.8596 27.396 63.7939 26.354 63.8816 24.5088C63.9474 22.5551 64.1009 21.6651 64.5614 20.3843C64.8684 19.4942 65.4605 18.2352 65.8553 17.5839C66.2281 16.9327 67.1053 15.8473 67.7851 15.196C68.4868 14.4796 69.693 13.6113 70.7456 13.0686C71.6886 12.5693 73.2675 11.9615 74.2325 11.7227C75.4167 11.4405 76.7763 11.2885 78.3991 11.2885V11.2885ZM74.2325 19.3206C73.75 19.6245 73.0263 20.3626 72.6316 20.9487C72.2368 21.5348 71.7544 22.5551 71.557 23.2063C71.3377 23.9878 71.25 24.8779 71.3158 25.8113C71.3816 26.5928 71.6447 27.7217 71.9079 28.3078C72.1711 28.9156 72.7632 29.7622 73.2018 30.2181C73.6403 30.6523 74.4956 31.2384 75.1096 31.5206C76.0088 31.9114 76.6009 31.9982 78.5088 31.9982C80.3728 31.9982 80.9868 31.9114 81.7982 31.5423C82.3465 31.3035 83.1579 30.7825 83.5965 30.4135L84.4298 29.7188V21.1441C83.3991 19.8633 82.5439 19.2337 81.7325 18.843C80.7456 18.3654 79.9561 18.1483 78.8377 18.0832C77.7193 18.0181 76.9956 18.0832 76.2061 18.3654C75.5921 18.5825 74.693 19.0167 74.2325 19.3206V19.3206ZM198.531 11.2885C199.868 11.2668 201.513 11.3971 202.368 11.5924C203.18 11.7661 204.671 12.3522 207.566 13.8284L208.772 13.264C209.43 12.9601 210.439 12.6344 212.061 12.4608V38.4021H206.031L205.482 36.6655L204.671 37.2082C204.211 37.5121 203.289 37.968 202.632 38.2067C201.974 38.4455 200.636 38.7494 199.671 38.8797C198.421 39.0534 197.412 39.0534 196.162 38.9014C195.197 38.7712 193.662 38.4021 192.763 38.0982C191.864 37.7943 190.439 37.0779 189.605 36.5135C188.75 35.9274 187.654 34.9288 187.127 34.2775C186.601 33.6263 185.833 32.3889 185.417 31.564C185 30.7391 184.518 29.4149 184.342 28.6334C184.145 27.8519 183.991 26.2889 183.991 25.1601C183.991 24.0096 184.145 22.4683 184.342 21.6868C184.539 20.9053 185.088 19.4508 185.592 18.4305C186.228 17.1715 186.93 16.1946 187.829 15.2828C188.662 14.4362 189.781 13.6547 190.899 13.0686C191.864 12.5693 193.443 11.9615 194.408 11.7227C195.57 11.4405 196.952 11.2885 198.531 11.2885V11.2885ZM194.737 19.1469C193.947 19.6028 193.268 20.2323 192.807 20.927C192.412 21.5348 191.93 22.5551 191.732 23.2063C191.513 24.0096 191.425 24.8996 191.491 25.9199C191.557 26.9619 191.776 27.7868 192.149 28.5249C192.456 29.1327 193.114 29.9793 193.618 30.4352C194.101 30.8694 194.89 31.4121 195.351 31.6074C195.943 31.8679 196.82 31.9765 198.575 31.9765C200.57 31.9982 201.162 31.9114 201.974 31.5423C202.522 31.3035 203.333 30.7825 203.794 30.4135L204.605 29.7188V21.0355C203.158 19.6245 202.193 18.9732 201.535 18.6693C200.789 18.3437 199.825 18.1266 199.013 18.0832C198.289 18.0398 197.303 18.1049 196.82 18.2135C196.338 18.3437 195.395 18.7562 194.737 19.1469V19.1469ZM233.114 16.2814C234.32 16.2597 235.592 16.4117 236.732 16.6939C237.697 16.9544 239.101 17.4754 239.868 17.8878C240.614 18.3003 241.228 18.7779 241.228 18.9298C241.228 19.0601 240.614 20.1238 239.868 21.2526C239.145 22.3814 238.509 23.3583 238.465 23.4234C238.421 23.4886 237.807 23.2281 237.127 22.8373C236.425 22.4683 235.219 22.0341 234.43 21.8821C233.268 21.6651 232.807 21.6651 232.018 21.8821C231.469 22.0341 230.68 22.4249 230.241 22.7505C229.803 23.0544 229.189 23.6622 228.882 24.0747C228.596 24.4871 228.268 25.0733 228.18 25.3772C228.092 25.6811 227.939 26.0501 227.829 26.2021C227.675 26.3975 227.456 26.3323 226.93 25.8982C226.535 25.5725 225.746 25.095 225.175 24.8128C224.583 24.5305 223.728 24.2266 223.246 24.1398C222.763 24.0313 222.368 23.8359 222.368 23.7056C222.368 23.5537 222.675 22.8156 223.07 22.0775C223.443 21.3177 224.298 20.1672 224.978 19.4942C225.658 18.8213 226.82 17.9747 227.588 17.6056C228.333 17.2149 229.474 16.7807 230.11 16.607C230.724 16.4334 232.083 16.2814 233.114 16.2814V16.2814ZM253.728 16.2814C254.759 16.2597 256.184 16.4117 256.908 16.5853C257.632 16.7807 258.772 17.1932 259.43 17.4971C260.11 17.8227 261.206 18.6476 261.952 19.3857C262.675 20.1238 263.531 21.2092 263.86 21.7953C264.189 22.4031 264.605 23.4668 264.781 24.1832C264.978 24.8996 265.132 26.3106 265.132 27.3309C265.132 28.3946 264.978 29.6971 264.781 30.3701C264.583 31.0213 264.123 32.1284 263.75 32.8448C263.355 33.5395 262.5 34.6249 261.842 35.2544C261.118 35.9274 259.978 36.7089 258.991 37.1865C257.873 37.7075 256.776 38.0331 255.592 38.2067C254.32 38.3804 253.399 38.3804 252.259 38.2067C251.382 38.0765 250.088 37.7509 249.408 37.4904C248.706 37.2299 247.544 36.5786 246.842 36.0359C246.118 35.4932 245.11 34.4295 244.583 33.6914C244.057 32.9316 243.421 31.6291 243.158 30.7608C242.785 29.5452 242.675 28.6985 242.675 27.1138C242.697 25.7462 242.851 24.6174 243.136 23.7491C243.355 23.0327 243.86 21.969 244.232 21.3611C244.605 20.775 245.439 19.7764 246.096 19.1686C246.732 18.5608 247.785 17.801 248.421 17.4971C249.035 17.1715 250.088 16.7807 250.724 16.607C251.338 16.4334 252.697 16.2814 253.728 16.2814V16.2814ZM251.382 22.3814C251.053 22.5551 250.417 23.0978 250 23.5754C249.583 24.053 249.101 24.8345 248.969 25.2903C248.816 25.7462 248.684 26.7014 248.684 27.396C248.684 28.069 248.838 29.0024 249.035 29.4583C249.211 29.8925 249.627 30.5871 249.956 30.9996C250.285 31.4121 251.053 31.9765 251.645 32.2587C252.346 32.5626 253.158 32.758 253.904 32.758C254.518 32.758 255.373 32.6277 255.768 32.4758C256.14 32.3021 256.842 31.8462 257.325 31.4338C257.785 31.0213 258.377 30.3049 258.618 29.8274C258.86 29.3498 259.101 28.4163 259.167 27.7651C259.232 26.9402 259.145 26.2021 258.882 25.3772C258.618 24.6174 258.158 23.8793 257.588 23.2932C257.061 22.7722 256.25 22.2729 255.592 22.0558C255 21.8387 254.211 21.6868 253.838 21.7085C253.465 21.7085 252.917 21.7953 252.588 21.8821C252.259 21.9907 251.711 22.2078 251.382 22.3814V22.3814ZM221.228 27.7651C221.974 27.7651 222.961 27.917 223.421 28.1124C223.86 28.2861 224.561 28.7419 224.978 29.1327C225.373 29.5234 225.899 30.2181 226.118 30.6957C226.382 31.2384 226.535 32.0633 226.535 32.8665C226.535 33.6697 226.382 34.4946 226.118 35.0373C225.899 35.5149 225.373 36.2096 224.978 36.6003C224.561 36.9911 223.86 37.447 223.421 37.6206C222.961 37.816 221.974 37.968 221.228 37.968C220.197 37.968 219.583 37.8377 218.86 37.4687C218.311 37.1865 217.566 36.5786 217.193 36.101C216.842 35.6452 216.404 34.7117 216.25 34.0605C216.009 33.127 216.009 32.6277 216.184 31.7811C216.338 31.195 216.732 30.2832 217.083 29.7839C217.456 29.2195 218.136 28.6551 218.772 28.3295C219.561 27.917 220.197 27.7868 221.228 27.7651V27.7651ZM238.487 31.0647C238.596 31.043 239.364 31.9765 241.667 35.2544L241.075 35.7537C240.724 36.0359 239.912 36.5352 239.254 36.8825C238.596 37.2082 237.456 37.664 236.732 37.8811C235.899 38.1199 234.671 38.2719 233.443 38.2719C232.346 38.2719 230.943 38.1633 230.329 38.0114C229.693 37.8811 229.167 37.6857 229.167 37.5989C229.167 37.4904 229.408 36.8391 229.693 36.1227C229.978 35.4064 230.285 34.2124 230.351 33.4743C230.417 32.7146 230.526 32.1067 230.592 32.1067C230.658 32.1067 231.031 32.2587 231.425 32.4541C231.93 32.7146 232.522 32.8014 233.662 32.7146C234.868 32.6494 235.526 32.4758 236.732 31.8679C237.566 31.4338 238.377 31.0864 238.487 31.0647Z" fill="#FF6C0E"/>
</svg>
