<svg width="300" height="63" viewBox="0 0 300 63" fill="none" xmlns="http://www.w3.org/2000/svg">
<path d="M277.537 35.5756C275.194 26.8695 273.279 19.6569 273.279 19.5466C273.279 19.3915 274.274 19.3467 282.159 19.3467L284.399 30.3727C285.631 36.4374 286.682 41.2757 286.733 41.1254C286.786 40.9751 287.866 36.0121 291.439 19.3435L295.718 19.3451C299.686 19.3467 299.998 19.3675 300 19.6265C300.001 19.78 297.283 29.6021 287.919 63L278.479 62.9872L281.797 51.4047L277.537 35.5756Z" fill="#FF6C0E"/>
<path d="M0.102396 38.9333L0.0511981 19.4667L0 0H53.4204L53.3564 39.0932L52.9884 40.6921C52.7852 41.5715 52.4028 42.9386 52.1389 43.73C51.8749 44.5215 51.3133 45.8885 50.8925 46.7679C50.4717 47.6473 49.6013 49.1583 48.9582 50.1256C48.107 51.4079 47.203 52.4728 45.6191 54.0573C43.9984 55.6786 43.0032 56.5212 41.688 57.3815C40.7201 58.0162 39.2801 58.8508 38.4882 59.2378C37.6962 59.6247 36.293 60.1923 35.3683 60.5009C34.4435 60.8079 32.9332 61.2236 32.0084 61.4235C30.5413 61.7417 29.8725 61.7864 26.7286 61.7864C23.5847 61.7864 22.9159 61.7417 21.4488 61.4235C20.524 61.2236 19.0137 60.8079 18.0889 60.4993C17.1642 60.1907 15.5098 59.476 14.4091 58.91C13.3099 58.344 11.7244 57.3719 10.8892 56.7499C10.0524 56.1263 8.73407 54.9927 7.9565 54.23C7.17893 53.4673 5.97258 52.0875 5.275 51.1649C4.57903 50.2423 3.54547 48.5875 2.97909 47.4874C2.41271 46.389 1.69754 44.7325 1.38875 43.81C1.07996 42.8874 0.663975 41.4116 0.102396 38.9333Z" fill="#FF6C0E"/>
<path fill-rule="evenodd" clip-rule="evenodd" d="M80.1664 5.45864C80.7376 5.44744 81.8015 5.49221 83.8494 5.67609L83.8462 11.3522L83.0863 11.3506C82.6687 11.349 81.9487 11.4577 81.4863 11.5904C80.9392 11.7471 80.5072 11.9997 80.2464 12.3115C80.0272 12.5754 79.7744 13.0614 79.688 13.3908C79.6 13.7202 79.528 15.196 79.5264 19.3467H83.5263V24.9429H79.5264V51.1649H70.4068V24.9429H66.5669V19.3467H70.5667L70.4755 17.5479C70.426 16.5582 70.4595 14.7051 70.5507 13.4308C70.6499 12.0541 70.8435 10.6902 71.0291 10.0731C71.2019 9.50066 71.5859 8.7108 71.8835 8.31428C72.1811 7.91775 72.7443 7.35493 73.1362 7.06393C73.5298 6.76974 74.4178 6.35402 75.1266 6.13497C75.8305 5.91752 77.0177 5.68088 77.7665 5.60893C78.5152 5.53858 79.5952 5.46983 80.1664 5.45864ZM242.4 5.75603H251.36V12.9511H242.4V5.75603ZM267.599 10.4296L267.679 19.3467H272.319V24.9429H267.679L267.719 34.4963C267.756 43.2439 267.783 44.0929 268.039 44.5694C268.193 44.8556 268.515 45.2154 268.751 45.3689C269.086 45.5847 269.527 45.6487 272.159 45.6487V48.4068C272.159 50.8899 272.132 51.1745 271.879 51.2624C271.726 51.3152 270.303 51.3935 268.719 51.4383C266.435 51.5007 265.591 51.4639 264.639 51.2576C263.979 51.1153 263.062 50.8211 262.6 50.6021C262.137 50.3846 261.356 49.8282 260.862 49.3661C260.368 48.904 259.792 48.1845 259.582 47.7672C259.372 47.3499 259.091 46.5936 258.958 46.0884C258.757 45.3161 258.718 43.5477 258.72 24.9429H255.2V19.3467H258.72L258.8 14.3581L267.599 10.4296ZM98.5657 18.7327C98.8729 18.7231 100.026 18.7791 101.126 18.859C102.225 18.9374 103.774 19.1548 104.565 19.3403C105.357 19.5274 106.546 19.9399 107.205 20.2597C107.94 20.613 108.722 21.1535 109.22 21.6507C109.668 22.0984 110.234 22.8595 110.479 23.3424C110.724 23.8268 111.072 24.7622 111.252 25.4209C111.56 26.553 111.586 27.2629 111.708 37.9723C111.78 44.2161 111.876 49.7387 112.005 51.1633H103.686L103.593 50.084C103.543 49.4908 103.452 48.5747 103.286 47.0941L102.726 47.9559C102.418 48.4292 101.769 49.1743 101.286 49.6124C100.802 50.0489 99.9912 50.6117 99.4857 50.8643C98.9801 51.1169 98.1161 51.4303 97.5657 51.5614C97.0154 51.6925 95.9002 51.7997 95.0858 51.8013C94.2715 51.8029 93.2283 51.7245 92.7659 51.627C92.3035 51.5294 91.494 51.248 90.966 51.0002C90.3596 50.7156 89.6764 50.2071 89.1101 49.6172C88.6173 49.1055 88.0317 48.3252 87.8077 47.8855C87.5837 47.4458 87.2301 46.5473 87.0237 45.8869C86.6845 44.8093 86.6461 44.3919 86.6461 41.7298C86.6461 39.0772 86.6845 38.6487 87.0205 37.5726C87.2269 36.9139 87.5981 36.0137 87.8461 35.574C88.0941 35.1343 88.5725 34.4867 88.9117 34.1334C89.2492 33.78 89.886 33.2444 90.326 32.9438C90.766 32.6416 91.558 32.2211 92.0859 32.0068C92.6139 31.7942 93.6939 31.4776 94.4859 31.3049C95.5642 31.0699 96.8106 30.9691 102.966 30.8156L102.846 28.7179C102.78 27.5651 102.655 26.3515 102.566 26.0205C102.478 25.6912 102.172 25.1651 101.886 24.8533C101.599 24.5399 101.113 24.2042 100.806 24.105C100.498 24.0075 99.8137 23.926 99.2857 23.9228C98.5929 23.9212 98.1481 24.0187 97.6857 24.2713C97.3337 24.4648 96.8858 24.8933 96.6922 25.2227C96.4858 25.5712 96.2698 26.3211 96.177 27.0198C96.0874 27.6802 96.0138 28.3453 96.0106 28.4988C96.0058 28.7595 95.6874 28.7786 87.2061 28.7786L87.3053 27.4595C87.3613 26.7352 87.5069 25.7455 87.6285 25.2611C87.7517 24.7782 88.0621 23.95 88.3181 23.4223C88.5997 22.8387 89.1469 22.1128 89.7132 21.5692C90.2268 21.0767 91.0956 20.4468 91.646 20.1701C92.1963 19.8919 93.1675 19.521 93.8059 19.3451C94.4443 19.1676 95.649 18.963 96.4858 18.8862C97.3225 18.8111 98.2585 18.7423 98.5657 18.7327V18.7327ZM97.6457 36.5237C97.2265 36.6788 96.7514 37.0338 96.4058 37.4527C96.065 37.8684 95.7466 38.5064 95.5898 39.0916C95.4058 39.7807 95.3498 40.5466 95.3914 41.8097C95.441 43.3798 95.4986 43.6724 95.9274 44.5278C96.313 45.3033 96.545 45.5591 97.1258 45.8597C97.7337 46.1731 98.0073 46.2179 98.8857 46.1475C99.6521 46.0852 100.11 45.9461 100.628 45.6151C101.068 45.3369 101.5 44.8684 101.78 44.368C102.028 43.9283 102.346 43.1368 102.49 42.6092C102.671 41.9408 102.764 40.7912 102.799 38.8118L102.85 35.9737C100.708 36.0057 99.6889 36.0728 99.2057 36.1448C98.7225 36.2167 98.0201 36.3862 97.6457 36.5237V36.5237ZM133.764 18.7056V26.86H132.404C131.657 26.86 130.667 26.9415 130.205 27.0406C129.742 27.1398 129.041 27.3812 128.645 27.5779C128.248 27.7745 127.616 28.2878 127.24 28.7179C126.862 29.1464 126.432 29.8227 126.281 30.2177C126.037 30.8636 126.005 31.9733 125.925 51.1633H116.805V19.3451H125.445L125.437 23.2624L126.049 22.3031C126.387 21.7754 126.984 21.0687 127.374 20.7298C127.765 20.3924 128.408 19.9511 128.805 19.748C129.201 19.5466 129.848 19.2923 130.245 19.1868C130.641 19.0797 131.432 18.9374 132.004 18.8702C132.577 18.8031 133.206 18.7391 133.764 18.7056V18.7056ZM153.244 18.7263C153.442 18.7151 154.162 18.7807 154.844 18.8702C155.714 18.987 156.464 19.2204 157.364 19.6569C158.245 20.0838 158.896 20.5427 159.453 21.1311C159.899 21.5996 160.344 22.1272 160.443 22.3031C160.61 22.6021 160.695 22.5509 161.712 21.5372C162.36 20.8929 163.226 20.2325 163.843 19.9127C164.416 19.6153 165.35 19.2508 165.923 19.1005C166.589 18.9246 167.597 18.8239 168.723 18.8191C169.96 18.8143 170.768 18.8958 171.443 19.0957C171.971 19.2524 172.798 19.5786 173.283 19.8216C173.768 20.0646 174.505 20.5971 174.923 21.0048C175.36 21.4285 175.904 22.204 176.723 23.902L176.803 51.1633H167.843L167.803 39.0516C167.763 27.1749 167.757 26.9271 167.43 26.2204C167.248 25.8255 166.87 25.3042 166.59 25.0612C166.312 24.8198 165.885 24.5767 165.643 24.5208C165.402 24.4648 164.771 24.4488 164.243 24.484C163.619 24.5256 163.115 24.6647 162.803 24.8789C162.539 25.0612 162.143 25.5632 161.523 26.78L161.443 51.1633H152.484L152.404 26.772L151.994 25.9774C151.717 25.4401 151.38 25.066 150.954 24.8246C150.487 24.5591 150.055 24.4664 149.284 24.46C148.455 24.4552 148.13 24.5288 147.684 24.8246C147.377 25.0292 146.961 25.4449 146.762 25.7487C146.562 26.0525 146.329 26.6425 146.242 27.0598C146.146 27.5203 146.084 32.4225 146.084 51.1633H137.124V19.3451H146.084L146.164 22.439L146.644 21.7435C146.908 21.3597 147.556 20.733 148.084 20.3476C148.612 19.9623 149.421 19.5082 149.884 19.3371C150.346 19.166 151.21 18.963 151.804 18.8862C152.397 18.8095 153.045 18.7375 153.244 18.7263ZM195.602 18.8127C196.658 18.8542 198.17 18.9886 198.962 19.1117C199.754 19.2348 200.797 19.4714 201.282 19.6377C201.767 19.804 202.557 20.1414 203.042 20.3876C203.527 20.6338 204.282 21.1743 204.722 21.59C205.162 22.0041 205.749 22.7668 206.027 23.2832C206.306 23.7997 206.659 24.6535 206.813 25.1811C207.061 26.0365 207.102 27.3716 207.195 37.4127C207.253 43.6133 207.344 48.7937 207.398 48.9248C207.451 49.0575 207.536 49.6156 207.682 51.1633L199.282 51.1665L199.151 49.526C199.079 48.6242 198.983 47.7065 198.938 47.4858C198.86 47.1069 198.834 47.1229 198.42 47.8056C198.178 48.2021 197.591 48.9088 197.112 49.3773C196.634 49.8458 195.917 50.415 195.522 50.6421C195.127 50.8691 194.407 51.1953 193.922 51.3648C193.34 51.5694 192.421 51.7021 191.202 51.7581C190.101 51.8092 189.009 51.7709 188.482 51.6622C187.998 51.5614 187.153 51.2656 186.602 51.0018C186.052 50.7396 185.218 50.1464 184.748 49.6843C184.271 49.2174 183.662 48.386 183.369 47.8056C183.079 47.2348 182.699 46.2275 182.519 45.5671C182.262 44.6126 182.195 43.8483 182.185 41.8097C182.175 39.8846 182.241 38.9749 182.451 38.1322C182.603 37.5167 182.935 36.5813 183.19 36.0537C183.443 35.526 184.009 34.6994 184.447 34.2149C184.886 33.732 185.702 33.0637 186.263 32.7327C186.823 32.4002 187.822 31.9573 188.482 31.7462C189.142 31.5368 190.437 31.2521 191.362 31.113C192.375 30.9611 194.106 30.8604 198.402 30.8572L198.36 28.5788C198.322 26.521 198.279 26.2236 197.92 25.5009C197.637 24.9349 197.336 24.6007 196.882 24.3545C196.53 24.1626 195.936 23.9643 195.562 23.9148C195.188 23.8636 194.505 23.9084 194.042 24.0123C193.58 24.1178 193.021 24.3577 192.802 24.5463C192.581 24.735 192.269 25.2067 192.106 25.5952C191.943 25.9838 191.762 26.8584 191.602 28.7818L182.883 28.7786L182.886 27.7793C182.887 27.2309 182.996 26.2764 183.127 25.6608C183.259 25.0452 183.588 24.0747 183.86 23.5023C184.178 22.8307 184.687 22.1384 185.298 21.5436C185.897 20.9616 186.668 20.4228 187.402 20.0726C188.041 19.7688 189.066 19.4027 189.682 19.2572C190.298 19.1133 191.45 18.9358 192.242 18.8654C193.034 18.7951 194.546 18.7711 195.602 18.8127V18.8127ZM192.969 36.706C192.489 36.9299 191.972 37.3072 191.82 37.5438C191.669 37.7789 191.42 38.2969 191.268 38.6918C191.066 39.2147 190.986 39.9166 190.977 41.2501C190.969 42.3086 191.049 43.3958 191.167 43.8083C191.279 44.2049 191.604 44.8108 191.887 45.1562C192.17 45.5016 192.636 45.8789 192.922 45.9956C193.209 46.1124 193.748 46.2067 194.122 46.2051C194.497 46.2035 195.08 46.114 195.42 46.0052C195.76 45.8965 196.293 45.5911 196.604 45.3273C196.914 45.0635 197.332 44.5246 197.53 44.1281C197.728 43.7332 198.005 42.8522 198.146 42.1695C198.316 41.346 198.402 40.1021 198.402 38.452V35.9737C196.232 36.0025 195.207 36.076 194.722 36.156C194.237 36.2343 193.449 36.4822 192.969 36.706V36.706ZM224.081 18.7295C224.345 18.7183 225.371 18.7807 226.361 18.867C227.351 18.955 228.647 19.1421 229.241 19.2828C229.834 19.4251 230.986 19.8568 231.801 20.2421C232.916 20.7713 233.529 21.1902 234.289 21.9433C235.009 22.6564 235.492 23.3328 235.975 24.3017C236.413 25.1843 236.761 26.1948 236.964 27.1797C237.135 28.016 237.277 29.1848 237.281 30.8572L228.401 30.8604L228.284 29.4598C228.222 28.6891 228.063 27.6994 227.932 27.2597C227.802 26.82 227.53 26.2092 227.327 25.9006C227.124 25.5936 226.635 25.1795 226.239 24.9812C225.71 24.7142 225.247 24.6199 224.481 24.6231C223.729 24.6263 223.243 24.7254 222.727 24.9844C222.257 25.2195 221.86 25.5872 221.566 26.0605C221.32 26.457 220.993 27.3204 220.84 27.9792C220.603 28.9977 220.561 30.0162 220.561 34.6946C220.561 38.5112 220.627 40.6297 220.776 41.5699C220.892 42.3182 221.129 43.3255 221.3 43.8083C221.472 44.2928 221.771 44.8604 221.966 45.0699C222.161 45.2793 222.609 45.5831 222.961 45.7446C223.313 45.9077 223.889 46.042 224.241 46.0436C224.593 46.0452 225.151 45.9749 225.481 45.8869C225.823 45.7958 226.377 45.436 226.771 45.0475C227.202 44.6238 227.593 44.0226 227.81 43.4486C228.004 42.9433 228.25 41.8097 228.561 39.3298H237.521L237.404 40.8903C237.34 41.7473 237.141 43.0441 236.964 43.7684C236.786 44.4943 236.42 45.5384 236.148 46.0868C235.877 46.6368 235.391 47.4347 235.068 47.86C234.745 48.2853 234.049 48.9616 233.521 49.3629C232.993 49.7643 232.111 50.2967 231.561 50.5477C231.01 50.7987 229.93 51.1649 229.161 51.3616C227.935 51.6749 227.351 51.7181 224.481 51.7181C221.587 51.7181 221.032 51.6765 219.761 51.352C218.969 51.1505 217.752 50.6836 217.056 50.3159C216.161 49.841 215.493 49.3277 214.776 48.5651C214.129 47.8775 213.561 47.0653 213.211 46.3266C212.909 45.6902 212.512 44.6286 212.329 43.9682C212.147 43.3095 211.891 41.96 211.76 40.9703C211.603 39.7855 211.521 37.7949 211.521 35.1343C211.521 32.915 211.597 30.4863 211.688 29.738C211.781 28.9913 211.998 27.7681 212.174 27.0198C212.35 26.2732 212.779 25.0676 213.128 24.3417C213.603 23.352 214.04 22.7444 214.881 21.9034C215.733 21.0527 216.318 20.6354 217.321 20.1606C218.048 19.8168 219.145 19.4139 219.761 19.2636C220.377 19.1149 221.494 18.9374 222.241 18.8718C222.988 18.8047 223.817 18.7407 224.081 18.7295V18.7295ZM242.4 19.3451H251.36V51.1633H242.4V19.3451Z" fill="#FF6C0E"/>
<path d="M22.8886 22.8644V14.3102V5.7561H30.7283V22.8644H47.0477V30.3792H30.7283V47.6474H22.8886V30.3792H6.40918V22.8644H22.8886Z" fill="white"/>
</svg>
