<svg width="300" height="64" viewBox="0 0 300 64" fill="none" xmlns="http://www.w3.org/2000/svg">
<path fill-rule="evenodd" clip-rule="evenodd" d="M32.4955 0C35.2341 0 38.9648 0.159105 40.8302 0.357986C42.6956 0.596644 45.3548 1.07396 46.7836 1.47172C49.1649 2.10814 49.3634 2.22747 49.4824 3.34121C49.5618 4.0174 49.3237 6.04599 48.8871 7.8757C48.4902 9.70541 48.0536 11.2567 47.8949 11.3362C47.6964 11.4158 46.1882 11.1374 44.4816 10.7396C42.8147 10.3021 39.7983 9.74518 37.8535 9.46675C35.7897 9.18832 32.7733 9.10876 30.7095 9.26787C28.725 9.3872 26.1453 9.78496 24.9546 10.1032C23.7639 10.4214 21.7795 11.1771 20.5888 11.7738C19.3981 12.3704 17.493 13.7626 16.3817 14.8763C15.2704 15.9901 13.8416 17.9789 13.1272 19.4506C12.4525 20.8825 11.5794 23.1896 11.2222 24.6215C10.7856 26.3319 10.5474 28.7582 10.5474 31.7812C10.5871 34.6053 10.8253 37.4295 11.2222 39.1398C11.619 40.6513 12.4525 43.0777 13.1669 44.5096C13.8813 45.9018 15.3101 47.9702 16.4214 49.0839C17.493 50.1976 19.5569 51.6694 20.9857 52.3853C22.4145 53.1013 24.9149 53.9764 26.5421 54.3344C28.8044 54.8117 30.5904 54.8912 33.8846 54.7321C36.3057 54.573 38.6473 54.3741 40.0364 54.0559V28.9969H50.3556L50.1572 61.0168L46.982 61.9316C45.2357 62.409 42.1796 63.0851 40.2349 63.4034C38.2901 63.7216 34.4006 64 31.5827 64C28.8044 64 25.2721 63.7613 23.6448 63.4431C22.097 63.1249 19.7156 62.4885 18.4059 62.0112C17.0961 61.5736 15.0323 60.619 13.8416 59.9428C12.651 59.2666 10.2299 57.238 8.48361 55.4879C6.30071 53.3002 4.79252 51.3512 3.83998 49.4817C3.0462 47.9702 1.89522 45.0665 1.33957 43.1175C0.426722 40.1342 0.228276 38.5432 0.0695199 33.3723C-0.0892365 28.2411 -0.00985834 26.5705 0.664856 23.4282C1.10144 21.3599 1.9746 18.2971 2.689 16.6663C3.36371 15.0354 4.79252 12.5295 5.86413 11.0976C6.89604 9.66563 8.92019 7.63704 10.3093 6.56308C11.6984 5.5289 13.8416 4.13673 15.0323 3.54009C16.223 2.94344 18.2074 2.14792 19.3981 1.75016C20.5888 1.35239 22.9304 0.795525 24.5577 0.556868C26.1849 0.278434 29.757 0.0397763 32.4955 0V0ZM294.84 0.755749H300V6.32443H294.84V0.755749ZM294.84 10.6998H300V16.2685H294.84V10.6998ZM294.84 20.6439H300V25.8148H294.84V20.6439ZM117.827 0.755749V17.4618H133.107L132.79 21.3201C132.591 23.468 132.393 25.3375 132.274 25.4966C132.195 25.6955 128.9 25.8148 117.827 25.8148L117.906 38.225C118.026 50.1579 118.065 50.7545 118.859 52.0671C119.335 52.8229 120.407 53.8173 121.24 54.2548C122.431 54.8117 123.503 55.0106 125.765 54.9708C127.392 54.931 129.575 54.6128 130.607 54.2946C131.679 53.9366 132.591 53.7775 132.671 53.9764C132.79 54.1355 132.591 56.0447 132.314 58.2324C131.996 60.4997 131.52 62.3294 131.242 62.4885C130.964 62.6476 129.734 63.0056 128.543 63.2443C127.352 63.4829 124.415 63.6022 121.994 63.5227C118.184 63.4034 117.311 63.2443 115.089 62.2101C113.699 61.5339 111.953 60.3406 111.239 59.5451C110.485 58.7098 109.492 57.1983 108.103 54.2548L107.905 1.98881L109.413 1.59105C110.207 1.39217 111.318 1.11374 111.874 1.03418C112.429 0.95463 113.977 0.835301 117.827 0.755749V0.755749ZM245.229 0.755749V17.4618H260.708L260.509 19.729C260.39 21.0019 260.192 22.8713 259.914 25.8148H245.229V36.7533C245.229 42.7595 245.388 48.527 245.626 49.5612C245.824 50.6352 246.38 51.9478 246.817 52.5444C247.253 53.1809 248.206 53.9366 248.88 54.3344C249.714 54.7321 251.143 54.9708 252.77 54.9708C254.199 54.9708 256.382 54.7321 257.612 54.4139C258.842 54.0957 260.033 54.0162 260.192 54.1753C260.351 54.3344 260.271 56.1243 259.954 58.1529C259.676 60.1815 259.279 61.9714 259.12 62.2101C258.961 62.4487 257.771 62.8465 256.501 63.1647C254.993 63.4829 252.572 63.642 249.595 63.5227C245.467 63.4034 244.792 63.2443 242.451 62.1305C240.731 61.3085 239.408 60.3273 238.482 59.1871C237.728 58.2324 236.736 56.5221 236.299 55.4481C235.545 53.5388 235.505 52.5444 235.346 1.98881L236.22 1.75016C236.696 1.63083 237.887 1.39217 238.879 1.19329C239.871 0.994406 241.697 0.835301 245.229 0.755749V0.755749ZM274.996 0.755749H280.552V6.32443H274.996V0.755749ZM284.918 0.755749H290.078V6.32443H284.918V0.755749ZM274.996 10.6998H280.552V16.2685H274.996V10.6998ZM284.918 10.6998H290.078V16.2685H284.918V10.6998ZM80.9162 16.0298C84.4088 16.1094 86.5124 16.3878 88.0602 16.9049C89.2509 17.3027 91.3147 18.3766 92.5848 19.2517C94.0533 20.2461 95.5615 21.7178 96.5537 23.2293C97.4666 24.542 98.5382 26.6103 98.8954 27.8036C99.2923 28.9969 99.7685 31.4232 100.007 33.1734C100.205 34.9633 100.245 37.9068 99.7685 43.5152L69.0095 43.7141L69.2476 45.1858C69.3667 46.0211 69.8429 47.4133 70.2795 48.2884C70.7161 49.1635 71.629 50.4761 72.3434 51.192C73.0181 51.9478 74.4072 52.982 75.4391 53.4991C76.5107 54.0162 78.5746 54.6128 80.1224 54.8515C82.0275 55.1299 84.131 55.1299 86.7505 54.8117C88.9334 54.573 92.3467 53.8571 94.5296 53.1411C96.6728 52.4251 98.4985 51.9478 98.5779 52.0671C98.6572 52.1865 98.3794 54.215 97.9428 56.6414C97.5459 59.0677 97.149 61.0168 97.1094 61.0566C97.03 61.0566 96.2759 61.3748 95.4027 61.693C94.5296 62.051 92.426 62.6078 90.7194 62.9658C88.8937 63.3636 85.7583 63.6022 82.7816 63.6022C80.043 63.6022 76.7092 63.3238 75.1613 63.0056C73.6134 62.6874 71.2321 61.8521 69.8033 61.1361C68.2157 60.3804 66.2709 58.9484 64.8024 57.4767C63.2546 55.9254 61.9448 54.0957 61.151 52.4649C60.516 51.0329 59.6825 48.4873 59.3253 46.7769C58.9681 45.1063 58.6903 41.7651 58.6903 39.3387C58.6903 36.9124 58.9681 33.6507 59.2857 32.0597C59.6032 30.5084 60.516 27.8832 61.2701 26.2921C62.1036 24.5817 63.453 22.6327 64.6437 21.4394C65.7153 20.3257 67.6997 18.9335 69.0095 18.2573C70.3192 17.5811 72.4227 16.7856 73.6531 16.4674C75.2804 16.0696 77.4633 15.9503 80.9162 16.0298V16.0298ZM72.0655 27.2865C71.2321 28.1218 70.2398 29.6731 69.8429 30.7868C69.4461 31.8608 69.0095 33.3723 68.8507 34.0485L68.6126 35.3611H90.2431C89.7669 32.4177 89.2112 30.6277 88.6556 29.4742C88.0206 28.1218 87.068 27.0081 85.9567 26.2126C85.0439 25.5364 83.4563 24.8204 82.3847 24.6215C81.3528 24.3828 79.924 24.2237 79.2096 24.2237C78.5349 24.2635 76.9473 24.5817 75.7566 25.0193C74.4866 25.4568 72.9784 26.4114 72.0655 27.2865ZM158.905 16.0696C163.231 16.1492 166.01 16.4276 167.637 16.8651C168.947 17.2231 170.693 17.8993 171.487 18.2971C172.32 18.6948 173.749 19.729 174.662 20.6041C175.654 21.4792 176.845 23.1896 178.75 27.207L178.948 62.8067H169.026V47.5724C169.026 35.1224 168.947 32.0199 168.431 30.3891C168.113 29.2753 167.28 27.8434 166.526 27.0876C165.771 26.3319 164.462 25.5364 163.271 25.1784C162.12 24.8602 159.659 24.6215 157.516 24.6215C155.452 24.6215 152.912 24.7408 149.975 25.2181V62.8067H139.656V40.532C139.656 19.6495 139.696 18.2573 140.331 18.0982C140.728 17.9789 142.117 17.7004 143.427 17.422C144.736 17.1833 147.316 16.706 149.181 16.4276C151.325 16.1094 154.897 15.9503 158.905 16.0696V16.0696ZM207.524 15.9105C209.668 15.9105 212.406 16.1492 213.875 16.5071C215.303 16.8254 217.526 17.7004 218.796 18.3766C220.106 19.0926 221.932 20.5246 222.884 21.6383C223.876 22.7122 225.067 24.5022 225.623 25.6159C226.139 26.6899 226.853 28.8776 227.171 30.3891C227.488 31.9006 227.766 34.6053 227.766 36.3555C227.766 38.1057 227.607 40.4922 227.171 43.7141H196.411L196.65 44.7881C196.808 45.4245 197.364 46.9758 197.959 48.2486C198.515 49.5214 199.626 51.1523 200.38 51.7887C201.134 52.4649 202.484 53.34 203.357 53.698C204.23 54.0957 206.175 54.6128 207.723 54.8117C209.509 55.0901 211.771 55.0901 214.073 54.8515C216.058 54.6526 219.153 54.0162 221.019 53.4593C222.884 52.9024 224.829 52.3058 225.345 52.1467C226.258 51.8682 226.258 51.908 225.98 54.0559C225.821 55.2492 225.504 57.3176 224.789 61.0168L221.416 62.1703C218.399 63.2045 217.367 63.3636 211.89 63.5227C206.651 63.6818 205.262 63.5625 202.563 62.926C200.817 62.4885 198.317 61.6134 197.007 60.977C195.697 60.3406 193.633 58.8291 192.443 57.6358C191.133 56.363 189.704 54.3741 188.95 52.8626C188.275 51.4307 187.402 49.1237 187.005 47.6917C186.489 45.8223 186.33 43.555 186.33 39.5376C186.33 35.4804 186.489 33.253 187.005 31.3835C187.402 29.9515 188.236 27.6843 188.871 26.2921C189.545 24.9397 190.895 22.9111 191.927 21.7974C192.998 20.6837 194.546 19.3313 195.419 18.8142C196.292 18.2971 197.801 17.6209 198.793 17.2629C199.785 16.9049 201.293 16.4674 202.166 16.2685C203.04 16.1094 205.461 15.9503 207.524 15.9105ZM200.539 26.4512C199.666 27.1274 198.515 28.6389 197.92 29.8322C197.324 31.0255 196.689 32.7359 196.531 33.6905L196.213 35.3611H217.645C217.248 32.1392 216.772 30.4686 216.335 29.5935C215.938 28.7185 214.907 27.4058 214.113 26.6899C213.319 26.0137 211.731 25.1386 210.58 24.8204C209.469 24.5022 207.882 24.2237 207.128 24.2635C206.373 24.2635 204.905 24.5022 203.913 24.7408C202.881 25.0193 201.373 25.775 200.539 26.4512V26.4512ZM274.996 20.6439H280.552V25.8148H274.996V20.6439ZM284.918 20.6439H290.078V25.8148H284.918V20.6439Z" fill="#FF6C0E"/>
</svg>
