<svg width="300" height="174" viewBox="0 0 300 174" fill="none" xmlns="http://www.w3.org/2000/svg">
<path d="M121.154 1.23397C124.663 0.895206 130.575 0.492453 134.29 0.338127C138.006 0.183801 142.315 0.0332397 143.861 0.00312736C145.408 -0.0232209 150.561 0.119813 155.309 0.323071C160.057 0.526329 166.562 0.947902 169.759 1.26032C172.957 1.57273 177.435 2.08841 179.706 2.40835C181.977 2.72453 186.282 3.41335 189.277 3.93655C192.272 4.46352 196.915 5.38947 199.598 6.00301C202.282 6.61279 206.673 7.71941 209.357 8.46093C212.041 9.20621 216.222 10.4709 218.647 11.2727C221.071 12.0782 224.873 13.4295 227.092 14.2801C229.31 15.1271 233.408 16.8322 236.193 18.0705C238.978 19.3051 242.356 20.9161 243.7 21.6501C245.044 22.3804 247.949 24.0215 250.163 25.2937C252.374 26.566 254.149 27.6387 254.104 27.6801C254.059 27.7215 252.419 27.172 250.456 26.4606C248.493 25.7492 244.443 24.4092 241.448 23.487C238.453 22.5648 233.641 21.2135 230.751 20.487C227.861 19.7568 223.556 18.7405 221.18 18.2286C218.804 17.7167 213.824 16.787 210.108 16.1697C206.392 15.5486 201.242 14.777 198.66 14.4571C196.082 14.1333 191.18 13.6139 187.775 13.3015C184.371 12.9891 176.771 12.5412 170.885 12.304C162.793 11.9765 157.494 11.9765 149.116 12.3115C143.024 12.5524 134.497 13.0869 130.162 13.501C125.827 13.9113 119.408 14.6641 115.899 15.176C112.39 15.6841 107.154 16.5348 104.264 17.0655C101.374 17.5963 96.3893 18.6389 93.1915 19.3804C89.9899 20.1219 85.0092 21.3791 82.1191 22.1733C79.2291 22.9676 73.6554 24.7141 69.7331 26.0541C65.8109 27.3941 60.3235 29.453 57.5348 30.6236C54.7461 31.798 49.4276 34.3049 45.7118 36.1982C41.996 38.0915 36.5049 41.2759 33.5135 43.2821C30.5221 45.2846 26.8889 47.8742 25.4438 49.0336C23.9988 50.1929 21.0674 52.8729 18.928 54.992C16.7887 57.1112 14.0262 60.2015 12.7838 61.8576C11.5415 63.5138 9.84499 66.0546 9.008 67.5037C8.171 68.9529 6.99996 71.3242 6.40694 72.7734C5.81391 74.2225 4.9619 76.7633 4.51526 78.4194C3.8284 80.9413 3.70078 82.4055 3.7158 87.4531C3.73081 92.8809 3.83215 93.8106 4.74796 96.8632C5.30346 98.7264 6.5308 101.858 7.47288 103.827C8.41497 105.795 10.0101 108.588 11.0198 110.037C12.0257 111.487 13.9962 113.993 15.3962 115.604C16.7924 117.219 19.3747 119.816 21.1275 121.375C22.8803 122.937 26.3109 125.685 33.1719 130.74L32.9167 132.057C32.7778 132.784 32.6014 133.416 32.5264 133.469C32.4513 133.521 31.2465 132.761 29.854 131.782C28.4615 130.804 26.2245 129.087 24.8808 127.969C23.5371 126.848 21.1125 124.642 19.491 123.065C17.8659 121.491 15.261 118.676 13.6997 116.813C12.1345 114.949 9.98011 112.07 8.90666 110.414C7.8332 108.758 6.15171 105.795 5.17584 103.827C4.19622 101.858 2.90132 98.7264 2.29704 96.8632C1.69275 95 0.927073 91.9512 0.59678 90.088C0.24772 88.1156 0 84.6564 0 81.8071C0.00375333 78.7431 0.24772 75.6491 0.656833 73.5262C1.0134 71.663 1.80911 68.6141 2.4209 66.7509C3.03644 64.8877 4.54153 61.4135 5.76512 59.0346C6.9887 56.6557 9.13186 53.0949 10.5243 51.1301C11.9619 49.1051 15.4149 45.1792 18.5002 42.0701C21.9532 38.5883 25.7253 35.2572 28.8218 32.9498C31.5055 30.9511 36.2347 27.7931 39.3312 25.9374C42.4277 24.0817 47.4947 21.3415 50.5911 19.8547C53.6876 18.3641 58.9235 16.0869 62.2265 14.7921C65.5294 13.4972 70.6827 11.6528 73.6741 10.693C76.6655 9.73694 82.4945 8.11464 86.6231 7.09082C90.7518 6.067 96.4081 4.80981 99.1968 4.30166C101.986 3.78975 106.628 3.02942 109.518 2.61161C112.409 2.1938 117.644 1.57273 121.154 1.23397Z" fill="#FF6C0E"/>
<path d="M45.3252 92.3464C51.004 63.9843 55.737 40.3988 55.8458 39.9321L56.0447 39.0852H66.3626C72.9873 39.0852 76.6768 39.2207 76.6768 39.4616C76.6768 39.6686 72.7808 56.987 68.0216 77.9489C63.3608 98.4777 58.3039 120.71 56.6374 128.037L56.5364 128.481C54.9788 135.313 53.0721 142.852 52.2952 145.231C51.522 147.61 50.1783 151.084 49.3113 152.947C48.4405 154.811 46.8303 157.69 45.7343 159.346C44.6384 161.003 42.3263 163.69 40.596 165.324C38.1151 167.665 36.6663 168.67 33.7012 170.112C31.5768 171.143 28.484 172.28 26.5698 172.728C24.7119 173.164 21.5028 173.669 19.4385 173.845C17.3742 174.022 15.5763 174.052 15.4412 173.909C15.3098 173.766 14.7806 172.464 13.3393 168.38L16.0155 167.714C17.483 167.345 19.5961 166.498 20.7071 165.832C21.8181 165.162 23.6798 163.683 24.8471 162.546C26.0106 161.409 27.6545 159.459 28.499 158.217C29.3435 156.975 30.7098 154.604 31.5317 152.947C32.3575 151.291 33.476 148.581 34.0164 146.925C34.5607 145.269 39.6464 120.708 45.3252 92.3464Z" fill="#FF6C0E"/>
<path d="M261.716 36.4503C263.367 27.857 264.805 20.4494 264.914 19.9827L265.105 19.1357H300L299.482 21.3001C299.2 22.4895 297.639 30.2848 293.056 53.7725L284.048 53.7762L284.318 51.9808C284.465 50.9946 284.769 49.5116 284.99 48.6835C285.215 47.8554 285.516 47.2983 285.662 47.4489C285.805 47.5957 286.296 47.1703 286.754 46.5079C287.209 45.8416 287.843 44.7463 288.162 44.0725C288.481 43.3988 288.95 42.8906 289.209 42.9433C289.468 42.996 290.23 41.9383 290.902 40.5908C291.975 38.4528 292.129 37.7753 292.122 35.227C292.118 32.6261 292.035 32.2911 291.367 32.1217C290.867 31.9962 290.617 31.6198 290.617 30.9925C290.617 30.4091 290.256 29.7993 289.667 29.3928C289.141 29.0314 288.087 28.2523 287.321 27.6651C286.225 26.8294 285.951 26.3853 286.049 25.5948C286.116 25.0453 285.989 23.8747 285.767 22.9939C285.505 21.955 285.002 21.1495 284.33 20.6978C283.763 20.3139 282.539 19.8923 281.609 19.7643C280.216 19.5724 279.724 19.6778 278.801 20.3666C278.189 20.8296 277.217 21.6727 276.643 22.2411C276.061 22.8245 275.603 23.6865 275.603 24.2172C275.603 24.8345 274.924 25.8809 273.633 27.2585C272.548 28.4141 271.324 29.4304 270.912 29.517C270.499 29.6035 269.823 30.0251 269.41 30.458C268.997 30.8871 267.943 31.5646 267.064 31.9636C266.062 32.4153 265.473 32.931 265.477 33.345C265.48 33.7064 265.315 34.1731 265.109 34.3801C264.865 34.6285 264.861 35.5357 265.098 37.0149C265.297 38.2571 265.709 39.4428 266.013 39.6498C266.317 39.8568 266.573 40.237 266.58 40.4967C266.588 40.7564 266.847 40.9672 267.158 40.9672C267.47 40.9672 267.714 41.178 267.706 41.4377C267.695 41.6974 267.958 42.1604 268.284 42.4728C268.611 42.7852 268.873 43.3348 268.862 43.6961C268.855 44.0575 269.264 45.0738 269.774 45.9545C270.281 46.8353 270.964 48.4012 271.287 49.4363C271.704 50.7725 272.304 51.6721 274.853 53.7649H258.338L258.526 52.918C258.631 52.4513 260.064 45.0437 261.716 36.4503Z" fill="#FF6C0E"/>
<path d="M277.176 29.1105C277.544 27.2473 277.934 25.3427 278.043 24.876C278.234 24.0629 278.407 24.0291 282.179 24.0291C285.745 24.0291 286.097 24.0893 285.932 24.6878C285.835 25.0491 285.497 26.6601 285.182 28.2636C284.866 29.8671 284.611 31.5195 284.611 31.9335C284.611 32.6337 284.863 32.6864 291.93 32.6901L290.429 40.5984L282.734 40.5908L282.505 42.0024C282.378 42.7778 282.036 44.5995 281.744 46.0487C281.428 47.6145 280.952 48.8755 280.569 49.1616C280.16 49.4627 278.703 49.6358 276.635 49.6321C274.699 49.6283 273.351 49.4702 273.351 49.2481C273.351 49.0411 273.689 47.1365 274.102 45.0136C274.515 42.8907 274.852 41.0275 274.852 40.8731C274.852 40.7188 273.077 40.5908 270.911 40.5908C268.003 40.5908 266.974 40.4666 266.985 40.1203C266.993 39.8606 267.297 38.1254 268.329 32.8746L276.508 32.4981L277.176 29.1105Z" fill="#F4FEFE"/>
<path d="M70.0146 39.1754C66.1449 39.1227 61.3707 39.0324 59.4115 38.9722C57.4522 38.9157 60.6163 38.8291 66.4489 38.7877C72.2816 38.7425 77.0521 38.8366 77.0521 38.991C77.0521 39.1453 73.8843 39.2281 70.0146 39.1754Z" fill="#FF6C0E"/>
<path d="M162.253 12.2586C161.322 12.3374 159.633 12.3374 158.5 12.2623C157.366 12.1873 158.124 12.1234 160.189 12.1234C162.253 12.1197 163.184 12.1835 162.253 12.2586Z" fill="#FF6C0E"/>
<path d="M276.643 22.241C277.217 21.6727 278.19 20.8182 278.801 20.344C279.477 19.8245 280.216 19.561 280.67 19.6777C281.083 19.7906 281.887 19.881 282.453 19.8847C283.095 19.8847 283.913 20.3176 284.611 21.0177C285.231 21.6388 285.737 22.4857 285.737 22.8997C285.737 23.6036 285.486 23.6525 281.984 23.6525C279.92 23.6525 278.156 23.7805 278.066 23.9349C277.976 24.0892 277.657 25.4028 277.36 26.852C277.06 28.3011 276.711 30.1229 276.354 32.3098L268.284 32.2948L267.628 35.1253C267.267 36.6837 266.971 38.2947 266.971 38.7087C266.971 39.1228 266.761 39.5632 266.502 39.6911C266.243 39.8153 265.909 39.7739 265.755 39.597C265.601 39.4201 265.312 38.257 265.105 37.0149C264.861 35.5243 264.865 34.6285 265.109 34.3801C265.316 34.173 265.481 33.7063 265.477 33.345C265.473 32.9309 266.063 32.4152 267.065 31.9636C267.943 31.5646 268.998 30.887 269.41 30.4579C269.823 30.0251 270.499 29.6035 270.912 29.5169C271.325 29.4304 272.548 28.4141 273.633 27.2585C274.924 25.8809 275.603 24.8345 275.603 24.2172C275.603 23.6864 276.061 22.8245 276.643 22.241Z" fill="#FF6C0E"/>
<path d="M284.784 31.6511C284.882 31.2898 285.148 30.0175 285.381 28.8281C285.749 26.9574 285.891 26.7165 286.428 27.0515C286.77 27.2623 287.809 27.9963 288.74 28.6813C289.956 29.5809 290.482 30.2622 290.804 32.291L287.708 32.3023C284.942 32.3098 284.63 32.2383 284.784 31.6511Z" fill="#FF6C0E"/>
<path d="M290.684 40.5117C290.823 40.2444 291.161 38.7539 291.435 37.2031L291.93 34.3801L292.039 36.2621C292.129 37.7828 291.912 38.6146 290.913 40.5907C290.234 41.9383 289.468 42.996 289.209 42.9433C288.95 42.8906 288.481 43.3987 288.162 44.0725C287.843 44.7462 287.209 45.8416 286.755 46.5078C286.297 47.1703 285.805 47.5956 285.662 47.4488C285.516 47.2983 285.216 47.8553 284.991 48.6834C284.769 49.5115 284.465 50.9946 284.048 53.7762L274.853 53.7649L273.363 52.5416C272.304 51.6721 271.704 50.7725 271.287 49.4362C270.964 48.4011 270.281 46.8353 269.775 45.9545C269.264 45.0737 268.855 44.0574 268.863 43.6961C268.874 43.3347 268.611 42.7852 268.284 42.4728C267.958 42.1603 267.695 41.6974 267.706 41.4377C267.718 41.1064 268.709 40.9408 271.099 40.873C273.164 40.8166 274.477 40.9257 274.477 41.1553C274.477 41.3624 274.14 43.3084 273.727 45.484C273.314 47.6596 272.976 49.5642 272.976 49.7185C272.976 49.8729 274.834 50.0008 277.105 50.0008C280.723 50.0008 281.256 49.918 281.402 49.3421C281.496 48.9808 281.845 47.159 282.176 45.2958C282.51 43.4326 282.851 41.656 282.941 41.3435C283.069 40.8806 283.763 40.7978 286.766 40.8881C289.461 40.9671 290.497 40.8693 290.684 40.5117Z" fill="#FF6C0E"/>
<path d="M280.295 54.0468C276.166 54.1069 269.497 54.1069 265.469 54.0468C261.442 53.9868 264.82 53.938 272.976 53.938C281.132 53.938 284.424 53.9868 280.295 54.0468Z" fill="#FF6C0E"/>
<path d="M284.424 23.9313C283.391 24.0065 281.534 24.0065 280.295 23.9313C279.056 23.856 279.901 23.7958 282.172 23.792C284.442 23.792 285.456 23.8522 284.424 23.9313Z" fill="#FF6C0E"/>
<path d="M274.665 32.5886C273.633 32.6638 271.775 32.6638 270.536 32.5886C269.298 32.5133 270.142 32.4531 272.413 32.4493C274.684 32.4493 275.697 32.5095 274.665 32.5886Z" fill="#FF6C0E"/>
<path d="M290.241 32.5886C289.108 32.6638 287.332 32.6638 286.3 32.5886C285.268 32.5133 286.199 32.4493 288.365 32.4493C290.53 32.4493 291.375 32.5133 290.241 32.5886Z" fill="#FF6C0E"/>
<path d="M277.007 49.5531C279.642 49.4741 280.907 49.2896 281.034 48.9659C281.132 48.7062 281.275 48.4954 281.35 48.4954C281.421 48.4954 281.428 48.8342 281.357 49.2482C281.241 49.9483 280.941 50.001 277.041 50.001C274.736 50.001 272.92 49.9257 273.006 49.8354C273.092 49.7451 274.894 49.6209 277.007 49.5531Z" fill="#FF6C0E"/>
<path d="M276.294 19.2299C269.966 19.2826 264.865 19.196 264.959 19.0417C265.053 18.8874 273.017 18.797 282.66 18.8422C292.298 18.8911 297.403 18.974 293.995 19.0304C290.587 19.0869 282.626 19.1772 276.294 19.2299Z" fill="#FF6C0E"/>
<path d="M272.225 40.869C271.092 40.9441 269.316 40.9441 268.284 40.869C267.252 40.7939 268.183 40.7301 270.348 40.7301C272.514 40.7301 273.359 40.7939 272.225 40.869Z" fill="#FF6C0E"/>
<path d="M289.115 40.8653C288.184 40.9441 286.495 40.9441 285.362 40.869C284.228 40.7939 284.986 40.7301 287.051 40.7301C289.115 40.7264 290.046 40.7902 289.115 40.8653Z" fill="#FF6C0E"/>
<path d="M224.934 48.7663C225.035 48.6609 229.092 47.9006 233.942 47.0725C238.791 46.2406 242.863 45.548 242.991 45.5255C243.115 45.5029 243.16 45.7814 243.088 46.1428C243.031 46.4341 242.485 49.163 241.788 52.65L241.264 55.2706C240.33 59.9304 239.568 63.7811 239.568 63.8338C239.572 63.8865 243.118 63.9279 247.454 63.9279C254.773 63.9279 255.324 63.9768 255.174 64.5866C255.084 64.9479 254.833 66.2202 254.21 69.5739L238.295 69.7621L234.058 89.7116C231.727 100.684 229.708 111.099 229.573 112.86C229.366 115.571 229.438 116.286 230.038 117.524C230.5 118.473 231.28 119.271 232.253 119.782C233.6 120.494 234.373 120.577 245.806 120.577L244.286 123.919C243.377 125.914 242.458 127.397 242.011 127.589C241.598 127.766 238.896 128.349 236.006 128.888C232.624 129.513 228.743 129.934 225.121 130.07C220.629 130.239 219.075 130.16 217.427 129.682C216.293 129.354 214.77 128.692 214.049 128.206C213.328 127.721 212.319 126.569 211.812 125.643C211.069 124.296 210.859 123.298 210.746 120.577C210.615 117.411 210.926 115.65 215.516 93.5697C218.219 80.58 220.43 69.8675 220.43 69.7621C220.43 69.6567 218.572 69.5739 216.301 69.5739C213.171 69.5739 212.206 69.461 212.319 69.1034C212.397 68.8437 212.694 67.5715 213.486 63.9128L217.521 63.9203C221.402 63.9279 221.563 63.894 221.751 63.0809C221.86 62.6142 222.576 59.2454 223.346 55.5943C224.115 51.9431 224.832 48.8717 224.934 48.7663Z" fill="#FF6C0E"/>
<path d="M86.5971 65.9981C86.7547 65.3243 87.7418 65.0834 95.8941 63.7284C100.909 62.8927 105.045 62.234 105.082 62.2604C105.12 62.2905 104.14 67.2063 102.905 73.1912C101.674 79.1722 99.73 88.556 98.5927 94.0402C97.4517 99.5244 96.3407 105.37 96.123 107.026C95.834 109.217 95.8415 110.704 96.153 112.484C96.3895 113.828 96.9788 115.608 97.4629 116.436C97.9809 117.325 98.9418 118.247 99.8013 118.683C100.845 119.214 101.959 119.417 103.701 119.391C105.3 119.368 107.109 119.015 108.956 118.363C110.506 117.814 112.829 116.651 114.128 115.774C116.305 114.298 116.511 114.039 116.868 112.296C117.082 111.261 119.198 101.098 121.571 89.7116C123.946 78.3253 126.06 68.1624 126.653 65.2453L135.616 63.7397C140.547 62.9116 144.68 62.3168 144.8 62.4222C144.92 62.5276 142.792 73.3643 140.071 86.5121C137.346 99.6599 134.257 114.562 131.288 128.858L122.374 128.952C114.049 129.038 113.471 129.001 113.614 128.387C113.696 128.026 114.049 126.46 114.394 124.905C114.74 123.355 114.923 122.041 114.803 121.988C114.683 121.936 113.7 122.462 112.615 123.163C111.53 123.859 109.38 125.063 107.83 125.843C106.283 126.622 103.239 127.853 101.074 128.579C97.7595 129.693 96.4458 129.934 92.8163 130.088C89.5847 130.231 87.982 130.13 86.4357 129.689C85.3022 129.37 83.6132 128.534 82.6823 127.838C81.455 126.919 80.6105 125.805 79.5858 123.761C78.5011 121.589 78.0883 120.185 77.7655 117.565C77.4614 115.111 77.4577 113.139 77.7505 110.414C77.9719 108.344 80.0137 97.6725 82.2882 86.7003C84.559 75.7281 86.4995 66.4121 86.5971 65.9981Z" fill="#FF6C0E"/>
<path d="M172.95 64.6731C174.395 64.1989 176.76 63.5891 178.205 63.3143C179.856 63.0019 182.573 62.8702 185.524 62.9643C189.183 63.0772 190.958 63.3294 193.593 64.1085C195.451 64.6543 197.478 65.3996 198.097 65.7572C199.208 66.4046 199.223 66.4648 199.317 69.875C199.37 71.7796 199.325 73.338 199.223 73.338C199.122 73.338 198.36 72.9992 197.534 72.5852C196.709 72.1711 194.723 71.3957 193.124 70.8612C191.525 70.3267 189.033 69.7471 187.588 69.5739C186.027 69.3857 184.045 69.4045 182.709 69.6229C181.47 69.8261 179.612 70.3719 178.58 70.8349C177.548 71.3016 175.986 72.3932 175.108 73.2627C174.23 74.1322 173.254 75.4797 172.942 76.2551C172.627 77.0305 172.372 78.3441 172.379 79.1722C172.383 80.0003 172.728 81.2274 173.138 81.9012C173.55 82.5749 174.658 83.674 175.604 84.3478C176.546 85.0216 179.458 86.7267 182.078 88.1382C184.694 89.5535 187.851 91.3602 189.089 92.1619C190.328 92.9599 192.295 94.5973 193.462 95.8018C194.637 97.0138 196.059 99.0012 196.648 100.251C197.579 102.223 197.711 102.938 197.699 105.897C197.688 108.253 197.437 110.086 196.877 111.919C196.435 113.369 195.361 115.657 194.49 117.001C193.623 118.345 192.126 120.208 191.172 121.141C190.215 122.075 188.425 123.509 187.198 124.329C185.966 125.15 183.696 126.37 182.146 127.036C180.599 127.702 178.066 128.579 176.516 128.986C174.969 129.392 171.925 129.927 169.76 130.171C167.553 130.42 164.58 130.502 163.004 130.363C161.457 130.224 158.837 129.855 157.186 129.543C155.534 129.23 152.832 128.553 151.181 128.033C149.529 127.514 148.065 126.979 147.926 126.844C147.788 126.708 147.536 125.022 147.052 119.587L149.21 120.55C150.396 121.085 152.678 121.86 154.277 122.278C155.876 122.696 158.706 123.212 160.564 123.426C162.422 123.641 164.955 123.701 166.194 123.562C167.433 123.422 169.459 123.001 170.698 122.624C171.937 122.248 173.963 121.266 175.202 120.441C176.441 119.621 177.833 118.424 178.298 117.784C178.764 117.148 179.398 115.906 179.713 115.025C180.029 114.144 180.28 112.747 180.273 111.919C180.265 111.091 179.882 109.661 179.421 108.739C178.959 107.817 177.859 106.462 176.974 105.728C176.091 104.994 173.475 103.345 171.156 102.065C168.84 100.789 165.526 98.9259 163.796 97.9247C162.062 96.9272 159.783 95.2522 158.729 94.2021C157.674 93.1557 156.409 91.4618 155.921 90.438C155.433 89.418 154.941 87.6526 154.833 86.5121C154.724 85.3716 154.844 83.339 155.099 81.9953C155.354 80.6515 156.079 78.4458 156.709 77.102C157.524 75.363 158.687 73.8348 160.71 71.8211C162.85 69.7019 164.415 68.5539 166.945 67.259C168.803 66.3067 171.505 65.1436 172.95 64.6731Z" fill="#FF6C0E"/>
<path d="M56.5967 146.831L57.1259 144.904C57.4187 143.842 57.7152 142.973 57.7827 142.973C57.854 142.973 59.3892 143.545 61.1945 144.245C62.9999 144.941 66.9296 146.308 69.921 147.275C72.9162 148.242 78.2346 149.782 81.744 150.693C85.2534 151.607 90.996 152.94 94.5053 153.659C98.0147 154.374 103.675 155.398 107.079 155.929C110.483 156.459 116.312 157.223 120.028 157.63C123.744 158.033 129.231 158.537 132.226 158.752C135.221 158.962 142.146 159.245 147.615 159.38C153.418 159.519 161.393 159.444 166.757 159.196C171.816 158.962 178.824 158.511 182.333 158.191C185.843 157.875 191.84 157.193 195.658 156.678C199.475 156.166 204.966 155.319 207.856 154.796C210.746 154.276 214.207 153.606 215.55 153.305C216.894 153.004 218.031 152.801 218.08 152.853C218.129 152.906 215.089 153.836 211.324 154.924C207.559 156.008 202.196 157.412 199.411 158.04C196.626 158.665 191.473 159.678 187.963 160.28C184.454 160.886 178.711 161.721 175.202 162.135C171.693 162.55 166.119 163.088 162.816 163.332C159.513 163.573 151.657 163.773 145.363 163.773C139.069 163.773 131.213 163.573 127.91 163.329C124.607 163.088 119.033 162.553 115.524 162.143C112.015 161.737 106.61 160.972 103.513 160.445C100.417 159.922 96.0254 159.09 93.7547 158.601C91.4839 158.112 87.5166 157.174 84.9343 156.52C82.3558 155.868 77.8781 154.596 74.988 153.697C72.0979 152.797 67.7065 151.303 65.2293 150.38C62.7521 149.454 59.7983 148.276 56.5967 146.831Z" fill="#FF6C0E"/>
<path d="M217.427 69.8483C216.706 69.9271 215.355 69.9271 214.424 69.8483C213.493 69.7695 214.086 69.7057 215.738 69.7019C217.389 69.7019 218.147 69.7657 217.427 69.8483Z" fill="#FF6C0E"/>
<path d="M250.831 69.852C249.285 69.9234 246.92 69.9234 245.577 69.852C244.233 69.7807 245.502 69.7207 248.392 69.7207C251.282 69.7244 252.382 69.7807 250.831 69.852Z" fill="#FF6C0E"/>
<path d="M151.931 159.433C151.105 159.511 149.841 159.511 149.116 159.433C148.392 159.35 149.067 159.286 150.617 159.286C152.168 159.286 152.757 159.35 151.931 159.433Z" fill="#FF6C0E"/>
<path d="M158.312 159.433C157.486 159.511 156.304 159.511 155.684 159.429C155.065 159.346 155.741 159.279 157.186 159.282C158.631 159.282 159.138 159.35 158.312 159.433Z" fill="#FF6C0E"/>
<path d="M215.865 64.0143C214.285 64.0708 213.069 63.988 213.163 63.8337C213.257 63.6793 215.141 63.5815 217.352 63.6153C219.558 63.6492 220.775 63.732 220.054 63.796C219.333 63.86 217.445 63.9579 215.865 64.0143Z" fill="#FF6C0E"/>
<path d="M250.328 64.0181C247.404 63.9654 243.831 63.8713 242.386 63.8111C240.941 63.7509 243.265 63.668 247.547 63.6266C251.83 63.5852 255.403 63.6793 255.489 63.8337C255.572 63.988 253.248 64.0708 250.328 64.0181Z" fill="#FF6C0E"/>
</svg>
