<svg width="257" height="60" viewBox="0 0 257 60" fill="none" xmlns="http://www.w3.org/2000/svg">
<path d="M134.296 16.7473H143.053V46.6586H134.296V16.7473ZM138.65 4.5717C135.914 4.5717 133.88 6.39043 133.88 8.98534C133.88 11.5803 135.905 13.4446 138.65 13.4446C141.488 13.4446 143.466 11.5828 143.466 8.98534C143.466 6.38789 141.488 4.57424 138.65 4.57424V4.5717ZM165.034 15.9863C155.183 15.9863 148.583 22.0741 148.583 31.6978C148.583 41.2049 155.342 47.4094 165.034 47.4094C173.457 47.4094 179.644 42.945 180.632 35.4621V35.4444H172.929C171.807 38.3589 168.925 40.0482 165.209 40.0482C160.136 40.0482 156.601 36.7507 156.601 31.6775C156.601 26.5511 160.049 23.3068 165.209 23.3068C168.969 23.3068 171.87 25.014 172.959 27.9589H180.621V27.9234C179.721 20.4532 173.512 15.9888 165.034 15.9888V15.9863ZM128.788 31.7004C128.788 41.21 122.951 47.4145 114.504 47.4145C110.378 47.4145 107.25 45.9052 105.124 43.1809H104.497V59.9959H95.7132V16.7397H104.497V20.2198H105.124C107.25 17.493 110.252 15.9863 114.444 15.9863C123.012 15.9863 128.788 22.0741 128.788 31.7004ZM120.097 31.7004C120.097 26.9418 116.874 23.355 112.299 23.355C107.797 23.355 104.497 26.9418 104.497 31.7004C104.497 36.459 107.797 40.0457 112.299 40.0457C116.874 40.0457 120.097 36.459 120.097 31.7004ZM84.0726 6.89774C82.5484 5.77911 79.221 5.65989 79.221 5.65989C79.221 5.65989 77.9677 1.88547 73.7482 0.65523C72.1063 0.178354 70.7792 -0.0727669 69.6436 0.0185498C68.8227 0.0845007 68.7789 0.66284 68.8582 1.17269C68.9323 1.80278 69.1576 2.40951 69.5177 2.94829C69.8584 3.43783 70.2762 3.8773 70.7573 4.25209C72.6399 5.77404 73.7673 5.28955 75.3298 5.67765C76.7993 6.04292 77.1523 6.94594 77.1523 6.94594C76.75 6.53385 76.2191 6.24833 75.6336 6.12916C75.2102 6.03824 74.7804 5.97552 74.3475 5.94145C73.127 5.85521 71.7588 6.07589 70.2155 4.83043C69.7277 4.47279 69.3055 4.04452 68.965 3.56215C68.9233 3.49892 68.8613 3.44945 68.7876 3.42076C68.7139 3.39208 68.6324 3.38563 68.5545 3.40234L68.445 3.42771C67.8978 3.54693 67.5694 3.75239 67.8649 4.40175C68.2179 5.17541 69.2769 5.98204 70.5356 6.49443C71.871 7.04233 73.4773 7.00174 74.6402 7.26808C75.3028 7.39838 75.9047 7.71771 76.3614 8.18125C76.0533 8.56853 75.8106 8.99705 75.6418 9.45207C75.4109 10.0513 75.3051 10.6857 75.3298 11.3215C75.3298 11.3215 64.0695 8.00623 55.5676 5.55589C41.4697 1.49737 31.2739 11.0983 24.9199 18.2185C13.8239 30.6477 5.61741 27.8727 3.02878 27.0762C2.92554 27.0447 2.81636 27.0333 2.70815 27.0429C2.59994 27.0525 2.49507 27.0828 2.40015 27.132C2.30524 27.1811 2.22236 27.2479 2.15676 27.3283C2.09116 27.4086 2.04427 27.5007 2.01905 27.5987C1.98405 27.7441 1.99749 27.8959 2.05759 28.0341C2.11769 28.1722 2.22162 28.2902 2.35563 28.3724C10.4307 33.1919 18.2979 30.9521 30.0397 22.7919C37.2173 17.8025 41.155 17.9445 41.155 17.9445C41.155 26.0108 45.826 24.5853 46.7071 32.469C47.1833 36.7608 45.2705 40.0939 43.6971 42.7218C43.1662 43.6147 43.4973 44.7511 44.2772 45.4638C47.1504 48.112 54.0324 54.1313 53.5809 58.5576C53.5847 58.7262 53.6421 58.8899 53.7457 59.0284C53.8494 59.167 53.9948 59.2741 54.1638 59.3364L55.8385 59.9274C56.6731 60.2216 57.4201 59.5799 57.3845 58.7555C57.2997 56.8074 56.1449 53.1243 53.0556 49.3245C48.7211 43.9977 48.951 41.6158 52.6013 37.778C55.7016 34.5287 58.895 32.0859 60.1018 26.6501C61.2346 21.516 58.5803 18.1652 57.1218 16.7574C57.1001 16.7396 57.0868 16.7145 57.085 16.6876C57.0832 16.6607 57.093 16.6343 57.1123 16.6141C57.1315 16.5939 57.1586 16.5816 57.1876 16.58C57.2166 16.5783 57.2451 16.5874 57.2669 16.6052C58.7386 17.5294 59.9249 18.7935 60.7086 20.2726C61.4922 21.7517 61.8462 23.3947 61.7354 25.0393C64.1174 24.8452 66.4687 24.4062 68.746 23.7305C68.9096 23.6787 69.0856 23.6706 69.254 23.7068C69.4223 23.7431 69.5763 23.8224 69.6986 23.9357C69.8208 24.049 69.9063 24.1918 69.9454 24.3478C69.9846 24.5039 69.9757 24.667 69.92 24.8186C69.2551 26.4828 68.0579 27.9192 66.4885 28.9355C66.2768 29.0593 66.0959 29.2236 65.9581 29.4174C65.8204 29.6112 65.7288 29.83 65.6895 30.0592L65.3775 31.4772C65.3438 31.6263 65.3565 31.7812 65.4141 31.9239C65.4717 32.0666 65.5719 32.1912 65.7029 32.2831C65.834 32.3751 65.9905 32.4307 66.1543 32.4434C66.3181 32.456 66.4824 32.4253 66.6281 32.3548C68.7049 31.4193 70.4674 29.9767 71.726 28.1821C72.8937 26.5272 73.7032 24.6775 74.1094 22.7361C74.3172 21.7495 74.8219 20.8376 75.5651 20.1057C76.5393 19.1316 78.0908 17.6604 80.217 15.824C81.3389 14.8626 86.4423 16.2222 87.5232 15.3572C88.2949 14.7358 89.0309 12.9196 89.0309 12.9196C88.8722 12.3184 86.248 8.49325 84.0726 6.89774ZM218.156 16.7397H206.491L195.51 27.7002H194.883V8.51861H186.126V46.6611H194.883V34.658H195.51L206.472 46.6611H218.181L203.743 31.1195L218.156 16.7397ZM246.672 8.51861H237.932V36.0861C237.93 39.0901 239.215 41.972 241.505 44.0978C243.794 46.2236 246.901 47.4194 250.142 47.4221C252.58 47.4221 254 47.0035 254 47.0035V39.0641C253.403 39.2543 252.773 39.3445 252.142 39.3304C250.704 39.3304 249.324 38.8017 248.305 37.8603C247.286 36.9188 246.712 35.6414 246.708 34.308L246.672 24.1008H254V16.7473H246.672V8.51861ZM222.573 46.6586H231.329V16.7498H222.573V46.6586ZM226.926 4.57678C224.19 4.57678 222.154 6.39296 222.154 8.99042C222.154 11.5879 224.182 13.4472 226.926 13.4472C229.761 13.4472 231.742 11.5879 231.742 8.99042C231.742 6.39296 229.761 4.57678 226.926 4.57678Z" fill="white"/>
</svg>
