<svg width="257" height="60" viewBox="0 0 257 60" fill="none" xmlns="http://www.w3.org/2000/svg">
<path d="M134.731 16.7473H143.516V46.6586H134.731V16.7473ZM139.099 4.5717C136.353 4.5717 134.314 6.39043 134.314 8.98534C134.314 11.5803 136.345 13.4446 139.099 13.4446C141.946 13.4446 143.931 11.5828 143.931 8.98534C143.931 6.38789 141.946 4.57424 139.099 4.57424V4.5717ZM165.57 15.9863C155.686 15.9863 149.064 22.0741 149.064 31.6978C149.064 41.2049 155.846 47.4094 165.57 47.4094C174.02 47.4094 180.227 42.945 181.218 35.4621V35.4444H173.49C172.365 38.3589 169.474 40.0482 165.745 40.0482C160.655 40.0482 157.108 36.7507 157.108 31.6775C157.108 26.5511 160.568 23.3068 165.745 23.3068C169.518 23.3068 172.428 25.014 173.52 27.9589H181.207V27.9234C180.304 20.4532 174.075 15.9888 165.57 15.9888V15.9863ZM129.204 31.7004C129.204 41.21 123.348 47.4145 114.874 47.4145C110.733 47.4145 107.595 45.9052 105.462 43.1809H104.834V59.9959H96.021V16.7397H104.834V20.2198H105.462C107.595 17.493 110.607 15.9863 114.813 15.9863C123.409 15.9863 129.204 22.0741 129.204 31.7004ZM120.485 31.7004C120.485 26.9418 117.251 23.355 112.661 23.355C108.145 23.355 104.834 26.9418 104.834 31.7004C104.834 36.459 108.145 40.0457 112.661 40.0457C117.251 40.0457 120.485 36.459 120.485 31.7004ZM84.3421 6.89774C82.8129 5.77911 79.4746 5.65989 79.4746 5.65989C79.4746 5.65989 78.2172 1.88547 73.9838 0.65523C72.3366 0.178354 71.0051 -0.0727669 69.8657 0.0185498C69.0421 0.0845007 68.9982 0.66284 69.0778 1.17269C69.1521 1.80278 69.3781 2.40951 69.7394 2.94829C70.0812 3.43783 70.5004 3.8773 70.9831 4.25209C72.8719 5.77404 74.003 5.28955 75.5706 5.67765C77.0449 6.04292 77.399 6.94594 77.399 6.94594C76.9955 6.53385 76.4628 6.24833 75.8754 6.12916C75.4506 6.03824 75.0194 5.97552 74.585 5.94145C73.3606 5.85521 71.9879 6.07589 70.4395 4.83043C69.9502 4.47279 69.5265 4.04452 69.1849 3.56215C69.1431 3.49892 69.0808 3.44945 69.0069 3.42076C68.933 3.39208 68.8512 3.38563 68.7731 3.40234L68.6632 3.42771C68.1142 3.54693 67.7847 3.75239 68.0812 4.40175C68.4354 5.17541 69.4978 5.98204 70.7607 6.49443C72.1005 7.04233 73.712 7.00174 74.8788 7.26808C75.5435 7.39838 76.1474 7.71771 76.6056 8.18125C76.2965 8.56853 76.053 8.99705 75.8836 9.45207C75.652 10.0513 75.5458 10.6857 75.5706 11.3215C75.5706 11.3215 64.2734 8.00623 55.7435 5.55589C41.5993 1.49737 31.37 11.0983 24.9952 18.2185C13.8627 30.6477 5.62929 27.8727 3.03216 27.0762C2.92858 27.0447 2.81904 27.0333 2.71048 27.0429C2.60192 27.0525 2.49669 27.0828 2.40147 27.132C2.30624 27.1811 2.22309 27.2479 2.15727 27.3283C2.09146 27.4086 2.04441 27.5007 2.01911 27.5987C1.984 27.7441 1.99749 27.8959 2.05778 28.0341C2.11808 28.1722 2.22235 28.2902 2.35679 28.3724C10.4584 33.1919 18.3514 30.9521 30.1318 22.7919C37.333 17.8025 41.2836 17.9445 41.2836 17.9445C41.2836 26.0108 45.9699 24.5853 46.8539 32.469C47.3316 36.7608 45.4126 40.0939 43.834 42.7218C43.3014 43.6147 43.6336 44.7511 44.416 45.4638C47.2987 48.112 54.2033 54.1313 53.7503 58.5576C53.7541 58.7262 53.8116 58.8899 53.9157 59.0284C54.0197 59.167 54.1656 59.2741 54.3351 59.3364L56.0153 59.9274C56.8526 60.2216 57.6021 59.5799 57.5664 58.7555C57.4813 56.8074 56.3228 53.1243 53.2232 49.3245C48.8745 43.9977 49.1051 41.6158 52.7675 37.778C55.878 34.5287 59.0819 32.0859 60.2926 26.6501C61.4292 21.516 58.7661 18.1652 57.3029 16.7574C57.281 16.7396 57.2677 16.7145 57.2659 16.6876C57.2641 16.6607 57.2739 16.6343 57.2932 16.6141C57.3125 16.5939 57.3397 16.5816 57.3688 16.58C57.3979 16.5783 57.4265 16.5874 57.4484 16.6052C58.925 17.5294 60.1151 18.7935 60.9014 20.2726C61.6876 21.7517 62.0427 23.3947 61.9316 25.0393C64.3214 24.8452 66.6804 24.4062 68.9652 23.7305C69.1294 23.6787 69.3059 23.6706 69.4748 23.7068C69.6437 23.7431 69.7983 23.8224 69.9209 23.9357C70.0435 24.049 70.1293 24.1918 70.1686 24.3478C70.2078 24.5039 70.199 24.667 70.143 24.8186C69.476 26.4828 68.2748 27.9192 66.7003 28.9355C66.4878 29.0593 66.3064 29.2236 66.1682 29.4174C66.0299 29.6112 65.938 29.83 65.8986 30.0592L65.5857 31.4772C65.5519 31.6263 65.5646 31.7812 65.6224 31.9239C65.6802 32.0666 65.7807 32.1912 65.9121 32.2831C66.0436 32.3751 66.2006 32.4307 66.365 32.4434C66.5293 32.456 66.6941 32.4253 66.8403 32.3548C68.924 31.4193 70.6922 29.9767 71.955 28.1821C73.1265 26.5272 73.9387 24.6775 74.3462 22.7361C74.5547 21.7495 75.061 20.8376 75.8067 20.1057C76.7841 19.1316 78.3407 17.6604 80.4739 15.824C81.5995 14.8626 86.7196 16.2222 87.804 15.3572C88.5782 14.7358 89.3167 12.9196 89.3167 12.9196C89.1575 12.3184 86.5247 8.49325 84.3421 6.89774ZM218.866 16.7397H207.162L196.145 27.7002H195.516V8.51861H186.731V46.6611H195.516V34.658H196.145L207.143 46.6611H218.891L204.406 31.1195L218.866 16.7397ZM247.475 8.51861H238.707V36.0861C238.704 39.0901 239.994 41.972 242.291 44.0978C244.588 46.2236 247.705 47.4194 250.957 47.4221C253.403 47.4221 254.828 47.0035 254.828 47.0035V39.0641C254.228 39.2543 253.597 39.3445 252.963 39.3304C251.52 39.3304 250.136 38.8017 249.114 37.8603C248.092 36.9188 247.515 35.6414 247.511 34.308L247.475 24.1008H254.828V16.7473H247.475V8.51861ZM223.297 46.6586H232.082V16.7498H223.297V46.6586ZM227.665 4.57678C224.919 4.57678 222.877 6.39296 222.877 8.99042C222.877 11.5879 224.911 13.4472 227.665 13.4472C230.509 13.4472 232.497 11.5879 232.497 8.99042C232.497 6.39296 230.509 4.57678 227.665 4.57678Z" fill="#FF6C0E"/>
</svg>
