<svg width="300" height="74" viewBox="0 0 300 74" fill="none" xmlns="http://www.w3.org/2000/svg">
<path fill-rule="evenodd" clip-rule="evenodd" d="M271.1 0.00160895C271.662 0.0477603 271.679 0.284285 271.754 10.4318C271.798 16.143 271.714 21.9206 271.57 23.2676C271.429 24.6176 271.031 26.3684 270.688 27.1617C270.345 27.9549 269.519 29.1577 268.853 29.8327C268.188 30.5076 267.026 31.3182 266.274 31.6354C265.522 31.9498 263.9 32.345 262.673 32.5123C261.086 32.7287 259.818 32.7258 258.279 32.5008C257.089 32.3277 255.6 31.9556 254.966 31.6787C254.332 31.3989 253.188 30.5942 252.422 29.8875C251.658 29.1808 250.731 27.9549 250.362 27.1617C249.99 26.3684 249.547 24.9406 249.374 23.9888C249.198 23.0369 249.06 21.286 249.063 20.0947C249.065 18.9063 249.261 17.0228 249.498 15.9123C249.734 14.8018 250.235 13.2441 250.615 12.4509C250.996 11.6577 251.872 10.5155 252.56 9.9126C253.367 9.20879 254.479 8.61748 255.686 8.24827C256.718 7.93675 258.078 7.68003 258.711 7.68292C259.345 7.6858 260.544 7.88194 261.377 8.12135C262.379 8.4098 263.33 8.96938 265.505 11.0087L265.508 2.93222L266.577 1.99477C267.162 1.48134 268.291 0.812141 269.084 0.509273C269.876 0.206405 270.783 -0.0214667 271.1 0.00160895V0.00160895ZM257.703 14.1066C257.308 14.3547 256.663 15.2546 256.271 16.1026C255.666 17.4093 255.559 18.0785 255.551 20.5361C255.542 23.0657 255.632 23.6022 256.262 24.8281C256.726 25.731 257.34 26.4203 257.991 26.7694C258.59 27.0895 259.584 27.3088 260.44 27.3088C261.296 27.3088 262.29 27.0895 262.889 26.7694C263.54 26.4203 264.154 25.731 264.618 24.8281C265.252 23.5936 265.338 23.0628 265.338 20.3918C265.338 17.7266 265.249 17.1785 264.618 15.918C264.206 15.096 263.526 14.2681 263.033 13.9855C262.558 13.7143 261.65 13.4259 261.016 13.3422C260.383 13.2615 259.541 13.299 259.144 13.423C258.749 13.5499 258.101 13.8557 257.703 14.1066ZM53.7184 1.49864C56.493 1.5621 60.3162 1.81882 62.2178 2.06688C64.1194 2.31783 67.1676 2.85145 68.9885 3.25816C70.8094 3.66487 73.8576 4.5129 75.7592 5.1446C77.6607 5.77918 80.7723 7.0368 82.6739 7.9454C84.5754 8.85112 87.2981 10.351 88.7243 11.2769C90.1504 12.2029 92.2911 13.7691 93.4782 14.7585C94.6681 15.7479 96.3651 17.3862 97.2496 18.3987C98.137 19.4111 99.3845 21.0178 100.027 21.9696C100.667 22.9215 101.514 24.3493 101.911 25.1425C102.306 25.9358 102.983 27.6895 103.415 29.0365C104.052 31.0239 104.228 32.2268 104.354 35.3824C104.447 37.7591 104.372 40.2311 104.159 41.7282C103.965 43.0781 103.421 45.3481 102.948 46.776C102.476 48.2038 101.566 50.3469 100.929 51.5353C100.292 52.7266 99.2375 54.4111 98.5864 55.2851C97.9324 56.1591 96.6157 57.6994 95.6563 58.709C94.6969 59.7214 92.8731 61.3627 91.6054 62.3578C90.3377 63.3529 88.2633 64.7836 86.9956 65.5365C85.7279 66.2893 83.5901 67.4171 82.2417 68.0373C80.8933 68.6603 78.3003 69.6699 76.4794 70.2843C74.6586 70.8987 71.6737 71.7294 69.8528 72.1332C68.0319 72.537 64.3988 73.1428 61.7856 73.4774C57.7492 73.9995 56.0522 74.0687 50.5492 73.9504C45.9826 73.8495 42.8738 73.6245 40.033 73.1889C37.8146 72.8457 34.5099 72.1909 32.6861 71.7323C30.8624 71.2736 28.206 70.4891 26.7798 69.9872C25.3536 69.4882 22.7606 68.3892 21.0175 67.544C19.2744 66.6989 16.6814 65.2336 15.2552 64.2846C13.8291 63.3385 11.4464 61.4117 9.95971 60.007C8.47304 58.5993 6.62335 56.6033 5.85121 55.5735C5.07906 54.5438 3.80848 52.4641 3.03057 50.9584C2.24978 49.4527 1.25291 47.05 0.814975 45.6222C0.0601172 43.1646 0.0169001 42.7204 0.00249437 37.2572C-0.0147925 31.9873 0.0428303 31.3008 0.659394 29.325C1.03106 28.1366 1.74846 26.3194 2.25554 25.2868C2.75974 24.257 3.68171 22.6331 4.30403 21.6812C4.92348 20.7293 6.7991 18.5833 8.47016 16.9103C10.3515 15.0296 12.6075 13.1403 14.3909 11.9519C15.9755 10.8991 18.6982 9.32417 20.4413 8.45884C22.1844 7.5935 24.9071 6.39933 26.4917 5.80802C28.0763 5.21959 31.0583 4.3081 33.1183 3.7889C35.1783 3.26681 38.2237 2.62935 39.889 2.36975C41.5543 2.11015 44.2107 1.78132 45.7953 1.63998C47.3799 1.49864 50.9468 1.43518 53.7184 1.49864V1.49864ZM287.379 7.43774C287.774 7.42043 288.94 7.54446 289.972 7.70888C291.003 7.87329 292.525 8.32903 293.357 8.71555C294.19 9.10495 295.53 10.0395 296.336 10.7924C297.206 11.6058 298.137 12.8663 298.63 13.8932C299.105 14.8854 299.603 16.6074 299.802 17.9314C300.064 19.6909 300.064 20.7351 299.811 22.3302C299.629 23.4811 299.18 25.1022 298.817 25.9358C298.451 26.7694 297.578 28.076 296.872 28.8433C296.166 29.6106 295.071 30.5393 294.438 30.9057C293.804 31.272 292.507 31.797 291.556 32.071C290.246 32.4489 289.133 32.5354 286.947 32.4344C284.993 32.345 283.556 32.1085 282.481 31.6989C281.53 31.3383 280.222 30.4845 279.211 29.5615C278.11 28.5577 277.237 27.427 276.693 26.2963C276.209 25.2896 275.716 23.5993 275.517 22.2581C275.252 20.4668 275.252 19.4688 275.523 17.7872C275.716 16.5988 276.194 14.9431 276.583 14.1095C276.975 13.2759 277.911 11.9346 278.663 11.1298C279.464 10.2732 280.749 9.31552 281.761 8.82516C282.711 8.36365 284.204 7.87041 285.074 7.72907C285.944 7.58773 286.981 7.45504 287.379 7.43774V7.43774ZM282.916 15.6238C282.141 17.1814 282.054 17.6285 282.054 20.0947C282.054 22.5609 282.141 23.008 282.916 24.5656C283.619 25.9761 284.016 26.4175 285.074 26.9482C285.837 27.3318 286.903 27.6001 287.667 27.603C288.474 27.6059 289.453 27.352 290.26 26.928C291.286 26.3944 291.738 25.8983 292.421 24.5628C293.204 23.034 293.285 22.6186 293.285 20.0947C293.285 17.5708 293.204 17.1555 292.421 15.6267C291.738 14.2912 291.286 13.7951 290.26 13.2615C289.387 12.8057 288.491 12.5865 287.523 12.5923C286.584 12.6009 285.679 12.8288 284.93 13.2499C284.068 13.7316 283.558 14.3316 282.916 15.6238Z" fill="#FF6C0E"/>
<path d="M40.033 4.38595C41.6176 4.12635 44.2106 3.8004 45.7952 3.65907C47.3799 3.51773 51.0101 3.46004 53.8624 3.52927C56.9107 3.60426 60.7109 3.90424 63.0821 4.25326C65.3006 4.57921 68.8011 5.28013 70.8612 5.81375C72.9212 6.34449 75.7072 7.18387 77.0556 7.68C78.404 8.17324 80.9307 9.2751 82.6738 10.126C84.4169 10.9769 86.8803 12.3557 90.4529 14.7008L89.1564 15.2546C88.4419 15.5603 86.8227 16.1113 85.555 16.4834C84.2873 16.8526 81.9852 17.2997 80.4409 17.4727C78.4587 17.6948 76.8482 17.6977 74.9668 17.4872C73.5003 17.3227 71.5238 16.9881 70.573 16.743C69.6223 16.5007 67.4845 15.7103 65.8192 14.9892C64.1539 14.2652 61.5608 13.3566 60.0569 12.9672C57.9825 12.4307 56.5851 12.2605 54.2946 12.2634C52.249 12.2663 50.5693 12.4509 49.1086 12.8288C47.9215 13.1374 46.3628 13.6826 45.6512 14.0402C44.9396 14.4008 43.7698 15.0844 43.0582 15.5632C42.2284 16.1228 41.1941 16.5122 40.177 16.6507C39.304 16.7689 37.2959 17.2016 35.7113 17.617C34.1266 18.0294 32.0522 18.3669 31.1014 18.3669C30.1507 18.3669 27.8169 17.9862 25.9154 17.5246C24.0138 17.0603 20.8043 16.1516 18.7846 15.5055C16.7649 14.8565 15.1111 14.196 15.1111 14.0373C15.1111 13.8787 15.9207 13.247 16.9118 12.6355C17.903 12.024 19.8794 10.9365 21.3056 10.2183C22.7317 9.50297 25.1951 8.43284 26.7797 7.83864C28.3644 7.24733 31.3463 6.33296 33.4064 5.80799C35.4664 5.28302 38.4483 4.64267 40.033 4.38595Z" fill="#FF6C0E"/>
<path d="M2.42835 40.7186C2.08262 39.3311 1.85213 37.462 1.85501 36.0313C1.85501 34.7218 1.92127 33.6516 2.00195 33.6516C2.07974 33.6516 3.99281 34.093 6.25162 34.6352C8.51044 35.1746 12.1724 36.2102 14.3908 36.937C16.6093 37.661 19.5221 38.8091 23.308 40.7186L23.3166 42.7492C23.3195 44.1857 23.4693 45.0106 23.8266 45.5616C24.1032 45.9913 24.809 46.7009 25.3939 47.1365C26.0825 47.6499 26.9497 47.9816 27.8486 48.0739C29.0875 48.2037 29.269 48.3133 29.5168 49.0835C29.6666 49.5594 30.2169 50.3555 30.7355 50.8545C31.2541 51.3507 32.0983 51.9679 32.614 52.2247C33.1298 52.4785 34.1007 52.6948 34.7749 52.7006C35.8294 52.7092 36.0801 52.8362 36.5756 53.6236C36.8925 54.1226 37.7338 54.8409 38.4483 55.2158C39.353 55.6889 40.203 55.8908 41.2575 55.8793C42.649 55.862 42.8104 55.9341 43.2743 56.7388C43.5508 57.2234 44.2884 57.9676 44.9107 58.3974C45.7203 58.957 46.4954 59.2108 47.6478 59.2887C48.5295 59.3493 49.705 59.257 50.261 59.0839C50.8142 58.9108 51.497 58.5359 51.7736 58.2532C52.2576 57.757 52.3527 57.7628 54.1506 58.3859C55.2108 58.7522 56.7119 59.0349 57.6079 59.0349C58.478 59.0349 59.5498 58.8964 59.9849 58.7262C60.4199 58.5589 61.0365 58.1638 61.3534 57.8522C61.7654 57.4426 62.3848 57.2667 63.5373 57.2205C64.7503 57.1744 65.485 56.9465 66.5366 56.2946C67.3318 55.8014 68.15 54.9966 68.4496 54.4197C68.9077 53.5284 69.1123 53.4015 70.2043 53.3438C70.8813 53.3063 72.0107 52.9833 72.7109 52.6227C73.4138 52.2622 74.2868 51.6103 74.6556 51.1747C75.0244 50.7392 75.4018 50.0238 75.494 49.5883C75.5862 49.1527 75.7159 48.6335 75.7821 48.4345C75.8513 48.2326 76.3814 48.071 76.9836 48.0682C77.5771 48.0653 78.5826 47.8259 79.2165 47.5403C79.8503 47.2547 80.7262 46.6086 81.1612 46.1038C81.5963 45.6019 82.0342 44.702 82.1322 44.1078C82.2301 43.5136 82.2388 42.7002 82.1523 42.305C82.0659 41.907 81.919 41.356 81.8297 41.0791C81.7058 40.6984 81.9334 40.4618 82.7459 40.1215C83.3394 39.8705 86.0937 38.9014 88.8683 37.9697C91.6399 37.0351 95.6591 35.8121 97.7998 35.2496C99.9376 34.69 101.851 34.2285 102.049 34.2285C102.297 34.2285 102.41 34.765 102.41 35.9592C102.41 36.9111 102.202 38.6966 101.949 39.9253C101.695 41.1541 101.151 43.0031 100.736 44.0357C100.324 45.0654 99.249 47.0124 98.3501 48.3624C97.382 49.8133 95.5496 51.9304 93.8613 53.5544C92.2939 55.0601 89.9141 57.0244 88.5715 57.9186C87.2289 58.8128 84.705 60.2608 82.9619 61.1376C81.2189 62.0145 78.1072 63.3154 76.0472 64.0221C73.9872 64.7317 70.8093 65.6518 68.9884 66.0614C67.1647 66.4739 64.2489 67.0306 62.5059 67.3017C60.1664 67.6623 57.4495 67.7892 52.1338 67.7921C46.1381 67.795 44.2538 67.6911 40.8973 67.1661C38.6788 66.82 35.112 66.0758 32.9742 65.5105C30.8335 64.9451 27.3992 63.8086 25.3392 62.9866C23.2792 62.1616 20.4902 60.8578 19.1447 60.0848C17.7963 59.3118 15.9178 58.1291 14.9671 57.4542C14.0163 56.7792 12.3452 55.4639 11.2533 54.5322C10.1613 53.5977 8.43553 51.7949 7.41849 50.5257C6.40144 49.2566 4.99257 47.0499 4.28669 45.6221C3.58081 44.1943 2.74528 41.9877 2.42835 40.7186Z" fill="#FF6C0E"/>
<path fill-rule="evenodd" clip-rule="evenodd" d="M212.325 7.55885C213.434 7.63673 215.183 7.98575 216.214 8.33188C217.246 8.6809 218.669 9.42797 219.384 9.99621C220.228 10.6683 221.009 11.6807 221.622 12.8922C222.141 13.9191 222.562 15.1796 222.553 16.6333L216.359 16.6535L215.854 15.344C215.543 14.5421 214.99 13.7922 214.414 13.4028C213.898 13.0537 212.895 12.7105 212.181 12.6413C211.466 12.572 210.527 12.598 210.092 12.6989C209.657 12.7999 208.894 13.2412 208.395 13.6768C207.9 14.1123 207.234 14.9892 206.92 15.6238C206.603 16.2584 206.234 17.5564 206.102 18.5082C205.955 19.5409 205.972 20.937 206.139 21.9696C206.295 22.9215 206.681 24.2512 206.998 24.9262C207.384 25.754 207.969 26.3857 208.796 26.8674C209.568 27.3174 210.472 27.5827 211.245 27.5885C211.919 27.5914 212.89 27.4212 213.405 27.2106C213.921 26.9972 214.699 26.4145 215.134 25.9126C215.569 25.4107 216.056 24.4791 216.503 22.6907L222.697 22.8349L222.608 23.8445C222.556 24.3983 222.153 25.6328 221.709 26.5847C221.265 27.5366 220.398 28.8202 219.784 29.4375C219.168 30.0518 217.822 30.9604 216.791 31.4566C215.013 32.3075 214.742 32.3536 211.461 32.3479C208.614 32.3421 207.724 32.2296 206.419 31.7191C205.5 31.3585 204.125 30.4528 203.149 29.5615C202.025 28.5385 201.189 27.4501 200.642 26.2963C200.192 25.3444 199.68 23.657 199.501 22.5465C199.268 21.0754 199.265 19.9014 199.492 18.2198C199.671 16.8958 200.146 15.1738 200.604 14.1816C201.045 13.2297 201.933 11.8682 202.581 11.1529C203.226 10.4404 204.451 9.47701 205.304 9.01838C206.154 8.55687 207.629 8.00882 208.579 7.79826C209.588 7.57327 211.149 7.47231 212.325 7.55885V7.55885ZM235.374 7.45212C236.008 7.43193 237.434 7.54731 238.543 7.71172C239.653 7.87325 241.142 8.26842 241.857 8.58571C242.571 8.90589 243.459 9.45105 243.83 9.80007C244.202 10.1462 244.752 10.9192 245.055 11.5134C245.553 12.497 245.596 13.1922 245.458 25.7627L244.594 27.4558C244.09 28.4423 243.248 29.524 242.577 30.0461C241.943 30.5364 240.647 31.2431 239.696 31.6152C238.428 32.1085 237.163 32.3277 234.942 32.4344C232.499 32.5498 231.611 32.4777 230.332 32.0508C229.462 31.7623 228.24 31.0614 227.621 30.496C227.001 29.9307 226.238 28.8836 225.921 28.1712C225.538 27.303 225.351 26.253 225.356 24.9983C225.359 23.7839 225.561 22.6676 225.927 21.8254C226.238 21.1129 226.932 20.1322 227.474 19.6476C228.016 19.163 229.206 18.4823 230.116 18.1333C231.026 17.7842 233.101 17.2968 234.726 17.0516C236.351 16.8064 238.068 16.3795 238.543 16.0997C239.022 15.8199 239.439 15.3123 239.48 14.9604C239.52 14.6113 239.422 14.0662 239.264 13.7489C239.105 13.4316 238.489 13.0422 237.895 12.8864C237.302 12.7278 236.328 12.598 235.734 12.598C235.141 12.5951 234.233 12.7855 233.717 13.0162C233.202 13.247 232.522 13.8989 231.629 15.4853L228.819 15.4824C226.1 15.4796 226.01 15.4594 226.007 14.8306C226.005 14.4729 226.201 13.5008 226.44 12.6672C226.748 11.5942 227.252 10.775 228.171 9.85487C229.105 8.92031 229.891 8.43861 230.98 8.13862C231.813 7.90787 232.882 7.66846 233.357 7.605C233.833 7.54154 234.74 7.47231 235.374 7.45212V7.45212ZM235.374 21.41C233.599 21.7936 232.888 22.0965 232.277 22.7311C231.68 23.3512 231.485 23.8445 231.485 24.7098C231.485 25.5204 231.692 26.1001 232.182 26.6568C232.795 27.3549 233.078 27.4501 234.559 27.4385C235.847 27.4299 236.506 27.2568 237.391 26.6972C238.025 26.2963 238.759 25.5232 239.024 24.9781C239.292 24.4329 239.578 23.1782 239.664 22.1859C239.779 20.8706 239.727 20.3889 239.471 20.4062C239.278 20.4178 238.797 20.5389 238.399 20.6716C238.005 20.8043 236.642 21.136 235.374 21.41ZM129.492 7.72903C130.521 7.71172 132.079 7.87037 132.95 8.07805C133.82 8.28573 135.053 8.72128 136.839 9.63277L138.424 8.90877C139.294 8.50783 140.916 8.06074 142.025 7.91363C143.342 7.7348 144.742 7.74634 146.059 7.94248C147.168 8.10689 148.562 8.44149 149.156 8.68667C149.75 8.93185 150.787 9.63277 151.461 10.2443C152.135 10.8558 153.011 12.0586 153.406 12.9124C154.12 14.4556 154.126 14.5479 154.27 32.4979H152.469C151.331 32.4979 150.3 32.3104 149.663 31.9931C149.113 31.7162 148.499 31.1624 148.3 30.7672C148.041 30.248 147.94 28.001 147.932 15.4796L146.995 14.5104C146.381 13.8729 145.661 13.4691 144.906 13.3335C144.272 13.221 143.235 13.2614 142.601 13.4258C141.968 13.5874 141.126 14.0633 140.008 15.2373L139.864 32.2094H133.526V23.9887C133.526 17.2593 133.448 15.6122 133.094 14.9027C132.849 14.4123 132.224 13.8498 131.653 13.6047C131.097 13.3653 130.126 13.172 129.492 13.172C128.858 13.172 127.879 13.3999 127.314 13.6768C126.706 13.9768 126.121 14.5623 125.874 15.119C125.545 15.8632 125.459 17.7208 125.459 32.2094H119.12L119.207 23.6282C119.29 15.3498 119.319 14.9863 119.984 13.3162C120.365 12.3644 121.071 11.1471 121.555 10.6106C122.039 10.0741 123.082 9.3126 123.874 8.91743C124.666 8.52514 125.833 8.10112 126.467 7.97709C127.101 7.85595 128.464 7.74345 129.492 7.72903V7.72903ZM168.82 7.71749C169.946 7.70018 171.537 7.89344 172.421 8.15881C173.291 8.41841 174.461 8.92319 175.014 9.28375C175.567 9.64431 176.489 10.4375 177.057 11.049C177.627 11.6605 178.356 12.6153 178.679 13.172C179.002 13.7258 179.494 14.894 179.777 15.768C180.062 16.6535 180.301 18.3121 180.344 21.6811L163.49 21.8254L163.654 22.907C163.743 23.5012 164.046 24.4416 164.325 24.9983C164.608 25.5521 165.279 26.2992 165.82 26.6539C166.359 27.0116 167.385 27.3779 168.099 27.4731C168.814 27.5654 169.978 27.4904 170.693 27.303C171.407 27.1155 172.41 26.6511 172.925 26.2703C173.441 25.8867 173.928 25.3156 174.006 24.9983C174.138 24.4704 174.389 24.4214 177.031 24.4214C178.76 24.4214 179.912 24.5368 179.912 24.7098C179.912 24.8685 179.592 25.679 179.201 26.5126C178.812 27.3462 178.117 28.4798 177.662 29.0365C177.204 29.5903 176.066 30.4528 175.129 30.9518C174.196 31.4508 172.75 32.0017 171.917 32.1777C171.084 32.3536 169.756 32.4979 168.964 32.4979C168.172 32.4979 166.843 32.3508 166.011 32.1748C165.178 31.996 163.881 31.5402 163.13 31.1652C162.378 30.7874 161.165 29.9278 160.439 29.2528C159.695 28.5635 158.753 27.2683 158.286 26.2963C157.817 25.3156 157.304 23.5647 157.105 22.258C156.831 20.4495 156.831 19.5149 157.105 17.9314C157.298 16.8208 157.822 15.1334 158.269 14.1816C158.793 13.071 159.669 11.9057 160.712 10.9365C161.605 10.1029 162.899 9.13664 163.585 8.79051C164.27 8.44149 165.276 8.06363 165.818 7.95402C166.359 7.84152 167.711 7.7348 168.82 7.71749V7.71749ZM165.524 13.7056C164.979 14.1268 164.299 14.9892 164.017 15.6238C163.735 16.2584 163.498 16.9391 163.495 17.1381C163.493 17.4121 164.714 17.4987 168.676 17.4987C171.528 17.4987 173.865 17.467 173.868 17.4266C173.87 17.3862 173.669 16.7689 173.421 16.0565C173.173 15.3411 172.683 14.4498 172.335 14.0719C171.986 13.6941 171.28 13.2095 170.765 12.9903C170.249 12.7739 169.341 12.6095 168.748 12.6297C168.154 12.647 167.408 12.7249 167.091 12.8028C166.774 12.8807 166.068 13.2874 165.524 13.7056ZM197.775 7.69153V14.0373L195.398 14.2392C193.716 14.3806 192.768 14.6142 192.157 15.0354C191.682 15.3642 191.033 16.1488 190.716 16.7805C190.192 17.8275 190.134 18.5919 189.996 32.4979H183.946L183.949 24.9262C183.952 19.5265 184.064 16.942 184.338 15.9122C184.551 15.119 185.055 13.821 185.461 13.0278C185.867 12.2346 186.631 11.1788 187.161 10.6798C187.691 10.1808 188.705 9.47413 189.42 9.1078C190.134 8.74436 191.431 8.28573 192.301 8.09247C193.171 7.89921 194.762 7.72903 197.775 7.69153V7.69153ZM165.506 35.9592V67.9767H159.168L159.312 39.2302L160.107 38.1485C160.545 37.5514 161.323 36.8159 161.836 36.513C162.401 36.1784 163.311 35.9621 165.506 35.9592ZM171.845 35.9592H177.895V41.7281H171.845V35.9592ZM189.996 35.9592L189.987 46.4875L191.218 45.276C191.892 44.6097 192.964 43.8511 193.598 43.5915C194.292 43.3088 195.554 43.1242 196.767 43.1271C198.049 43.13 199.36 43.3405 200.368 43.7069C201.501 44.1193 202.365 44.7222 203.402 45.8183C204.425 46.9028 205.044 47.9009 205.514 49.2277C205.984 50.5546 206.228 52.0314 206.344 54.2755C206.447 56.3119 206.378 58.1205 206.145 59.3233C205.946 60.3531 205.425 61.9107 204.99 62.7847C204.552 63.6558 203.627 64.8615 202.93 65.4643C202.235 66.0643 200.95 66.8373 200.08 67.1834C198.772 67.6998 197.89 67.8094 195.038 67.818C192.506 67.8267 191.195 67.6998 190.14 67.3363C189.348 67.0652 188.083 66.3845 187.331 65.822C186.32 65.072 185.718 64.2961 184.09 60.9242L183.94 38.6994L184.735 37.8687C185.173 37.413 186.049 36.7986 186.683 36.5073C187.317 36.213 188.322 35.9679 189.996 35.9592ZM190.866 51.391C190.247 52.6371 190.149 53.2256 190.149 55.7177C190.149 58.008 190.27 58.8704 190.737 59.9002C191.062 60.6127 191.739 61.4895 192.246 61.8472C192.751 62.2049 193.782 62.5712 194.534 62.6606C195.62 62.7904 196.17 62.6866 197.199 62.1558C198.101 61.6914 198.714 61.0915 199.216 60.1886C199.861 59.0233 199.936 58.5647 199.936 55.7091C199.936 52.8823 199.855 52.3746 199.216 51.1286C198.752 50.2257 198.138 49.5363 197.487 49.1873C196.882 48.8643 195.897 48.6479 195.018 48.6508C193.989 48.6508 193.266 48.8441 192.569 49.2998C192.001 49.6719 191.275 50.5632 190.866 51.391ZM223.976 43.1703L223.85 49.6604L221.401 49.8161C220.012 49.9056 218.663 50.1565 218.286 50.393C217.92 50.6238 217.338 51.267 216.99 51.8237C216.387 52.7871 216.356 53.1765 216.214 67.9767H209.876L209.882 60.9819C209.885 56.211 210.011 53.39 210.279 52.1122C210.493 51.0795 210.994 49.5883 211.391 48.795C211.789 48.0018 212.711 46.8019 213.443 46.1269C214.175 45.452 215.39 44.6328 216.142 44.3068C216.894 43.9809 218.159 43.6059 218.952 43.4761C219.744 43.3463 221.199 43.2223 223.976 43.1703ZM237.247 43.1934C238.278 43.179 239.834 43.3723 240.704 43.6261C241.574 43.8799 242.926 44.4972 243.701 44.9991C244.478 45.501 245.464 46.3634 245.896 46.9201C246.325 47.474 246.974 48.5124 247.337 49.2277C247.7 49.9402 248.169 51.1747 248.38 51.9679C248.593 52.7612 248.766 54.287 248.771 57.3042H232.061L232.064 58.2416C232.067 58.758 232.358 59.7473 232.712 60.4425C233.086 61.1751 233.781 61.951 234.366 62.2914C234.919 62.6174 236.089 62.9433 236.959 63.0154C238.123 63.1164 238.889 63.0039 239.84 62.5914C240.554 62.2856 241.525 61.553 242.865 59.9002H245.53C246.997 59.9002 248.244 59.9983 248.308 60.1165C248.368 60.2348 248.135 60.9819 247.789 61.7751C247.44 62.5683 246.582 63.849 245.876 64.622C245.17 65.3922 244.075 66.2893 243.441 66.6123C242.807 66.9354 241.641 67.3738 240.848 67.5844C240.056 67.7978 238.5 67.9709 237.391 67.9709C236.282 67.9709 234.726 67.7978 233.934 67.5844C233.141 67.3738 232.038 66.9671 231.485 66.6844C230.931 66.3989 230.021 65.8162 229.468 65.3864C228.915 64.9566 228.033 63.9673 227.511 63.1885C226.99 62.4126 226.304 60.9299 225.993 59.9002C225.627 58.7031 225.423 57.1917 225.423 55.7177C225.423 54.2438 225.627 52.7323 225.993 51.5353C226.304 50.5026 226.99 49.0229 227.511 48.2412C228.033 47.4595 228.978 46.4067 229.612 45.8962C230.246 45.3885 231.219 44.7424 231.773 44.4568C232.326 44.1741 233.363 43.779 234.078 43.5828C234.792 43.3838 236.215 43.2078 237.247 43.1934V43.1934ZM233.968 49.1066C233.51 49.4123 232.893 50.1478 232.6 50.742C232.303 51.3362 232.061 52.0833 232.061 52.4006C232.061 52.9544 232.254 52.9775 237.175 52.9833L242.289 52.9919C241.934 51.5266 241.577 50.6815 241.266 50.1652C240.958 49.6488 240.284 49.0171 239.768 48.7633C239.252 48.5066 238.249 48.2528 237.535 48.1951C236.82 48.1374 235.913 48.1951 235.518 48.322C235.121 48.4489 234.423 48.8037 233.968 49.1066V49.1066ZM171.845 44.3241H177.895V67.9767H171.845V44.3241Z" fill="#FF6C0E"/>
<path d="M46.5155 16.0132C47.5441 15.5142 49.1662 14.9402 50.117 14.7383C51.0677 14.5364 52.9462 14.3633 54.2946 14.3518C55.836 14.3373 57.6511 14.5479 59.1925 14.92C60.5409 15.2431 62.8084 16.0074 64.2345 16.6161C65.6607 17.2276 67.6055 17.9833 68.5562 18.2977C69.507 18.6092 71.0628 19.0419 72.0136 19.2582C73.0393 19.489 75.3845 19.6419 77.7759 19.6361C80.8673 19.6274 82.3799 19.4832 84.2584 19.0217C85.6068 18.69 88.0039 17.94 92.4697 16.2988L94.5816 18.4131C95.7427 19.5755 97.4656 21.6956 98.4106 23.1234C99.3527 24.5512 100.491 26.6944 100.94 27.8828C101.39 29.074 101.833 30.4355 102.09 31.7768L98.8658 32.6046C97.091 33.0604 93.4983 34.1276 90.8851 34.9756C88.2719 35.8208 84.8347 37.0409 83.25 37.6841C81.6654 38.3274 80.271 38.8495 80.1528 38.8495C80.0347 38.8466 78.4126 37.5284 76.5514 35.9246C74.6902 34.318 70.7027 30.8941 67.6919 28.3212C64.6811 25.7454 61.2468 22.9301 60.0569 22.0677C58.8699 21.2052 57.3774 20.3255 56.7436 20.1149C56.0924 19.8986 54.8363 19.7803 53.8538 19.8409C52.6639 19.9159 51.618 20.2101 50.5405 20.7726C49.6733 21.2254 47.668 22.6042 46.0834 23.833C44.4987 25.0646 42.6519 26.3482 41.9777 26.6886C41.1134 27.1241 40.226 27.3059 38.9525 27.303C37.9614 27.3001 36.8378 27.1357 36.4546 26.9424C36.0714 26.7463 35.7141 26.4232 35.6623 26.2242C35.6104 26.0252 36.6908 24.6637 38.0623 23.1955C39.4337 21.7273 41.4764 19.7169 42.6001 18.7246C43.7237 17.7324 45.487 16.5151 46.5155 16.0132Z" fill="white"/>
<path d="M8.83312 19.1746C9.51307 18.4304 10.6713 17.3055 11.406 16.6766L12.7457 15.5315L14.8633 16.3478C16.0302 16.7978 18.5397 17.64 20.4412 18.2198C22.3428 18.7996 25.0021 19.5207 26.3476 19.8236C27.6931 20.1236 29.8337 20.3745 31.1014 20.3803C32.6832 20.3832 34.2448 20.1611 36.0714 19.6649C37.5379 19.2669 38.7422 19.039 38.748 19.1573C38.7537 19.2755 37.6733 20.5418 36.3451 21.9696C35.0169 23.3974 33.778 24.857 33.5965 25.2146C33.4121 25.5723 33.2623 26.0569 33.2623 26.2963C33.2623 26.5357 33.6196 27.127 34.0546 27.6116C34.5156 28.125 35.4491 28.6846 36.2875 28.95C37.0798 29.1981 38.506 29.4 39.4567 29.3971C40.5372 29.3913 41.6723 29.1779 42.4819 28.8202C43.1936 28.5058 45.2046 27.1761 46.9477 25.8665C48.6908 24.557 50.7335 23.1782 51.4855 22.8003C52.4536 22.3129 53.3381 22.1138 54.5107 22.1167C55.8072 22.1196 56.4814 22.2984 57.6079 22.9503C58.4002 23.4061 61.0566 25.4656 63.5142 27.5251C65.9719 29.5875 70.573 33.5305 73.7423 36.2938C76.9144 39.0571 79.6832 41.6993 79.8993 42.1695C80.1701 42.7579 80.2162 43.2886 80.0433 43.8598C79.905 44.3184 79.4268 44.9674 78.9802 45.302C78.4155 45.7231 77.7413 45.9106 76.7877 45.9106C75.4652 45.9106 75.301 45.8125 72.878 43.603C71.4864 42.3339 69.556 40.6119 68.5879 39.7754C67.6199 38.9389 66.5999 38.2553 66.3234 38.261C66.0352 38.2639 65.822 38.4831 65.822 38.7716C65.8249 39.0485 67.5738 41.0272 69.7058 43.1704C73.0739 46.5538 73.5838 47.1884 73.5896 48.0018C73.5954 48.5182 73.4686 49.1989 73.3101 49.5162C73.1517 49.8335 72.6014 50.3498 72.0856 50.6613C71.5555 50.9844 70.6191 51.2324 69.9248 51.2382C68.755 51.2469 68.5505 51.1055 65.387 48.074C63.5661 46.3289 61.8778 44.9011 61.6415 44.9011C61.4053 44.9011 61.146 45.0972 61.0653 45.3337C60.9788 45.5962 61.9642 46.9605 63.5863 48.8181C65.0528 50.4969 66.3637 52.0862 66.4991 52.3516C66.6345 52.617 66.6691 53.1246 66.5711 53.4823C66.4732 53.84 65.9747 54.3909 65.459 54.7082C64.9433 55.0226 64.0357 55.2822 63.4422 55.2851C62.477 55.2851 62.0737 55.0111 59.6247 52.6891C58.0545 51.1978 56.6427 50.0931 56.3114 50.0931C55.9916 50.0931 55.7352 50.2863 55.7352 50.5257C55.7352 50.7623 56.7695 52.0949 58.0314 53.4823C60.0828 55.7351 60.2816 56.0524 59.8898 56.4389C59.6506 56.6754 58.7777 56.9206 57.9537 56.9812C56.8646 57.059 56.0809 56.9206 55.0869 56.4764C53.8077 55.9024 53.7385 55.8158 54.0065 55.1409C54.165 54.7457 54.2975 53.9323 54.2975 53.3381C54.3004 52.7208 53.9604 51.5815 53.5052 50.6873C53.0183 49.7296 52.3181 48.8672 51.7016 48.4749C51.1455 48.1201 50.1429 47.6903 49.4687 47.5173C48.2701 47.2144 48.2385 47.1769 47.9561 45.6222C47.7515 44.4886 47.4 43.7415 46.7316 43.0088C46.1439 42.3656 45.2622 41.8147 44.3547 41.5291C43.4644 41.2493 42.5021 41.1455 41.8337 41.258C40.857 41.4224 40.6639 41.3416 39.8169 40.4071C39.1542 39.6744 38.4195 39.2446 37.2959 38.9331C36.3134 38.662 35.3281 38.5726 34.7029 38.6966C34.1497 38.8091 33.3689 39.0687 32.9742 39.2764C32.3317 39.6138 32.1675 39.5792 31.4616 38.9591C31.0265 38.5783 30.1507 38.137 29.5168 37.9784C28.7159 37.7793 27.9898 37.788 27.1399 38.013C26.4657 38.1918 25.6561 38.512 25.3392 38.7225C24.8263 39.0687 24.4258 38.9418 21.7377 37.5947C20.0724 36.7611 17.2864 35.6016 15.5433 35.0218C13.8002 34.4391 10.5589 33.4988 8.34044 32.9306C6.12197 32.3623 3.81994 31.7739 2.146 31.3441L2.57529 29.8298C2.81154 28.9962 3.47132 27.3434 4.0389 26.1521C4.60649 24.9637 5.64082 23.2099 6.33517 22.2581C7.02664 21.3062 8.15317 19.9188 8.83312 19.1746Z" fill="white"/>
<path d="M25.6561 41.1945C25.9125 40.8224 26.5291 40.3378 27.0275 40.1186C27.5231 39.8994 28.2549 39.7898 28.6496 39.8792C29.0472 39.9657 29.6637 40.2225 30.0181 40.4503C30.3754 40.6782 30.8796 41.3503 31.6114 43.0262L32.5795 42.0887C33.1125 41.5753 34.0344 41.0243 34.628 40.8686C35.3338 40.684 36.0599 40.684 36.7168 40.8686C37.2728 41.0243 37.8635 41.2493 38.0306 41.3676C38.1977 41.4859 38.5549 41.9099 38.8258 42.305C39.0937 42.7031 39.3156 43.3204 39.3127 43.6752C39.3127 44.0328 39.474 44.3213 39.6699 44.3184C39.8687 44.3126 40.226 44.1136 40.4623 43.8742C40.7014 43.6348 41.4793 43.3723 42.1909 43.2886C43.1878 43.1733 43.7064 43.2771 44.4238 43.7328C44.9395 44.0588 45.5705 44.8116 45.8241 45.4058C46.2159 46.3202 46.2361 46.7356 45.9537 48.074C45.7693 48.9479 45.6915 49.7267 45.7837 49.8046C45.873 49.8854 46.4982 49.7989 47.1667 49.6143C47.9734 49.395 48.6793 49.372 49.2497 49.5508C49.7251 49.6979 50.3734 49.9863 50.6903 50.194C51.0072 50.4017 51.4941 51.0478 51.7707 51.6305C52.0502 52.2131 52.2749 53.015 52.2749 53.4102C52.2749 53.8083 52.0502 54.6101 51.7707 55.1957C51.4941 55.7812 50.8776 56.4966 50.4022 56.7821C49.9268 57.0677 48.9875 57.3042 48.3134 57.3042C47.6421 57.3042 46.6999 57.111 46.2245 56.8715C45.7491 56.635 45.1038 56.0177 44.7868 55.5014C44.4699 54.988 44.2106 54.2092 44.2106 53.7708C44.2077 53.2054 44.0637 52.9804 43.7035 52.9862C43.427 52.9891 43.0063 53.1881 42.7672 53.4304C42.5309 53.6698 41.8827 53.8775 41.3266 53.8919C40.7734 53.9034 39.8976 53.7044 39.3818 53.4477C38.869 53.1881 38.2495 52.6862 38.0133 52.3285C37.7742 51.9737 37.5811 51.3565 37.5869 50.9584C37.5926 50.5632 37.4976 50.145 37.3737 50.0296C37.2498 49.9171 36.7946 50.0152 36.3566 50.2459C35.9216 50.4796 35.112 50.67 34.5559 50.67C33.8702 50.67 33.2565 50.419 32.6371 49.8767C32.1329 49.4412 31.5509 48.6624 31.3406 48.1461C31.1274 47.6326 30.9545 46.7558 30.9545 46.1991C30.9545 45.6452 30.8594 45.1953 30.7384 45.201C30.6203 45.2068 30.1996 45.3972 29.802 45.6222C29.4073 45.85 28.6611 46.0404 28.1454 46.0462C27.451 46.0519 26.9497 45.7952 26.2006 45.0453C25.4083 44.252 25.1922 43.805 25.1922 42.954C25.1893 42.3598 25.3997 41.5666 25.6561 41.1945Z" fill="white"/>
</svg>
