<svg width="300" height="76" viewBox="0 0 300 76" fill="none" xmlns="http://www.w3.org/2000/svg">
<path fill-rule="evenodd" clip-rule="evenodd" d="M54.3921 0.0145976C55.7662 0.00729879 57.945 0.0709026 59.2327 0.157445C60.5215 0.243988 62.3006 0.387879 63.1885 0.476507C64.0765 0.566178 65.4579 0.731965 66.2595 0.845617C67.061 0.95927 68.3727 1.16989 69.1743 1.31378C69.9758 1.45767 71.1698 1.69228 71.8288 1.83304C72.4877 1.97485 73.8223 2.29703 74.7956 2.54936C75.769 2.80065 77.268 3.22607 78.1268 3.49299C78.9857 3.76096 80.3442 4.21662 81.1457 4.50648C81.9473 4.79635 83.3995 5.37296 84.3728 5.78794C85.3461 6.20293 86.9389 6.9422 87.9122 7.43017C88.8855 7.91815 90.268 8.65741 90.9831 9.07449C91.6993 9.49156 92.7997 10.1714 93.4295 10.5853C94.0593 11.0003 95.0659 11.7031 95.6676 12.1494C96.2693 12.5946 97.1594 13.2911 97.6455 13.6957C98.1317 14.1013 98.9707 14.8332 99.5079 15.3233C100.046 15.8134 100.999 16.7768 101.625 17.465C102.252 18.1531 103.223 19.3262 103.784 20.0717C104.344 20.8172 105.106 21.9204 105.478 22.522C105.849 23.1236 106.399 24.11 106.701 24.7116C107.003 25.3133 107.452 26.3226 107.698 26.9534C107.945 27.5842 108.309 28.6634 108.508 29.3516C108.706 30.0398 108.978 31.2128 109.112 31.9583C109.339 33.2168 109.357 33.5838 109.357 37.0674C109.357 39.5928 109.313 41.1277 109.221 41.7595C109.147 42.2757 108.974 43.261 108.836 43.9492C108.698 44.6373 108.422 45.7634 108.223 46.4516C108.023 47.1398 107.597 48.3597 107.276 49.1626C106.954 49.9655 106.398 51.1854 106.041 51.8736C105.685 52.5617 105.09 53.6096 104.72 54.2019C104.351 54.7952 103.656 55.8035 103.177 56.4437C102.699 57.0849 101.92 58.0536 101.447 58.5989C100.974 59.1442 99.9368 60.2182 99.1425 60.9877C98.3482 61.7561 97.0886 62.8749 96.3443 63.4734C95.6 64.0709 94.1946 65.0906 93.2213 65.7392C92.248 66.3877 90.8895 67.2365 90.2024 67.6254C89.5153 68.0143 88.11 68.7421 87.0794 69.2437C86.0488 69.7442 84.3853 70.4803 83.3839 70.8796C82.3814 71.279 80.6721 71.8963 79.5842 72.2518C78.4964 72.6074 76.7163 73.1287 75.6284 73.4092C74.5406 73.6907 72.7136 74.1088 71.5685 74.3382C70.4235 74.5676 68.5028 74.895 67.3005 75.066C66.0981 75.2381 64.3648 75.4497 63.4488 75.5373C62.5327 75.6249 60.1904 75.7761 58.2438 75.8741C54.9053 76.042 54.5004 76.042 51.113 75.8741C49.1371 75.7761 46.6086 75.6009 45.4916 75.4841C44.3746 75.3684 42.6653 75.1557 41.6919 75.0108C40.7186 74.8669 39.079 74.5843 38.0484 74.3831C37.0179 74.1808 35.5188 73.8534 34.7173 73.6532C33.9157 73.453 32.6269 73.1079 31.8545 72.8847C31.0821 72.6616 29.8402 72.2706 29.0959 72.0151C28.3516 71.7597 27.3439 71.402 26.8577 71.2206C26.3716 71.0381 25.317 70.6054 24.5155 70.2582C23.7139 69.9099 22.3794 69.2854 21.5486 68.8693C20.7179 68.4523 19.4531 67.7714 18.7379 67.3543C18.0228 66.9383 16.758 66.1385 15.9273 65.5776C15.0965 65.0166 13.7849 64.0521 13.0125 63.4349C12.24 62.8176 10.9107 61.6289 10.0592 60.7948C9.20762 59.9596 8.05836 58.7376 7.50559 58.0775C6.95282 57.4175 6.16687 56.4093 5.75984 55.8358C5.35281 55.2623 4.75111 54.3479 4.42216 53.8025C4.09424 53.2572 3.52065 52.202 3.14798 51.4565C2.77634 50.711 2.26937 49.5849 2.0237 48.9541C1.77802 48.3232 1.40743 47.2441 1.19923 46.5559C0.99207 45.8677 0.708919 44.7416 0.569425 44.0534C0.430973 43.3653 0.245675 42.1922 0.158232 41.4467C0.0510089 40.5323 0 39.1153 0 37.0935C0 34.9633 0.0478859 33.7267 0.165519 32.8185C0.256085 32.1157 0.509048 30.8374 0.728698 29.9772C0.947307 29.117 1.34393 27.8501 1.61042 27.1619C1.87588 26.4738 2.4453 25.2309 2.87627 24.3988C3.30621 23.5668 4.04948 22.3009 4.52938 21.5836C5.00824 20.8673 5.71924 19.883 6.10961 19.3981C6.49999 18.9122 7.24326 18.0447 7.76272 17.4691C8.28113 16.8936 9.17118 15.9917 9.74061 15.4651C10.309 14.9396 11.1491 14.1962 11.6071 13.8135C12.0652 13.4308 12.9084 12.7645 13.4809 12.3339C14.0535 11.9022 15.108 11.1619 15.8232 10.6886C16.5394 10.2152 17.7105 9.48843 18.4256 9.0724C19.1419 8.65637 20.4535 7.95152 21.3404 7.5042C22.2274 7.05793 23.5869 6.41356 24.3593 6.07051C25.1318 5.72851 26.5142 5.1665 27.4303 4.82033C28.3463 4.4752 29.7746 3.97367 30.6053 3.70674C31.436 3.44086 32.7935 3.03526 33.6242 2.80795C34.4549 2.5796 36.0705 2.18442 37.2156 1.92897C38.3607 1.67455 40.0003 1.34819 40.8591 1.20326C41.718 1.05937 43.3336 0.825806 44.4506 0.685044C45.5676 0.543239 47.1592 0.376409 47.99 0.313848C48.8207 0.251287 50.0376 0.161616 50.6966 0.114695C51.3555 0.0677745 53.018 0.0229391 54.3921 0.0145976V0.0145976ZM274.099 0L274.04 24.2424L273.8 25.0766C273.667 25.5354 273.384 26.2861 273.17 26.7449C272.957 27.2036 272.591 27.8605 272.358 28.2046C272.126 28.5487 271.637 29.1274 271.271 29.4892C270.906 29.8521 270.279 30.3672 269.878 30.633C269.478 30.9 268.799 31.2649 268.369 31.4463C267.94 31.6267 267.191 31.8738 266.703 31.9948C266.216 32.1168 265.491 32.2628 265.09 32.3201C264.689 32.3764 263.705 32.4244 262.904 32.4244C262.099 32.4254 260.957 32.3514 260.353 32.2607C259.752 32.17 258.863 31.9791 258.375 31.8363C257.888 31.6945 257.163 31.4255 256.762 31.2409C256.361 31.0553 255.752 30.7133 255.409 30.4808C255.065 30.2493 254.527 29.7812 254.211 29.4412C253.896 29.1013 253.469 28.5675 253.262 28.2536C253.054 27.9398 252.721 27.3548 252.52 26.9534C252.32 26.552 252.032 25.8482 251.88 25.3894C251.728 24.9306 251.523 24.1559 251.425 23.6689C251.286 22.9829 251.247 22.253 251.251 20.4366C251.255 18.4899 251.294 17.8862 251.48 16.8915C251.603 16.2315 251.841 15.2701 252.008 14.754C252.175 14.2379 252.488 13.4642 252.703 13.0336C252.919 12.604 253.252 12.0055 253.444 11.7041C253.638 11.4028 254.112 10.822 254.498 10.4133C254.884 10.0046 255.481 9.46966 255.825 9.22672C256.169 8.98273 256.755 8.6303 257.126 8.4447C257.498 8.25806 258.248 7.98905 258.792 7.8462C259.604 7.63245 260.041 7.58449 261.238 7.57615C262.463 7.56885 262.828 7.6043 263.528 7.80554C263.986 7.93587 264.666 8.2028 265.038 8.39778C265.409 8.59172 266.015 9.02235 266.384 9.35497C266.751 9.68654 267.232 10.1808 267.849 10.9482L267.878 7.16846C267.907 3.46588 267.913 3.37621 268.156 2.76312C268.327 2.33144 268.585 1.95712 268.985 1.55673C269.324 1.2189 269.826 0.853959 270.191 0.684001C270.534 0.522385 271.19 0.306549 271.648 0.204366C272.106 0.10114 272.845 0.0135549 274.099 0V0ZM260.483 13.4371C260.24 13.5591 259.846 13.8354 259.608 14.0502C259.37 14.265 259.025 14.6758 258.843 14.9625C258.661 15.2493 258.389 15.7883 258.24 16.1616C258.091 16.5349 257.898 17.1793 257.808 17.5953C257.72 18.0113 257.618 18.809 257.582 19.3679C257.545 19.9486 257.571 20.8756 257.643 21.5314C257.712 22.1623 257.885 23.0777 258.028 23.5647C258.169 24.0516 258.412 24.6824 258.565 24.965C258.718 25.2486 259.078 25.7345 259.364 26.0452C259.692 26.4008 260.116 26.7198 260.51 26.9065C260.856 27.0723 261.482 27.2537 261.915 27.3163C262.458 27.3934 262.926 27.3955 263.45 27.3215C263.866 27.262 264.475 27.1108 264.804 26.9847C265.195 26.8345 265.619 26.5509 266.027 26.1662C266.475 25.7428 266.776 25.331 267.095 24.7012C267.339 24.2195 267.64 23.45 267.763 22.9912C267.955 22.2811 267.988 21.8787 267.986 20.2802C267.985 18.6151 267.955 18.2918 267.724 17.4128C267.581 16.8675 267.282 16.0709 267.059 15.6403C266.838 15.2107 266.42 14.6205 266.133 14.3307C265.843 14.0366 265.31 13.655 264.934 13.4704C264.562 13.288 264 13.0909 263.685 13.0325C263.369 12.9752 262.901 12.9314 262.644 12.9366C262.386 12.9418 261.894 13.0065 261.551 13.0805C261.207 13.1545 260.727 13.3151 260.483 13.4371V13.4371ZM185.141 41.307C185.485 41.2966 186.257 41.3383 186.859 41.3977C187.461 41.4582 188.398 41.625 188.941 41.7689C189.484 41.9128 190.305 42.2204 190.763 42.4519C191.221 42.6834 191.942 43.115 192.366 43.4111C192.79 43.7073 193.469 44.3016 193.875 44.7333C194.456 45.3495 194.741 45.7728 195.207 46.7144C195.558 47.4244 195.885 48.2721 196.011 48.7977C196.128 49.2846 196.275 50.223 196.337 50.883C196.411 51.6692 196.436 54.5595 196.408 59.2766C196.371 65.5567 196.343 66.564 196.19 67.201C196.095 67.6025 195.9 68.2823 195.758 68.7129C195.617 69.1425 195.309 69.8703 195.075 70.3291C194.84 70.7879 194.449 71.4448 194.203 71.7889C193.958 72.1329 193.505 72.6731 193.197 72.989C192.888 73.3039 192.379 73.7585 192.064 73.9983C191.749 74.2371 191.117 74.6197 190.659 74.8481C190.201 75.0764 189.498 75.3621 189.097 75.4831C188.696 75.6051 187.806 75.7803 187.119 75.872C185.962 76.0274 185.759 76.0274 184.361 75.8647C183.531 75.7677 182.383 75.5707 181.81 75.4268C181.238 75.2829 180.371 74.9763 179.884 74.747C179.397 74.5176 178.718 74.1276 178.375 73.8815C178.031 73.6355 177.472 73.1339 177.133 72.7679C176.794 72.4009 176.302 71.7732 176.043 71.3718C175.783 70.9703 175.347 70.1258 175.074 69.4949C174.8 68.8641 174.576 68.2896 174.576 68.2177C174.575 68.1165 175.284 68.0873 180.977 68.0894L181.628 68.8182C182.162 69.4167 182.44 69.6263 184.085 70.4334H185.289C186.409 70.4334 186.539 70.4115 187.119 70.1289C187.512 69.9381 188.019 69.5492 188.481 69.0862C188.966 68.6003 189.317 68.1342 189.508 67.7224C189.669 67.3783 189.891 66.7443 190.003 66.3148C190.126 65.8383 190.225 65.0229 190.308 62.926L190.068 63.2388C189.937 63.4109 189.618 63.781 189.359 64.0605C189.1 64.3399 188.608 64.7591 188.264 64.9926C187.921 65.2252 187.359 65.5286 187.015 65.6673C186.672 65.8059 186.051 65.9842 185.636 66.0645C185.22 66.1448 184.471 66.2115 183.97 66.2115C183.469 66.2126 182.685 66.1375 182.227 66.0447C181.768 65.9519 181.043 65.734 180.613 65.5599C180.184 65.3847 179.457 64.9958 178.999 64.6955C178.541 64.3941 177.803 63.7675 177.36 63.3024C176.916 62.8374 176.299 62.07 175.989 61.5966C175.679 61.1232 175.284 60.408 175.111 60.0065C174.94 59.6051 174.702 58.9242 174.584 58.4946C174.466 58.064 174.298 57.2434 174.213 56.6699C174.119 56.0454 174.056 54.8953 174.056 53.8025C174.056 52.714 174.119 51.5576 174.212 50.9352C174.298 50.3617 174.465 49.5171 174.584 49.0583C174.702 48.5995 174.934 47.8717 175.1 47.4422C175.265 47.0115 175.639 46.2608 175.932 45.7739C176.224 45.2869 176.683 44.6321 176.951 44.3204C177.218 44.0076 177.719 43.5457 178.063 43.2923C178.406 43.0389 179.004 42.6729 179.39 42.4779C179.776 42.284 180.479 42.0129 180.951 41.8753C181.424 41.7387 182.232 41.5739 182.747 41.5093C183.262 41.4446 183.871 41.3769 184.1 41.3581C184.329 41.3404 184.798 41.3174 185.141 41.307V41.307ZM182.591 47.3056C182.39 47.4265 182.042 47.7289 181.816 47.9791C181.59 48.2283 181.276 48.7142 181.119 49.0583C180.961 49.4024 180.716 50.0833 180.574 50.5702C180.434 51.0572 180.262 51.9726 180.192 52.6035C180.117 53.2895 180.094 54.2113 180.134 54.8974C180.172 55.5282 180.287 56.4666 180.392 56.9827C180.496 57.4989 180.738 58.2496 180.928 58.651C181.137 59.09 181.485 59.5926 181.803 59.9106C182.152 60.2599 182.543 60.5237 182.955 60.6884C183.507 60.9084 183.751 60.9376 185.037 60.9408C186.35 60.9439 186.556 60.9189 187.119 60.6874C187.513 60.5268 187.971 60.2182 188.355 59.8543C188.691 59.5363 189.088 59.066 189.236 58.8074C189.384 58.5488 189.608 58.0338 189.734 57.6605C189.86 57.2872 190.043 56.4437 190.141 55.7836C190.274 54.8963 190.305 54.2592 190.258 53.3333C190.222 52.6452 190.129 51.7776 190.049 51.4044C189.968 51.0311 189.78 50.4222 189.63 50.0489C189.479 49.6756 189.204 49.1188 189.018 48.8102C188.833 48.5015 188.482 48.0438 188.238 47.7935C187.995 47.5433 187.526 47.2096 187.197 47.0532C186.664 46.7999 186.462 46.7655 185.35 46.7404C184.375 46.7196 183.974 46.754 183.528 46.9C183.212 47.0021 182.792 47.1846 182.591 47.3056V47.3056Z" fill="#FF6C0E"/>
<path d="M48.5626 2.40443C49.4787 2.34186 50.4385 2.27305 50.6967 2.25115C50.9548 2.2303 53.0857 2.22717 55.4332 2.24385C58.2786 2.26471 60.3085 2.33109 61.523 2.443C62.5245 2.53476 64.0943 2.70472 65.0104 2.82046C65.9264 2.93619 67.2381 3.12596 67.9252 3.24274C68.6122 3.35848 69.877 3.59517 70.7359 3.76826C71.5947 3.94134 73.0469 4.27292 73.9629 4.50335C74.879 4.73378 76.3083 5.13 77.138 5.38233C77.9677 5.63571 79.3272 6.08406 80.1569 6.3781C80.9865 6.67213 82.3919 7.21433 83.2799 7.58136C84.1678 7.94838 85.7366 8.66471 86.7672 9.17458C87.7978 9.68341 89.2968 10.4842 90.0984 10.9544C90.9 11.4247 92.2522 12.2849 93.1048 12.8646C93.9563 13.4454 94.6705 13.9553 94.6923 13.998C94.7131 14.0408 94.1333 14.3067 93.4036 14.5882C92.6738 14.8687 91.5381 15.2722 90.8791 15.4828C90.2202 15.6934 89.1199 16.0021 88.4328 16.1689C87.7457 16.3357 86.6215 16.5662 85.9344 16.683C85.2474 16.7987 83.9357 16.9457 83.0196 17.0072C81.8121 17.0896 80.9106 17.0896 79.7405 17.0051C78.8525 16.9415 77.5648 16.7987 76.8777 16.6871C76.1907 16.5756 75.0664 16.3389 74.3793 16.1616C73.6923 15.9854 72.6388 15.6715 72.0371 15.4651C71.4354 15.2597 70.359 14.8332 69.6428 14.5183C68.9276 14.2034 67.8034 13.7207 67.1444 13.4454C66.4855 13.1701 65.3143 12.7531 64.5419 12.5195C63.7695 12.2849 62.5984 11.9804 61.9394 11.8428C61.2805 11.7052 60.2967 11.5331 59.7533 11.4612C59.2099 11.3882 58.0149 11.3309 57.0988 11.3319C56.1827 11.334 54.9647 11.3924 54.3922 11.4622C53.8196 11.5321 52.813 11.7052 52.1541 11.8459C51.4951 11.9877 50.5353 12.2484 50.02 12.4257C49.5047 12.604 48.7323 12.9095 48.3024 13.1065C47.8735 13.3036 47.1 13.7186 46.5847 14.0283C46.0694 14.339 45.2731 14.8749 44.815 15.2201C44.1009 15.7591 43.9187 15.8488 43.5398 15.8488C43.2962 15.8488 42.5935 15.9197 41.9783 16.0062C41.3631 16.0928 40.321 16.3003 39.6621 16.4671C39.0031 16.6339 37.6217 16.9937 34.7174 17.7632L32.9477 17.7653C31.6714 17.7663 30.9167 17.7163 30.2411 17.5828C29.7258 17.4816 28.461 17.1949 27.4304 16.9468C26.3998 16.6975 24.6197 16.2273 23.4746 15.903C22.3295 15.5777 20.1975 14.9166 18.738 14.4328C17.2786 13.9501 15.9898 13.4903 15.8753 13.4121C15.6806 13.2796 15.7369 13.2244 16.7602 12.5435C17.3608 12.1431 18.3456 11.5206 18.9462 11.1588C19.5469 10.798 20.7888 10.113 21.7049 9.63649C22.621 9.16102 23.9795 8.50518 24.7238 8.17881C25.4681 7.8535 26.71 7.3405 27.4824 7.03812C28.2548 6.73678 29.5436 6.26966 30.3452 6.00169C31.1467 5.73372 32.6218 5.28015 33.6243 4.9955C34.6257 4.7098 36.3829 4.26979 37.528 4.01642C38.6731 3.76409 40.4772 3.41479 41.5359 3.23962C42.5946 3.06549 44.2341 2.83193 45.1794 2.72036C46.1246 2.60879 47.6465 2.46699 48.5626 2.40443Z" fill="#FF6C0E"/>
<path d="M2.08105 35.9205C2.08105 35.4044 2.1102 34.6891 2.14664 34.3304C2.18307 33.9717 2.23096 33.6787 2.25178 33.6787C2.2726 33.6787 3.80078 34.0364 5.64751 34.4722C7.49424 34.9091 9.94162 35.5232 11.0867 35.8371C12.2318 36.1499 14.1056 36.7129 15.2507 37.0883C16.3958 37.4626 17.9885 38.0267 18.7901 38.3406C19.5917 38.6544 20.9033 39.2268 21.7049 39.6116C22.5065 39.9974 23.5516 40.5677 24.0284 40.8795C24.6696 41.2997 24.8747 41.4874 24.8196 41.6031C24.779 41.6897 24.678 42.064 24.5947 42.4373C24.4958 42.8804 24.4656 43.3767 24.5062 43.871C24.5395 44.287 24.6624 44.897 24.7779 45.2265C24.8935 45.5559 25.1443 46.0606 25.3359 46.3473C25.5285 46.6341 25.9136 47.0918 26.1937 47.366C26.4727 47.6392 27.0296 48.0219 27.4304 48.2169C27.8312 48.4119 28.4401 48.6277 28.7837 48.6955C29.1272 48.7632 29.7039 48.8018 30.721 48.7455L30.9489 49.4264C31.0749 49.8018 31.3424 50.3815 31.5423 50.7141C31.7422 51.0478 32.2231 51.6212 32.6093 51.9883C33.0944 52.4491 33.5775 52.7817 34.1708 53.0654C34.6434 53.2906 35.3336 53.5325 35.7063 53.6023C36.1154 53.6795 36.6817 53.7035 37.8924 53.594L38.1266 54.0861C38.2557 54.3562 38.6419 54.865 38.9854 55.2154C39.329 55.5657 39.914 56.0214 40.2867 56.2268C40.6594 56.4322 41.2913 56.7012 41.692 56.8242C42.2864 57.0067 42.6039 57.0401 43.4097 57.0036C43.9541 56.9786 44.5038 56.9285 44.6329 56.892C44.8327 56.8357 44.9025 56.8983 45.1138 57.3216C45.2491 57.5937 45.5906 58.0984 45.8727 58.4425C46.1631 58.796 46.7242 59.2933 47.1625 59.5853C47.5893 59.8699 48.2659 60.215 48.6667 60.3516C49.1071 60.5018 49.7462 60.6217 50.2803 60.653C50.8507 60.6863 51.4243 60.6509 51.8938 60.5518C52.2946 60.4684 52.9504 60.2432 53.3512 60.0524C53.752 59.8605 54.3256 59.5029 55.1729 58.8074L56.0318 59.2151C56.5044 59.4393 57.1946 59.7219 57.5672 59.8438C57.9399 59.9648 58.6186 60.1389 59.0767 60.2317C59.6576 60.3496 60.1926 60.3829 60.8464 60.3423C61.4231 60.3068 62.1039 60.1817 62.6161 60.0159C63.0741 59.8689 63.6831 59.5874 63.9694 59.3913C64.2556 59.1953 64.6179 58.8543 65.0593 58.2339L65.8681 58.3768C66.5104 58.4904 66.8352 58.4957 67.4567 58.4008C67.8856 58.3351 68.5414 58.138 68.9141 57.9628C69.2868 57.7877 69.8718 57.4436 70.2154 57.1975C70.5589 56.9525 71.0086 56.5448 71.2158 56.2935C71.4219 56.0422 71.7081 55.6012 71.8518 55.3144C71.9944 55.0277 72.1402 54.6763 72.1745 54.5324C72.237 54.2728 72.2443 54.2717 73.4643 54.2634C74.497 54.2571 74.7989 54.2154 75.3683 54.0027C75.741 53.863 76.3208 53.5846 76.6591 53.3844C76.9964 53.1842 77.5585 52.7369 77.9083 52.3897C78.2904 52.0112 78.6766 51.4919 78.8785 51.0863C79.093 50.6578 79.2595 50.1114 79.4636 48.7455H80.617C81.5362 48.7455 81.9078 48.6986 82.4471 48.514C82.8197 48.3868 83.4048 48.1001 83.7483 47.878C84.0918 47.6549 84.5957 47.243 84.8674 46.9625C85.1401 46.681 85.5003 46.1701 85.6679 45.826C85.8355 45.4819 86.0312 44.8719 86.102 44.4705C86.204 43.9002 86.2051 43.5748 86.1093 42.9847C86.0416 42.5686 85.8688 41.9701 85.466 41.0818L86.0125 40.8347C86.3133 40.6991 87.3783 40.2727 88.3808 39.8879C89.3822 39.5021 91.3039 38.8139 92.6488 38.3572C93.9938 37.9005 96.0092 37.251 97.1251 36.9131C98.2411 36.5763 99.6006 36.1739 100.144 36.0195C100.687 35.8652 102.491 35.3971 104.152 34.981C105.812 34.564 107.214 34.2522 107.268 34.2897C107.325 34.3294 107.337 35.1604 107.299 36.3376C107.264 37.4272 107.16 38.7639 107.068 39.3092C106.976 39.8545 106.789 40.745 106.65 41.2903C106.513 41.8356 106.232 42.7741 106.026 43.3757C105.818 43.9773 105.305 45.1743 104.884 46.0345C104.462 46.8947 103.695 48.2325 103.181 49.0062C102.665 49.7799 101.981 50.7423 101.661 51.1437C101.34 51.5451 100.622 52.3668 100.064 52.9684C99.5069 53.57 98.5357 54.5439 97.9059 55.132C97.2761 55.719 96.3152 56.5542 95.7718 56.9879C95.2284 57.4207 94.2207 58.1693 93.5337 58.6521C92.8466 59.1338 91.5818 59.9502 90.723 60.4653C89.8642 60.9804 88.5286 61.7311 87.7562 62.1325C86.9837 62.535 85.6252 63.1877 84.7373 63.584C83.8493 63.9802 82.3742 64.5881 81.4581 64.9342C80.542 65.2804 79.1128 65.7819 78.2831 66.0489C77.4534 66.3148 76.1178 66.7131 75.3162 66.9331C74.5147 67.1531 73.1093 67.5013 72.1932 67.7067C71.2772 67.9111 69.8718 68.1999 69.0703 68.3469C68.2687 68.494 66.7697 68.7286 65.7391 68.8672C64.7085 69.0059 63.1158 69.1905 62.1997 69.277C61.2836 69.3625 59.2932 69.4866 57.7754 69.5523C55.7465 69.6388 54.2454 69.6399 52.102 69.5554C50.4989 69.4929 48.4148 69.3709 47.4696 69.2854C46.5243 69.1988 45.1658 69.0549 44.4507 68.9653C43.7345 68.8756 42.3291 68.6639 41.3277 68.4971C40.3252 68.3292 38.9438 68.0706 38.2567 67.9226C37.5697 67.7745 36.3517 67.4899 35.5502 67.2907C34.7486 67.0926 33.3203 66.6985 32.3751 66.4159C31.4299 66.1333 30.1193 65.711 29.4603 65.4785C28.8014 65.245 27.6073 64.7924 26.8058 64.4713C26.0042 64.1512 24.7394 63.61 23.9951 63.2691C23.2508 62.9281 22.1036 62.364 21.4446 62.0147C20.7857 61.6654 19.803 61.1232 19.2585 60.8104C18.7141 60.4966 17.7543 59.9012 17.1245 59.4862C16.4947 59.0712 15.4173 58.3121 14.7302 57.7991C14.0432 57.2861 12.9886 56.4426 12.388 55.9234C11.7873 55.4051 10.7078 54.375 9.99055 53.6357C9.2733 52.8954 8.33224 51.8454 7.89815 51.3001C7.46405 50.7548 6.84986 49.9342 6.53236 49.4754C6.21589 49.0166 5.62253 48.0553 5.21341 47.3379C4.80534 46.6216 4.24425 45.4955 3.96734 44.8354C3.6894 44.1754 3.31984 43.1911 3.14599 42.6458C2.97111 42.1005 2.71086 41.0922 2.56824 40.404C2.42458 39.7159 2.25594 38.6367 2.19348 38.0059C2.13206 37.375 2.08105 36.4366 2.08105 35.9205Z" fill="#FF6C0E"/>
<path fill-rule="evenodd" clip-rule="evenodd" d="M287.836 7.3133C288.151 7.30496 288.923 7.34771 289.553 7.4061C290.183 7.46553 291.096 7.60942 291.583 7.72516C292.07 7.8409 292.82 8.07759 293.249 8.25067C293.679 8.42376 294.287 8.72092 294.602 8.91173C294.917 9.10254 295.475 9.50919 295.842 9.81678C296.209 10.1233 296.8 10.75 297.155 11.2088C297.509 11.6675 298.018 12.4183 298.284 12.8771C298.552 13.3358 298.906 14.0636 299.072 14.4932C299.238 14.9239 299.472 15.6506 299.591 16.1094C299.71 16.5682 299.86 17.3429 299.925 17.8298C299.994 18.3605 300.018 19.4481 299.985 20.5408C299.953 21.5991 299.86 22.672 299.766 23.0954C299.677 23.4968 299.482 24.2006 299.334 24.6594C299.187 25.1182 298.852 25.9158 298.592 26.432C298.332 26.9481 297.929 27.6519 297.697 27.996C297.466 28.3401 296.851 29.0439 296.33 29.56C295.687 30.1971 295.115 30.6486 294.55 30.9666C294.092 31.2241 293.342 31.5682 292.884 31.7319C292.426 31.8946 291.583 32.124 291.011 32.2418C290.196 32.4086 289.563 32.4556 288.096 32.4597C286.754 32.4629 285.941 32.4128 285.233 32.2846C284.69 32.1855 283.893 31.9853 283.463 31.8404C283.035 31.6954 282.338 31.4045 281.916 31.1939C281.495 30.9833 280.77 30.5068 280.307 30.1335C279.781 29.7112 279.196 29.1023 278.754 28.5173C278.364 28.0012 277.816 27.1337 277.538 26.5884C277.26 26.043 276.908 25.2464 276.755 24.8158C276.603 24.3862 276.378 23.5646 276.257 22.9911C276.076 22.1392 276.035 21.5856 276.034 19.9673C276.032 18.3272 276.07 17.8069 276.256 16.9435C276.378 16.3701 276.626 15.4786 276.805 14.9624C276.984 14.4463 277.318 13.6726 277.547 13.242C277.776 12.8124 278.229 12.0898 278.554 11.6384C278.878 11.1869 279.495 10.4883 279.924 10.0868C280.354 9.68541 281.057 9.15155 281.486 8.89922C281.915 8.64793 282.523 8.34451 282.839 8.2246C283.154 8.10574 283.857 7.89407 284.4 7.7554C284.944 7.61672 285.811 7.46344 286.326 7.41548C286.841 7.36647 287.52 7.3206 287.836 7.3133V7.3133ZM285.289 13.2222C285.006 13.3765 284.538 13.7404 284.248 14.0313C283.949 14.3337 283.557 14.8926 283.336 15.3347C283.123 15.7611 282.845 16.4848 282.718 16.9435C282.514 17.6797 282.487 18.0279 282.487 19.9152C282.487 21.7899 282.515 22.1549 282.715 22.8868C282.84 23.3456 283.115 24.0734 283.325 24.503C283.569 24.9993 283.92 25.4977 284.289 25.8668C284.641 26.2203 285.134 26.5748 285.545 26.7708C285.917 26.9471 286.503 27.1431 286.847 27.2056C287.19 27.2682 287.705 27.3193 287.992 27.3193C288.278 27.3193 288.793 27.2672 289.137 27.2046C289.48 27.141 290.043 26.9606 290.386 26.8042C290.73 26.6478 291.256 26.2891 291.556 26.0066C291.856 25.724 292.267 25.212 292.47 24.8679C292.674 24.5239 292.95 23.8909 293.085 23.4603C293.22 23.0307 293.388 22.256 293.459 21.7399C293.539 21.1602 293.566 20.2624 293.532 19.3938C293.501 18.6202 293.401 17.6463 293.31 17.2303C293.219 16.8142 293.027 16.1813 292.882 15.8226C292.739 15.464 292.422 14.904 292.18 14.5766C291.938 14.2503 291.482 13.7894 291.167 13.5538C290.851 13.3181 290.337 13.0272 290.022 12.9073C289.587 12.7415 289.15 12.681 288.2 12.6539C287.295 12.6279 286.793 12.6623 286.378 12.7791C286.063 12.8687 285.574 13.0679 285.289 13.2222ZM136.136 7.41965C136.265 7.41027 136.828 7.45302 137.385 7.51454C137.943 7.57605 138.822 7.76478 139.337 7.93265C139.858 8.10365 140.667 8.4811 141.159 8.78453C141.645 9.08378 142.345 9.63431 143.382 10.6874L143.805 10.2328C144.04 9.98257 144.534 9.55298 144.907 9.27876C145.279 9.00349 145.911 8.61457 146.312 8.41437C146.713 8.21418 147.345 7.95559 147.717 7.8409C148.09 7.72516 148.862 7.57918 149.435 7.51454C150.175 7.43216 150.777 7.43008 151.517 7.50724C152.09 7.56667 152.862 7.69179 153.235 7.78563C153.607 7.87948 154.215 8.08071 154.588 8.23399C154.961 8.38726 155.615 8.73865 156.045 9.01496C156.474 9.29231 157.084 9.78133 157.401 10.1025C157.716 10.4247 158.181 10.9919 158.435 11.3652C158.688 11.7385 159.057 12.3953 159.255 12.8249C159.452 13.2556 159.734 14.0522 160.153 15.588L160.209 32.0103H154.588L154.587 24.7376C154.587 20.4376 154.544 17.199 154.483 16.8132C154.427 16.4545 154.289 15.9154 154.178 15.6141C154.065 15.3086 153.755 14.8206 153.475 14.5099C153.19 14.1919 152.751 13.8457 152.454 13.705C152.168 13.5694 151.606 13.4067 151.205 13.3452C150.685 13.2639 150.267 13.2639 149.747 13.3431C149.347 13.4047 148.738 13.5903 148.394 13.756C148.031 13.9323 147.576 14.269 147.306 14.562C147.051 14.8394 146.699 15.3712 146.208 16.4222L146.104 31.9582L140.43 32.0103L140.429 24.4769C140.427 18.0509 140.403 16.8434 140.267 16.2658C140.178 15.8925 139.98 15.3587 139.826 15.0782C139.672 14.7966 139.358 14.4088 139.129 14.2148C138.9 14.0198 138.514 13.7686 138.27 13.656C138.027 13.5433 137.5 13.4036 137.099 13.3463C136.657 13.2827 136.114 13.2775 135.72 13.3317C135.362 13.3817 134.771 13.5569 134.405 13.7227C133.962 13.9239 133.572 14.2054 133.234 14.5714C132.955 14.8728 132.61 15.3649 132.468 15.6662C132.31 15.9999 132.168 16.5588 132.105 17.0999C132.044 17.6088 131.999 20.9746 131.998 32.0103H126.377L126.435 15.7966L126.68 14.9103C126.815 14.4234 127.073 13.6726 127.255 13.242C127.436 12.8124 127.797 12.1315 128.057 11.7301C128.317 11.3287 128.741 10.7656 128.998 10.4789C129.255 10.1922 129.79 9.71669 130.186 9.42265C130.582 9.12861 131.209 8.73448 131.582 8.54784C131.955 8.36015 132.563 8.10261 132.935 7.9754C133.308 7.84715 133.963 7.68971 134.393 7.62402C134.822 7.55937 135.338 7.49055 135.538 7.47074C135.738 7.45197 136.007 7.42904 136.136 7.41965V7.41965ZM240.002 7.47804C240.632 7.50411 241.592 7.59587 242.136 7.68345C242.679 7.77104 243.522 7.95663 244.01 8.09635C244.497 8.23607 245.363 8.57703 245.935 8.85439C246.682 9.2162 247.146 9.52587 247.575 9.94503C247.997 10.3579 248.296 10.7854 248.589 11.3912C248.884 11.9991 249.053 12.5413 249.171 13.242C249.311 14.0855 249.329 15.0396 249.292 19.6545C249.253 24.3612 249.224 25.1724 249.066 25.8064C248.966 26.2078 248.681 26.9585 248.431 27.4747C248.182 27.9908 247.802 28.6237 247.586 28.8823C247.372 29.1409 246.913 29.5986 246.566 29.901C246.219 30.2023 245.538 30.6569 245.051 30.9093C244.563 31.1616 243.791 31.4911 243.333 31.6402C242.875 31.7893 241.985 32.0155 241.355 32.1428C240.333 32.3492 239.897 32.3732 237.295 32.3711C234.615 32.368 234.314 32.3492 233.548 32.1375C233.09 32.0114 232.329 31.7194 231.856 31.49C231.227 31.1835 230.809 30.8832 230.293 30.3681C229.854 29.9291 229.446 29.3901 229.209 28.9344C228.999 28.533 228.745 27.9001 228.643 27.5268C228.507 27.0315 228.456 26.456 228.453 25.3893C228.45 24.3059 228.496 23.7544 228.632 23.2518C228.734 22.8785 228.971 22.2456 229.16 21.8442C229.376 21.3822 229.748 20.8515 230.172 20.399C230.54 20.0059 231.122 19.5002 231.466 19.2771C231.809 19.0529 232.465 18.7244 232.923 18.5482C233.381 18.372 234.236 18.1145 234.823 17.9768C235.41 17.8382 236.956 17.5848 238.258 17.4127C239.56 17.2407 240.861 17.0384 241.147 16.9623C241.433 16.8872 241.877 16.711 242.132 16.5713C242.388 16.4316 242.705 16.1532 242.837 15.953C242.971 15.7528 243.105 15.4473 243.137 15.2752C243.17 15.1032 243.145 14.6924 243.082 14.3629C242.994 13.8947 242.883 13.6768 242.578 13.3661C242.351 13.1357 241.97 12.8958 241.667 12.7926C241.381 12.6946 240.725 12.5653 240.21 12.5059C239.695 12.4454 238.992 12.4256 238.648 12.461C238.305 12.4965 237.778 12.5935 237.477 12.6758C237.177 12.7572 236.755 12.9386 236.54 13.0783C236.326 13.217 236.021 13.51 235.863 13.73C235.706 13.9489 235.467 14.4807 235.092 15.6923H229.175L229.213 15.1188C229.233 14.8039 229.356 14.1231 229.486 13.6069C229.615 13.0908 229.896 12.3171 230.108 11.8865C230.321 11.4569 230.681 10.8699 230.907 10.5832C231.134 10.2964 231.586 9.83868 231.913 9.5655C232.239 9.29231 232.812 8.91069 233.183 8.71571C233.555 8.52177 234.235 8.24337 234.693 8.0974C235.151 7.95038 235.783 7.77938 236.098 7.71682C236.413 7.6553 237.162 7.56563 237.764 7.51766C238.365 7.47074 239.372 7.45302 240.002 7.47804V7.47804ZM242.058 20.7306C241.757 20.8557 240.679 21.1216 239.663 21.3218C238.647 21.522 237.418 21.8097 236.931 21.9609C236.149 22.2039 235.978 22.305 235.467 22.8222C235.063 23.2309 234.848 23.55 234.754 23.8774C234.674 24.1558 234.634 24.7095 234.656 25.2402C234.687 26.017 234.733 26.1995 235.009 26.6478C235.264 27.0628 235.463 27.2328 236.04 27.5268C236.695 27.8615 236.828 27.8917 237.649 27.8886C238.142 27.8865 238.802 27.8229 239.117 27.7478C239.432 27.6728 240.084 27.4163 240.566 27.1785C241.218 26.8563 241.574 26.5978 241.953 26.1713C242.25 25.8366 242.55 25.359 242.672 25.0243C242.787 24.7095 242.925 24.2163 242.979 23.9295C243.032 23.6428 243.063 22.6919 243.049 21.816C243.021 20.2488 243.018 20.2259 242.812 20.3635C242.698 20.4407 242.359 20.6054 242.058 20.7306ZM174.211 7.52079C174.669 7.51454 175.465 7.5552 175.98 7.61255C176.496 7.66885 177.152 7.76687 177.438 7.82838C177.724 7.89094 178.333 8.06195 178.791 8.20792C179.249 8.35494 179.905 8.61457 180.249 8.78557C180.592 8.95657 181.154 9.29648 181.498 9.54152C181.841 9.78655 182.416 10.286 182.774 10.6499C183.133 11.0148 183.641 11.6175 183.902 11.9908C184.164 12.3641 184.521 12.9501 184.696 13.2941C184.871 13.6382 185.129 14.2242 185.269 14.5975C185.41 14.9708 185.617 15.6975 185.728 16.2137C185.841 16.7298 185.976 17.8319 186.029 18.664C186.082 19.496 186.127 20.5158 186.13 21.6878H168.954L168.956 22.0266C168.957 22.2133 169.028 22.6939 169.114 23.0954C169.199 23.4968 169.389 24.0838 169.535 24.3987C169.68 24.7136 169.975 25.2068 170.19 25.4936C170.405 25.7803 170.882 26.2172 171.25 26.4653C171.619 26.7125 172.248 27.0159 172.649 27.14C173.242 27.3224 173.632 27.3641 174.731 27.361C175.675 27.3579 176.273 27.3037 176.709 27.1806C177.053 27.0836 177.521 26.8928 177.75 26.7562C177.979 26.6197 178.365 26.2912 179.051 25.5457H182.331C184.884 25.5457 185.61 25.5749 185.611 25.676C185.612 25.748 185.431 26.1817 185.209 26.6405C184.987 27.0993 184.594 27.7562 184.336 28.1003C184.076 28.4444 183.445 29.1252 182.932 29.6122C182.419 30.0991 181.746 30.6507 181.436 30.8363C181.126 31.0219 180.498 31.3368 180.04 31.537C179.582 31.7361 178.856 31.9905 178.427 32.101C177.997 32.2126 177.283 32.3544 176.839 32.417C176.396 32.4806 175.412 32.5317 174.653 32.5327C173.851 32.5327 172.861 32.4618 172.285 32.3638C171.742 32.27 170.944 32.0802 170.515 31.9415C170.085 31.8039 169.266 31.4588 168.693 31.1762C168.121 30.8936 167.231 30.341 166.716 29.9489C166.2 29.5559 165.507 28.9094 165.175 28.5111C164.843 28.1128 164.367 27.3881 164.118 26.9012C163.87 26.4142 163.542 25.6155 163.39 25.1286C163.238 24.6417 163.037 23.82 162.942 23.3039C162.82 22.6345 162.77 21.7524 162.769 20.228C162.767 18.6348 162.813 17.8382 162.948 17.0999C163.048 16.5546 163.251 15.71 163.399 15.2231C163.547 14.7362 163.856 13.9615 164.087 13.5027C164.317 13.0439 164.687 12.3985 164.907 12.069C165.129 11.7395 165.627 11.1525 166.014 10.7656C166.401 10.3788 167.139 9.78133 167.654 9.43829C168.168 9.09629 168.94 8.66879 169.37 8.4884C169.799 8.30802 170.549 8.0609 171.036 7.93891C171.523 7.81796 172.248 7.67615 172.649 7.6261C173.05 7.57501 173.753 7.52809 174.211 7.52079V7.52079ZM172.285 12.9938C172.028 13.0919 171.653 13.2743 171.452 13.3994C171.251 13.5246 170.861 13.8801 170.583 14.1898C170.305 14.5005 169.923 15.0823 169.734 15.4838C169.545 15.8852 169.316 16.5306 169.224 16.9175L169.058 17.6213H179.676C179.586 16.8539 179.461 16.3263 179.338 15.953C179.215 15.5797 178.94 15.0167 178.727 14.7018C178.513 14.3869 178.112 13.9552 177.837 13.7446C177.56 13.5329 177.1 13.2576 176.813 13.1315C176.527 13.0053 175.988 12.8385 175.616 12.7613C175.244 12.6831 174.682 12.6247 174.367 12.6299C174.051 12.6362 173.56 12.68 173.274 12.728C172.988 12.7759 172.542 12.8958 172.285 12.9938V12.9938ZM201.433 7.52601C201.862 7.51766 202.319 7.5333 202.682 7.61151V13.8676L201.719 13.829C201.189 13.8082 200.335 13.8363 199.819 13.8926C199.304 13.9489 198.625 14.0845 198.31 14.194C197.994 14.3035 197.485 14.5683 197.177 14.7821C196.869 14.9958 196.45 15.4056 196.243 15.6923C196.037 15.9791 195.782 16.4483 195.676 16.735C195.57 17.0217 195.417 17.7016 195.336 18.2469C195.221 19.0185 195.188 20.6482 195.187 32.0103H188.941L188.974 24.7897C189.005 17.9205 189.018 17.5233 189.223 16.6307C189.342 16.1146 189.545 15.3878 189.673 15.0146C189.802 14.6413 190.07 14.0084 190.27 13.6069C190.47 13.2055 190.776 12.6664 190.95 12.4079C191.123 12.1493 191.527 11.6384 191.846 11.2724C192.167 10.9053 192.803 10.3246 193.261 9.98257C193.719 9.63953 194.515 9.15572 195.031 8.90756C195.546 8.65836 196.389 8.33409 196.905 8.18498C197.42 8.03692 198.287 7.84715 198.83 7.76478C199.374 7.68241 200.007 7.59795 200.236 7.57814C200.465 7.55833 201.003 7.53539 201.433 7.52601V7.52601ZM215.903 7.56146C216.732 7.58544 217.834 7.67824 218.349 7.76895C218.864 7.85862 219.614 8.02962 220.015 8.1464C220.415 8.26423 221.118 8.53532 221.576 8.74803C222.034 8.96074 222.69 9.32464 223.034 9.55611C223.377 9.78863 223.915 10.262 224.231 10.6082C224.546 10.9554 224.999 11.6071 225.237 12.0575C225.476 12.508 225.773 13.1815 225.898 13.5548C226.023 13.9281 226.214 14.6903 226.323 15.2492C226.431 15.8081 226.521 16.3357 226.521 16.4222C226.521 16.5577 226.084 16.5786 219.911 16.5828L219.721 15.929C219.616 15.5693 219.382 14.9989 219.201 14.6611C219.018 14.3233 218.706 13.9041 218.505 13.73C218.304 13.5559 217.907 13.3046 217.62 13.1721C217.329 13.0366 216.734 12.8896 216.267 12.8364C215.769 12.7801 215.141 12.7801 214.706 12.8374C214.281 12.8927 213.705 13.0616 213.326 13.243C212.944 13.4266 212.456 13.7811 212.143 14.1022C211.825 14.4286 211.471 14.9447 211.269 15.3795C211.081 15.7809 210.853 16.4139 210.761 16.7871C210.669 17.1604 210.537 18.0748 210.47 18.8204C210.374 19.8631 210.373 20.4762 210.467 21.4792C210.534 22.1966 210.662 23.0641 210.751 23.4082C210.839 23.7523 211.075 24.3737 211.273 24.7897C211.491 25.2454 211.842 25.7532 212.155 26.067C212.441 26.3538 212.921 26.7052 213.222 26.847C213.523 26.9898 214.143 27.1629 214.601 27.2338C215.231 27.3297 215.637 27.3328 216.267 27.2453C216.725 27.1817 217.334 27.02 217.62 26.8866C217.907 26.7531 218.306 26.4789 218.509 26.2766C218.712 26.0754 219.027 25.6062 219.21 25.2329C219.392 24.8596 219.601 24.2382 219.806 23.1465L226.417 23.1475V23.4082C226.417 23.5521 226.34 24.0088 226.245 24.4248C226.15 24.8408 225.961 25.4623 225.824 25.8064C225.688 26.1504 225.417 26.7135 225.224 27.0576C225.029 27.4017 224.703 27.9178 224.498 28.2045C224.294 28.4913 223.811 29.0491 223.424 29.4443C223.038 29.8384 222.346 30.4098 221.888 30.7122C221.43 31.0156 220.681 31.4129 220.223 31.5974C219.765 31.7809 219.062 32.0145 218.661 32.1167C218.261 32.2189 217.371 32.3596 216.683 32.4285C215.955 32.5014 214.978 32.5254 214.341 32.4858C213.74 32.4483 212.85 32.3502 212.363 32.2689C211.876 32.1876 211.151 32.0208 210.75 31.8988C210.349 31.7778 209.553 31.4358 208.98 31.1407C208.145 30.7091 207.761 30.4275 207.041 29.7164C206.546 29.2295 205.916 28.4788 205.642 28.0481C205.366 27.6185 204.989 26.9377 204.804 26.5362C204.619 26.1348 204.351 25.407 204.208 24.9201C204.066 24.4331 203.869 23.4947 203.771 22.8347C203.63 21.8859 203.605 21.2331 203.653 19.7067C203.694 18.3824 203.78 17.4503 203.926 16.735C204.043 16.1615 204.256 15.3409 204.399 14.9103C204.541 14.4807 204.85 13.7529 205.085 13.2941C205.319 12.8354 205.735 12.1555 206.01 11.7822C206.285 11.409 206.831 10.8021 207.225 10.432C207.617 10.0629 208.29 9.53422 208.72 9.2579C209.149 8.98159 209.875 8.6104 210.333 8.43314C210.791 8.25484 211.517 8.02024 211.947 7.91076C212.376 7.80127 213.102 7.66885 213.56 7.61568C214.018 7.56354 215.073 7.53852 215.903 7.56146V7.56146ZM210.62 41.3007C211.521 41.2954 212.623 41.3413 213.066 41.4049C213.509 41.4675 214.201 41.603 214.601 41.7052C215.002 41.8074 215.705 42.0472 216.163 42.238C216.621 42.4288 217.324 42.8053 217.724 43.0753C218.125 43.3454 218.781 43.899 219.182 44.3067C219.583 44.7155 220.158 45.4109 220.46 45.8541C220.762 46.2972 221.192 47.0354 221.415 47.4942C221.639 47.953 221.937 48.6808 222.081 49.1104C222.224 49.541 222.418 50.2448 222.514 50.6744C222.619 51.1488 222.71 52.1748 222.744 53.2811C222.781 54.4416 222.757 55.428 222.678 55.9921C222.61 56.479 222.444 57.3007 222.311 57.8168C222.177 58.3329 221.92 59.1076 221.739 59.5372C221.557 59.9678 221.217 60.6477 220.981 61.0491C220.744 61.4505 220.394 61.9907 220.2 62.2482C220.006 62.5068 219.558 63.0167 219.203 63.3816C218.848 63.7465 218.276 64.2366 217.933 64.4691C217.589 64.7027 216.933 65.0728 216.475 65.2908C216.017 65.5097 215.197 65.8027 214.654 65.9414C214.11 66.0801 213.149 66.25 212.519 66.3199C211.841 66.3939 210.843 66.42 210.073 66.3835C209.357 66.3491 208.362 66.25 207.861 66.1614C207.36 66.0738 206.493 65.8371 205.935 65.6359C205.377 65.4357 204.546 65.0478 204.088 64.7757C203.601 64.4858 202.91 63.9363 202.418 63.4473C201.956 62.9885 201.333 62.2378 201.032 61.779C200.731 61.3202 200.306 60.5695 200.087 60.1107C199.868 59.6519 199.57 58.9012 199.425 58.4424C199.28 57.9836 199.076 57.186 198.973 56.6698C198.832 55.9629 198.788 55.256 198.79 53.8025C198.794 52.2447 198.837 51.6733 199.016 50.8308C199.137 50.2573 199.362 49.4367 199.515 49.0061C199.668 48.5765 199.994 47.8247 200.239 47.3378C200.484 46.8509 200.931 46.1001 201.231 45.6695C201.532 45.2399 202.137 44.5361 202.577 44.1055C203.016 43.6759 203.7 43.1327 204.097 42.9001C204.492 42.6676 205.121 42.3517 205.493 42.1995C205.864 42.0472 206.45 41.8439 206.794 41.748C207.138 41.6531 207.769 41.5155 208.199 41.4425C208.628 41.3705 209.718 41.3069 210.62 41.3007V41.3007ZM208.056 47.1616C207.719 47.3441 207.223 47.7288 206.953 48.0155C206.683 48.3023 206.291 48.8768 206.081 49.2928C205.872 49.7089 205.596 50.4596 205.468 50.9611C205.265 51.7588 205.236 52.13 205.241 53.9067C205.246 55.6647 205.278 56.0526 205.476 56.7741C205.601 57.2329 205.86 57.9367 206.05 58.3381C206.24 58.7396 206.631 59.3266 206.918 59.6415C207.204 59.9574 207.715 60.3641 208.054 60.5476C208.391 60.7301 208.949 60.9532 209.292 61.0429C209.636 61.1325 210.292 61.2066 210.75 61.2066C211.208 61.2066 211.864 61.1336 212.207 61.0449C212.551 60.9563 213.043 60.7832 213.3 60.6602C213.557 60.5372 214.057 60.1514 214.409 59.8041C214.854 59.3641 215.162 58.9345 215.422 58.3903C215.627 57.9607 215.897 57.2329 216.022 56.7741C216.218 56.0557 216.251 55.6574 216.258 53.9067C216.264 52.0893 216.239 51.7734 216.019 50.9351C215.884 50.4189 215.608 49.6682 215.406 49.2668C215.204 48.8653 214.794 48.2793 214.494 47.9634C214.164 47.6152 213.691 47.2617 213.287 47.0615C212.922 46.8811 212.378 46.682 212.077 46.6184C211.776 46.5558 211.144 46.5068 210.672 46.511C210.199 46.5141 209.556 46.5871 209.24 46.6726C208.925 46.7581 208.393 46.9781 208.056 47.1616V47.1616ZM138.088 41.4081C138.718 41.4008 139.632 41.4435 140.118 41.5029C140.604 41.5624 141.284 41.6865 141.628 41.7782C141.971 41.87 142.651 42.1296 143.137 42.3548C143.623 42.58 144.303 42.9658 144.646 43.2129C144.99 43.459 145.576 43.9835 145.948 44.3787C146.32 44.7728 146.844 45.4245 147.112 45.8259C147.38 46.2273 147.797 46.9781 148.038 47.4942C148.28 48.0103 148.606 48.9488 148.765 49.5796C148.926 50.2229 149.105 51.3448 149.173 52.1342C149.241 52.9402 149.263 54.0548 149.224 54.7409C149.185 55.4009 149.068 56.4561 148.962 57.0869C148.856 57.7177 148.632 58.6561 148.465 59.1723C148.297 59.6884 147.985 60.4631 147.77 60.8927C147.556 61.3233 147.179 61.9792 146.934 62.3525C146.687 62.7257 146.141 63.3712 145.722 63.7872C145.302 64.2032 144.747 64.686 144.49 64.8612C144.233 65.0363 143.765 65.3116 143.449 65.4743C143.134 65.6369 142.573 65.8642 142.2 65.9789C141.827 66.0947 141.078 66.2427 140.535 66.3095C139.824 66.396 139.252 66.3991 138.505 66.322C137.932 66.2636 137.183 66.1416 136.839 66.053C136.495 65.9633 135.933 65.7579 135.59 65.5963C135.246 65.4346 134.665 65.0728 134.298 64.7913C133.931 64.5108 133.416 63.9884 132.675 62.977L132.57 71.476L132.311 72.039C132.165 72.3529 131.844 72.7877 131.582 73.0243C131.325 73.2569 130.902 73.5405 130.645 73.6562C130.242 73.8356 129.911 73.8689 126.377 73.9263V62.4307C126.378 52.569 126.401 50.7943 126.538 49.9445C126.627 49.3992 126.84 48.5317 127.012 48.0155C127.184 47.4994 127.504 46.7727 127.724 46.3994C127.945 46.0261 128.352 45.4453 128.63 45.1085C128.908 44.7707 129.464 44.2306 129.864 43.9074C130.265 43.5841 130.85 43.1712 131.166 42.9898C131.481 42.8084 132.113 42.5112 132.571 42.3277C133.029 42.1452 133.814 41.9075 134.315 41.7991C134.815 41.6917 135.612 41.5624 136.084 41.5123C136.557 41.4633 137.458 41.4164 138.088 41.4081ZM135.486 47.2242C135.095 47.4139 134.646 47.7549 134.286 48.1365C133.971 48.4712 133.585 49.004 133.43 49.3189C133.274 49.6338 133.043 50.2677 132.918 50.7265C132.716 51.4637 132.689 51.8286 132.682 53.8546C132.676 55.7345 132.708 56.2705 132.858 56.8262C132.959 57.1995 133.202 57.8324 133.398 58.2339C133.595 58.6353 133.986 59.2223 134.266 59.5372C134.559 59.8667 135.037 60.2504 135.391 60.4391C135.729 60.6195 136.263 60.8239 136.579 60.8938C136.908 60.9667 137.573 61.0032 138.14 60.9782C138.908 60.9448 139.257 60.8771 139.702 60.6748C140.017 60.5309 140.478 60.2515 140.727 60.0533C140.976 59.8552 141.399 59.3652 141.667 58.9637C141.936 58.5623 142.278 57.8585 142.429 57.3997C142.58 56.9409 142.755 56.2017 142.816 55.7575C142.878 55.3133 142.928 54.4917 142.927 53.9328C142.926 53.3739 142.878 52.5877 142.821 52.1863C142.763 51.7849 142.647 51.1749 142.561 50.8308C142.476 50.4867 142.234 49.8538 142.024 49.4232C141.783 48.93 141.437 48.4389 141.088 48.0938C140.777 47.7862 140.249 47.4108 139.884 47.2377C139.526 47.0688 138.929 46.8811 138.557 46.8217C138.184 46.7622 137.739 46.7184 137.568 46.7247C137.396 46.731 136.998 46.7789 136.683 46.83C136.367 46.8811 135.829 47.0584 135.486 47.2242V47.2242ZM162.135 41.5509C163.128 41.5728 164.316 41.6646 164.842 41.7594C165.357 41.8522 166.247 42.0837 166.82 42.2745C167.392 42.4643 168.212 42.7969 168.641 43.0127C169.14 43.264 169.653 43.6352 170.062 44.0429C170.479 44.4569 170.814 44.9156 171.021 45.3567C171.197 45.73 171.421 46.316 171.52 46.6601C171.677 47.2064 171.705 47.9488 171.739 52.4991C171.767 55.9639 171.739 58.0618 171.661 58.7552C171.594 59.3485 171.412 60.1806 171.238 60.6842C171.07 61.1711 170.781 61.8207 170.593 62.1252C170.407 62.4307 170.021 62.9426 169.734 63.2627C169.448 63.5828 168.933 64.0427 168.589 64.2856C168.246 64.5275 167.672 64.8726 167.314 65.0509C166.956 65.2303 166.253 65.5149 165.753 65.6849C165.252 65.8538 164.256 66.0884 163.541 66.2062C162.824 66.3241 161.49 66.4492 160.574 66.4846C159.579 66.5232 158.447 66.5013 157.763 66.4304C157.133 66.3658 156.314 66.2375 155.941 66.1468C155.569 66.0561 154.878 65.7985 154.406 65.5754C153.737 65.2584 153.366 64.9884 152.73 64.3596C152.156 63.7914 151.817 63.3503 151.587 62.8738C151.408 62.5005 151.179 61.8916 151.08 61.5183C150.948 61.0262 150.899 60.4412 150.9 59.3808C150.901 58.3121 150.951 57.7396 151.086 57.2433C151.188 56.87 151.431 56.2371 151.627 55.8357C151.823 55.4343 152.206 54.8524 152.479 54.5417C152.752 54.232 153.278 53.7639 153.651 53.5022C154.024 53.2394 154.679 52.8776 155.108 52.6972C155.537 52.5168 156.381 52.2447 156.982 52.0924C157.584 51.9402 158.965 51.6994 160.053 51.5576C161.141 51.4157 162.43 51.2249 162.916 51.1342C163.403 51.0425 164.031 50.8673 164.311 50.7432C164.592 50.6191 164.97 50.3532 165.151 50.1531C165.341 49.9414 165.512 49.6119 165.557 49.371C165.603 49.125 165.582 48.7183 165.507 48.3805C165.417 47.9738 165.272 47.6913 165.007 47.4087C164.735 47.1168 164.451 46.9531 163.957 46.7998C163.559 46.6757 162.83 46.5652 162.187 46.5308C161.494 46.4932 160.846 46.5193 160.418 46.6027C160.045 46.6747 159.53 46.8394 159.272 46.9697C159.015 47.099 158.668 47.3639 158.501 47.5578C158.335 47.7528 158.092 48.1459 157.962 48.4326C157.832 48.7194 157.698 49.1302 157.607 49.736H151.569L151.629 49.2928C151.662 49.0489 151.736 48.5911 151.792 48.2762C151.848 47.9613 152.008 47.3514 152.146 46.9207C152.284 46.4911 152.575 45.8447 152.79 45.486C153.006 45.1273 153.394 44.5914 153.651 44.2942C153.908 43.9981 154.447 43.5278 154.848 43.2494C155.249 42.971 155.905 42.6061 156.306 42.4393C156.706 42.2724 157.433 42.0399 157.919 41.9231C158.405 41.8053 159.155 41.6646 159.585 41.6103C160.014 41.5561 161.162 41.529 162.135 41.5509V41.5509ZM165.154 54.5063C164.982 54.597 164.596 54.7565 164.295 54.8618C163.994 54.9671 162.8 55.2434 161.641 55.4749C160.26 55.7502 159.317 55.9963 158.908 56.1881C158.565 56.3487 158.143 56.5968 157.971 56.7397C157.799 56.8825 157.53 57.2537 157.372 57.5645C157.127 58.0441 157.084 58.2558 157.086 58.9637C157.088 59.4225 157.148 59.9793 157.219 60.2004C157.288 60.4225 157.487 60.7697 157.659 60.972C157.831 61.1742 158.205 61.4589 158.492 61.6049C158.901 61.8124 159.212 61.8791 159.949 61.9145C160.6 61.9458 161.092 61.9072 161.563 61.7894C161.935 61.6966 162.567 61.4599 162.968 61.2629C163.369 61.0668 163.884 60.7467 164.113 60.5507C164.342 60.3557 164.679 59.9178 164.862 59.58C165.045 59.2411 165.268 58.6468 165.356 58.2599C165.474 57.7501 165.511 57.113 165.492 55.9493L165.466 54.3426L165.154 54.5063Z" fill="#FF6C0E"/>
<path d="M53.4549 13.7018C53.9702 13.6121 54.8603 13.5016 55.4328 13.4568C56.0054 13.4119 56.7081 13.3692 56.9943 13.3619C57.2806 13.3535 58.053 13.3963 58.712 13.4568C59.3709 13.5162 60.4713 13.6789 61.1583 13.8165C61.8454 13.9541 62.9697 14.2294 63.6567 14.4285C64.3438 14.6277 65.5857 15.0708 66.4154 15.4128C67.245 15.7548 68.3703 16.2334 68.9137 16.4764C69.4571 16.7193 70.418 17.103 71.0478 17.3283C71.6776 17.5545 72.8019 17.9017 73.5462 18.0988C74.2905 18.2969 75.5553 18.5722 76.3569 18.7119C77.1584 18.8506 78.6346 19.0195 79.636 19.0862C80.9935 19.1759 81.8825 19.1769 83.1234 19.0904C84.0394 19.0268 85.3979 18.8808 86.1423 18.7651C86.8866 18.6504 88.1753 18.3887 89.005 18.1853C89.8347 17.981 91.1942 17.5868 92.0239 17.3095C92.8536 17.0321 94.2245 16.5191 96.6043 15.5359L97.0987 15.9248C97.3704 16.1386 98.2501 16.9706 99.0537 17.7756C99.8563 18.5795 100.928 19.7535 101.432 20.3844C101.936 21.0152 102.725 22.0944 103.183 22.7825C103.642 23.4707 104.385 24.7845 104.833 25.7021C105.283 26.6196 105.834 27.9105 106.059 28.5694C106.283 29.2295 106.579 30.2252 106.714 30.782C106.851 31.3399 106.922 31.833 106.873 31.8768C106.824 31.9217 105.442 32.2929 103.802 32.7026C102.162 33.1124 99.7897 33.7537 98.5301 34.1269C97.2705 34.5013 95.303 35.1196 94.1579 35.5023C93.0128 35.8849 91.0693 36.5752 89.8378 37.0371C88.6063 37.499 86.7804 38.2216 85.7779 38.6418C84.0009 39.3873 83.951 39.4019 83.748 39.2153C83.6334 39.111 82.0876 37.7628 80.3127 36.2207C78.5378 34.6785 75.2815 31.8664 73.0777 29.9719C70.8739 28.0783 68.0862 25.7083 66.8838 24.7052C65.6814 23.7022 64.2293 22.526 63.6567 22.0912C63.0842 21.6564 62.2649 21.0736 61.835 20.7962C61.4061 20.5189 60.6795 20.1164 60.2214 19.9026C59.7634 19.6889 58.9899 19.4334 58.5038 19.3354C57.8792 19.2093 57.3733 19.1748 56.7861 19.2186C56.3281 19.252 55.5786 19.3761 55.1205 19.4939C54.6625 19.6128 53.889 19.8995 53.4029 20.132C52.9167 20.3646 52.0735 20.8515 51.5291 21.2123C50.9847 21.5741 49.6969 22.5333 48.6664 23.3435C47.6358 24.1547 46.4417 25.0723 46.0118 25.384C45.5829 25.6948 44.8563 26.164 44.3983 26.4246C43.8944 26.7124 43.2782 26.9647 42.8368 27.0628C42.4235 27.1556 41.6355 27.2265 41.015 27.2254C40.4144 27.2244 39.6638 27.1691 39.3494 27.1013C39.0351 27.0346 38.5427 26.874 38.2564 26.7447C37.9701 26.6154 37.6307 26.41 37.5017 26.288C37.3726 26.1671 37.2674 25.9971 37.2674 25.9106C37.2674 25.8251 37.4434 25.555 37.6578 25.311C37.8723 25.0671 38.9455 23.9066 40.0427 22.7304C41.1399 21.5553 42.6161 20.0246 43.3219 19.3292C44.0287 18.6347 44.9344 17.7933 45.3352 17.4586C45.736 17.1249 46.4855 16.5744 47.0008 16.2355C47.5161 15.8956 48.2885 15.4431 48.7184 15.2283C49.1473 15.0135 49.8271 14.7153 50.2279 14.5651C50.6286 14.416 51.3074 14.1971 51.7373 14.0792C52.1662 13.9614 52.9396 13.7915 53.4549 13.7018Z" fill="white"/>
<path d="M11.2488 16.8778C11.789 16.3836 12.5354 15.7173 12.9081 15.3972C13.2808 15.0781 13.6316 14.8154 13.6889 14.8133C13.7461 14.8123 14.4488 15.0646 15.2504 15.3753C16.0519 15.685 17.4802 16.2032 18.4254 16.5243C19.3706 16.8465 20.9155 17.346 21.8607 17.6338C22.8059 17.9226 24.3986 18.3709 25.4001 18.6316C26.4026 18.8912 27.8776 19.2395 28.6792 19.4063C29.5526 19.5867 30.8247 19.7567 31.8543 19.8297C33.3502 19.936 33.726 19.9287 34.769 19.7765C35.428 19.6806 36.9968 19.3271 38.2564 18.9903C39.516 18.6535 40.7111 18.3407 40.9109 18.2948C41.1531 18.2392 41.2572 18.2476 41.2232 18.3198C41.1951 18.3793 39.9303 19.7744 38.4125 21.4208C36.8948 23.0661 35.5498 24.5853 35.4228 24.797C35.2958 25.0076 35.1636 25.3455 35.1292 25.5457C35.0938 25.7469 35.1136 26.0983 35.173 26.3277C35.2312 26.5571 35.4228 26.9439 35.5966 27.1879C35.7715 27.4319 36.2067 27.8197 36.5648 28.0512C36.9229 28.2817 37.5672 28.584 37.9961 28.7217C38.4261 28.8593 39.0351 29.024 39.3494 29.0877C39.6638 29.1513 40.3436 29.2326 40.8589 29.267C41.4075 29.3035 42.1622 29.2764 42.6806 29.2013C43.1668 29.1304 43.9173 28.9365 44.3462 28.7707C44.7761 28.6049 45.5715 28.1816 46.1159 27.8291C46.6604 27.4767 47.972 26.5185 49.0307 25.701C50.0894 24.8835 51.425 23.9003 51.9975 23.5166C52.5701 23.1329 53.4831 22.5949 54.0275 22.3206C54.6 22.0318 55.3673 21.744 55.8492 21.6366C56.4478 21.5021 56.9308 21.4646 57.5669 21.5032C58.2133 21.5428 58.6755 21.6439 59.2845 21.8806C59.7426 22.0589 60.5389 22.4791 61.0542 22.8138C61.5695 23.1485 62.4825 23.8158 63.0842 24.2955C63.6859 24.7751 65.0204 25.8741 66.051 26.7364C67.0816 27.5997 69.3999 29.5715 71.2039 31.1178C73.008 32.6651 76.2632 35.4762 78.4389 37.3634C80.6146 39.2517 82.6445 41.0368 82.9495 41.3298C83.2545 41.6239 83.6282 42.0983 83.7792 42.385C84.003 42.8104 84.054 43.0492 84.0571 43.6884C84.0592 44.2222 84.004 44.5861 83.8812 44.8353C83.7833 45.0366 83.5262 45.3806 83.3087 45.6017C83.0921 45.8228 82.658 46.1335 82.3426 46.293C82.0272 46.4515 81.6295 46.6131 81.4578 46.6517C81.286 46.6903 80.8644 46.7226 80.5209 46.7215C80.1773 46.7215 79.6402 46.6371 79.3279 46.5339C78.8303 46.3712 78.4045 46.0261 75.9446 43.7926C74.3967 42.3871 72.5676 40.7438 71.8806 40.1412C71.1935 39.5385 70.4794 38.941 70.2931 38.8128C70.1067 38.6845 69.8236 38.5792 69.6633 38.5792C69.503 38.5792 69.3145 38.6376 69.2448 38.7095C69.175 38.7815 69.1199 39.0046 69.123 39.2048C69.1261 39.5437 69.3989 39.8429 72.9705 43.4277C76.3506 46.8206 76.8472 47.3607 77.0949 47.9112C77.3281 48.4284 77.3677 48.637 77.3229 49.1103C77.2927 49.4263 77.1689 49.883 77.0471 50.1269C76.9253 50.3709 76.6203 50.7692 76.3694 51.0132C76.1185 51.2572 75.6146 51.6096 75.2503 51.7963C74.8859 51.984 74.3061 52.1883 73.9626 52.2499C73.5108 52.3322 73.186 52.3312 72.7915 52.2488C72.4906 52.1852 72.069 52.0444 71.8546 51.935C71.6401 51.8255 70.3868 50.6921 69.0699 49.4158C67.753 48.1396 66.3591 46.8216 65.9729 46.4869C65.5867 46.1522 65.1079 45.7956 64.908 45.6955C64.6051 45.5423 64.5041 45.5339 64.2834 45.6434C64.0773 45.7456 64.0211 45.8519 64.0211 46.1387C64.0211 46.4452 64.1491 46.6496 64.8278 47.4191C65.2713 47.9238 66.5018 49.3095 67.5604 50.4992C68.6191 51.6899 69.5925 52.8609 69.7226 53.1028C69.8527 53.3436 69.9579 53.718 69.9568 53.9328C69.9558 54.1475 69.9048 54.4531 69.8444 54.6105C69.784 54.7679 69.5383 55.1006 69.2979 55.3487C69.0584 55.5979 68.6389 55.9149 68.3672 56.0525C68.0955 56.1912 67.5563 56.3434 67.1701 56.3914C66.7839 56.4383 66.2561 56.4414 65.999 56.3977C65.7418 56.3528 65.4722 56.3142 65.4004 56.3111C65.3286 56.308 64.3917 55.454 63.3184 54.4134C62.2451 53.3739 60.9564 52.1779 60.4556 51.7546C59.9549 51.3323 59.4396 50.959 59.3105 50.9246C59.1815 50.8902 58.9712 50.9131 58.8421 50.9767C58.713 51.0393 58.5829 51.1738 58.5527 51.2739C58.5225 51.374 58.5402 51.5742 58.5923 51.717C58.6443 51.8609 59.7238 53.1153 60.9897 54.5062C62.2566 55.8972 63.2924 57.0817 63.2924 57.139C63.2924 57.1964 63.1987 57.3371 63.0842 57.4518C62.9697 57.5665 62.7 57.749 62.4856 57.8585C62.2711 57.9669 61.7912 58.115 61.4186 58.1869C61.0209 58.2641 60.4202 58.2933 59.9612 58.2578C59.5323 58.2255 58.8525 58.0972 58.4517 57.9732C58.0509 57.8491 57.4045 57.5988 57.0152 57.4174C56.4853 57.1703 56.326 57.0473 56.3781 56.9305C56.4166 56.845 56.5405 56.4925 56.655 56.1485C56.8018 55.7011 56.8632 55.2246 56.8684 54.4802C56.8725 53.7701 56.8163 53.2383 56.6914 52.8119C56.5904 52.4678 56.3364 51.8578 56.1282 51.4564C55.8898 50.9976 55.4766 50.4523 55.0185 49.9904C54.4959 49.4638 54.065 49.1447 53.507 48.8705C53.0781 48.6599 52.4452 48.4169 52.1016 48.3294C51.7581 48.2418 51.2428 48.1709 50.4361 48.1719L50.4204 47.416C50.4111 46.9999 50.3486 46.3785 50.2809 46.0344C50.2133 45.6903 50.002 45.0804 49.8115 44.6789C49.5751 44.1805 49.2733 43.7634 48.8579 43.3651C48.5237 43.044 47.9574 42.6332 47.5993 42.4528C47.2412 42.2724 46.6093 42.0305 46.194 41.9158C45.7495 41.7928 45.1186 41.7062 44.6585 41.7062C44.2296 41.7062 43.6196 41.775 43.3052 41.8585C42.7899 41.995 42.7223 41.994 42.6286 41.8449C42.5713 41.7542 42.3485 41.4508 42.1341 41.1724C41.9197 40.8929 41.4981 40.4779 41.1972 40.2496C40.8964 40.0223 40.2999 39.698 39.8699 39.5301C39.441 39.3612 38.7144 39.1683 38.2564 39.1016C37.7765 39.0307 37.1581 39.0088 36.799 39.0516C36.4555 39.0922 35.8933 39.2132 35.5498 39.3206C35.2063 39.428 34.691 39.6511 33.8842 40.1182L33.2856 39.5573C32.9567 39.2486 32.3945 38.8607 32.0364 38.695C31.6783 38.5281 31.1401 38.3404 30.8393 38.2779C30.5384 38.2143 30.0471 38.1632 29.7462 38.1632C29.4454 38.1642 28.9072 38.2351 28.5491 38.3196C28.191 38.4051 27.6757 38.5876 27.404 38.7252C27.1323 38.8628 26.7221 39.1225 26.4931 39.3018C26.2641 39.4822 26.0413 39.6271 25.9986 39.625C25.956 39.624 25.5573 39.3831 25.1138 39.0922C24.6703 38.8003 23.6044 38.2174 22.7455 37.7972C21.8867 37.376 20.4116 36.7264 19.4664 36.352C18.5212 35.9788 16.9524 35.4084 15.979 35.0841C15.0057 34.7609 13.3422 34.2489 12.2835 33.9455C11.2248 33.6431 9.35102 33.15 8.11952 32.8497C6.88802 32.5504 5.15476 32.1062 4.26783 31.8622C2.94681 31.5015 2.64804 31.3847 2.62097 31.2199C2.60328 31.1105 2.7157 30.5745 2.87081 30.0292C3.02592 29.4849 3.36112 28.4996 3.61409 27.8396C3.86705 27.1806 4.32925 26.1358 4.63947 25.5196C4.95073 24.9034 5.47227 23.9649 5.79914 23.4342C6.12705 22.9035 6.80058 21.9307 7.29713 21.2706C7.79473 20.6117 8.66604 19.5554 9.23339 18.9246C9.80177 18.2938 10.7085 17.3731 11.2488 16.8778Z" fill="white"/>
<path d="M27.8724 40.748C28.1441 40.5655 28.5543 40.3539 28.7833 40.2798C29.0186 40.2037 29.5162 40.1599 29.9284 40.1787C30.3563 40.1995 30.8507 40.2986 31.1256 40.4196C31.3837 40.5322 31.797 40.8095 32.0448 41.0358C32.2936 41.262 32.609 41.6812 32.7464 41.9679C32.8848 42.2547 33.0275 42.7239 33.0639 43.0106C33.1014 43.2974 33.1607 43.5924 33.1961 43.6665C33.2367 43.752 33.4095 43.5872 33.676 43.2087C33.905 42.8824 34.3027 42.4403 34.5608 42.2244C34.819 42.0086 35.2635 41.7135 35.5498 41.5686C35.8361 41.4247 36.3045 41.2485 36.5908 41.1786C36.8948 41.1046 37.4371 41.0733 37.892 41.1046C38.3365 41.1348 38.9414 41.262 39.2974 41.3997C39.6992 41.554 40.0917 41.8105 40.3977 42.117C40.6965 42.4163 40.9526 42.8073 41.0869 43.167C41.2045 43.483 41.3294 43.9636 41.3658 44.2358C41.4075 44.5496 41.4981 44.7675 41.6136 44.8301C41.7552 44.9073 41.9342 44.827 42.4204 44.4662C42.7639 44.2118 43.2792 43.9261 43.5655 43.8312C43.9381 43.7082 44.3223 43.6727 44.9188 43.7051C45.5652 43.7405 45.9035 43.8218 46.4282 44.0679C46.8009 44.242 47.2621 44.5215 47.4536 44.6883C47.6462 44.8551 47.9418 45.2733 48.1105 45.6173C48.3509 46.1043 48.4311 46.439 48.4779 47.1292C48.5258 47.8518 48.4935 48.1792 48.302 48.9018C48.1729 49.3898 48.0459 49.9288 48.0178 50.1009C47.9845 50.3094 48.0237 50.4571 48.1354 50.544C48.2708 50.6504 48.4696 50.6264 49.2129 50.4137C49.7219 50.2677 50.3986 50.152 50.7484 50.1509C51.0919 50.1509 51.6311 50.2375 51.9455 50.3438C52.2599 50.4512 52.7054 50.6556 52.9344 50.8005C53.1635 50.9444 53.5497 51.2802 53.7933 51.546C54.0369 51.8119 54.3492 52.253 54.4866 52.5251C54.625 52.7973 54.7968 53.3488 54.8697 53.7503C54.9727 54.3227 54.9738 54.6147 54.8769 55.1058C54.8093 55.4499 54.6375 55.9775 54.4949 56.2788C54.3523 56.5801 54.0306 57.0493 53.7797 57.3215C53.5289 57.5936 53.0719 57.9544 52.7648 58.1223C52.4577 58.2891 51.9715 58.4882 51.6852 58.5633C51.399 58.6394 50.9305 58.7009 50.6442 58.7009C50.358 58.7009 49.8895 58.6394 49.6033 58.5633C49.317 58.4882 48.8298 58.2891 48.5217 58.1223C48.2125 57.9544 47.7492 57.5821 47.49 57.2954C47.2319 57.0087 46.9133 56.5395 46.7822 56.2527C46.651 55.966 46.4823 55.3612 46.4074 54.9077C46.3147 54.3415 46.2148 54.0485 46.0888 53.9692C45.9504 53.8827 45.8463 53.8921 45.6589 54.011C45.5236 54.0975 45.1613 54.3425 44.8532 54.5563C44.5461 54.77 44.0839 54.9869 43.8257 55.037C43.5613 55.088 43.1074 55.0891 42.7847 55.039C42.4703 54.99 41.9311 54.818 41.5876 54.6574C41.244 54.4968 40.7371 54.1569 40.4612 53.9015C40.1854 53.646 39.8606 53.2269 39.7388 52.9683C39.5878 52.6482 39.5118 52.2676 39.5004 51.7692C39.491 51.3677 39.4764 51.0038 39.4681 50.9611C39.4598 50.9184 39.3838 50.86 39.2974 50.8308C39.211 50.8026 38.7613 50.9778 38.298 51.2218C37.5037 51.6388 37.4059 51.6649 36.6064 51.6618C35.886 51.6597 35.6643 51.6138 35.1334 51.3563C34.7899 51.1894 34.2579 50.8151 33.9508 50.5242C33.6437 50.2343 33.2627 49.7391 33.1045 49.4231C32.9452 49.1082 32.7578 48.5681 32.686 48.2241C32.6079 47.8456 32.5819 47.2898 32.6204 46.8164C32.6694 46.2075 32.6485 45.9937 32.5288 45.8519C32.3841 45.6809 32.3404 45.6955 31.8282 46.0824C31.5274 46.3097 31.0235 46.5745 30.7092 46.6715C30.2928 46.7987 29.9596 46.8289 29.486 46.7799C29.1216 46.7414 28.6063 46.5975 28.3149 46.4515C28.0286 46.3086 27.6299 46.0271 27.43 45.8259C27.2301 45.6257 26.9397 45.2149 26.7846 44.9135C26.5514 44.4579 26.5035 44.2264 26.4983 43.532C26.4952 43.0357 26.5535 42.5498 26.642 42.3329C26.7242 42.1327 26.923 41.7688 27.0844 41.5248C27.2458 41.2808 27.6007 40.9315 27.8724 40.748Z" fill="white"/>
</svg>
