<svg width="300" height="226" viewBox="0 0 300 226" fill="none" xmlns="http://www.w3.org/2000/svg">
<path fill-rule="evenodd" clip-rule="evenodd" d="M175.521 0C182.104 0 184.948 0.510228 189.062 2.44701C191.927 3.80068 195.469 6.01861 196.927 7.38269C198.396 8.75719 200.833 11.7457 202.354 14.0365C203.875 16.3273 205.844 21.0131 206.729 24.4493C207.615 27.8855 208.344 32.9254 208.344 35.6431C208.333 38.3609 207.667 43.9838 206.854 48.1385C206.042 52.2932 204.99 56.5521 204.51 57.6038C203.792 59.2073 204.677 58.9991 209.896 56.3542C213.333 54.6153 218.958 52.4598 222.396 51.5643C225.833 50.6792 230.281 49.9607 232.292 49.9816C234.302 49.992 237.927 50.9291 240.365 52.0641C242.802 53.1991 245.51 55.1776 246.396 56.4688C247.354 57.8641 247.979 61.0088 247.958 64.2784C247.927 68.381 247.073 71.3591 244.531 76.2011C242.667 79.7518 238.323 85.4893 234.865 88.9568C231.417 92.4242 224.969 97.714 220.542 100.723C215.427 104.201 213.26 106.19 214.583 106.19C215.729 106.19 217.604 107.127 218.75 108.273C220.156 109.678 220.625 111.115 220.198 112.698C219.844 113.989 218.094 116.572 216.292 118.456C214.49 120.331 209.969 123.465 206.25 125.433C202.531 127.391 195.729 129.962 191.146 131.139C185.969 132.472 179.854 133.243 175 133.17C170.698 133.107 166.01 132.722 164.583 132.316C162.771 131.795 160.24 132.378 156.25 134.242C150.927 136.72 149.458 136.908 135.417 136.887C122.354 136.866 119.469 136.554 114.062 134.534C110.625 133.243 106.292 130.681 104.437 128.827C102.583 126.974 100.948 124.183 100.792 122.632C100.573 120.331 99.6458 119.477 95.8333 118.05C93.2603 117.082 87.1562 114.312 82.2916 111.886C77.427 109.46 70.6249 105.378 67.1874 102.816C63.7499 100.255 59.0833 95.6314 56.8124 92.5492C53.8437 88.4986 52.5624 85.6143 52.2395 82.2405C51.8437 78.065 52.1249 77.2944 54.802 75.1806C57.1874 73.2855 59.1041 72.8065 64.0624 72.8169C67.4999 72.8273 72.6562 73.5458 75.5208 74.4101C78.3853 75.2639 80.8437 75.972 80.9895 75.9824C81.1353 75.9928 79.5416 73.5354 77.4583 70.5261C75.3749 67.5168 72.4791 62.4874 71.0312 59.3323C69.5833 56.1772 67.7812 51.2623 67.0208 48.3988C66.2708 45.5353 65.6353 41.0786 65.6249 38.5066C65.6145 35.9347 66.2916 31.478 67.1249 28.6144C68.0937 25.2823 70.0728 21.9815 72.6041 19.4616C74.7812 17.2957 78.677 14.755 81.2499 13.8178C84.4999 12.6412 87.8541 12.2871 92.1874 12.6516C96.1874 12.9952 100.875 14.3697 105.208 16.4627C108.937 18.2641 114.75 22.2106 118.146 25.2199C121.542 28.2292 126.573 33.623 134.375 43.713L135.479 39.2876C136.083 36.851 137.24 32.7483 138.052 30.1764C138.865 27.594 141.333 22.6791 143.542 19.2429C145.75 15.8067 149.635 11.1521 152.167 8.89255C154.698 6.64338 159.115 3.71738 161.979 2.39495C166.042 0.531054 169.021 0 175.521 0V0ZM161.198 27.9272C159.052 30.3117 156.062 34.7164 154.552 37.7257C153.042 40.735 150.687 47.6387 149.323 53.0846C147.958 58.5201 146.26 63.6744 145.552 64.5387C144.844 65.3926 143.562 66.6733 142.708 67.371C141.854 68.0686 140.094 68.6518 138.802 68.6726C137.51 68.6934 135.052 67.9958 133.333 67.1419C131.344 66.1527 127.802 61.8938 123.583 55.4275C119.948 49.8462 114.677 43.2549 111.865 40.787C109.062 38.3192 104.896 35.4036 102.604 34.2998C100.312 33.1961 96.677 32.2798 94.5312 32.2693C92.3853 32.2693 89.4478 32.7275 88.0208 33.3002C86.5833 33.8729 84.4791 35.8618 83.3333 37.7257C82.1666 39.6312 81.2603 42.9321 81.2603 45.275C81.2603 47.5658 81.7083 51.0749 82.2603 53.0846C82.8228 55.0839 85.0416 59.6447 87.2083 63.2163C89.3749 66.7775 94.5416 73.223 98.6978 77.5339C102.854 81.8344 106.26 86.187 106.271 87.1866C106.281 88.1862 105.719 89.592 105.021 90.3104C104.323 91.0289 102.083 91.6016 100.052 91.6016C98.0208 91.5912 93.3124 90.6228 89.5833 89.4566C85.8541 88.2904 79.9999 87.0512 76.5624 86.718C72.7187 86.3432 69.4062 86.5722 67.9687 87.3011C66.677 87.9571 65.6249 89.1963 65.6249 90.0501C65.6249 90.904 67.6145 93.7467 70.052 96.3603C72.6353 99.1301 77.7395 102.775 82.2916 105.107C86.5937 107.304 93.9687 110.324 98.6978 111.813C103.427 113.302 108.583 114.52 110.156 114.51C111.729 114.51 114.073 115.208 115.365 116.072C116.656 116.936 117.698 118.467 117.677 119.466C117.667 120.466 116.844 122.142 115.854 123.173C114.49 124.61 114.323 125.475 115.177 126.818C115.792 127.786 118.135 129.494 120.385 130.629C123.573 132.222 126.562 132.659 133.854 132.628C140.375 132.607 144.5 132.045 147.396 130.785C149.687 129.796 152.635 127.953 153.958 126.693C156.312 124.444 156.5 124.433 166.458 125.86C172.385 126.714 179.573 127.057 183.854 126.682C187.865 126.339 193.26 125.308 195.833 124.402C198.406 123.496 201.573 122.07 202.865 121.237C204.156 120.404 205.208 118.79 205.208 117.644C205.208 116.113 204.167 115.291 201.302 114.531C199.156 113.958 196.458 113.5 195.312 113.521C194.167 113.531 192.417 112.708 191.437 111.688C190.448 110.668 189.625 109.012 189.615 108.012C189.594 107.013 191.104 105.253 192.969 104.107C194.833 102.972 197.062 102.025 197.917 102.014C198.771 102.014 203.812 99.9007 209.115 97.3287C215.187 94.3819 220.969 90.602 224.74 87.1033C228.031 84.0419 231.552 79.8247 232.552 77.7318C233.552 75.6284 234.396 72.8586 234.417 71.5674C234.448 70.2762 233.677 68.5164 232.698 67.6626C231.604 66.6942 229.115 66.1631 226.146 66.2568C223.51 66.3401 218.542 67.4647 215.104 68.7455C211.667 70.0367 205.104 73.2126 200.521 75.8054C195.135 78.8563 190.865 80.5536 188.437 80.6057C186.375 80.6473 183.865 79.9705 182.854 79.1167C181.521 77.9921 181.146 76.5447 181.5 73.9102C181.76 71.9006 183.208 68.3914 184.719 66.1006C186.219 63.8098 188.5 59.124 189.771 55.6878C191.375 51.3456 192.094 47.0556 192.115 41.6305C192.146 35.8514 191.615 32.7588 190.083 29.739C188.948 27.4899 186.615 24.5847 184.896 23.2935C183.177 21.9919 179.896 20.659 177.604 20.3154C174.677 19.8885 172.198 20.2946 169.271 21.6587C166.979 22.7312 163.344 25.5531 161.198 27.9272Z" fill="#FF6C0E"/>
<path d="M127.292 216.566C125.771 213.432 125.49 208.652 125.271 182.412L125.021 151.902L136.979 152.527L137.5 172.832H147.917V180.121H137.5L137.76 197.74C138.01 214.973 138.083 215.421 140.625 218.034C142.062 219.492 144.75 220.939 146.615 221.231C149.125 221.637 150 222.314 150 223.855C150 225.708 149.302 225.938 143.75 225.938C138.646 225.938 136.719 225.406 133.281 223.074C130.958 221.502 128.26 218.576 127.292 216.566Z" fill="#FF6C0E"/>
<path d="M12.5 174.373C14.5 173.374 18.25 172.228 20.8333 171.822C23.4062 171.426 27.1562 171.291 29.1667 171.52C31.1667 171.749 34.9167 172.707 37.5 173.644C40.0729 174.581 43.7708 176.768 45.7083 178.518C47.6354 180.256 50.1042 183.443 51.1771 185.588C52.8021 188.847 53.125 191.908 53.125 218.649L41.1458 218.128L40.1042 184.12L36.1979 180.558C32.8438 177.497 31.5521 176.997 27.0833 176.997C24.2188 176.997 20.4688 177.695 18.75 178.559C16.8646 179.496 14.8021 181.881 13.5625 184.547C11.8333 188.264 11.5 191.242 11.4583 217.607H0V202.509C0 191.554 0.40625 186.619 1.46875 184.547C2.28125 182.974 4.27083 180.444 5.89583 178.934C7.52083 177.424 10.4896 175.373 12.5 174.373Z" fill="#FF6C0E"/>
<path d="M261.198 176.851C262.771 176.206 265.698 175.29 267.708 174.831C269.708 174.373 273.927 174.217 277.083 174.477C280.229 174.748 285.271 176.123 288.281 177.539C292.146 179.361 294.667 181.496 300 189.493V220.731L289.062 220.742L288.427 204.852C287.958 193.21 287.333 188.066 286.083 185.588C285.146 183.724 282.969 181.496 281.25 180.642C279.531 179.777 276.365 179.069 274.219 179.049C271.854 179.028 268.875 179.965 266.667 181.412C264.656 182.724 262.198 185.432 261.198 187.431C260.177 189.461 259.385 193.335 259.396 196.261C259.406 199.125 260.26 203.342 261.292 205.633C262.323 207.923 264.542 210.901 266.219 212.255C269.031 214.525 269.906 214.671 277.344 214.077C284.938 213.484 285.417 213.567 285.417 215.525C285.417 217.003 284.198 218.065 281.25 219.169C278.958 220.023 274.385 220.721 271.094 220.721C267.062 220.71 263.396 219.929 259.896 218.315C257.031 216.993 253.698 214.536 252.5 212.859C251.302 211.172 249.771 208.152 249.094 206.153C248.427 204.143 247.885 200.051 247.896 197.042C247.906 194.033 248.542 190.055 249.312 188.191C250.083 186.327 252.427 183.287 254.521 181.423C256.615 179.559 259.625 177.507 261.198 176.851Z" fill="#FF6C0E"/>
<path d="M67.9688 180.069C70.4062 177.757 74.2708 175.196 76.5625 174.373C79.1875 173.446 84.0312 172.978 89.6667 173.124C97.5938 173.322 99.1771 173.707 103.729 176.529C106.74 178.382 109.812 181.391 111.177 183.818C113.292 187.556 113.51 189.336 113.542 218.649H102.083V203.55C102.083 191.325 101.74 187.722 100.26 184.609C99.2604 182.495 97.0312 179.913 95.3125 178.882C93.5938 177.851 90.5417 176.987 88.5417 176.966C86.4375 176.956 83.3958 177.934 81.3437 179.309C79.3958 180.611 76.8125 183.005 75.6146 184.619C73.9479 186.869 73.4375 189.087 73.4479 193.991C73.4583 198.5 74.1146 201.676 75.6458 204.591C76.8542 206.882 79.1146 209.694 80.6667 210.839C82.2292 211.984 84.9896 212.911 86.8021 212.911C88.6146 212.901 92.0938 212.557 94.5312 212.13C98.5208 211.432 98.9583 211.568 98.9583 213.442C98.9583 214.66 97.7708 216.129 96.0938 216.983C94.5208 217.784 91.5833 218.774 89.5833 219.169C87.5729 219.575 83.3542 219.367 80.2083 218.711C77.0521 218.055 72.6875 216.254 70.5 214.702C68.3125 213.151 65.6146 210.006 64.5104 207.715C63.4062 205.424 62.2188 201.207 61.875 198.344C61.5208 195.48 61.75 191.148 62.3854 188.712C63.1562 185.775 65.0312 182.87 67.9688 180.069Z" fill="#FF6C0E"/>
<path d="M156.656 190.013C156.25 182.568 156.208 175.654 156.573 174.654C157.094 173.217 158.458 172.832 168.75 172.832L168.771 187.15C168.792 199.197 169.125 202.165 170.854 205.893C171.99 208.329 174.208 211.12 175.781 212.088C177.354 213.067 180.521 214.036 182.812 214.234C185.562 214.483 188.219 213.921 190.625 212.588C192.792 211.391 195.229 208.736 196.635 206.018C198.76 201.926 199 200.03 198.958 172.832H209.375L209.354 188.712C209.333 203.706 209.187 204.841 206.75 209.017C204.854 212.266 202.708 214.14 198.698 216.056C195.688 217.493 190.885 218.951 188.021 219.294C184.656 219.7 180.406 219.325 176.042 218.222C172.312 217.295 167.437 215.244 165.198 213.682C162.958 212.12 160.292 209.194 159.271 207.194C157.937 204.57 157.198 199.749 156.656 190.013Z" fill="#FF6C0E"/>
<path d="M223.198 182.204C224.948 178.809 226.885 176.872 230.25 175.165C233.073 173.738 236.74 172.822 239.583 172.843C242.156 172.853 244.875 173.28 245.625 173.78C246.365 174.29 246.719 175.456 246.406 176.372C246.052 177.403 244.635 178.039 242.708 178.039C240.99 178.039 238.646 178.507 237.5 179.08C236.354 179.653 234.708 181.756 233.854 183.766C232.802 186.213 232.292 190.93 232.281 198.083C232.281 203.956 231.927 211.224 230.729 219.711L220.833 219.69L220.812 203.29C220.792 188.16 220.979 186.525 223.198 182.204Z" fill="#FF6C0E"/>
</svg>
