<svg width="300" height="55" viewBox="0 0 300 55" fill="none" xmlns="http://www.w3.org/2000/svg">
<path d="M4.38302 0.359669C4.9802 0.258527 5.92965 0.127284 6.49425 0.0682844C7.05886 0.0092851 8.60549 -0.0160003 9.93255 0.0104892C11.2644 0.0369786 12.9124 0.145345 13.6121 0.251303C14.3094 0.35726 15.3397 0.546299 15.9043 0.671522C16.4689 0.796745 17.4184 1.04117 18.0156 1.21456C18.6127 1.38794 19.6165 1.72147 20.2474 1.95506C20.8784 2.18985 21.9364 2.64378 22.6 2.96407C23.2635 3.28435 24.3493 3.88397 25.0128 4.29697C25.6763 4.70996 26.732 5.45769 27.3581 5.95858C27.9854 6.45947 29.0712 7.44199 29.7709 8.14155C30.4719 8.84112 31.7796 10.2234 32.6772 11.2119C33.5748 12.2017 34.7172 13.4984 35.2155 14.0945C35.7125 14.6905 36.5305 15.6923 37.0324 16.322C37.5354 16.9517 38.9289 18.7662 40.1317 20.3556C41.3333 21.945 43.0657 24.2315 43.9801 25.438C44.8946 26.6432 45.6969 27.6137 45.7632 27.5945C45.8416 27.5728 45.9056 24.3375 46.0045 9.15779H51.0715L51.1004 27.7004C51.1161 38.5238 51.0835 46.2936 51.0196 46.3635C50.952 46.4393 50.2294 45.7987 49.0543 44.6176C48.0325 43.5917 46.6101 42.0469 45.8947 41.186C45.1781 40.3251 43.9548 38.7802 43.1767 37.7544C42.3973 36.7285 40.4755 34.1133 38.9059 31.9448C37.3364 29.7762 34.8174 26.3627 33.3106 24.3591C31.8025 22.3556 29.7299 19.6332 28.7057 18.3087C27.6802 16.9842 26.434 15.3864 25.9345 14.7567C25.4363 14.127 24.3927 12.8543 23.6158 11.9271C22.84 11 21.6421 9.69721 20.9544 9.03256C20.2667 8.36792 19.1894 7.41068 18.5585 6.90738C17.9287 6.40288 16.896 5.64673 16.2663 5.2253C15.6365 4.80388 14.5773 4.17897 13.9137 3.83822C13.2502 3.49626 11.975 2.9737 11.0786 2.67509C10.1823 2.37648 8.8528 2.01285 8.12292 1.86596C7.1047 1.66126 6.23487 1.58782 4.38302 1.54808C2.72901 1.51316 1.6734 1.54688 1.02555 1.65524C0.406656 1.75879 0.0592069 1.77204 0.0181886 1.69257C-0.0167975 1.62635 9.23482e-05 1.53363 0.0567941 1.48668C0.113496 1.44092 0.866302 1.20854 1.72889 0.972539C2.59148 0.736542 3.78584 0.46081 4.38302 0.359669Z" fill="#FF6C0E"/>
<path d="M15.7632 27.0586C15.7523 16.871 15.7885 8.49916 15.844 8.45581C15.8995 8.41126 15.9767 8.37274 16.0153 8.36912C16.0539 8.36671 16.8453 9.11203 17.7743 10.0259C18.7032 10.941 20.1196 12.4738 20.9218 13.4334C21.7241 14.3931 23.0584 16.0715 23.8872 17.1648C24.716 18.2581 26.5244 20.7228 27.9082 22.6433C29.2908 24.5638 31.7289 27.869 33.3262 29.9881C34.9223 32.1073 36.9588 34.7888 37.8503 35.9483C38.7431 37.1066 40.0689 38.814 40.8 39.7411C41.5299 40.6682 42.7001 42.1035 43.4023 42.9307C44.1032 43.7579 45.0575 44.8102 45.5219 45.269C45.9864 45.7277 46.7875 46.473 47.3014 46.9258C47.8154 47.3785 48.7383 48.119 49.3523 48.5729C49.9664 49.0268 50.9026 49.6686 51.4334 50.0009C51.9642 50.3321 52.7918 50.8004 53.2732 51.0425C53.7546 51.2833 54.8669 51.7203 55.7464 52.0141C56.6258 52.3079 57.8878 52.6595 58.5513 52.7956C59.2148 52.9316 60.4912 53.1086 61.3864 53.1869C62.6507 53.2977 63.3661 53.2977 64.5834 53.1845C65.446 53.105 66.3013 53.0147 66.4835 52.9822C66.7236 52.9413 66.8153 52.9762 66.8153 53.1062C66.8153 53.2278 66.4907 53.3844 65.82 53.5867C65.2722 53.7516 64.201 54.0165 63.4373 54.1754C62.6736 54.3344 61.3984 54.5318 60.6022 54.6137C59.6829 54.7088 58.2738 54.7389 56.7417 54.698C55.4146 54.6631 53.7582 54.5451 53.0621 54.4355C52.366 54.3272 51.1439 54.0791 50.3476 53.8865C49.5514 53.6938 48.2485 53.3133 47.4522 53.04C46.656 52.7679 45.3253 52.2212 44.4965 51.8263C43.6665 51.4302 42.5807 50.8558 42.0836 50.5488C41.5854 50.2418 40.7711 49.6915 40.274 49.3267C39.7758 48.9618 38.8541 48.1948 38.2231 47.6229C37.5921 47.051 36.206 45.6398 35.1407 44.4863C34.0754 43.334 32.8401 41.9698 32.3961 41.4569C31.9509 40.944 30.8651 39.6159 29.9808 38.5069C29.0977 37.398 27.0239 34.7021 25.3723 32.5167C23.7207 30.3313 22.1222 28.2302 21.8206 27.8473C21.519 27.4644 21.2053 27.1526 21.1221 27.155C21.0027 27.1574 20.9713 29.0827 20.9713 45.5808H15.7837L15.7632 27.0586Z" fill="#FF6C0E"/>
<path d="M277.878 9.03016C278.476 8.92179 279.399 8.79175 279.929 8.74118C280.46 8.69061 281.248 8.64244 281.679 8.63281C282.109 8.62438 283.088 8.67375 283.85 8.74118C284.613 8.80861 285.781 8.97356 286.444 9.10842C287.108 9.24207 288.193 9.53225 288.857 9.75139C289.52 9.97174 290.524 10.3823 291.089 10.6641C291.653 10.947 292.521 11.4527 293.019 11.7887C293.516 12.1246 294.353 12.8085 294.878 13.307C295.403 13.8067 296.136 14.6206 296.509 15.1179C296.881 15.614 297.464 16.5628 297.804 17.225C298.145 17.8873 298.595 18.9167 298.804 19.5128C299.013 20.1088 299.317 21.2466 299.478 22.0413C299.64 22.836 299.837 24.3531 299.916 25.4127C300.027 26.9033 300.028 27.7751 299.917 29.2657C299.838 30.3253 299.641 31.8424 299.478 32.6371C299.317 33.4318 299.013 34.5696 298.801 35.1656C298.591 35.7616 298.161 36.7634 297.845 37.3932C297.529 38.0229 296.948 38.9705 296.556 39.5003C296.163 40.0301 295.456 40.8428 294.986 41.3064C294.515 41.7699 293.704 42.4575 293.183 42.8343C292.662 43.2112 291.692 43.7952 291.028 44.1335C290.365 44.4707 289.253 44.9306 288.555 45.1558C287.858 45.3797 286.746 45.6735 286.082 45.8084C285.419 45.9432 284.224 46.1142 283.428 46.1865C282.391 46.2816 281.562 46.2828 280.502 46.1913C279.689 46.1202 278.468 45.9481 277.788 45.8084C277.108 45.6687 276.063 45.3942 275.466 45.1991C274.868 45.0053 273.864 44.6007 273.234 44.3021C272.604 44.0035 271.627 43.4544 271.062 43.0812C270.498 42.7079 269.517 41.8855 268.882 41.2522C268.248 40.6201 267.456 39.6953 267.126 39.1993C266.795 38.702 266.384 38.053 266.211 37.7544C266.04 37.4558 265.707 36.7514 265.472 36.1891C265.238 35.6268 264.906 34.6515 264.736 34.0218C264.566 33.392 264.345 32.4167 264.247 31.8545C264.148 31.2922 264.012 30.0315 263.946 29.055C263.862 27.8389 263.863 26.7191 263.95 25.503C264.02 24.5265 264.204 23.0768 264.359 22.2821C264.514 21.4874 264.803 20.3496 265.002 19.7536C265.201 19.1576 265.556 18.2629 265.793 17.7669C266.028 17.2696 266.448 16.5122 266.725 16.0812C267.003 15.6501 267.536 14.9241 267.91 14.4665C268.284 14.0078 269.023 13.2721 269.554 12.8302C270.085 12.3883 270.764 11.8621 271.062 11.6598C271.36 11.4588 272.148 11.0217 272.812 10.6894C273.475 10.357 274.643 9.89106 275.405 9.65506C276.168 9.41907 277.281 9.13732 277.878 9.03016Z" fill="#FF6C0E"/>
<path d="M92.2707 9.05183C92.8341 8.94948 93.4868 8.84112 93.7184 8.81222C93.9501 8.78332 95.3616 8.7773 96.8551 8.79777C98.7975 8.82667 100.016 8.90614 101.138 9.07832C102.001 9.21197 103.601 9.51419 104.697 9.75259C105.792 9.9898 107.122 10.3113 108.618 10.7496L108.648 12.9939C108.665 14.2281 108.637 15.2395 108.588 15.2407C108.538 15.2407 107.846 14.9506 107.049 14.5954C106.253 14.2389 105.222 13.8127 104.757 13.6465C104.293 13.4804 103.261 13.2179 102.465 13.0626C101.332 12.8422 100.61 12.7808 99.1473 12.7796C97.7563 12.7796 97.0614 12.8338 96.4329 12.9915C95.9684 13.1083 95.2373 13.3768 94.8078 13.5888C94.3796 13.8007 93.7522 14.245 93.4144 14.5761C93.0766 14.9072 92.6676 15.449 92.5048 15.7802C92.2659 16.2678 92.2104 16.5652 92.2128 17.3454C92.2152 18.1726 92.2647 18.4026 92.5639 18.9709C92.7557 19.3346 93.1635 19.8764 93.4687 20.175C93.7751 20.4736 94.5123 20.9986 95.1082 21.3417C95.7042 21.6861 97.468 22.5687 99.0267 23.3044C100.585 24.0401 102.324 24.8901 102.887 25.1936C103.451 25.497 104.483 26.1303 105.179 26.6011C105.88 27.0755 106.931 27.9424 107.533 28.5421C108.298 29.3054 108.75 29.8762 109.059 30.4698C109.301 30.9333 109.585 31.5703 109.691 31.8846C109.798 32.1988 109.942 32.9574 110.015 33.5702C110.106 34.3565 110.106 35.038 110.017 35.8881C109.948 36.5503 109.806 37.4172 109.702 37.8146C109.599 38.2119 109.362 38.8621 109.179 39.2595C108.994 39.6568 108.624 40.307 108.354 40.7043C108.084 41.1017 107.491 41.7928 107.035 42.2395C106.579 42.6874 105.879 43.2967 105.481 43.5953C105.083 43.8939 104.214 44.4081 103.551 44.7392C102.867 45.0799 101.848 45.4652 101.198 45.629C100.567 45.7879 99.3874 46.0046 98.5743 46.1106C97.7081 46.2238 96.223 46.3033 94.9852 46.3033C93.8234 46.3033 92.3443 46.2467 91.6977 46.1768C91.051 46.107 89.8422 45.9119 89.0134 45.7434C88.1834 45.5748 86.8816 45.234 86.118 44.9848C85.3543 44.7356 84.5231 44.4285 83.8089 44.0757L83.8137 41.9084C83.8161 40.7164 83.8475 39.7278 83.8825 39.711C83.9175 39.6941 84.6112 39.9458 85.4243 40.2697C86.2374 40.5924 87.3087 40.9957 87.807 41.1643C88.304 41.3329 89.1461 41.5833 89.6769 41.7206C90.2077 41.8578 91.2392 42.0589 91.9691 42.1661C92.8932 42.3009 93.681 42.3383 94.5629 42.2889C95.259 42.2492 96.2097 42.1155 96.6742 41.9915C97.1386 41.8687 97.8178 41.6267 98.1822 41.4557C98.5465 41.2847 99.1449 40.9211 99.5092 40.6502C99.8736 40.378 100.355 39.9277 100.577 39.6472C100.799 39.3678 101.104 38.8958 101.256 38.5972C101.407 38.2986 101.572 37.8652 101.622 37.634C101.672 37.4028 101.713 36.9139 101.713 36.5503C101.713 36.1096 101.616 35.6665 101.42 35.2258C101.259 34.8622 100.898 34.3336 100.619 34.0519C100.34 33.7701 99.6649 33.2488 99.1172 32.8936C98.5695 32.5372 96.3303 31.3475 94.1407 30.2494C91.951 29.1513 89.6443 27.9196 89.0134 27.5126C88.3824 27.1044 87.357 26.3844 86.7321 25.9112C86.1083 25.438 85.3664 24.7806 85.0841 24.4494C84.8018 24.1183 84.3856 23.5223 84.16 23.125C83.9332 22.7276 83.6291 22.0509 83.4844 21.6199C83.3396 21.1888 83.1695 20.4038 83.108 19.874C83.038 19.2852 83.0368 18.4893 83.1031 17.8271C83.1635 17.2311 83.3299 16.3641 83.4735 15.9006C83.6159 15.437 83.8849 14.7591 84.0707 14.3955C84.2577 14.0318 84.6715 13.4106 84.9924 13.0168C85.3133 12.6231 85.9551 11.9837 86.4196 11.596C86.8841 11.2083 87.7261 10.6556 88.2895 10.3679C88.8529 10.0801 89.7493 9.70805 90.2801 9.54188C90.811 9.37572 91.7073 9.15538 92.2707 9.05183Z" fill="#FF6C0E"/>
<path d="M215.567 9.11083C216.264 8.97477 217.024 8.84112 217.256 8.81222C217.488 8.78332 218.899 8.7773 220.393 8.79777C222.331 8.82667 223.555 8.90614 224.675 9.07832C225.538 9.21076 226.922 9.4588 227.752 9.62858C228.581 9.79955 229.911 10.1186 232.155 10.7411L232.185 12.9903C232.202 14.2269 232.174 15.2395 232.125 15.2407C232.076 15.2431 231.546 15.0192 230.949 14.7447C230.352 14.4701 229.401 14.0668 228.838 13.8488C228.274 13.6309 227.432 13.3624 226.968 13.254C226.503 13.1445 225.554 12.9795 224.856 12.8856C224.159 12.7917 223.155 12.7134 222.624 12.711C222.094 12.7086 221.171 12.7929 220.574 12.8964C219.976 13.0012 219.216 13.201 218.885 13.3419C218.553 13.4816 218.036 13.7597 217.738 13.9584C217.44 14.1583 217.015 14.5135 216.793 14.7495C216.572 14.9855 216.25 15.449 216.077 15.7802C215.823 16.2666 215.761 16.5556 215.755 17.2852C215.749 18.0161 215.808 18.3147 216.06 18.8505C216.232 19.2142 216.612 19.7596 216.905 20.0606C217.197 20.3628 217.953 20.9143 218.583 21.2851C219.213 21.6572 220.218 22.1906 220.815 22.4687C221.412 22.7481 222.932 23.4729 224.193 24.0798C225.453 24.6866 226.947 25.4596 227.51 25.798C228.074 26.1363 228.942 26.7227 229.441 27.1008C229.938 27.4789 230.635 28.0665 230.99 28.406C231.343 28.7468 231.87 29.35 232.159 29.7473C232.448 30.1447 232.828 30.8214 233.006 31.2524C233.182 31.6835 233.401 32.4276 233.494 32.908C233.587 33.3884 233.663 34.1735 233.662 34.6539C233.662 35.1343 233.575 36.0687 233.47 36.7309C233.365 37.3932 233.118 38.3408 232.919 38.838C232.721 39.3341 232.325 40.0927 232.039 40.5237C231.755 40.9548 231.12 41.7133 230.631 42.2106C230.143 42.7067 229.28 43.4219 228.717 43.7976C228.153 44.1745 227.257 44.6826 226.726 44.927C226.195 45.1714 225.273 45.4953 224.675 45.6446C224.078 45.7951 222.925 46.0046 222.112 46.1106C221.245 46.2238 219.76 46.3033 218.523 46.3033C217.361 46.3033 215.882 46.2455 215.235 46.1744C214.588 46.1034 213.407 45.9131 212.611 45.7518C211.815 45.5904 210.701 45.3183 210.138 45.1473C209.575 44.9764 208.719 44.679 207.363 44.1359V41.9084C207.363 40.6839 207.404 39.6809 207.454 39.6821C207.503 39.6821 208.114 39.9181 208.811 40.2059C209.508 40.4948 210.756 40.9512 211.586 41.2209C212.415 41.4906 213.637 41.8229 214.3 41.9578C214.964 42.0938 216.076 42.2407 216.773 42.2853C217.584 42.3358 218.409 42.3106 219.066 42.213C219.629 42.13 220.417 41.9554 220.815 41.8253C221.213 41.6953 221.919 41.3666 222.383 41.0945C222.848 40.8223 223.499 40.3227 223.831 39.9843C224.163 39.6448 224.584 39.0728 224.766 38.7116C224.948 38.3504 225.157 37.7303 225.229 37.333C225.338 36.7418 225.326 36.4684 225.164 35.8279C225.055 35.3968 224.82 34.8321 224.64 34.572C224.461 34.3107 223.994 33.8508 223.604 33.5486C223.213 33.2451 222.589 32.8153 222.217 32.5913C221.844 32.3674 219.978 31.4053 218.07 30.4541C216.163 29.5029 213.991 28.3615 213.245 27.9171C212.498 27.4741 211.264 26.6432 210.5 26.0701C209.718 25.4837 208.862 24.7191 208.536 24.3182C208.22 23.9269 207.753 23.1996 207.498 22.7035C207.245 22.2063 206.941 21.367 206.823 20.8372C206.654 20.0823 206.621 19.5489 206.67 18.3689C206.703 17.5405 206.82 16.5387 206.929 16.1414C207.036 15.744 207.311 15.0397 207.539 14.5761C207.766 14.1125 208.25 13.3672 208.613 12.9193C208.977 12.4726 209.591 11.8597 209.978 11.5587C210.365 11.2589 211.033 10.8134 211.465 10.569C211.897 10.3257 212.711 9.95247 213.275 9.74055C213.838 9.52864 214.87 9.24568 215.567 9.11083Z" fill="#FF6C0E"/>
<path d="M242.802 9.3384C243.316 9.20474 244.225 9.01811 244.823 8.92058C245.619 8.79175 246.631 8.75683 248.623 8.78934C250.609 8.82185 251.791 8.90373 253.026 9.09277C253.955 9.23605 255.34 9.48409 256.103 9.64543C256.865 9.80557 258.141 10.1138 260.385 10.7231L260.416 12.9807C260.435 14.4256 260.402 15.2383 260.325 15.2383C260.259 15.2383 259.838 15.0553 259.39 14.8326C258.943 14.6098 258.087 14.2329 257.49 13.9945C256.893 13.7561 255.943 13.4467 255.379 13.3058C254.814 13.1661 253.784 12.9747 253.087 12.882C252.389 12.7905 251.385 12.7134 250.855 12.711C250.324 12.7086 249.401 12.7905 248.804 12.8928C248.123 13.0096 247.392 13.2336 246.843 13.496C246.347 13.7332 245.677 14.1884 245.297 14.546C244.902 14.9168 244.493 15.4514 244.309 15.8404C244.067 16.3473 243.994 16.6856 243.996 17.2852C243.997 17.8548 244.079 18.2485 244.297 18.7301C244.461 19.0937 244.809 19.6296 245.071 19.9209C245.333 20.2111 245.844 20.6518 246.21 20.8998C246.576 21.1479 247.525 21.6777 248.321 22.0786C249.117 22.4796 250.638 23.2068 251.699 23.6957C252.761 24.1845 254.172 24.8889 254.836 25.261C255.499 25.6342 256.461 26.2266 256.972 26.5782C257.484 26.931 258.273 27.5439 258.727 27.9412C259.18 28.3386 259.783 28.9346 260.067 29.2657C260.349 29.5968 260.796 30.3012 261.059 30.831C261.322 31.3608 261.622 32.2 261.727 32.6973C261.87 33.3776 261.902 34.0158 261.855 35.286C261.82 36.2613 261.711 37.2764 261.598 37.6942C261.49 38.0915 261.211 38.8224 260.975 39.3197C260.74 39.8157 260.285 40.5743 259.966 41.0054C259.645 41.4364 259.066 42.089 258.678 42.4563C258.29 42.8235 257.619 43.3738 257.188 43.6796C256.758 43.9854 256.024 44.4273 255.56 44.6633C255.095 44.8993 254.389 45.2051 253.991 45.3424C253.593 45.4809 252.779 45.6952 252.182 45.818C251.585 45.942 250.527 46.1082 249.829 46.1889C248.997 46.284 247.652 46.3105 245.908 46.2647C244.09 46.2178 242.837 46.1214 241.927 45.9613C241.197 45.8325 240.057 45.588 239.394 45.4207C238.73 45.2521 237.603 44.8945 235.593 44.1359V41.9084C235.593 40.6839 235.634 39.6797 235.684 39.6797C235.733 39.6785 236.426 39.9422 237.222 40.2649C238.018 40.5887 239.267 41.0451 239.997 41.2811C240.727 41.5171 241.893 41.8313 242.591 41.9794C243.567 42.1865 244.274 42.2492 245.667 42.254C247.005 42.2588 247.696 42.2058 248.321 42.0505C248.786 41.9349 249.627 41.6122 250.191 41.3341C250.884 40.9921 251.458 40.5924 251.96 40.1035C252.466 39.6098 252.831 39.1114 253.106 38.537C253.459 37.7965 253.509 37.5762 253.508 36.7309C253.505 36.0205 253.44 35.6256 253.258 35.2258C253.123 34.9272 252.798 34.4468 252.536 34.1578C252.275 33.8689 251.572 33.3066 250.975 32.9092C250.378 32.5131 248.315 31.4138 246.391 30.4674C244.467 29.521 242.32 28.4024 241.622 27.9822C240.925 27.5619 239.788 26.8118 239.099 26.3157C238.409 25.8185 237.488 25.0298 237.051 24.5614C236.58 24.0581 236.072 23.3465 235.803 22.8155C235.554 22.3243 235.235 21.4597 235.095 20.8974C234.882 20.0413 234.85 19.638 234.901 18.4291C234.935 17.6344 235.052 16.6591 235.16 16.2618C235.269 15.8644 235.568 15.1059 235.824 14.5761C236.081 14.0463 236.582 13.2745 236.937 12.8615C237.293 12.4485 237.855 11.8874 238.187 11.6141C238.519 11.3408 239.144 10.9097 239.575 10.6532C240.005 10.398 240.698 10.0524 241.113 9.88384C241.528 9.71647 242.288 9.47084 242.802 9.3384Z" fill="#FF6C0E"/>
<path d="M56.3797 45.641L56.3496 27.4295L56.3182 9.21799H81.1717V11.2649C81.1717 12.3907 81.1306 13.3118 81.0812 13.3118C81.0317 13.3118 79.0906 13.1974 76.7682 13.0578C74.4435 12.9181 71.0812 12.8001 69.2884 12.7953C67.4969 12.7905 65.9092 12.8242 65.4882 12.9506V24.9913L67.7502 25.0683C68.9941 25.1105 71.3695 25.1105 73.0283 25.0671C74.6872 25.025 76.4509 24.9407 76.9492 24.8805C77.4462 24.8215 77.895 24.795 77.9445 24.8215C77.9939 24.8492 78.035 25.792 78.035 26.9178C78.035 28.0436 77.9939 28.9876 77.9445 29.0165C77.895 29.0454 77.1482 29.0116 76.2857 28.943C75.4231 28.8732 72.7086 28.813 70.2536 28.807C67.7985 28.8021 65.7222 28.8359 65.639 28.8816C65.5208 28.9466 65.4882 30.3855 65.4846 41.9084L66.1204 41.9975C66.469 42.0469 67.895 42.0866 69.2884 42.0866C70.6818 42.0866 73.5857 41.9795 75.7428 41.8482C77.8986 41.717 80.0026 41.6098 81.1717 41.6074L81.1113 45.641H56.3797Z" fill="#FF6C0E"/>
<path d="M113.686 45.641L113.659 27.4247L113.634 9.20836L123.793 9.24568C133.91 9.28301 133.957 9.28421 134.919 9.55392C135.45 9.70323 136.21 9.97655 136.608 10.1608C137.006 10.345 137.575 10.6629 137.875 10.8652C138.173 11.0686 138.729 11.5539 139.109 11.9428C139.489 12.3317 140.003 12.9482 140.25 13.3118C140.497 13.6754 140.9 14.4352 141.145 14.9975C141.406 15.5947 141.706 16.5965 141.867 17.4056C142.084 18.5001 142.141 19.1816 142.136 20.6566C142.131 22.0738 142.072 22.7842 141.886 23.6066C141.752 24.2026 141.485 25.0695 141.294 25.5331C141.101 25.9967 140.693 26.7552 140.385 27.2188C140.079 27.6824 139.511 28.3627 139.122 28.7323C138.735 29.1007 138.064 29.6077 137.633 29.8593C137.201 30.111 136.578 30.424 136.246 30.5553C135.914 30.6865 135.317 30.8948 134.919 31.0188C134.521 31.1416 133.733 31.3524 133.17 31.4848C132.605 31.6185 131.601 31.8051 130.938 31.9014C130.274 31.9965 129.324 32.1145 128.826 32.1627C128.328 32.2109 126.782 32.2831 122.855 32.3963L122.794 45.7012L113.686 45.641Z" fill="#FF6C0E"/>
<path d="M145.293 45.641L145.268 27.4259L145.241 9.20956L155.462 9.24689C165.436 9.28301 165.703 9.28903 166.586 9.53827C167.084 9.67794 167.871 9.94284 168.336 10.1271C168.8 10.3113 169.554 10.6833 170.011 10.9543C170.468 11.224 171.255 11.8525 171.761 12.3498C172.266 12.8483 172.855 13.5526 173.071 13.9151C173.285 14.2787 173.605 14.9289 173.78 15.3587C173.955 15.7898 174.171 16.5483 174.259 17.0444C174.347 17.5417 174.421 18.3003 174.423 18.7301C174.426 19.1612 174.35 20.0281 174.255 20.6566C174.161 21.2864 173.942 22.2075 173.768 22.7035C173.594 23.2008 173.296 23.8775 173.106 24.2086C172.916 24.5397 172.498 25.1285 172.177 25.5174C171.856 25.9052 171.213 26.5096 170.748 26.8588C170.284 27.2092 169.511 27.6908 169.029 27.9292C168.548 28.1676 168.155 28.4301 168.156 28.5132C168.156 28.5962 168.625 29.6931 169.198 30.9514C169.771 32.2096 170.797 34.3505 171.477 35.7075C172.159 37.0657 173.588 39.829 174.655 41.8482C175.721 43.8686 176.554 45.5615 176.507 45.6097C176.458 45.6591 174.247 45.6868 166.768 45.641L165.704 43.2329C165.119 41.9084 164.147 39.7146 163.545 38.3564C162.944 36.9994 161.92 34.8044 161.271 33.4799C160.622 32.1555 160.018 30.9791 159.93 30.8659C159.789 30.6841 159.492 30.6576 157.478 30.6468C156.217 30.6407 155.036 30.6383 154.522 30.6504L154.462 45.641H145.293Z" fill="#FF6C0E"/>
<path d="M179.798 45.6422L179.766 27.4307L179.736 9.21919H204.59V13.313L203.474 13.2504C202.86 13.2155 200.892 13.0987 199.1 12.9903C197.309 12.882 194.404 12.7917 192.646 12.7917C190.887 12.7905 189.326 12.8254 188.906 12.9518V18.9119C188.906 23.5584 188.939 24.8889 189.057 24.9491C189.139 24.9913 190.863 25.0527 192.887 25.0852C194.996 25.1189 197.442 25.0864 198.618 25.0093C199.746 24.9359 200.846 24.8335 201.458 24.6915L201.457 29.1465L200.941 29.0598C200.658 29.0128 198.799 28.9153 196.808 28.8443C194.68 28.7672 192.318 28.7528 188.967 28.9057L188.9 41.9096L189.536 41.9987C189.886 42.0469 191.313 42.0878 192.706 42.0866C194.1 42.0866 197.004 41.9794 199.161 41.8494C201.317 41.7182 203.421 41.611 204.59 41.6086L204.529 45.6422H179.798Z" fill="#FF6C0E"/>
<path d="M154.461 13.2516L155.004 13.1709C155.302 13.1276 156.442 13.1107 157.538 13.1348C158.778 13.1613 159.87 13.2516 160.433 13.3744C160.93 13.484 161.772 13.773 162.303 14.0174C162.889 14.2883 163.483 14.6748 163.813 15.0011C164.114 15.2973 164.474 15.7825 164.616 16.0812C164.757 16.3786 164.961 16.9481 165.068 17.3454C165.177 17.7428 165.297 18.6362 165.337 19.3321C165.39 20.2593 165.356 20.8697 165.212 21.6199C165.103 22.1822 164.876 22.9407 164.707 23.3056C164.54 23.6692 164.174 24.2014 163.895 24.488C163.617 24.7745 163.063 25.1899 162.665 25.4115C162.267 25.6318 161.643 25.9015 161.277 26.0099C160.912 26.1171 160.098 26.2844 159.468 26.3807C158.822 26.4783 157.465 26.5553 154.401 26.5565L154.461 13.2516Z" fill="#FEFEFE"/>
<path d="M122.793 13.3118L123.064 13.2685C123.214 13.2444 124.258 13.2167 125.386 13.207C126.787 13.195 127.801 13.2516 128.583 13.3828C129.213 13.49 130.11 13.7212 130.574 13.8982C131.039 14.0752 131.69 14.4147 132.022 14.6543C132.354 14.8927 132.773 15.2985 132.954 15.555C133.137 15.8114 133.389 16.2919 133.517 16.623C133.644 16.9541 133.837 17.6585 133.947 18.1883C134.071 18.7879 134.145 19.697 134.141 20.5964C134.138 21.3911 134.081 22.3387 134.015 22.7035C133.95 23.0672 133.784 23.6909 133.648 24.0882C133.513 24.4855 133.267 25.0141 133.104 25.2622C132.94 25.5102 132.609 25.8895 132.37 26.105C132.13 26.3205 131.601 26.6697 131.194 26.8828C130.786 27.0948 130.047 27.3777 129.549 27.5114C129.052 27.645 128.155 27.8088 127.558 27.8762C126.961 27.9436 125.821 28.0002 125.025 28.0014C124.228 28.0038 123.399 27.9629 122.787 27.8208L122.793 13.3118Z" fill="#FEFEFE"/>
<path d="M278.511 13.9307C278.926 13.7224 279.55 13.4743 279.899 13.3804C280.265 13.2805 281.117 13.2034 281.919 13.1986C282.794 13.1938 283.564 13.2576 284.001 13.3708C284.382 13.4707 285.033 13.7236 285.448 13.9319C285.863 14.1402 286.521 14.6146 286.91 14.9855C287.3 15.3563 287.839 15.9848 288.11 16.3822C288.38 16.7795 288.753 17.443 288.94 17.8572C289.127 18.2714 289.416 19.0841 289.584 19.6633C289.752 20.2424 289.966 21.178 290.063 21.7403C290.158 22.3026 290.299 23.5223 290.376 24.4494C290.461 25.462 290.485 26.8804 290.437 28.0014C290.393 29.0273 290.275 30.4902 290.175 31.2524C290.076 32.0146 289.831 33.2596 289.631 34.0218C289.431 34.7839 289.049 35.8676 288.782 36.4299C288.515 36.9922 288.065 37.7784 287.781 38.1758C287.497 38.5731 286.972 39.1559 286.614 39.4702C286.254 39.7856 285.663 40.2022 285.297 40.3961C284.932 40.5899 284.308 40.8344 283.91 40.9379C283.485 41.0487 282.687 41.127 281.98 41.127C281.293 41.127 280.474 41.0487 280.08 40.9463C279.698 40.8464 279.047 40.5948 278.632 40.3864C278.16 40.1505 277.558 39.6881 277.024 39.1523C276.555 38.6815 275.944 37.9169 275.669 37.4533C275.393 36.9898 274.977 36.0819 274.744 35.4365C274.51 34.7912 274.184 33.5991 274.019 32.7876C273.853 31.976 273.657 30.554 273.582 29.6269C273.502 28.6564 273.473 26.9695 273.513 25.6535C273.558 24.1376 273.669 22.8576 273.842 21.8607C273.986 21.0323 274.265 19.8679 274.46 19.2719C274.657 18.6759 275.01 17.809 275.246 17.3454C275.481 16.8819 275.904 16.204 276.185 15.8403C276.466 15.4755 276.936 14.983 277.228 14.7434C277.518 14.5038 278.096 14.139 278.511 13.9307Z" fill="#FEFEFE"/>
</svg>
