<svg width="300" height="157" viewBox="0 0 300 157" fill="none" xmlns="http://www.w3.org/2000/svg">
<path fill-rule="evenodd" clip-rule="evenodd" d="M147.044 0.00317387H156.771C162.121 0.00317387 166.498 0.0301518 166.499 0.062684C166.5 0.0952162 166.354 0.496711 166.175 0.955336C165.997 1.41396 165.635 2.35977 165.372 3.05803C165.109 3.75628 164.831 4.48865 164.756 4.68464C164.681 4.88062 164.225 6.07717 163.743 7.34275C163.262 8.60834 162.136 11.5719 161.241 13.9285C160.345 16.2851 159.116 19.5169 158.508 21.1094C157.9 22.7019 157.423 24.0413 157.447 24.0849C157.471 24.1286 157.56 24.0746 157.646 23.9659C157.731 23.8564 157.919 23.6247 158.063 23.4502C158.207 23.2756 158.782 22.5781 159.341 21.9005C159.901 21.2229 160.915 19.9906 161.596 19.163C162.278 18.3355 163.893 16.3724 165.187 14.8014C166.481 13.2303 167.599 11.8735 167.672 11.7854C167.745 11.6973 168.054 11.3228 168.358 10.9522C168.662 10.5817 169.324 9.7787 169.828 9.16773C170.334 8.55676 171.849 6.7175 173.195 5.08137C174.542 3.44444 176.037 1.63216 177.392 0L206.727 0.00158694C222.861 0.0023804 236.047 0.0301518 236.028 0.062684C236.009 0.0952162 235.89 0.407843 235.762 0.756969C235.635 1.10609 235.076 2.5875 234.521 4.04986C233.965 5.51222 233.355 7.119 233.167 7.62047C232.977 8.12194 232.577 9.17566 232.276 9.9612C231.975 10.7467 231.545 11.8806 230.912 13.5715L211.409 13.6112L210.898 14.9997C210.618 15.7638 210.124 17.1024 209.801 17.9752C209.478 18.848 208.766 20.7762 208.218 22.26C207.671 23.7437 207.152 25.1363 207.067 25.3545C206.981 25.5727 206.789 26.09 206.639 26.505C206.489 26.92 206.098 27.9912 205.771 28.8854C205.444 29.7797 205.155 30.5747 205.13 30.6509C205.085 30.7826 205.558 30.7897 214.313 30.7897C219.729 30.7897 223.536 30.8191 223.524 30.8611C223.513 30.9 222.239 34.3104 217.879 45.9474L199.418 45.941L198.928 47.2328C198.658 47.9429 197.184 51.8801 195.652 55.9823C194.12 60.0846 192.692 63.9139 192.478 64.4923C192.264 65.0707 192.089 65.5793 192.089 65.623C192.089 65.6753 195.853 65.7023 203.221 65.7023C209.344 65.7023 214.367 65.7293 214.384 65.7618C214.401 65.7944 214.044 66.8568 213.59 68.1224C213.136 69.388 212.641 70.7805 212.489 71.2169C212.337 71.6533 212.222 72.0191 212.233 72.0287C212.245 72.039 212.432 71.9969 212.649 71.9342C212.867 71.8723 213.313 71.7509 213.64 71.6652C213.966 71.5795 215.036 71.2923 216.017 71.0265C216.997 70.7615 218.049 70.4742 218.354 70.3878C218.659 70.3021 220.905 69.6911 223.345 69.0301C225.786 68.3692 228.674 67.5844 229.763 67.2877C230.852 66.9901 232.689 66.4918 233.843 66.1792C234.998 65.8666 236.78 65.3834 237.805 65.1056C238.829 64.8271 240.201 64.4534 240.855 64.2733C241.509 64.094 242.383 63.8575 242.796 63.748C243.21 63.6377 245.171 63.1061 247.154 62.5658C249.137 62.0254 250.954 61.5311 251.195 61.4676C251.435 61.4033 252.486 61.1193 253.532 60.836C254.578 60.5527 255.844 60.2076 256.344 60.0687C256.845 59.9298 257.505 59.7497 257.81 59.6688C258.115 59.5879 259.827 59.1237 261.613 58.6373C263.4 58.1509 265.057 57.701 265.297 57.6375C265.537 57.574 267.052 57.1646 268.665 56.7282C270.277 56.291 271.97 55.83 272.428 55.703C272.886 55.5761 274.793 55.058 276.667 54.5509C278.541 54.0447 281.036 53.3671 282.213 53.0465C283.389 52.7252 284.691 52.3721 285.105 52.2618C285.518 52.1515 286.57 51.8674 287.442 51.6294C288.314 51.3921 290.435 50.8161 292.156 50.3487C293.877 49.8822 295.856 49.3466 296.553 49.1593C297.251 48.9713 298.053 48.7729 298.336 48.7189C298.631 48.6618 299.037 48.6412 299.287 48.6705C299.537 48.6999 299.783 48.7808 299.864 48.861C299.941 48.9371 300.003 49.0712 300 49.1585C299.997 49.2458 299.929 49.4243 299.849 49.5553C299.768 49.6862 299.51 49.9195 299.276 50.0734C299.043 50.2281 298.708 50.4201 298.534 50.5003C298.36 50.5804 297.272 51.0565 296.118 51.5588C294.963 52.0602 293.662 52.6236 293.226 52.8093C292.79 52.9957 291.845 53.406 291.126 53.7202C290.408 54.0352 289.587 54.393 289.304 54.5152C289.021 54.6374 288.45 54.8866 288.036 55.0691C287.623 55.2516 286.803 55.6086 286.214 55.8625C285.625 56.1164 284.307 56.6893 283.282 57.1353C282.258 57.5804 280.85 58.1945 280.153 58.4984C279.456 58.8031 278.386 59.2681 277.776 59.5315C277.166 59.795 276.399 60.1282 276.073 60.271C275.745 60.4147 275.157 60.6725 274.765 60.8447C274.373 61.0161 273.535 61.3803 272.903 61.6533C272.272 61.9262 271.612 62.2119 271.438 62.2896C271.263 62.3666 270.318 62.7768 269.338 63.2021C268.357 63.6274 267.021 64.2066 266.367 64.4899C265.713 64.7724 264.911 65.1223 264.584 65.2667C264.257 65.4111 262.742 66.0729 261.217 66.7362C259.692 67.4004 257.714 68.2581 256.82 68.6421C255.926 69.027 254.875 69.4816 254.483 69.653C254.09 69.8244 253.217 70.2061 252.541 70.502C251.866 70.7972 251.046 71.1535 250.719 71.2931C250.392 71.4335 248.913 72.0755 247.431 72.7206C245.95 73.3648 244.203 74.1242 243.549 74.4075C242.895 74.6907 242.084 75.0438 241.746 75.1922C241.409 75.3406 240.856 75.5834 240.518 75.7318C240.181 75.8801 239.37 76.2332 238.716 76.5157C238.062 76.799 236.725 77.3782 235.745 77.8027C234.764 78.2272 233.445 78.7993 232.813 79.0731C232.182 79.3468 230.951 79.8832 230.08 80.2641C229.208 80.6449 228.139 81.1083 227.703 81.294C227.267 81.4789 225.948 82.0502 224.772 82.5627C223.595 83.0753 222.4 83.5942 222.117 83.7156C221.834 83.8378 221.263 84.0862 220.85 84.2687C220.436 84.4512 219.616 84.8067 219.027 85.059C218.439 85.3113 217.28 85.812 216.452 86.1722C215.624 86.5325 214.412 87.0593 213.759 87.3418C213.105 87.6243 212.302 87.9742 211.976 88.1186C211.649 88.2638 210.419 88.8002 209.243 89.3112C208.066 89.8222 206.034 90.7037 204.726 91.2703C203.419 91.8376 202.117 92.4002 201.835 92.5223C201.552 92.6437 200.374 93.1531 199.22 93.6546C198.066 94.1561 196.212 94.9599 195.1 95.4415C193.989 95.9231 192.491 96.5738 191.772 96.8872C191.054 97.2006 189.823 97.7354 189.039 98.075C188.255 98.4146 186.704 99.0859 185.593 99.5675C184.481 100.049 182.984 100.7 182.265 101.012C181.546 101.326 180.227 101.897 179.333 102.281C178.44 102.666 177.174 103.214 176.521 103.498C175.867 103.782 174.744 104.27 174.025 104.584C173.306 104.897 171.933 105.493 170.975 105.907C170.016 106.322 168.751 106.869 168.162 107.123C167.573 107.377 166.772 107.724 166.379 107.897C165.987 108.068 164.401 108.755 162.854 109.422C161.306 110.09 159.72 110.777 159.328 110.948C158.936 111.12 158.009 111.522 157.268 111.841C156.527 112.16 154.977 112.831 153.822 113.331C152.666 113.832 150.795 114.643 149.662 115.135C148.529 115.626 147.246 116.18 146.81 116.367C146.374 116.553 145.465 116.945 144.789 117.239C144.114 117.532 142.278 118.327 140.709 119.004C139.14 119.681 137.536 120.377 137.144 120.549C136.752 120.722 136.199 120.963 135.916 121.085C135.632 121.206 134.688 121.61 133.816 121.983C132.945 122.355 131.911 122.801 131.518 122.973C131.126 123.145 129.54 123.831 127.993 124.498C126.445 125.164 124.859 125.851 124.467 126.023C124.075 126.196 123.433 126.472 123.041 126.637C122.649 126.802 120.741 127.625 118.802 128.465C116.863 129.306 114.92 130.145 114.484 130.329C114.048 130.513 111.767 131.494 109.413 132.508C107.06 133.522 103.139 135.207 100.698 136.253C98.258 137.298 96.1544 138.202 96.0237 138.263C95.893 138.322 95.412 138.531 94.9541 138.725C94.4962 138.92 92.6786 139.695 90.9134 140.446C89.1482 141.198 87.3481 141.966 86.9123 142.153C86.4766 142.339 85.4426 142.778 84.6147 143.128C83.7867 143.478 82.8415 143.877 82.5151 144.015C82.1879 144.154 81.2791 144.536 80.4947 144.863C79.7104 145.192 78.7303 145.604 78.3159 145.78C77.9016 145.955 76.3685 146.581 74.9091 147.168C73.4497 147.756 71.6488 148.471 70.908 148.758C70.1672 149.044 69.2045 149.419 68.7688 149.589C68.333 149.758 66.9956 150.257 65.7977 150.695C64.5989 151.135 62.8876 151.741 61.9947 152.044C61.1017 152.347 59.8713 152.75 59.2612 152.94C58.6512 153.131 57.8486 153.377 57.4786 153.488C57.1086 153.599 56.4668 153.784 56.0525 153.9C55.6381 154.016 55.0502 154.176 54.7452 154.256C54.4401 154.336 53.7627 154.513 53.2398 154.649C52.7169 154.783 51.6647 155.033 50.9025 155.202C50.1396 155.371 48.8212 155.636 47.9711 155.791C47.1209 155.946 45.9269 156.143 45.3169 156.231C44.7068 156.317 43.7085 156.444 43.0984 156.512C42.4884 156.579 41.5614 156.671 41.0385 156.715C40.5156 156.759 39.1251 156.817 37.9485 156.844C36.6333 156.874 35.1842 156.858 34.1851 156.8C33.2922 156.748 32.0974 156.653 31.5309 156.588C30.9645 156.523 29.9305 156.381 29.2333 156.274C28.5361 156.166 27.4126 155.951 26.7376 155.799C26.0625 155.646 25.0104 155.379 24.4003 155.206C23.7902 155.033 22.7919 154.717 22.1819 154.504C21.5718 154.291 20.5466 153.898 19.904 153.63C19.2615 153.362 18.1737 152.861 17.4875 152.517C16.8014 152.173 15.7936 151.633 15.2493 151.315C14.7042 150.999 13.8485 150.472 13.3478 150.146C12.8471 149.82 12.0619 149.283 11.6047 148.952C11.1468 148.621 10.7546 148.33 10.7332 148.306C10.711 148.283 10.4615 148.086 10.1786 147.87C9.89577 147.653 9.43148 147.28 9.14863 147.038C8.86578 146.797 8.26285 146.26 7.80966 145.844C7.35646 145.429 6.61646 144.669 6.16565 144.156C5.71483 143.644 5.10159 142.894 4.8029 142.49C4.5042 142.086 4.10013 141.506 3.90602 141.201C3.71112 140.895 3.3427 140.271 3.08758 139.812C2.83167 139.354 2.46563 138.622 2.2739 138.186C2.08216 137.749 1.81833 137.107 1.6876 136.757C1.55687 136.408 1.33186 135.748 1.18766 135.289C1.04346 134.831 0.833505 134.046 0.720999 133.544C0.608493 133.042 0.446865 132.221 0.36209 131.719C0.276522 131.217 0.160055 130.36 0.103009 129.815C0.0404182 129.225 -0.000781065 127.874 1.12291e-05 126.482C0.000803523 125.172 0.0467566 123.687 0.103802 123.11C0.160055 122.542 0.293952 121.454 0.402497 120.69C0.510249 119.926 0.706738 118.748 0.838259 118.071C0.968987 117.394 1.27244 116.056 1.51092 115.096C1.75019 114.136 2.05285 112.993 2.18437 112.557C2.31668 112.12 2.63994 111.102 2.90298 110.295C3.16602 109.488 3.6414 108.131 3.9599 107.28C4.27761 106.429 4.68089 105.376 4.85519 104.939C5.03029 104.503 5.38603 103.646 5.64669 103.035C5.90736 102.424 6.21952 101.71 6.33916 101.448C6.45959 101.186 6.82483 100.401 7.15047 99.7024C7.47689 99.0042 8.1448 97.6299 8.63523 96.6476C9.12486 95.6661 9.97103 94.041 10.5138 93.0373C11.0573 92.0336 11.7426 90.7839 12.0373 90.2602C12.3313 89.7365 12.8241 88.8795 13.1323 88.3558C13.4405 87.8322 13.9602 86.9578 14.2875 86.4118C14.6147 85.8667 15.1487 84.9915 15.4735 84.4679C15.7984 83.9442 16.3141 83.1229 16.6208 82.6429C16.9266 82.1628 17.337 81.5201 17.5335 81.2146C17.73 80.9091 18.3274 79.9982 18.8598 79.1913C19.393 78.3843 20.1591 77.2409 20.5624 76.6522C20.9649 76.0634 21.6336 75.0986 22.048 74.5098C22.4623 73.9211 22.9266 73.2601 23.0788 73.0419C23.2317 72.8237 23.875 71.9311 24.5081 71.0582C25.1411 70.1854 26.2456 68.6858 26.9626 67.7257C27.6796 66.7656 28.5036 65.6761 28.7928 65.3056C29.0828 64.935 29.6374 64.2209 30.0264 63.7187C30.4146 63.2164 31.5151 61.8246 32.4722 60.6241C33.4293 59.4244 35.0527 57.4328 36.0803 56.199C37.1079 54.9651 37.9755 53.9566 38.008 53.9574C38.0404 53.9582 38.0531 54.0217 38.0349 54.0979C38.0167 54.174 37.6823 54.9151 37.2917 55.7443C36.9011 56.5735 36.2609 58.0017 35.868 58.9182C35.4758 59.8346 34.8792 61.3168 34.5433 62.2111C34.2065 63.1053 33.7375 64.409 33.4998 65.1072C33.2629 65.8055 32.9072 66.9306 32.7099 67.6067C32.5126 68.2827 32.2123 69.3904 32.0428 70.0664C31.874 70.7424 31.6466 71.7065 31.5389 72.2088C31.4311 72.711 31.2521 73.6386 31.1419 74.2718C31.0318 74.9042 30.871 75.9936 30.7854 76.6919C30.6998 77.3901 30.5865 78.497 30.5342 79.1516C30.474 79.9149 30.455 81.1821 30.4827 82.6825C30.5144 84.4012 30.5707 85.3605 30.6935 86.2928C30.7854 86.9911 30.9343 87.9551 31.0239 88.4352C31.1142 88.9152 31.2933 89.7182 31.4216 90.2205C31.5508 90.7228 31.7409 91.4012 31.8439 91.7281C31.9469 92.0558 32.1783 92.716 32.3581 93.196C32.538 93.676 32.7812 94.2831 32.8992 94.5449C33.0173 94.8067 33.3136 95.4137 33.5584 95.8938C33.8032 96.3738 34.2556 97.1768 34.5639 97.6791C34.8721 98.1814 35.4211 98.9891 35.784 99.4747C36.1469 99.9611 36.8179 100.778 37.2751 101.292C37.7322 101.806 38.5174 102.593 39.0181 103.041C39.5197 103.49 40.2858 104.132 40.7216 104.466C41.1573 104.802 41.906 105.334 42.3854 105.648C42.8647 105.962 43.5778 106.402 43.97 106.626C44.3622 106.85 45.1996 107.281 45.8319 107.584C46.4641 107.887 47.3903 108.296 47.8918 108.492C48.3933 108.689 49.2482 108.996 49.7933 109.175C50.3376 109.353 51.3367 109.64 52.0118 109.812C52.6868 109.984 53.6146 110.2 54.0717 110.291C54.5289 110.383 55.3671 110.526 55.9336 110.61C56.5001 110.694 57.5871 110.824 58.3501 110.9C59.3223 110.997 60.4592 111.038 62.1531 111.04C63.4818 111.04 65.0862 110.997 65.7184 110.943C66.3507 110.888 67.3125 110.79 67.8576 110.723C68.4019 110.656 69.3828 110.513 70.0365 110.406C70.6901 110.298 71.7953 110.083 72.4926 109.929C73.1898 109.774 74.6872 109.397 75.8202 109.092C76.9532 108.787 78.0767 108.485 78.3159 108.421C78.5552 108.358 79.4648 108.111 80.3363 107.873C81.2078 107.635 82.8296 107.193 83.9412 106.891C85.0528 106.59 86.906 106.087 88.0611 105.774C89.2163 105.461 90.999 104.977 92.0226 104.698C93.0463 104.42 95.4532 103.764 97.3706 103.243C99.288 102.721 101.124 102.222 101.451 102.134C101.777 102.047 102.901 101.744 103.947 101.462C104.992 101.178 107.096 100.607 108.621 100.191C110.146 99.7754 111.804 99.3255 112.305 99.1906C112.807 99.0565 113.734 98.8042 114.365 98.6305C114.997 98.4567 116.352 98.0869 117.376 97.8084C118.4 97.5307 120.254 97.0277 121.496 96.6912C122.737 96.3548 124.592 95.8525 125.616 95.5748C126.64 95.2971 128.333 94.8369 129.379 94.5528C130.425 94.268 132.85 93.6078 134.767 93.0865C136.684 92.5644 138.52 92.0661 138.847 91.9796C139.174 91.8931 140.243 91.6051 141.224 91.3393C142.204 91.0743 143.256 90.7878 143.561 90.7029C143.866 90.618 144.437 90.4593 144.829 90.3506C145.221 90.2411 146.487 89.8968 147.642 89.5857C148.797 89.2747 150.507 88.8113 151.445 88.5566C152.382 88.3019 153.968 87.8702 154.97 87.5989C155.973 87.3275 157.684 86.8625 158.773 86.5674C159.863 86.2714 161.699 85.7731 162.854 85.4605C164.008 85.1479 165.649 84.7019 166.498 84.4694C167.348 84.2377 170.058 83.5022 172.52 82.8365C174.981 82.17 177.032 81.5907 177.075 81.5495C177.126 81.5003 172.221 81.4908 163.507 81.5225C152.624 81.5614 149.854 81.5519 149.828 81.4725C149.812 81.4178 149.756 79.588 149.706 77.406C149.657 75.2239 149.565 71.4931 149.502 69.1142C149.439 66.7354 149.313 61.9159 149.222 58.4024C149.13 54.8897 149.031 51.0692 149.002 49.9123C148.973 48.7515 148.917 47.8096 148.878 47.8096C148.838 47.8096 148.292 49.1665 147.665 50.8248C147.038 52.4831 146.261 54.5359 145.937 55.3872C145.615 56.2386 145.098 57.5955 144.79 58.4024C144.482 59.2094 143.858 60.8527 143.406 62.0524C142.953 63.2529 142.184 65.2873 141.699 66.5751C141.212 67.8629 140.551 69.6117 140.23 70.4631C139.908 71.3145 139.392 72.6714 139.083 73.4783C138.774 74.2853 138.25 75.6604 137.918 76.5332C137.586 77.406 137.026 78.8874 136.028 81.532L126.425 81.5519C120.062 81.5653 116.821 81.5447 116.821 81.4923C116.821 81.4487 117.092 80.6901 117.424 79.8062C117.754 78.9223 118.463 77.0211 118.999 75.581C119.535 74.1409 120.499 71.5526 121.141 69.8284C121.784 68.1042 122.646 65.7833 123.058 64.6708C123.47 63.5584 124.05 61.9865 124.347 61.1796C124.644 60.3726 125.35 58.4619 125.917 56.9345C126.483 55.4071 127.915 51.5508 129.099 48.3651C130.283 45.1793 131.32 42.3942 131.404 42.176C131.488 41.9578 131.9 40.8509 132.317 39.7163C132.734 38.5816 133.432 36.6892 133.867 35.5109C134.302 34.3326 134.708 33.2431 134.768 33.0908C134.829 32.9384 135.508 31.1174 136.276 29.0441C137.045 26.9716 138.184 23.9008 138.809 22.2203C139.434 20.5405 140.414 17.8975 140.986 16.3486C141.559 14.7998 142.287 12.8359 142.603 11.9845C142.919 11.1339 144.047 8.08941 145.11 5.22023L147.044 0.00317387ZM134.257 0.00317387C140.592 0.00317387 143.839 0.0301518 143.839 0.0825207C143.839 0.126161 143.645 0.670481 143.408 1.29256C143.172 1.91464 136.538 19.6336 128.667 40.6684C120.796 61.7032 114.134 79.5023 113.367 81.532L103.824 81.5511C98.5757 81.5614 94.2561 81.5431 94.2252 81.5114C94.1943 81.4789 97.5148 72.5087 101.604 61.5763C105.694 50.6439 109.148 41.4143 109.28 41.0651C109.413 40.716 109.913 39.3774 110.392 38.0896C110.871 36.8026 111.3 35.66 111.346 35.5505C111.391 35.4418 111.819 34.2992 112.296 33.0114C112.773 31.7244 113.201 30.5818 113.247 30.4723C113.293 30.3636 113.729 29.2028 114.216 27.8936C114.704 26.5844 115.148 25.3886 115.203 25.2355C115.258 25.0831 117.395 19.3701 119.952 12.54C122.509 5.71059 124.618 0.0952162 124.637 0.062684C124.657 0.0301518 128.986 0.00317387 134.257 0.00317387V0.00317387ZM71.1219 0.00317387H91.548L91.5472 0.340398C91.5472 0.526069 91.4403 2.3201 91.3095 4.32757C91.1788 6.33505 90.9839 9.35261 90.8754 11.0324C90.7668 12.7129 90.4824 17.1222 90.2423 20.8317C90.0031 24.5412 89.7345 28.7013 89.6465 30.0756C89.5586 31.4507 89.4342 33.3606 89.37 34.3207C89.3058 35.2808 89.2797 36.0917 89.3114 36.1218C89.3431 36.1528 92.4172 28.0388 102.917 0.00476081L112.524 0.00396734C117.807 0.00317387 122.13 0.0301518 122.129 0.062684C122.128 0.0952162 118.297 10.3524 113.615 22.8551C108.933 35.3585 102.076 53.6757 91.6534 81.532L81.3013 81.5519C71.4863 81.5709 70.9484 81.5646 70.9484 81.4328C70.9484 81.3567 71.0379 79.9197 71.148 78.2391C71.2582 76.5594 71.4364 73.8457 71.5434 72.2088C71.6504 70.5726 71.9887 65.3953 72.2945 60.7035C72.6011 56.0125 72.9402 50.7994 73.0488 49.1188C73.1573 47.4391 73.246 46.0108 73.2468 45.945C73.2474 45.8672 73.2233 45.854 73.1747 45.9053C73.1343 45.9489 72.5425 47.4843 71.8595 49.3172C71.1766 51.1501 69.5183 55.5959 68.1738 59.1959C66.83 62.7966 65.0109 67.6701 64.1323 70.0267C63.2536 72.3833 62.3987 74.686 62.2339 75.1446C62.0683 75.6032 61.8425 76.2102 61.7316 76.4935C61.6207 76.7776 61.1532 78.036 59.8563 81.5717H50.2695C42.6532 81.5717 40.6819 81.5511 40.6812 81.4725C40.6804 81.4178 42.5922 76.2674 44.9286 70.0267C47.2659 63.7861 49.2752 58.4127 49.3948 58.085C49.5144 57.7581 50.0104 56.4188 50.4985 55.1095C50.9857 53.8003 51.4358 52.6046 51.4983 52.4514C51.5601 52.2991 51.9888 51.1565 52.4491 49.9123C52.9102 48.6689 53.3246 47.5621 53.3697 47.4526C53.4157 47.3439 53.7049 46.5758 54.0123 45.7466C54.3197 44.9174 54.7468 43.7748 54.9607 43.2075C55.1746 42.6402 55.4337 41.9443 55.5359 41.6602C55.6381 41.377 55.9051 40.6629 56.1293 40.0733C56.3535 39.4846 56.6609 38.6633 56.8131 38.2483C56.9652 37.8341 57.1934 37.2271 57.3201 36.8994C57.4469 36.5725 58.6433 33.3764 59.9791 29.7979C61.3149 26.2194 64.3303 18.1498 66.6811 11.8655C69.031 5.58125 70.992 0.341191 71.0379 0.221378L71.1219 0.00317387Z" fill="#FF6C0E"/>
<path d="M192.908 5.83514C192.99 5.74786 193.825 4.82823 194.763 3.79196C195.702 2.75569 196.501 1.90747 196.538 1.90747C196.575 1.90747 196.605 1.92493 196.605 1.94714C196.605 1.96936 196.476 2.33515 196.318 2.76045C196.161 3.18575 195.933 3.80227 195.811 4.12918C195.69 4.45609 193.114 11.3474 190.085 19.4431C187.056 27.5389 183.063 38.215 181.21 43.1678C179.359 48.1206 176.59 55.53 175.056 59.6323C173.523 63.7345 172.153 67.3948 172.011 67.7653C171.869 68.1359 171.15 70.0561 170.413 72.0318C169.676 74.0075 169.037 75.6238 168.994 75.623C168.946 75.6222 168.891 74.9637 168.853 73.9345C168.82 73.007 168.721 69.7847 168.636 66.7735C168.551 63.7623 168.446 60.102 168.402 58.6404C168.358 57.1789 168.305 55.3396 168.281 54.5541C168.258 53.7685 168.186 51.3223 168.122 49.1188C168.057 46.9154 167.95 43.2376 167.885 40.9461C167.82 38.6554 167.744 36.0663 167.664 33.6065L168.214 33.0114C168.518 32.6845 170.58 30.4168 172.798 27.9729C175.017 25.529 177.404 22.9026 178.103 22.1369C178.802 21.3712 180.21 19.82 181.235 18.6901C182.259 17.5602 183.699 15.9725 184.435 15.1631C185.171 14.353 185.939 13.5119 186.141 13.2937C186.343 13.0755 186.862 12.5042 187.295 12.0242C187.728 11.5441 188.797 10.3674 189.67 9.40892C190.543 8.4512 191.596 7.29036 192.008 6.83015C192.422 6.36994 192.827 5.92242 192.908 5.83514Z" fill="white"/>
</svg>
