<svg width="300" height="86" viewBox="0 0 300 86" fill="none" xmlns="http://www.w3.org/2000/svg">
<path d="M49.5616 47.1141C50.5147 27.1112 51.3522 10.5732 51.424 10.3579C51.4959 10.1425 51.6615 9.97391 51.7959 9.98015C51.9272 9.98951 53.1615 11.1164 57.0364 14.984L60.3176 15.2712C62.1238 15.4304 63.7738 15.5646 63.9894 15.574C64.205 15.5802 64.4488 15.8331 64.5331 16.1327C64.6175 16.4324 66.7268 30.5137 69.2174 47.4263C71.7111 64.3389 73.7142 78.1892 73.6736 78.2079C73.633 78.2266 67.8737 79.4909 60.8738 81.0173C53.8771 82.5437 48.0772 83.7206 47.9897 83.6363C47.8991 83.552 48.6085 67.117 49.5616 47.1141Z" fill="#DB5600"/>
<path d="M270.179 50.8601C268.513 41.8482 267.076 34.2253 266.985 33.9257C266.829 33.42 267.216 33.3794 272.16 33.3794C277.444 33.3794 277.501 33.3856 277.651 34.0817C277.732 34.4688 278.294 39.7005 278.901 45.7095C279.507 51.7185 280.001 56.8472 279.997 57.1032C279.991 57.3966 280.088 57.4559 280.257 57.2593C280.401 57.0876 281.482 54.2782 282.657 51.0162C283.832 47.7541 285.797 42.4881 289.25 33.5355L300 33.3794L299.566 34.2378C299.325 34.7092 296.36 41.0647 292.975 48.3628C289.588 55.6579 285.897 63.3151 284.769 65.3753C283.641 67.4355 281.935 70.3136 280.976 71.7745C280.016 73.2354 278.235 75.6202 277.023 77.0811C275.807 78.542 273.835 80.4774 272.641 81.3826C271.448 82.2879 269.413 83.5334 268.126 84.1483C266.835 84.7633 265.448 85.2877 265.035 85.3095C264.351 85.3501 264.182 85.0286 262.926 81.2952C262.176 79.0633 261.56 77.1654 261.563 77.0811C261.563 76.9968 262.232 76.6535 263.048 76.3226C263.863 75.9948 265.376 75.1988 266.407 74.5589C267.438 73.919 269.126 72.4987 270.157 71.403C271.188 70.3074 272.298 68.9245 273.207 67.2482L270.179 50.8601Z" fill="#FF6C0E"/>
<path fill-rule="evenodd" clip-rule="evenodd" d="M33.5212 0.000599361C34.3368 -0.0118868 35.4618 0.172285 36.0211 0.406401C36.5805 0.643639 37.3899 1.20864 37.818 1.66439C38.3773 2.25748 38.9117 2.4916 39.6929 2.48848C40.296 2.48535 41.3491 2.75381 42.0366 3.08469C42.7241 3.41246 43.9147 4.35829 44.6803 5.1855C45.4459 6.01271 46.4647 7.56724 46.9459 8.64106C47.6334 10.1769 47.9334 10.5546 48.3646 10.4172C48.6646 10.3205 49.474 10.1675 51.4114 9.90841L51.3271 10.9541C51.2802 11.5254 50.4646 28.1508 49.5115 47.8946C48.5615 67.6384 47.7553 83.8049 47.7209 83.8174C47.6896 83.8299 36.9742 81.8352 23.912 79.3817C10.8498 76.9281 0.128127 74.9147 0.0843784 74.9085C0.0406293 74.9022 0.00313008 74.5807 5.14115e-06 74.1936C-0.00311979 73.8066 1.41873 62.466 3.15931 48.9871C4.8999 35.5114 6.49987 24.202 6.71237 23.8586C6.98111 23.4216 8.50295 22.7911 16.4122 20.3001L17.1278 17.8652C17.5246 16.5261 18.3715 14.2349 19.0121 12.7771C19.6558 11.3193 20.8308 9.1405 21.6277 7.93871C22.4214 6.73691 23.8933 4.96699 24.8995 4.00867C25.9026 3.04723 27.3588 1.93596 28.1307 1.5364C28.9025 1.13684 30.0994 0.634274 30.7869 0.415766C31.4743 0.197257 32.7056 0.00996402 33.5212 0.000599361ZM28.6775 4.90768C27.8619 5.46019 26.5588 6.71818 25.7838 7.70459C25.0089 8.691 23.8276 10.5514 23.162 11.8406C22.4964 13.1267 21.5808 15.2338 21.1308 16.523C20.6777 17.8091 20.3465 18.9047 20.3933 18.9547C20.4371 19.0077 21.7996 18.655 23.4214 18.1743L26.3682 17.3034C27.6338 12.9488 28.5557 10.6451 29.2369 9.3715C30.0244 7.90437 31.1306 6.45285 32.2712 5.39152C33.2587 4.47378 34.2087 3.72461 34.3805 3.72461C34.5524 3.72461 34.693 3.58414 34.693 3.41246C34.693 3.24077 34.1649 3.10654 33.5212 3.11279C32.8774 3.12215 31.8556 3.3032 31.2556 3.51547C30.6556 3.73085 29.4931 4.35516 28.6775 4.90768V4.90768ZM41.0085 9.43705C41.2023 11.0166 41.3741 12.3557 41.3866 12.4119C41.3991 12.465 42.1491 12.2902 43.0522 12.0217C43.9553 11.7501 44.6897 11.3537 44.6866 11.1383C44.6834 10.9229 44.4241 10.1862 44.1147 9.49948C43.8053 8.81274 43.1272 7.75766 42.6085 7.15832C42.0898 6.55586 41.3273 5.95652 40.9148 5.82542C40.2929 5.62564 40.2054 5.66934 40.4085 6.07514C40.5429 6.34671 40.8117 7.85755 41.0085 9.43705ZM33.8118 8.64106C33.4118 9.11241 32.7212 10.0614 32.2775 10.7481C31.8368 11.4348 31.1431 12.8739 30.74 13.9477C30.3369 15.0215 30.1119 15.9049 30.24 15.9112C30.3681 15.9174 32.19 15.3899 34.2899 14.7406L38.1055 13.5575C37.8617 10.6545 37.668 9.00316 37.5148 8.01675C37.3649 7.03034 37.1211 6.22185 36.9742 6.22185C36.8305 6.22185 36.2211 6.57459 35.6243 7.00224C35.0243 7.43302 34.2087 8.17282 33.8118 8.64106V8.64106Z" fill="#FF6C0E"/>
<path d="M25.3181 29.9488C26.265 29.5899 27.74 29.1778 28.5993 29.0342C29.4587 28.8906 31.218 28.7533 32.5055 28.7314C33.7929 28.7127 35.6929 28.9156 36.7241 29.184C37.7554 29.4525 38.6678 29.7428 38.7553 29.824C38.8428 29.9082 38.2085 32.0808 37.3491 34.6499C36.1054 38.3739 35.6929 39.2823 35.3179 39.1137C35.0585 38.9951 33.8648 38.633 32.6617 38.3052C31.1649 37.8963 29.9555 37.7652 28.8337 37.8869C27.9306 37.9837 26.7712 38.274 26.2556 38.53C25.74 38.7859 25.1088 39.4196 24.8494 39.9347C24.59 40.4497 24.3806 41.3612 24.3806 41.9637C24.3806 42.7347 24.6338 43.3122 25.24 43.9303C25.7119 44.4079 27.2243 45.6502 28.5993 46.6866C29.9743 47.7229 31.7711 49.3305 32.5898 50.2608C33.4086 51.191 34.3461 52.655 34.6711 53.5134C34.996 54.3719 35.3554 55.917 35.471 56.9471C35.6085 58.1677 35.5242 59.5817 35.2273 61.0051C34.9742 62.2069 34.4023 63.9269 33.9492 64.829C33.4992 65.7312 32.568 67.0297 31.8805 67.7165C31.193 68.4032 29.9618 69.3022 29.1462 69.7143C28.3306 70.1263 26.7493 70.6258 25.6306 70.8256C24.1557 71.0846 22.9776 71.094 21.3338 70.8536C20.087 70.6726 18.3308 70.2512 17.4277 69.9172C16.5246 69.5832 14.9433 68.756 13.9121 68.0786C12.8809 67.4012 11.8715 66.6583 11.6684 66.4242C11.3778 66.0902 11.5403 65.2224 13.5465 58.8201L15.2902 60.0031C16.2527 60.6524 17.7745 61.4609 18.6776 61.798C19.5807 62.1352 20.7401 62.4099 21.2557 62.4099C21.7713 62.4099 22.5463 62.2694 22.9744 62.0977C23.4057 61.926 23.9932 61.3985 24.2806 60.9271C24.5806 60.437 24.7838 59.5318 24.7525 58.8201C24.7213 58.1333 24.4306 57.15 24.1057 56.635C23.7807 56.1199 22.3744 54.7496 20.9807 53.5915C19.5839 52.4334 18.0464 50.8882 17.562 50.1578C17.0777 49.4273 16.4808 48.341 16.2339 47.7386C15.9558 47.0612 15.7902 45.5816 15.7996 43.8366C15.8058 41.7046 15.9902 40.4997 16.5621 38.8421C16.9995 37.5717 17.912 35.8829 18.737 34.806C19.5214 33.7883 20.9338 32.4242 21.8807 31.7749C22.8276 31.1288 24.3713 30.3047 25.3181 29.9488Z" fill="white"/>
<path fill-rule="evenodd" clip-rule="evenodd" d="M263.829 16.857C265.332 16.8445 267.194 16.9756 267.969 17.1473C268.744 17.319 269.372 17.6343 269.369 17.8497C269.366 18.0651 268.944 19.8568 268.432 21.8297C267.919 23.8056 267.466 25.4444 267.422 25.4725C267.379 25.5006 266.641 25.3882 265.782 25.2259C264.651 25.0105 263.841 25.0386 262.847 25.3289C261.938 25.5942 261.066 26.1811 260.269 27.0583C259.504 27.898 258.898 28.9843 258.61 30.0237C258.363 30.9259 258.116 32.0153 257.969 33.2233L264.844 33.4075L264.151 37.0628C263.766 39.07 263.451 40.7494 263.447 40.7931C263.441 40.8368 261.857 40.9055 256.407 41.0272L251.079 69.1212L246.01 69.1992C243.22 69.2429 240.939 69.2429 240.935 69.1992C240.935 69.1555 242.132 62.8 243.595 55.0742C245.06 47.3483 246.257 40.9929 246.254 40.9492C246.254 40.9055 245.195 40.8711 243.907 40.8711C242.617 40.8711 241.57 40.765 241.579 40.637C241.585 40.509 241.907 38.8577 242.995 33.5355L247.813 33.3794L247.992 32.2088C248.088 31.5658 248.454 30.0549 248.804 28.8531C249.151 27.6514 249.81 25.9002 250.266 24.9606C250.723 24.0241 251.885 22.4071 252.851 21.3708C253.816 20.3376 255.291 19.1108 256.132 18.6488C256.969 18.1868 258.432 17.5968 259.376 17.3409C260.319 17.0849 262.326 16.8664 263.829 16.857V16.857ZM128.122 17.4595C130.875 17.4595 133.128 17.5313 133.128 17.6156C133.128 17.703 132.288 22.1605 131.26 27.5265C130.232 32.8924 129.453 37.3531 129.535 37.4374C129.616 37.5248 130.35 36.9505 131.169 36.1638C131.991 35.3772 133.256 34.4282 133.988 34.0568C134.719 33.6822 136.194 33.1515 137.269 32.8737C138.628 32.521 139.791 32.4304 141.097 32.574C142.238 32.6989 143.562 33.1109 144.487 33.626C145.422 34.1473 146.347 35.0088 146.906 35.8766C147.406 36.6508 147.975 37.9837 148.172 38.8421C148.391 39.7848 148.459 41.5766 148.35 43.3684C148.253 45.0009 147.25 51.1816 146.125 57.1032C145 63.0279 144.006 68.1878 143.916 68.5749C143.756 69.2679 143.681 69.2772 138.753 69.2772C136.003 69.2772 133.75 69.1711 133.75 69.0431C133.747 68.9151 134.663 63.9269 135.781 57.9616C137.056 51.1566 137.816 46.2995 137.816 44.9291C137.816 42.8752 137.753 42.6847 136.8 41.7514C135.897 40.868 135.628 40.7744 134.36 40.893C133.403 40.9835 132.538 41.3331 131.716 41.9637C131.047 42.4787 129.96 43.743 129.307 44.7731C128.65 45.8032 127.857 47.4201 127.541 48.3629C127.228 49.3087 126.141 54.3999 123.285 69.2835L118.207 69.2804C113.529 69.2773 113.138 69.2335 113.263 68.731C113.338 68.4313 115.526 56.9471 118.126 43.2123C120.725 29.4775 122.91 18.0651 122.982 17.8497C123.079 17.5594 124.391 17.4595 128.122 17.4595V17.4595ZM236.251 18.0838C237.42 18.0869 238.295 18.2867 238.985 18.7081C239.551 19.0577 240.273 19.9193 240.62 20.6591C240.96 21.3895 241.239 22.4071 241.239 22.9222C241.239 23.4373 241.067 24.4049 240.854 25.0729C240.642 25.7378 239.942 26.7555 239.298 27.3361C238.654 27.9136 237.529 28.5348 236.798 28.722C236.067 28.9062 234.907 28.9562 234.22 28.8344C233.445 28.6971 232.598 28.2413 231.992 27.6389C231.445 27.0957 230.848 26.05 230.636 25.2634C230.426 24.4923 230.348 23.4373 230.458 22.9222C230.567 22.4071 230.895 21.5019 231.189 20.9088C231.486 20.3032 232.336 19.4479 233.126 18.9578C234.22 18.2773 234.907 18.0838 236.251 18.0838ZM171.096 32.4835C171.956 32.4679 173.571 32.6458 174.69 32.88C175.809 33.1109 177.424 33.6603 178.284 34.0974C179.143 34.5313 180.499 35.5676 181.299 36.3979C182.096 37.2283 183.068 38.5393 183.455 39.3104C183.843 40.0845 184.349 41.4174 184.577 42.2758C184.808 43.1343 184.996 45.2756 184.999 47.0362C184.999 48.7967 184.793 51.2191 184.533 52.4209C184.274 53.6227 183.671 55.6236 183.193 56.8691C182.715 58.1146 181.771 59.975 181.096 61.0051C180.424 62.0352 178.952 63.7708 177.827 64.8634C176.393 66.2587 175.04 67.2045 173.284 68.0349C171.909 68.6873 170.046 69.374 169.143 69.5613C168.24 69.7486 166.343 69.9047 164.925 69.9078C163.234 69.914 161.646 69.7018 160.315 69.2991C159.2 68.9589 157.509 68.1348 156.565 67.4636C155.622 66.7956 154.328 65.4877 153.694 64.5606C153.059 63.6366 152.234 61.9635 151.865 60.8491C151.347 59.2883 151.19 58.0615 151.19 55.5424C151.19 53.2855 151.4 51.3908 151.856 49.4554C152.222 47.9102 153.075 45.5222 153.75 44.1488C154.422 42.7753 155.79 40.6776 156.787 39.4852C157.8 38.274 159.559 36.6695 160.784 35.8423C161.987 35.0276 163.815 34.0693 164.846 33.7103C165.878 33.3513 167.353 32.9361 168.128 32.7832C168.903 32.6333 170.237 32.4991 171.096 32.4835V32.4835ZM166.565 41.7483C165.965 42.2415 164.959 43.615 164.331 44.8012C163.703 45.9873 162.884 47.9414 162.512 49.1432C162.143 50.345 161.756 52.5239 161.656 53.9816C161.534 55.7547 161.615 57.2031 161.903 58.3518C162.14 59.307 162.681 60.4308 163.118 60.8896C163.553 61.3391 164.471 61.8636 165.159 62.054C166.012 62.2881 166.781 62.3006 167.581 62.0914C168.256 61.9135 169.321 61.2236 170.099 60.4589C170.84 59.7284 171.887 58.2207 172.428 57.1032C172.965 55.9888 173.706 53.81 174.068 52.2648C174.434 50.7196 174.743 48.3316 174.759 46.9582C174.781 45.029 174.634 44.1238 174.112 42.9782C173.587 41.817 173.152 41.3612 172.112 40.8742C171.381 40.534 170.503 40.2655 170.159 40.278C169.815 40.2936 169.112 40.4279 168.596 40.5777C168.081 40.7307 167.165 41.2551 166.565 41.7483V41.7483ZM212.033 32.6115C213.491 32.6989 214.741 32.9954 215.783 33.5011C216.642 33.9194 217.802 34.7654 218.361 35.3803C218.92 35.9953 219.708 37.169 220.114 37.9837C220.52 38.7984 221.005 40.1688 221.192 41.0272C221.376 41.8856 221.611 43.2217 221.711 43.9927C221.814 44.7668 221.748 46.7334 221.564 48.3629C221.383 49.9954 221.008 52.1711 220.73 53.2013C220.455 54.2314 219.673 56.2697 218.998 57.7275C218.323 59.1884 217.148 61.258 216.386 62.3318C215.623 63.4056 214.124 65.0038 213.049 65.8841C211.974 66.7675 210.464 67.8039 209.689 68.1909C208.914 68.578 207.508 69.1274 206.564 69.4084C205.583 69.7018 203.708 69.9265 202.189 69.9359C200.458 69.9421 198.899 69.7486 197.711 69.3771C196.593 69.0306 195.843 68.9308 195.774 69.1212C195.711 69.2929 195.09 72.5237 194.39 76.3007C193.693 80.0778 193.124 83.2743 193.124 83.4023C193.127 83.5303 190.808 83.6364 187.971 83.6364C183.215 83.6364 182.827 83.5927 182.955 83.0901C183.034 82.7904 184.721 73.9034 186.708 63.3463C188.693 52.7892 190.668 41.8326 191.093 38.9982C191.518 36.1669 191.871 33.6728 191.874 33.4574C191.877 33.164 192.993 33.0672 200.939 33.0672L200.758 35.0182C200.658 36.092 200.518 37.144 200.446 37.3594C200.374 37.5748 200.421 37.812 200.549 37.8869C200.677 37.9618 201.346 37.453 202.033 36.7569C202.721 36.0577 203.846 35.1056 204.533 34.6374C205.221 34.1692 206.414 33.5604 207.189 33.2858C207.964 33.0079 208.877 32.7145 209.22 32.6302C209.564 32.5459 210.83 32.5366 212.033 32.6115V32.6115ZM202.58 43.1623C202.021 43.7898 201.264 44.9011 200.896 45.6315C200.527 46.3619 200.024 47.52 199.774 48.2068C199.524 48.8935 198.852 51.9839 198.277 55.0742L197.233 60.693C198.289 61.567 199.089 61.9541 199.689 62.1133C200.289 62.2756 201.133 62.4098 201.564 62.413C201.993 62.4161 203.111 62.029 204.049 61.5545C205.18 60.9833 206.142 60.1686 206.917 59.1322C207.561 58.2738 208.442 56.8004 208.88 55.8546C209.314 54.9119 209.958 53.014 210.308 51.6405C210.68 50.1827 210.942 48.1693 210.936 46.8021C210.93 45.1414 210.745 44.0738 210.308 43.1343C209.936 42.3351 209.317 41.6203 208.752 41.3394C208.236 41.0834 207.427 40.8742 206.955 40.8774C206.483 40.8805 205.533 41.1396 204.846 41.4517C204.158 41.7639 203.139 42.5318 202.58 43.1623V43.1623ZM105.785 32.8768C108.794 32.9486 110.623 33.139 111.644 33.4918C112.46 33.7727 113.129 34.1785 113.129 34.3939C113.129 34.6093 112.635 36.2949 110.941 41.4954L109.066 40.8711C107.907 40.4841 106.357 40.2468 105.004 40.2468C103.754 40.2468 102.348 40.4466 101.723 40.715C100.994 41.0272 100.473 41.5475 100.16 42.2758C99.904 42.8783 99.7634 43.6836 99.8509 44.0707C99.9384 44.4578 100.467 45.207 101.023 45.7407C101.579 46.2714 102.879 47.2079 103.91 47.8166C104.941 48.4253 106.541 49.6052 107.466 50.4387C108.391 51.2721 109.516 52.5863 109.966 53.3573C110.701 54.6184 110.785 55.0773 110.782 57.8836C110.779 60.5588 110.669 61.2268 110.013 62.5659C109.591 63.4243 108.538 64.8384 107.673 65.7062C106.807 66.5771 105.323 67.654 104.379 68.1067C103.435 68.5562 101.745 69.143 100.629 69.4084C99.4978 69.6768 97.2166 69.8922 95.4729 69.8922C93.7354 69.8922 91.4448 69.6768 90.3167 69.4084C89.2011 69.143 87.6136 68.6186 86.7918 68.244C85.7481 67.7664 85.3449 67.4199 85.4606 67.0922C85.5512 66.8362 86.1074 65.291 86.6949 63.6585C87.5449 61.2986 87.8793 60.7055 88.3355 60.7492C88.6511 60.7804 89.7542 61.1175 90.7855 61.4983C91.9854 61.9416 93.6198 62.2382 95.3166 62.3193C97.5978 62.4286 98.1166 62.3568 98.9884 61.8043C99.5478 61.4515 100.157 60.7741 100.342 60.3028C100.529 59.8314 100.598 58.9543 100.495 58.3518C100.395 57.7525 99.9978 56.9253 99.6103 56.5163C99.2259 56.1105 97.7509 55.0211 96.3322 54.0971C94.9135 53.1763 93.1823 51.8247 92.4823 51.0942C91.7823 50.3638 90.9105 49.137 90.5448 48.3629C90.1792 47.5918 89.8199 46.2558 89.748 45.3974C89.6699 44.4703 89.8324 43.0749 90.148 41.9637C90.4417 40.9336 91.1261 39.3978 91.6698 38.5518C92.2136 37.7059 93.3635 36.4853 94.2229 35.8392C95.0822 35.193 96.3478 34.4251 97.0353 34.1286C97.7228 33.832 98.9884 33.4075 99.8478 33.1827C100.891 32.9101 102.871 32.8082 105.785 32.8768V32.8768ZM233.907 33.3794C238.664 33.3794 239.051 33.4231 238.92 33.9257C238.842 34.2253 237.432 41.5672 235.792 50.2358C234.151 58.9075 232.667 66.7363 232.189 69.2772H227.189C222.951 69.2772 222.189 69.2055 222.189 68.809C222.189 68.553 223.667 60.5463 225.47 51.0162C227.273 41.4892 228.751 33.6229 228.751 33.5355C228.751 33.4512 231.07 33.3794 233.907 33.3794Z" fill="#FF6C0E"/>
</svg>
