<svg width="300" height="53" viewBox="0 0 300 53" fill="none" xmlns="http://www.w3.org/2000/svg">
<path d="M11.1781 2.88413C13.4275 2.04418 16.951 1.04763 19.0082 0.677478C21.0653 0.307331 25.7918 0.10802 29.5076 0.243267C34.7394 0.42834 37.7576 0.983562 42.8542 2.69905C46.4774 3.91627 49.7589 4.91282 50.1504 4.91282C50.5419 4.91282 50.8622 4.27218 50.8622 3.48918C50.8622 2.27908 51.3391 2.06553 57.2686 2.06553V18.4374L54.5993 18.4659C52.2787 18.4873 51.7876 18.1954 50.8622 16.2166C50.2714 14.9637 48.9972 13.2554 48.0149 12.4225C47.0397 11.5897 44.3135 10.1305 41.9644 9.17664C38.2203 7.66757 36.5475 7.45403 28.4398 7.43267C20.1827 7.4042 18.8587 7.57504 16.1609 9.0058C14.0468 10.1234 13.0075 11.1982 12.7085 12.5649C12.4025 13.9601 12.6587 14.8783 13.5983 15.7468C14.3956 16.487 17.0293 17.2558 20.2539 17.6829C23.1866 18.0815 29.7567 18.9286 34.8462 19.5692C39.9357 20.2099 46.1001 21.3346 48.5488 22.0749C51.752 23.0429 53.8732 24.2673 56.1297 26.4454C58.2936 28.5311 59.5251 30.4672 60.1017 32.6739C60.5928 34.5673 60.721 37.0374 60.4078 38.7244C60.0803 40.5039 58.92 42.6038 57.3256 44.3264C55.9233 45.8426 53.6526 47.6506 52.2859 48.3482C50.9192 49.0458 47.716 50.1918 45.1676 50.8894C41.9431 51.7721 38.0637 52.1565 32.3548 52.1422C25.4502 52.128 23.1652 51.8148 17.7625 50.1491C14.239 49.06 10.7937 48.0492 10.1104 47.8998C9.18503 47.6933 8.86471 48.0777 8.86471 49.4017C8.86471 51.0603 8.62981 51.1813 1.74649 51.1813V32.6739H4.94969C7.52648 32.6739 8.15289 32.9159 8.15289 33.9196C8.16001 34.6029 8.80065 36.2045 9.57653 37.4787C10.3595 38.7528 12.3598 40.5751 14.0254 41.5361C15.6911 42.497 19.1292 43.7712 21.6775 44.3762C24.2258 44.9742 29.0306 45.4725 32.3548 45.4867C35.8072 45.4938 39.9357 45.0382 41.9644 44.419C43.922 43.821 46.093 42.7746 46.7906 42.0984C47.5095 41.3937 48.0505 39.8562 48.0363 38.5464C48.022 36.9448 47.5238 35.9198 46.4133 35.208C45.5307 34.6456 42.7332 33.8555 40.1849 33.4569C37.6366 33.0512 31.2302 32.197 25.9484 31.5563C20.6667 30.9157 14.5806 29.9263 12.4238 29.3639C10.2741 28.8016 7.30582 27.5559 5.83947 26.5949C4.37311 25.634 2.64338 23.8046 1.99563 22.5304C1.35499 21.2563 0.557745 19.256 0.230306 18.0815C-0.132723 16.786 -0.0615407 14.8214 0.408262 13.0988C0.878065 11.4046 2.38001 9.06986 4.13821 7.33302C5.91065 5.57482 8.71523 3.80238 11.1781 2.88413Z" fill="#FF6C0E"/>
<path d="M89.3006 3.39664C91.4574 2.58516 95.1376 1.50319 97.4866 0.983562C99.8356 0.463932 104.156 0.0226018 107.096 0.00124712C110.029 -0.0272258 114.677 0.435459 117.418 1.01915C120.158 1.60285 124.322 2.9909 126.671 4.10846C129.02 5.22602 132.494 7.54656 134.395 9.26205C136.331 11.0131 138.673 14.1024 139.733 16.302C141.321 19.5977 141.62 21.178 141.62 26.2675C141.62 31.3143 141.313 32.9657 139.762 36.233C138.744 38.3827 136.502 41.529 134.779 43.216C133.063 44.903 129.732 47.2164 127.383 48.3624C125.034 49.5014 121.19 50.925 118.841 51.5229C116.321 52.1636 111.502 52.6049 107.096 52.5978C102.982 52.5907 97.6218 52.1066 95.1732 51.5301C92.7245 50.9464 88.8023 49.5085 86.4533 48.334C84.1043 47.1595 80.8228 44.9528 79.1572 43.4295C77.4915 41.9133 75.4272 39.2725 74.5659 37.557C73.7046 35.8486 72.6297 32.6881 72.1742 30.5384C71.5407 27.5345 71.5478 25.6268 72.2098 22.3525C72.6867 20.0035 73.5693 17.1206 74.1673 15.9461C74.7723 14.7716 76.0607 12.8496 77.0359 11.6751C78.0111 10.5006 80.2889 8.48617 82.097 7.19777C83.905 5.91649 87.1438 4.201 89.3006 3.39664Z" fill="#FF6C0E"/>
<path d="M149.094 8.47193V5.62464V2.77735L172.228 2.82006L187.888 17.028C196.501 24.851 203.79 31.2431 204.082 31.2502C204.374 31.2502 204.616 26.6092 204.616 20.9288C204.616 12.7002 204.402 10.3939 203.548 9.53967C202.858 8.8492 201.099 8.47193 194.65 8.47193L195.006 3.13326L222.184 2.74888L222.411 8.47193L219.03 8.48617C217.172 8.48617 215.165 8.79937 214.581 9.16952C213.663 9.74609 213.542 12.7002 213.87 49.7576L204.26 49.7291L167.957 17.1135L167.765 29.6985C167.658 36.6174 167.743 42.6821 167.943 43.1733C168.178 43.7427 169.836 44.063 176.855 44.063V49.7576H149.806V44.063L157.991 43.7071L158.169 27.3352C158.269 17.6687 158.056 10.5291 157.65 9.89558C157.201 9.19799 155.586 8.76378 149.094 8.47193Z" fill="#FF6C0E"/>
<path d="M228.106 8.47193V5.62464V2.77735H260.85V5.62464C260.85 8.40075 260.793 8.47193 258.358 8.47193C256.622 8.47193 255.867 8.79225 255.867 9.53967C255.867 10.1234 258.43 13.6469 267.256 24.132L272.951 17.3697C276.353 13.3337 278.503 10.1803 278.289 9.53967C278.076 8.90614 277.065 8.47193 275.798 8.47193C273.784 8.47193 273.663 8.31533 273.663 2.77735H300V8.47193L296.619 8.47905C294.761 8.48617 292.505 8.89191 291.608 9.36883C290.711 9.85287 285.813 15.0563 271.456 31.6062L271.883 43.7071L280.425 44.419L280.781 49.7576H248.037L248.393 44.419L256.935 43.7071L257.291 31.9621L248.393 21.8186C243.496 16.2379 238.449 10.942 237.182 10.0522C235.544 8.90614 233.879 8.43634 228.106 8.47193Z" fill="#FF6C0E"/>
<path d="M91.9699 12.8709C93.9132 10.8992 96.7178 8.93456 98.5543 8.25833C100.839 7.41838 103.487 7.14077 107.808 7.29025C112.25 7.44685 114.613 7.90242 116.706 8.99151C118.272 9.8101 120.578 11.5541 121.824 12.8567C123.077 14.1665 124.749 16.6792 125.547 18.4374C126.55 20.6512 127.006 23.1781 127.02 26.6233C127.041 30.6878 126.686 32.3179 125.077 35.4642C123.995 37.5854 122.151 40.1195 120.977 41.0947C119.802 42.0699 117.396 43.522 115.638 44.3264C113.275 45.4012 110.933 45.7856 106.74 45.7998C102.306 45.8141 100.334 45.4724 97.8425 44.2552C96.0843 43.401 93.5573 41.6428 92.2404 40.3544C90.9236 39.066 89.201 36.7312 88.4108 35.1652C87.6207 33.5992 86.8163 30.5526 86.6242 28.4029C86.3964 25.9115 86.6953 22.9931 87.4285 20.3949C88.3041 17.3127 89.4287 15.4549 91.9699 12.8709Z" fill="white"/>
</svg>
