<svg width="300" height="51" viewBox="0 0 300 51" fill="none" xmlns="http://www.w3.org/2000/svg">
<path fill-rule="evenodd" clip-rule="evenodd" d="M43.9705 0.00227556C45.9336 -0.0162586 47.0077 0.0764121 48.4152 0.354424C49.4337 0.558299 50.9708 0.947516 51.8412 1.20699C52.7116 1.46647 54.4154 2.15223 55.6377 2.74533C56.86 3.31988 58.5267 4.24659 59.3415 4.80261C60.1564 5.35864 61.5824 6.56336 62.4898 7.49006C63.4158 8.41677 64.564 9.69562 65.027 10.3629C65.5085 11.0301 66.3048 12.4016 66.8048 13.421C67.3234 14.4404 67.9901 16.0714 68.2864 17.0351C68.6012 17.9989 69.0271 19.667 69.2494 20.742C69.5642 22.2062 69.6568 23.3553 69.6753 25.3755C69.6753 27.1918 69.5827 28.6004 69.3605 29.731C69.1938 30.6392 68.842 32.0663 68.6012 32.8818C68.3604 33.6973 67.6567 35.3654 67.0456 36.5886C66.4344 37.8119 65.4714 39.4429 64.9159 40.2028C64.3418 40.9627 63.2306 42.2415 62.4343 43.0571C61.6565 43.854 60.4342 44.9475 59.7119 45.485C58.9897 46.004 57.7489 46.838 56.934 47.3199C56.1192 47.7833 54.6932 48.469 53.7858 48.8212C52.8783 49.1733 51.2486 49.6923 50.1745 49.9517C48.6189 50.341 47.6559 50.4707 45.3595 50.5263C42.989 50.6004 42.1371 50.5448 40.4518 50.2298C39.3222 50.0259 37.748 49.6367 36.9332 49.3587C36.1183 49.0992 34.859 48.6173 34.1553 48.2837C33.4515 47.9686 32.0996 47.2087 31.1922 46.6156C30.2847 46.0225 29.0625 45.1514 28.5069 44.6695C27.9513 44.1876 27.3402 43.7428 27.1735 43.6687C26.9883 43.5945 26.192 43.7428 25.4142 43.9838C24.6178 44.2432 23.4326 44.5398 22.7659 44.6695C22.0992 44.7993 20.5621 44.8919 19.3398 44.8919C18.1176 44.8919 16.6175 44.7993 16.0064 44.6881C15.3952 44.5583 14.3581 44.2988 13.6914 44.0764C13.0247 43.8726 11.7469 43.3351 10.8209 42.8902C9.89498 42.4454 8.61715 41.6855 7.95046 41.1851C7.28376 40.6662 6.32076 39.8506 5.82074 39.3502C5.3022 38.8498 4.43179 37.849 3.89473 37.1447C3.35767 36.4404 2.50578 35.0132 2.00576 33.9939C1.3761 32.7335 0.894599 31.3991 0.505694 29.8237C-0.0313661 27.6181 -0.0498855 27.3772 0.0427111 24.7268C0.116788 22.5027 0.246424 21.5945 0.635329 20.1859C0.894599 19.2222 1.39462 17.8321 1.72797 17.1278C2.06132 16.4235 2.74653 15.2003 3.24655 14.4404C3.74657 13.6805 4.65402 12.5128 5.26516 11.8641C5.87629 11.2154 7.04301 10.1775 7.85786 9.56589C8.67271 8.97279 10.0802 8.10169 11.0061 7.6754C11.9321 7.23058 13.1729 6.71163 13.784 6.50775C14.3952 6.30388 15.5989 6.0444 16.4693 5.91466C17.4879 5.76639 18.8954 5.71079 20.451 5.78492C21.7844 5.85906 23.3215 6.02587 23.8771 6.15561C24.4326 6.30388 25.3586 6.56336 25.9142 6.7487C26.6364 6.97111 27.0439 7.00818 27.3031 6.87844C27.5068 6.78577 28.0439 6.39655 28.5069 6.00733C28.9699 5.61812 30.0996 4.80261 31.007 4.19099C31.9144 3.5979 33.2108 2.81946 33.8775 2.48585C34.5442 2.15223 35.8405 1.61474 36.748 1.29966C37.6554 0.96605 39.0814 0.558299 39.8963 0.372958C40.9148 0.132014 42.2112 0.0208097 43.9705 0.00227556V0.00227556ZM38.5999 6.65603C37.8962 6.87844 36.5998 7.43446 35.7294 7.89781C34.859 8.36117 33.7664 9.00986 33.2664 9.36201C32.7849 9.71416 32.3959 10.0848 32.3959 10.1775C32.3959 10.2702 32.9515 10.9745 33.6182 11.6973C34.3034 12.4387 35.3405 13.7917 35.9517 14.7184C36.5443 15.6451 37.285 17.0537 37.5999 17.8692C37.9147 18.6847 38.3221 20.0191 38.5073 20.8346C38.711 21.6501 38.9333 22.929 39.0073 23.6704C39.137 24.7824 39.0999 25.0604 38.8777 25.1902C38.7296 25.2828 37.5628 25.3755 36.285 25.3755C35.0072 25.3755 33.8775 25.3014 33.7479 25.2272C33.6367 25.1531 33.4515 24.4673 33.3404 23.7074C33.2293 22.9475 32.97 21.7799 32.7478 21.1126C32.5256 20.4454 32.1367 19.4816 31.8959 18.9812C31.6367 18.4623 31.1922 17.7209 30.9144 17.3131C30.6366 16.9054 29.9329 16.0899 29.3588 15.4968C28.7847 14.9222 27.8032 14.0882 27.1735 13.6619C26.5253 13.2356 25.4697 12.6611 24.803 12.3831C24.1363 12.1051 22.8585 11.7344 21.9325 11.5676C20.7658 11.3452 19.8028 11.271 18.6917 11.3452C17.8213 11.4193 16.5249 11.6417 15.8212 11.8641C15.1174 12.0865 13.9137 12.5684 13.1544 12.9391C12.4136 13.3098 11.2839 14.0326 10.6543 14.533C10.0431 15.052 9.13569 15.9787 8.67271 16.5718C8.20973 17.1834 7.59859 18.0545 7.33932 18.5179C7.08005 18.9812 6.65411 19.945 6.41335 20.6493C6.15408 21.3536 5.85777 22.6139 5.72814 23.4294C5.5985 24.3376 5.54295 25.4496 5.63554 26.3022C5.70962 27.0621 5.91333 28.3224 6.11704 29.0823C6.32076 29.8422 6.8393 31.1396 7.26524 31.9551C7.82082 33.0116 8.48752 33.8827 9.61719 35.0318C10.5617 35.977 11.7099 36.9408 12.4877 37.3856C13.1914 37.7934 14.4507 38.3679 15.2656 38.6459C16.3582 39.0166 17.2472 39.1649 18.6917 39.239C19.7658 39.2761 21.1918 39.239 21.8955 39.1093C22.5807 38.9981 23.1363 38.8498 23.1363 38.7571C23.1363 38.683 22.6363 37.5895 22.0251 36.3106C21.3029 34.7723 20.7288 33.271 20.3769 31.8624C20.0806 30.6948 19.7287 28.8414 19.5806 27.7479C19.3954 26.191 19.3954 25.7091 19.5621 25.5423C19.7102 25.394 20.6362 25.3199 22.3029 25.3014C24.34 25.2828 24.8401 25.3384 24.9882 25.5608C25.0808 25.7091 25.1734 26.1354 25.1734 26.4875C25.1734 26.8397 25.2845 27.8405 25.4512 28.7116C25.5994 29.5827 25.8957 30.8245 26.1179 31.4918C26.3216 32.159 26.729 33.1969 27.0253 33.8085C27.3217 34.4201 27.9698 35.5507 28.4699 36.3106C28.9699 37.0705 30.007 38.3308 30.7662 39.0907C31.507 39.8506 32.8034 40.9442 33.5997 41.5002C34.4146 42.0562 35.785 42.8161 36.6554 43.2053C37.5258 43.576 38.8962 44.0764 39.7111 44.2803C40.6741 44.5398 42.0445 44.7251 43.6001 44.7807C45.1558 44.8549 46.5447 44.8178 47.4892 44.6695C48.304 44.5398 49.6374 44.2247 50.4523 43.9652C51.2671 43.7057 52.5079 43.2053 53.2302 42.8532C53.9524 42.4825 55.1377 41.7597 55.897 41.2407C56.6377 40.7218 57.86 39.6653 58.5823 38.9054C59.323 38.1455 60.249 37.0149 60.6564 36.4033C61.0824 35.7917 61.675 34.7908 61.9713 34.1792C62.2861 33.5676 62.7676 32.437 63.0269 31.6771C63.3047 30.9172 63.6565 29.5827 63.8047 28.7116C63.9529 27.8405 64.064 26.3393 64.064 25.3755C64.064 24.4117 63.9529 22.9105 63.8047 22.0394C63.6565 21.1682 63.2676 19.7226 62.9528 18.7959C62.6195 17.8692 62.0824 16.5903 61.712 15.9231C61.3601 15.2559 60.7305 14.255 60.3045 13.699C59.8786 13.143 59.1193 12.2348 58.6008 11.6788C58.1008 11.1228 57.0451 10.2146 56.2859 9.64002C55.5266 9.06546 54.1932 8.24996 53.3228 7.82368C52.4524 7.39739 51.2116 6.87844 50.5449 6.65603C49.8782 6.45215 48.6744 6.15561 47.8596 6.00733C47.0447 5.84053 45.5076 5.72932 44.4335 5.74785C43.3594 5.74785 41.8964 5.85906 41.1926 5.9888C40.4889 6.11854 39.3037 6.41508 38.5999 6.65603V6.65603ZM289.259 16.3864C290.129 16.4235 291.296 16.6089 291.851 16.7757C292.407 16.9425 293.259 17.2761 293.74 17.517C294.24 17.758 295.018 18.2399 295.5 18.592C296 18.9442 296.685 19.5928 297.055 20.0377C297.426 20.4825 297.981 21.2424 298.315 21.7613C298.63 22.2618 299.148 23.485 299.444 24.4488C299.87 25.8203 300 26.5617 300 27.7849C300 28.7672 299.926 29.453 299.778 29.5827C299.611 29.7681 297.648 29.8237 291.259 29.8237C284.796 29.8237 282.944 29.8793 282.87 30.0461C282.814 30.1758 282.925 30.7504 283.129 31.3064C283.333 31.8624 283.87 32.7335 284.314 33.2525C284.87 33.8827 285.499 34.346 286.314 34.7167C287.203 35.1244 287.87 35.2727 288.981 35.3283C290.166 35.4025 290.666 35.3469 291.481 35.0503C292.222 34.7723 292.814 34.346 293.703 33.4564C294.37 32.7891 295.018 32.2331 295.129 32.2331C295.259 32.2331 296.204 32.6409 297.222 33.1598C298.241 33.6602 299.074 34.1607 299.074 34.2719C299.074 34.3831 298.833 34.8094 298.537 35.2357C298.259 35.6805 297.481 36.5145 296.833 37.1261C296.185 37.7192 295.185 38.4421 294.629 38.7201C294.074 39.0166 293.074 39.3873 292.407 39.5726C291.592 39.7765 290.537 39.8877 289.166 39.8877C287.808 39.8877 286.728 39.7827 285.925 39.5726C285.259 39.3873 284.185 38.9795 283.518 38.6645C282.833 38.3123 281.777 37.5524 281.018 36.8481C280.258 36.1253 279.481 35.1615 279.129 34.5314C278.795 33.9383 278.369 32.9374 278.147 32.3258C277.943 31.7142 277.684 30.5094 277.573 29.6383C277.406 28.4522 277.406 27.6737 277.592 26.4875C277.703 25.6164 278.055 24.282 278.351 23.5221C278.647 22.7622 279.314 21.576 279.814 20.8902C280.332 20.1859 281.184 19.2778 281.703 18.8515C282.24 18.4437 283.277 17.8136 283.981 17.4614C284.685 17.1278 285.814 16.7201 286.481 16.5718C287.259 16.3864 288.24 16.3308 289.259 16.3864V16.3864ZM286.222 21.4092C285.814 21.5945 285.148 22.0579 284.74 22.4286C284.314 22.7807 283.759 23.5406 283.462 24.0966C283.184 24.6527 282.962 25.2828 282.962 25.5052V25.9315C294.092 25.8388 294.537 25.8203 294.574 25.5052C294.611 25.3384 294.444 24.7453 294.203 24.2078C293.963 23.6889 293.444 22.9105 293.037 22.5212C292.648 22.132 291.851 21.5945 291.296 21.3351C290.666 21.0385 289.851 20.8532 289.166 20.8161C288.555 20.779 287.814 20.8161 287.499 20.9088C287.185 20.9829 286.611 21.2053 286.222 21.4092V21.4092ZM98.3247 7.04524C98.3802 7.02671 98.8432 7.13791 99.3432 7.28619C99.8618 7.43446 100.491 7.80514 100.769 8.08315C101.047 8.36117 101.362 8.82452 101.454 9.10253C101.566 9.39908 101.658 9.9551 101.658 10.3629C101.658 10.7706 101.547 11.3822 101.417 11.6973C101.269 12.0309 100.899 12.5313 100.584 12.8094C100.251 13.1059 99.6396 13.421 99.2136 13.5322C98.7692 13.6434 98.158 13.6619 97.8617 13.6063C97.5654 13.5322 97.0098 13.2912 96.6579 13.0688C96.269 12.8279 95.8431 12.2904 95.5653 11.7344C95.2135 11.0115 95.1394 10.6594 95.232 9.99217C95.2875 9.52882 95.5468 8.89866 95.769 8.56504C96.0098 8.23143 96.4542 7.82368 96.7505 7.65687C97.0469 7.47153 97.5098 7.26765 97.7691 7.19352C98.0284 7.11938 98.2691 7.04524 98.3247 7.04524V7.04524ZM174.198 8.50944C176.217 8.50944 176.68 8.56504 176.754 8.78745C176.81 8.93572 176.847 15.7934 176.847 24.0225C176.847 35.5322 176.81 39.0537 176.624 39.2205C176.476 39.3873 175.717 39.4614 174.18 39.4614C172.606 39.4614 171.865 39.4058 171.698 39.239C171.569 39.0907 171.476 38.5162 171.476 36.496L170.42 37.4783C169.828 38.0158 168.883 38.683 168.328 38.961C167.772 39.239 166.642 39.5912 165.828 39.7765C164.605 40.0175 164.087 40.036 162.864 39.8692C162.05 39.758 160.976 39.5356 160.457 39.3502C159.957 39.1834 159.068 38.7571 158.512 38.4421C157.957 38.1084 157.068 37.3856 156.531 36.8296C155.994 36.2921 155.401 35.6434 155.216 35.3839C155.012 35.1244 154.642 34.4758 154.364 33.9383C154.105 33.4193 153.697 32.3258 153.494 31.5288C153.216 30.5094 153.105 29.5642 153.105 28.2483C153.105 26.9324 153.216 25.9686 153.512 24.9121C153.734 24.0966 154.216 22.8549 154.586 22.132C154.957 21.4277 155.698 20.3898 156.198 19.8338C156.716 19.2778 157.624 18.4993 158.235 18.1101C158.846 17.7024 159.994 17.1834 160.79 16.9425C161.809 16.6089 162.642 16.4791 163.698 16.4791C164.513 16.4791 165.624 16.5718 166.161 16.683C166.679 16.7942 167.624 17.1093 168.235 17.3873C168.865 17.6653 169.809 18.314 171.494 19.9079L171.457 14.3292C171.439 11.271 171.476 8.69478 171.569 8.63918C171.661 8.56504 172.828 8.50944 174.198 8.50944V8.50944ZM160.679 23.0031C159.957 23.6518 159.401 24.3747 159.05 25.0975C158.753 25.7091 158.475 26.6729 158.401 27.2289C158.346 27.7849 158.383 28.7487 158.494 29.3603C158.605 29.972 158.938 30.9172 159.216 31.4732C159.494 32.0107 160.087 32.8077 160.55 33.2525C161.013 33.6788 161.716 34.1977 162.124 34.4016C162.531 34.624 163.346 34.8835 163.939 34.9947C164.698 35.143 165.291 35.143 166.068 34.9947C166.642 34.8835 167.605 34.5314 168.217 34.2163C168.809 33.8827 169.606 33.2896 169.957 32.8818C170.328 32.4741 170.828 31.6771 171.087 31.1211C171.513 30.2314 171.569 29.8608 171.569 28.1556C171.569 26.3393 171.532 26.1169 170.994 25.0048C170.643 24.282 170.068 23.5035 169.568 23.0587C169.124 22.651 168.346 22.1135 167.846 21.854C167.124 21.5019 166.605 21.3907 165.272 21.3536C163.976 21.3165 163.402 21.3721 162.679 21.6501C162.179 21.854 161.272 22.4471 160.679 23.0031V23.0031ZM257.128 8.60211L257.183 13.977C257.202 16.9239 257.257 19.4816 257.313 19.6299C257.387 19.8338 257.665 19.667 258.387 18.9627C258.906 18.4437 259.776 17.8136 260.276 17.5541C260.795 17.2946 261.702 16.9239 262.313 16.7571C262.98 16.5533 264.054 16.4235 264.998 16.4235C265.98 16.405 266.999 16.5347 267.684 16.7386C268.295 16.9239 269.295 17.3317 269.906 17.6468C270.517 17.9804 271.573 18.7773 272.24 19.4446C272.906 20.1118 273.758 21.1868 274.11 21.854C274.48 22.5212 274.962 23.6333 275.184 24.3561C275.406 25.0604 275.629 26.4134 275.684 27.3216C275.758 28.5078 275.703 29.4345 275.48 30.5651C275.277 31.5288 274.851 32.8077 274.332 33.8456C273.703 35.18 273.221 35.8658 272.277 36.8296C271.388 37.7192 270.591 38.2938 269.628 38.7757C268.869 39.1649 267.61 39.5912 266.85 39.758C265.869 39.9619 265.054 40.0175 264.073 39.9248C263.313 39.8506 262.184 39.6282 261.572 39.4244C260.961 39.2205 260.165 38.8869 259.813 38.6645C259.461 38.4421 258.776 37.886 258.276 37.4227C257.628 36.8111 257.387 36.6628 257.313 36.8667C257.276 37.0149 257.202 37.6451 257.128 39.3688H252.128L252.072 24.1708C252.053 15.8119 252.072 8.86159 252.128 8.73185C252.202 8.56504 252.813 8.50944 257.128 8.60211V8.60211ZM260.646 22.0023C260.239 22.2062 259.517 22.7807 259.035 23.2811C258.554 23.763 257.961 24.6341 257.683 25.1902C257.406 25.8203 257.183 26.71 257.109 27.5069C257.035 28.4336 257.072 29.1194 257.294 29.9164C257.461 30.528 257.794 31.362 258.035 31.7698C258.276 32.1775 258.776 32.8077 259.128 33.1598C259.48 33.512 260.183 34.0309 260.665 34.3089C261.165 34.587 262.072 34.902 262.684 34.9947C263.443 35.1244 264.128 35.1244 264.813 34.9947C265.369 34.8835 266.221 34.587 266.721 34.346C267.202 34.1051 267.943 33.549 268.369 33.1042C268.795 32.6779 269.388 31.7883 269.702 31.1211C270.091 30.2685 270.276 29.5457 270.332 28.619C270.388 27.7293 270.314 26.9694 270.11 26.2095C269.925 25.5979 269.499 24.6527 269.147 24.1152C268.795 23.5962 268.165 22.8919 267.739 22.5954C267.295 22.2803 266.499 21.854 265.98 21.6687C265.313 21.4092 264.573 21.298 263.665 21.3165C262.924 21.3165 262.109 21.3907 261.85 21.4648C261.591 21.5389 261.054 21.7799 260.646 22.0023V22.0023ZM86.5279 10.2702C87.7687 10.2702 88.8984 10.3258 89.028 10.3999C89.1947 10.5111 89.2502 11.3822 89.2502 13.699C89.2502 16.5718 89.2873 16.8498 89.5836 16.8683C89.7503 16.8683 90.491 16.8683 91.1948 16.8498C92.2318 16.8313 92.5467 16.8869 92.7689 17.1463C92.9911 17.3873 93.0282 17.8692 92.9911 19.2407C92.9541 20.6678 92.88 21.0756 92.6207 21.2609C92.4355 21.3907 91.7689 21.4833 91.0096 21.4833C90.1947 21.4833 89.6021 21.576 89.4725 21.7057C89.3058 21.8911 89.2502 24.0225 89.2502 30.4724C89.2688 37.2188 89.2132 39.0537 89.028 39.2205C88.8613 39.3873 88.102 39.4429 83.9722 39.3688L83.787 21.576L82.1203 21.5204C81.2129 21.4833 80.3795 21.4092 80.3054 21.3351C80.2128 21.2609 80.1572 20.2786 80.1758 19.1666C80.1881 17.8074 80.2684 17.0784 80.4165 16.9795C80.5462 16.9054 81.2684 16.8683 82.0277 16.8869C82.787 16.9054 83.5278 16.8498 83.6574 16.7942C83.8241 16.7015 83.8611 15.886 83.8426 13.5322C83.8241 11.2154 83.8611 10.3814 84.0278 10.3258C84.1574 10.2887 85.2686 10.2702 86.5279 10.2702V10.2702ZM115.733 16.3123C116.196 16.3123 117.159 16.4235 117.863 16.5718C118.585 16.7201 119.789 17.1463 120.548 17.5356C121.529 18.0174 122.326 18.6105 123.252 19.5187C124.215 20.501 124.752 21.2424 125.326 22.41C125.826 23.3923 126.215 24.5415 126.4 25.4682C126.548 26.2837 126.641 27.5811 126.567 29.731L109.529 29.9164L109.603 30.4724C109.64 30.7689 109.825 31.3806 110.01 31.8068C110.196 32.2517 110.677 32.956 111.084 33.3822C111.51 33.8641 112.251 34.3831 112.973 34.7167C113.881 35.1244 114.529 35.2727 115.733 35.3469C117.214 35.4395 117.381 35.421 118.566 34.865C119.437 34.4572 120.011 34.0124 120.511 33.4193C120.881 32.9374 121.363 32.4741 121.566 32.3814C121.863 32.2331 122.344 32.3814 123.826 33.1042C124.955 33.6232 125.733 34.1051 125.733 34.2719C125.752 34.4201 125.381 35.0132 124.955 35.5878C124.511 36.1624 123.752 36.9779 123.233 37.4041C122.733 37.8119 121.9 38.3865 121.381 38.6645C120.881 38.9239 119.918 39.3132 119.252 39.4985C118.585 39.6838 117.344 39.8877 116.474 39.9433C115.381 40.036 114.418 39.9804 113.325 39.758C112.381 39.5912 111.196 39.202 110.362 38.7757C109.344 38.2752 108.603 37.7192 107.584 36.6998C106.677 35.7731 105.955 34.8279 105.51 33.9939C105.14 33.271 104.695 32.1961 104.51 31.5844C104.288 30.8245 104.177 29.8608 104.177 28.5263C104.177 27.1177 104.288 26.1539 104.584 25.0419C104.806 24.2078 105.269 22.9661 105.621 22.2618C105.955 21.576 106.695 20.5196 107.27 19.9079C107.825 19.2963 108.77 18.4993 109.362 18.1472C109.973 17.795 110.992 17.3131 111.659 17.0722C112.325 16.8313 113.325 16.5718 113.881 16.4976C114.436 16.405 115.27 16.3308 115.733 16.3123V16.3123ZM112.399 21.7057C111.936 21.9652 111.251 22.5398 110.862 22.9846C110.473 23.4294 110.029 24.1337 109.862 24.5415C109.714 24.9492 109.621 25.4311 109.696 25.5979C109.807 25.913 110.233 25.9315 115.27 25.9315C118.27 25.9315 120.863 25.8945 121.011 25.8388C121.159 25.7832 121.289 25.5794 121.289 25.3755C121.289 25.1716 121.103 24.6527 120.9 24.2078C120.678 23.7816 120.307 23.1699 120.085 22.8734C119.844 22.5583 119.344 22.095 118.955 21.8355C118.548 21.5575 117.77 21.2053 117.214 21.0385C116.659 20.8717 115.862 20.742 115.455 20.7605C115.048 20.7605 114.381 20.8717 113.974 21.0014C113.566 21.1126 112.862 21.4277 112.399 21.7057V21.7057ZM142.215 16.4235C142.771 16.4791 143.734 16.6274 144.345 16.7757C144.956 16.9239 145.827 17.2761 146.29 17.5541C146.753 17.8136 147.419 18.3325 147.771 18.7032C148.142 19.0554 148.679 19.7597 148.975 20.2786C149.271 20.779 149.679 21.7428 149.882 22.41C150.197 23.485 150.253 24.3932 150.327 31.3064C150.382 37.6266 150.364 39.0351 150.16 39.2205C149.975 39.3873 149.197 39.4429 145.086 39.3688L144.993 32.2331C144.901 25.2828 144.882 25.0789 144.475 24.1708C144.234 23.6518 143.827 23.0031 143.549 22.7251C143.271 22.4286 142.715 22.0208 142.308 21.7984C141.734 21.4833 141.234 21.3907 140.178 21.3907C139.123 21.3907 138.567 21.5019 137.919 21.8169C137.419 22.0394 136.771 22.5027 136.456 22.8178C136.141 23.1514 135.66 23.8928 134.9 25.4682L134.845 32.3258C134.789 37.33 134.715 39.2205 134.567 39.3132C134.437 39.3873 133.345 39.4614 132.122 39.4614C130.567 39.4614 129.826 39.4058 129.659 39.239C129.474 39.0537 129.437 36.6442 129.437 28.1C129.437 17.4058 129.437 17.2205 129.808 17.0351C130.011 16.9239 131.03 16.8498 132.085 16.8498C133.122 16.8498 134.16 16.8869 134.4 16.9425C134.771 17.0351 134.808 17.1278 134.808 19.7226L135.678 18.87C136.178 18.4067 136.826 17.8506 137.123 17.6282C137.437 17.4244 138.049 17.1093 138.512 16.9425C138.975 16.7757 139.771 16.5718 140.271 16.4791C140.789 16.405 141.66 16.3864 142.215 16.4235V16.4235ZM190.829 16.4235C191.644 16.4606 192.736 16.6274 193.236 16.7942C193.755 16.961 194.588 17.2946 195.088 17.5541C195.607 17.8136 196.384 18.3696 196.847 18.7959C197.329 19.2407 197.885 20.0377 198.181 20.6678C198.459 21.2795 198.773 22.2988 198.866 22.9661C198.977 23.6518 199.07 27.3401 199.07 31.5844C199.088 37.4227 199.033 39.0537 198.848 39.2205C198.681 39.3873 197.959 39.4429 194.162 39.3688L194.07 36.774L193.292 37.5339C192.847 37.9416 192.125 38.4977 191.662 38.7571C191.199 39.0351 190.366 39.3688 189.81 39.5356C189.255 39.6838 188.329 39.8692 187.773 39.9248C187.217 39.9989 186.254 39.9619 185.643 39.8506C185.032 39.7394 184.125 39.4429 183.606 39.2205C183.106 38.9795 182.347 38.4977 181.958 38.1455C181.55 37.7934 181.032 37.1817 180.773 36.774C180.513 36.3662 180.199 35.4395 180.05 34.7352C179.902 34.0124 179.828 33.0672 179.884 32.6038C179.958 32.1405 180.124 31.3991 180.273 30.9357C180.421 30.4724 180.921 29.6569 181.421 29.1009C181.902 28.5634 182.643 27.9147 183.051 27.6737C183.458 27.4328 184.384 27.0436 185.088 26.8026C185.847 26.5246 187.68 26.191 189.532 25.9501C191.273 25.7276 192.94 25.4682 193.236 25.394C193.755 25.2643 193.792 25.2087 193.773 24.4303C193.773 23.9854 193.699 23.3923 193.625 23.1143C193.532 22.8363 193.199 22.2988 192.884 21.9281C192.477 21.4463 192.032 21.1868 191.292 20.9829C190.625 20.7976 189.94 20.742 189.31 20.8161C188.773 20.8717 188.106 21.0385 187.829 21.1868C187.532 21.3165 187.032 21.7428 186.717 22.1135C186.384 22.4842 185.995 22.9846 185.884 23.2441C185.754 23.5035 185.477 23.7816 185.273 23.8557C185.032 23.9669 184.402 23.8928 183.514 23.6704C182.754 23.4665 181.81 23.2441 181.439 23.1329C181.013 23.0402 180.736 22.8549 180.736 22.688C180.736 22.5398 180.958 21.9281 181.236 21.3351C181.513 20.7605 182.18 19.8153 182.699 19.2592C183.217 18.7032 184.143 17.9804 184.736 17.6468C185.328 17.3317 186.199 16.961 186.662 16.8498C187.125 16.7201 187.921 16.5533 188.421 16.4791C188.94 16.3864 190.014 16.3679 190.829 16.4235V16.4235ZM186.847 30.6207C186.384 30.8616 185.828 31.3435 185.588 31.6956C185.328 32.0663 185.18 32.6038 185.18 33.0116C185.18 33.4008 185.291 33.9383 185.44 34.2163C185.569 34.5128 185.921 34.902 186.217 35.0874C186.588 35.3469 187.18 35.4766 188.143 35.5322C189.273 35.5878 189.736 35.5322 190.643 35.18C191.347 34.9206 192.032 34.4758 192.551 33.9568C193.069 33.4193 193.421 32.8447 193.607 32.1775C193.773 31.6586 193.866 30.8431 193.847 30.3797C193.792 29.5642 193.773 29.5457 193.144 29.5086C192.792 29.4901 191.421 29.6383 190.088 29.8422C188.495 30.0646 187.403 30.3426 186.847 30.6207V30.6207ZM215.422 16.3123C215.904 16.2938 216.737 16.3864 217.274 16.4976C217.793 16.6089 218.83 16.9795 219.534 17.3131C220.441 17.7394 221.089 18.2213 221.719 18.9071C222.219 19.4631 222.812 20.3157 223.071 20.8346C223.312 21.3351 223.645 22.373 223.793 23.0958C224.015 24.1893 224.071 25.8574 223.978 39.3688L221.571 39.4058C220.2 39.4429 219.071 39.3873 218.941 39.2761C218.756 39.1278 218.682 37.4041 218.608 24.9121L218.108 23.8372C217.811 23.2626 217.311 22.5768 216.996 22.3359C216.663 22.095 215.885 21.7428 215.274 21.576C214.515 21.3536 213.867 21.2795 213.2 21.3721C212.663 21.4277 211.904 21.6316 211.533 21.8355C211.144 22.0208 210.552 22.4842 210.237 22.8549C209.904 23.2255 209.459 23.8372 209.274 24.2078C209.089 24.5971 208.829 25.4126 208.718 26.0242C208.589 26.6914 208.515 29.5457 208.515 33.1969C208.515 38.4421 208.478 39.2946 208.237 39.3688C208.089 39.4244 207.052 39.4614 205.922 39.4614C204.811 39.4614 203.755 39.4244 203.607 39.3688C203.366 39.2946 203.329 37.8675 203.329 28.1556C203.329 18.4437 203.366 17.0166 203.607 16.9425C203.755 16.8869 204.811 16.8498 205.922 16.8498C207.052 16.8498 208.089 16.8869 208.237 16.9425C208.441 17.0166 208.515 17.3317 208.515 18.2399C208.515 18.9071 208.57 19.4446 208.663 19.4446C208.737 19.4446 209.052 19.1851 209.348 18.87C209.663 18.5549 210.237 18.0545 210.644 17.7765C211.052 17.48 211.755 17.1093 212.218 16.9425C212.681 16.7757 213.385 16.5718 213.793 16.4791C214.2 16.405 214.922 16.3308 215.422 16.3123V16.3123ZM101.01 16.9425L101.047 28.0629C101.084 36.7369 101.047 39.2205 100.862 39.3132C100.751 39.3873 99.621 39.4614 98.3803 39.4614C96.195 39.4614 96.1024 39.4429 95.9542 39.0351C95.8616 38.8127 95.8246 33.79 95.8801 27.8776C95.9357 20.223 96.0283 17.0907 96.1765 16.9795C96.2876 16.9054 97.4172 16.8683 101.01 16.9425V16.9425ZM233.053 16.9425L233.145 23.9854C233.238 30.1758 233.293 31.1396 233.59 31.9551C233.775 32.4555 234.09 33.1042 234.275 33.3822C234.479 33.6788 235.016 34.1236 235.516 34.4016C236.257 34.8464 236.59 34.9206 237.775 34.9206C238.905 34.902 239.312 34.8279 239.997 34.4572C240.442 34.1977 241.072 33.6602 241.386 33.2525C241.72 32.8447 242.072 32.0848 242.183 31.5288C242.331 30.8801 242.405 28.378 242.405 23.9298C242.405 18.9812 242.46 17.2575 242.627 17.0722C242.775 16.9239 243.516 16.8498 244.942 16.8498C246.09 16.8498 247.201 16.9239 247.405 17.0351C247.757 17.2205 247.776 17.4058 247.776 24.0781C247.776 29.5457 247.72 31.2323 247.479 32.3629C247.331 33.1598 246.961 34.3089 246.683 34.9206C246.405 35.5322 245.887 36.3662 245.535 36.7554C245.183 37.1632 244.498 37.8119 243.979 38.2011C243.386 38.6645 242.516 39.0908 241.627 39.3873C240.831 39.6282 239.497 39.8877 238.664 39.9433C237.682 39.9989 236.59 39.9433 235.645 39.7765C234.812 39.6282 233.59 39.239 232.867 38.8869C232.034 38.4977 231.182 37.886 230.516 37.2003C229.849 36.533 229.238 35.6805 228.904 34.9576C228.608 34.3275 228.275 33.3637 228.164 32.8262C228.034 32.2331 227.941 29.0082 227.923 24.4673C227.886 18.1472 227.923 17.0537 228.164 16.961C228.293 16.9239 229.46 16.8869 233.053 16.9425V16.9425Z" fill="#FF6C0E"/>
</svg>
