<svg width="300" height="108" viewBox="0 0 300 108" fill="none" xmlns="http://www.w3.org/2000/svg">
<path fill-rule="evenodd" clip-rule="evenodd" d="M118.477 0.00953215L119.102 0.189156C119.446 0.282873 119.923 0.439067 120.157 0.524974C120.391 0.610882 120.884 0.837364 121.251 1.0248C121.618 1.21223 122.165 1.54805 122.462 1.76672C122.759 1.9932 123.212 2.36807 123.462 2.61017C123.712 2.86008 124.118 3.32086 124.368 3.64106C124.61 3.96126 124.977 4.52356 125.173 4.89061C125.376 5.25767 125.657 5.9215 125.806 6.37446C125.954 6.82743 126.126 7.46002 126.181 7.78022C126.235 8.10041 126.282 8.84234 126.274 9.42026C126.274 10.17 126.227 10.7011 126.11 11.2555C126.016 11.6851 125.852 12.2708 125.743 12.5676C125.634 12.8565 125.423 13.3486 125.266 13.6531C125.11 13.9655 114.852 33.2556 102.477 56.5129C90.1012 79.7703 79.5071 99.7008 78.9211 100.794C78.343 101.887 77.6477 103.121 77.382 103.528C77.1086 103.934 76.632 104.535 76.3195 104.863C75.9992 105.191 75.4601 105.667 75.1163 105.917C74.7726 106.175 74.21 106.526 73.8663 106.706C73.5225 106.886 73.0459 107.104 72.8116 107.198C72.5772 107.284 72.0303 107.448 71.6006 107.557C71.0224 107.706 70.5302 107.768 69.6865 107.799C68.8349 107.831 68.3583 107.807 67.7723 107.714C67.3426 107.643 66.6707 107.479 66.2879 107.346C65.9051 107.222 65.2644 106.956 64.8816 106.769C64.4988 106.573 63.8816 106.191 63.5144 105.917C63.1472 105.644 62.6003 105.16 62.3034 104.847C61.9987 104.527 61.5924 104.043 61.3893 103.762C61.194 103.481 60.5611 102.372 59.983 101.294C59.4127 100.216 57.0298 95.71 54.6859 91.2819C50.9749 84.2609 50.4124 83.2378 50.3264 83.3628C50.2717 83.4331 48.4123 86.924 46.1935 91.1101C43.9746 95.2961 42.0371 98.9198 41.8886 99.1541C41.7402 99.3884 41.4042 99.8101 41.1386 100.076C40.873 100.349 40.4355 100.724 40.1542 100.911C39.8729 101.099 39.4354 101.341 39.1776 101.458C38.9198 101.567 38.4276 101.731 38.0838 101.817C37.6619 101.919 37.1775 101.966 36.5994 101.966C35.9978 101.966 35.5525 101.919 35.115 101.809C34.7712 101.723 34.1774 101.497 33.7868 101.31C33.3962 101.122 32.8414 100.755 32.5446 100.505C32.2399 100.255 31.8258 99.8257 31.6148 99.5446C31.3727 99.2244 25.4662 88.1424 15.8252 69.9457C5.3327 50.1168 0.363782 40.667 0.238778 40.2687C0.0981479 39.8235 0.0434585 39.4409 0.0122074 38.6677C-0.0190436 37.8086 0.00439469 37.5509 0.145024 36.9886C0.230965 36.6216 0.465348 36.0124 0.652854 35.6219C0.910676 35.0987 1.15287 34.755 1.60601 34.263C1.94977 33.896 2.47323 33.443 2.77011 33.2478C3.067 33.0447 3.58264 32.787 3.90296 32.662C4.22329 32.5449 4.74674 32.3965 5.05144 32.334C5.52021 32.2403 7.15308 32.2247 14.4502 32.2247C19.3097 32.2247 23.2786 32.2169 23.2786 32.2091C23.2786 32.1934 21.1067 28.0387 18.4425 22.9701C14.6533 15.7618 13.5439 13.575 13.3252 12.9346C13.1767 12.4817 12.997 11.8022 12.9267 11.4117C12.8642 11.0213 12.8095 10.2871 12.8095 9.7717C12.8095 9.25625 12.8642 8.52214 12.9267 8.13165C12.9892 7.74117 13.1455 7.09296 13.2783 6.68685C13.4111 6.28075 13.6845 5.63254 13.8877 5.24205C14.0908 4.85157 14.458 4.25803 14.7158 3.9144C14.9737 3.57077 15.4034 3.07095 15.6768 2.80542C15.9424 2.53208 16.4425 2.11035 16.7706 1.86044C17.1065 1.61834 17.6925 1.25128 18.0831 1.04823C18.4738 0.845173 19.0988 0.579643 19.4894 0.446877C19.8801 0.321921 20.4738 0.165727 20.8176 0.103249C21.3567 0.00172242 27.935 -0.013897 118.477 0.00953215V0.00953215ZM28.0444 32.7089C27.7241 32.8651 27.3569 33.1306 27.06 33.4274C26.7944 33.6929 26.4975 34.0834 26.3881 34.2943C26.2787 34.5129 26.1303 34.88 26.06 35.1143C25.9897 35.3486 25.935 35.8093 25.935 36.1295C25.935 36.5278 25.9975 36.8793 26.1147 37.2229C26.2084 37.5041 30.8336 46.29 36.3963 56.7472C41.9589 67.2045 46.6466 76.0138 46.8185 76.3106C46.9904 76.6074 47.3185 77.0369 47.5373 77.2478C47.756 77.4665 48.092 77.732 48.2795 77.8491C48.4748 77.9585 48.8576 78.1303 49.1389 78.224C49.5139 78.349 49.8264 78.3958 50.3499 78.3958C50.8342 78.388 51.2093 78.3411 51.5608 78.2318C51.8421 78.1459 52.2405 77.9663 52.4593 77.8257C52.6702 77.6929 52.9828 77.4586 53.1468 77.3025C53.3187 77.1384 53.5453 76.8729 53.6703 76.7011C53.7875 76.5293 58.5767 67.6028 64.3035 56.8644C70.0302 46.126 74.7882 37.1448 74.8741 36.9105C74.9679 36.6294 75.0226 36.2701 75.0226 35.8562C75.0304 35.4579 74.9757 35.0752 74.8819 34.8019C74.8038 34.5676 74.6632 34.2318 74.5616 34.06C74.4679 33.8881 74.1788 33.5523 73.9288 33.3102C73.6788 33.0759 73.2803 32.787 73.0459 32.6776C72.8116 32.5683 72.4287 32.4355 72.2022 32.3887C71.9131 32.3262 65.9051 32.3028 50.5608 32.3106C37.4432 32.3184 29.1851 32.3496 28.9429 32.3965C28.7241 32.4355 28.3257 32.5761 28.0444 32.7089V32.7089ZM264.771 31.3656C269.928 31.3656 270.053 31.3734 270.396 31.5296C270.592 31.6155 270.881 31.8342 271.045 32.0138C271.209 32.1934 273.193 35.2705 275.459 38.8395C277.725 42.4164 279.584 45.3372 279.584 45.3216C279.592 45.3138 281.412 42.3539 283.631 38.7458C286.592 33.935 287.749 32.1075 287.999 31.8889C288.186 31.717 288.491 31.5452 288.717 31.4749C289.038 31.3812 289.944 31.3656 293.85 31.3656C298.21 31.3656 298.624 31.3734 298.882 31.5062C299.038 31.5765 299.218 31.7327 299.272 31.8576C299.335 31.9748 299.382 32.1622 299.382 32.2872C299.39 32.4355 297.382 35.6766 292.467 43.4707C288.655 49.5076 285.553 54.4824 285.577 54.5215C285.592 54.5683 288.835 59.6993 292.78 65.9237C298.46 74.8892 299.96 77.3103 299.991 77.5602C300.022 77.8257 299.991 77.9116 299.554 78.4192H293.975C288.483 78.4192 288.397 78.4192 288.092 78.2552C287.92 78.1693 287.678 77.9585 287.553 77.7867C287.428 77.6226 285.608 74.7565 283.506 71.4295C281.405 68.1026 279.444 65.0021 278.639 63.7213L274.615 70.6329C272.404 74.4363 270.451 77.7007 270.279 77.896C270.107 78.0912 269.85 78.2943 269.709 78.3568C269.514 78.4349 268.451 78.4583 264.459 78.4583C260.396 78.4583 259.419 78.4349 259.24 78.349C259.123 78.2943 258.982 78.1459 258.927 78.0209C258.865 77.896 258.834 77.6695 258.849 77.5211C258.873 77.3259 260.873 73.9365 272.662 54.3262L265.732 43.4941C261.927 37.5275 258.771 32.5527 258.732 32.4199C258.669 32.2325 258.685 32.131 258.802 31.9123C258.888 31.7639 259.076 31.5765 259.224 31.5062C259.474 31.3734 259.904 31.3656 264.771 31.3656V31.3656ZM239.184 30.8267C240.216 30.8267 241.888 30.858 242.895 30.897C243.903 30.9439 245.56 31.0454 246.567 31.1313C247.575 31.2172 249.122 31.3734 250.005 31.4828C251.193 31.6311 251.7 31.7327 251.958 31.8576C252.193 31.9748 252.357 32.1231 252.443 32.3028C252.568 32.5527 252.583 32.8885 252.583 35.8406C252.583 37.957 252.552 39.1753 252.497 39.3159C252.45 39.4331 252.341 39.6127 252.247 39.7064C252.154 39.8079 251.966 39.9485 251.841 40.0188C251.63 40.1359 250.88 40.1594 244.028 40.1906C237.239 40.2297 236.411 40.2531 236.059 40.3702C235.841 40.4405 235.489 40.6123 235.278 40.7529C235.059 40.8935 234.77 41.1903 234.63 41.4011C234.489 41.6198 234.317 41.9712 234.255 42.1821C234.192 42.4008 234.106 42.7991 234.067 43.0802C234.028 43.3614 233.989 45.0561 233.989 50.109L251.224 50.148L251.513 50.3433C251.669 50.4526 251.865 50.6713 251.958 50.8353C252.107 51.1164 252.115 51.2336 252.091 54.5137C252.075 57.8172 252.068 57.9109 251.911 58.1296C251.825 58.2467 251.63 58.4263 251.216 58.7075L233.989 58.6997L234.012 62.8232C234.036 66.486 234.051 66.9936 234.176 67.4075C234.255 67.6652 234.387 68.0089 234.465 68.1729C234.544 68.3291 234.762 68.6102 234.942 68.7977C235.161 69.0163 235.442 69.1959 235.747 69.3131C236.005 69.4068 236.387 69.524 236.606 69.563C236.833 69.6021 240.052 69.6333 244.146 69.6333C248.349 69.6333 251.419 69.6645 251.607 69.7114C251.779 69.7504 252.005 69.852 252.115 69.9301C252.224 70.016 252.38 70.1956 252.466 70.344C252.615 70.6017 252.622 70.7501 252.622 73.9677C252.622 77.0135 252.607 77.3493 252.482 77.5836C252.411 77.7242 252.208 77.9038 252.036 77.9897C251.849 78.0834 251.294 78.2084 250.646 78.2943C250.06 78.3802 248.857 78.5208 247.974 78.6067C247.091 78.6926 245.896 78.8097 245.317 78.8566C244.739 78.9034 242.591 78.9581 240.552 78.9815C238.078 79.0076 236.476 78.992 235.747 78.9347C235.145 78.8878 234.286 78.7941 233.833 78.7238C233.38 78.6613 232.59 78.5051 232.075 78.388C231.559 78.263 230.786 78.0288 230.356 77.8726C229.926 77.7086 229.348 77.4665 229.067 77.3259C228.786 77.1853 228.239 76.8573 227.856 76.5996C227.473 76.3419 226.84 75.8264 226.457 75.4437C226.075 75.0611 225.543 74.4129 225.27 74.0067C225.004 73.6006 224.637 72.9681 224.473 72.601C224.301 72.2339 224.059 71.6013 223.926 71.1952C223.793 70.7891 223.614 70.1019 223.528 69.6723C223.442 69.2428 223.325 68.579 223.27 68.1885C223.192 67.634 223.168 64.8147 223.168 54.8729C223.168 42.9631 223.176 42.2055 223.317 41.323C223.395 40.8076 223.559 40.0032 223.676 39.5268C223.793 39.0582 224.02 38.3319 224.184 37.9258C224.34 37.5197 224.621 36.9183 224.793 36.5981C224.973 36.2779 225.317 35.7469 225.559 35.4267C225.801 35.1065 226.278 34.5754 226.621 34.2552C226.957 33.935 227.481 33.5055 227.778 33.3024C228.082 33.1072 228.59 32.8026 228.911 32.6308C229.231 32.459 229.848 32.1856 230.278 32.0294C230.708 31.8732 231.442 31.6468 231.919 31.5218C232.395 31.4047 233.301 31.2328 233.95 31.1391C234.591 31.0454 235.614 30.9439 236.216 30.9048C236.817 30.8736 238.153 30.8345 239.184 30.8267V30.8267ZM200.589 31.3734C210.527 31.3734 216.965 31.3968 217.152 31.4437C217.324 31.4828 217.551 31.5843 217.66 31.6624C217.77 31.7405 217.934 31.9591 218.035 32.1544C218.207 32.498 218.207 32.5214 218.207 35.8953C218.207 39.027 218.192 39.3159 218.059 39.6049C217.981 39.7767 217.848 39.9797 217.77 40.05C217.691 40.1281 217.481 40.2375 217.309 40.2999C217.043 40.4015 216.129 40.4171 206.097 40.4249L206.058 77.6695L205.894 77.8882C205.808 78.0053 205.582 78.185 205.043 78.4583H196.292L195.949 78.2865C195.706 78.1615 195.55 78.0053 195.238 77.404V40.4249H189.823C186.644 40.4249 184.292 40.3937 184.104 40.3468C183.933 40.3078 183.683 40.1594 183.534 40.0188C183.393 39.8782 183.245 39.6361 183.206 39.4877C183.159 39.3315 183.128 37.7774 183.128 35.8953C183.128 34.0131 183.159 32.459 183.206 32.3028C183.245 32.1544 183.393 31.9123 183.534 31.7717C183.675 31.6311 183.917 31.4828 184.065 31.4515C184.214 31.4125 191.652 31.3812 200.589 31.3734V31.3734ZM146.213 31.514L146.486 31.6936C146.634 31.7951 146.798 31.9591 146.853 32.0685C146.916 32.1778 149.017 39.9095 151.533 49.2499C154.041 58.5903 156.15 66.4235 156.213 66.65C156.307 66.978 156.377 67.0795 156.58 67.181C156.744 67.2669 156.932 67.2904 157.111 67.2669C157.26 67.2357 157.447 67.1576 157.525 67.0795C157.596 67.0014 157.729 66.6734 157.822 66.3532C157.908 66.033 160.018 58.2155 162.518 48.9766C165.01 39.7455 167.096 32.1075 167.159 32.0138C167.221 31.9123 167.385 31.7639 167.518 31.678C167.768 31.5296 167.916 31.5218 172.463 31.5218C176.784 31.5218 177.174 31.5296 177.417 31.6546C177.557 31.7327 177.745 31.9201 177.823 32.0685C177.909 32.2169 177.971 32.4199 177.971 32.5214C177.971 32.6152 177.214 35.372 176.284 38.6521C175.362 41.9244 173.159 49.7029 171.401 55.9272C169.635 62.1594 167.877 68.3603 167.494 69.7114C167.112 71.0625 166.705 72.4214 166.596 72.7181C166.479 73.0149 166.229 73.5616 166.033 73.9286C165.83 74.2957 165.471 74.858 165.229 75.1782C164.987 75.4984 164.494 76.0373 164.135 76.3809C163.776 76.7167 163.197 77.1775 162.854 77.404C162.51 77.6305 162.002 77.9272 161.721 78.0678C161.44 78.2084 160.861 78.4349 160.432 78.5832C160.002 78.7238 159.283 78.8956 158.83 78.9581C158.377 79.0284 157.65 79.0831 157.205 79.0831C156.768 79.0831 156.064 79.044 155.643 78.9972C155.228 78.9581 154.603 78.8566 154.26 78.7707C153.916 78.6926 153.408 78.552 153.127 78.4505C152.846 78.3568 152.338 78.1381 151.994 77.9663C151.65 77.7945 151.158 77.5133 150.9 77.3415C150.642 77.1619 150.15 76.748 149.806 76.4199C149.463 76.0919 148.978 75.5453 148.736 75.2094C148.494 74.8658 148.119 74.241 147.908 73.8115C147.697 73.382 147.447 72.8197 147.361 72.5619C147.267 72.3042 144.642 63.2215 141.517 52.3738C137.032 36.7621 135.861 32.5995 135.892 32.3809C135.915 32.2325 136.001 32.0294 136.072 31.9279C136.142 31.8264 136.306 31.6936 136.439 31.6389C136.634 31.5452 137.572 31.5296 146.213 31.514V31.514Z" fill="#FF6C0E"/>
</svg>
