<svg width="300" height="61" viewBox="0 0 300 61" fill="none" xmlns="http://www.w3.org/2000/svg">
<path d="M5.05187 1.08794C5.71197 0.764324 6.70213 0.392761 7.25222 0.260916C8.01035 0.0791303 18.5001 0.0172032 50.7593 0.00321967C88.0034 -0.0127615 93.4083 0.0231962 94.4164 0.284888C95.0485 0.450693 96.0387 0.824254 96.6168 1.11591C97.1949 1.40757 98.2191 2.19264 98.8952 2.86385C99.6893 3.64893 100.343 4.54388 100.741 5.38089C101.08 6.09405 101.454 7.26268 101.57 7.97784C101.714 8.84681 101.764 14.8617 101.724 26.1564C101.666 42.663 101.656 43.0606 101.252 44.1353C101.024 44.7406 100.483 45.7674 100.051 46.4206C99.6213 47.0738 98.8172 47.9648 98.2671 48.3983C97.717 48.8338 96.6828 49.469 94.6665 50.4279L62.6453 50.6277L64.5996 55.422C65.6738 58.0589 66.4879 60.2743 66.4079 60.3442C66.3279 60.4161 62.2572 58.2387 48.4589 50.5378L28.1056 50.5318C9.11453 50.5278 7.67629 50.5038 6.60212 50.1702C5.97001 49.9724 5.04786 49.5789 4.55178 49.2912C4.0557 49.0056 3.14755 48.2445 2.53345 47.6012C1.91735 46.958 1.22924 46.073 1.0032 45.6335C0.777167 45.194 0.447113 44.341 0.269084 43.7358C-0.0189626 42.7549 -0.0469672 40.7313 0.0510488 7.07889L0.821175 5.48077C1.35326 4.37408 1.93936 3.54305 2.72148 2.77795C3.34359 2.17267 4.39176 1.40956 5.05187 1.08794Z" fill="#FF6C0E"/>
<path fill-rule="evenodd" clip-rule="evenodd" d="M123.671 10.7186C124.441 10.7665 125.544 10.8884 127.172 11.174V17.966L126.722 17.8702C126.474 17.8162 125.552 17.6744 124.671 17.5545C123.507 17.3947 122.745 17.3947 121.871 17.5565C121.211 17.6784 120.311 17.99 119.871 18.2477C119.431 18.5054 118.733 19.0867 118.32 19.5402C117.908 19.9937 117.344 20.8127 117.07 21.362C116.79 21.9214 116.464 23.086 116.33 24.0089C116.14 25.3034 116.142 25.9986 116.336 27.2551C116.472 28.1341 116.81 29.3027 117.09 29.8521C117.368 30.4014 117.944 31.2105 118.37 31.6499C118.795 32.0894 119.533 32.6508 120.007 32.8945C120.483 33.1402 121.433 33.4318 122.121 33.5437C122.927 33.6756 123.815 33.6816 124.621 33.5617C125.31 33.4598 126.166 33.302 127.182 33.0483L127.172 39.9402L125.822 40.1899C125.08 40.3277 123.481 40.4256 122.271 40.4076C120.817 40.3857 119.563 40.2418 118.57 39.9821C117.744 39.7664 116.44 39.269 115.67 38.8774C114.9 38.4879 113.774 37.7767 113.17 37.2973C112.566 36.8179 111.653 35.891 111.147 35.2377C110.639 34.5825 109.941 33.4858 109.597 32.7986C109.251 32.1114 108.767 30.8529 108.519 30.0019C108.133 28.6734 108.071 28.0002 108.079 25.2575C108.089 22.3409 108.137 21.9214 108.625 20.4631C108.919 19.5841 109.499 18.2897 109.913 17.5865C110.329 16.8833 111.309 15.6707 112.089 14.8897C112.872 14.1106 114.086 13.1317 114.79 12.7162C115.494 12.3027 116.79 11.7354 117.67 11.4557C118.55 11.176 119.945 10.8764 120.771 10.7905C121.595 10.7026 122.901 10.6706 123.671 10.7186V10.7186ZM141.974 10.7286C142.69 10.7765 143.859 10.9463 144.575 11.1061C145.291 11.2659 146.459 11.6774 147.175 12.021C148.023 12.4306 148.929 13.1038 149.78 13.9588C150.66 14.8437 151.324 15.7566 151.824 16.7675C152.23 17.5925 152.756 18.9848 152.99 19.8638C153.302 21.0344 153.444 22.291 153.518 24.5583C153.596 26.8875 153.54 28.1121 153.298 29.5025C153.12 30.5193 152.722 32.0475 152.414 32.8985C152.104 33.7495 151.526 34.9401 151.132 35.5454C150.736 36.1506 149.976 37.0536 149.444 37.555C148.911 38.0564 148.071 38.6996 147.575 38.9873C147.079 39.273 145.999 39.7145 145.175 39.9662C143.957 40.3397 143.225 40.4236 141.274 40.4176C139.618 40.4116 138.47 40.2998 137.574 40.0541C136.857 39.8603 135.733 39.4268 135.073 39.0932C134.389 38.7476 133.357 37.9605 132.673 37.2653C131.965 36.5422 131.153 35.4295 130.692 34.5445C130.262 33.7215 129.684 32.1933 129.404 31.1505C128.942 29.4266 128.896 28.8972 128.898 25.3573C128.898 21.9753 128.956 21.2522 129.334 19.8638C129.576 18.9848 130.104 17.5925 130.512 16.7675C131.011 15.7586 131.681 14.8377 132.563 13.9468C133.335 13.1677 134.365 12.3786 135.073 12.021C135.733 11.6894 136.677 11.3079 137.174 11.174C137.67 11.0402 138.658 10.8664 139.374 10.7865C140.09 10.7046 141.258 10.6786 141.974 10.7286V10.7286ZM138.542 18.1758C138.352 18.4455 138.018 19.0707 137.798 19.5642C137.578 20.0576 137.304 21.0484 137.188 21.7616C137.072 22.4747 136.979 24.2726 136.981 25.7569C136.985 27.2411 137.118 29.1729 137.28 30.0518C137.458 31.0367 137.762 31.9376 138.072 32.3991C138.348 32.8106 138.866 33.328 139.224 33.5477C139.657 33.8127 140.224 33.9459 140.924 33.9472C141.558 33.9472 142.27 33.7974 142.724 33.5697C143.136 33.3599 143.627 33.0243 143.813 32.8206C143.999 32.6168 144.331 32.0435 144.551 31.5501C144.771 31.0566 145.059 29.7961 145.189 28.7533C145.325 27.6447 145.375 25.8568 145.309 24.4584C145.245 23.14 145.051 21.5219 144.879 20.8626C144.707 20.2034 144.319 19.3125 144.021 18.883C143.721 18.4555 143.219 17.9161 142.906 17.6844C142.538 17.4147 141.972 17.2489 141.306 17.2129C140.738 17.185 139.962 17.2789 139.582 17.4227C139.2 17.5685 138.732 17.9061 138.542 18.1758V18.1758ZM277.618 10.6007C277.686 10.5867 278.587 10.6666 279.619 10.7805C280.653 10.8944 281.699 11.0282 281.947 11.0801C282.393 11.174 282.397 11.21 282.397 17.966L281.947 17.8702C281.699 17.8162 280.777 17.6744 279.897 17.5545C278.733 17.3947 277.97 17.3947 277.096 17.5565C276.436 17.6784 275.536 17.99 275.096 18.2477C274.656 18.5054 273.958 19.0867 273.546 19.5402C273.134 19.9937 272.582 20.7907 272.32 21.3121C272.06 21.8335 271.743 22.7324 271.619 23.3098C271.497 23.8871 271.395 24.8979 271.395 25.5571C271.395 26.2163 271.495 27.2271 271.617 27.8045C271.741 28.3818 272.05 29.3027 272.304 29.8521C272.558 30.4014 273.224 31.2784 273.782 31.7998C274.34 32.3212 275.134 32.8925 275.546 33.0703C275.958 33.2461 276.814 33.4698 277.446 33.5697C278.137 33.6756 279.097 33.6736 279.847 33.5617C280.535 33.4598 281.391 33.302 282.407 33.0483L282.397 39.9402L281.047 40.1899C280.305 40.3277 278.707 40.4256 277.496 40.4076C275.968 40.3857 274.808 40.2458 273.696 39.9482C272.816 39.7125 271.379 39.1431 270.503 38.6817C269.513 38.1603 268.409 37.3512 267.581 36.5442C266.847 35.831 265.905 34.7063 265.486 34.0471C265.066 33.3879 264.48 32.1753 264.18 31.3503C263.882 30.5273 263.524 29.1329 263.386 28.2539C263.23 27.2671 263.174 25.7769 263.242 24.3585C263.322 22.6605 263.484 21.6437 263.866 20.4631C264.152 19.5841 264.724 18.2857 265.138 17.5785C265.554 16.8693 266.531 15.6568 267.307 14.8817C268.083 14.1066 269.297 13.1317 270.007 12.7162C270.715 12.3027 272.016 11.7354 272.896 11.4557C273.776 11.176 275.172 10.8764 275.996 10.7885C276.822 10.7006 277.552 10.6167 277.618 10.6007V10.6007ZM162.578 11.3738C165.218 11.3738 167.418 11.4417 167.466 11.5236C167.516 11.6055 168.005 13.741 168.553 16.268C169.103 18.7951 169.805 22.1012 170.115 23.6134C170.425 25.1256 170.725 26.3622 170.779 26.3602C170.835 26.3562 171.133 25.0297 171.441 23.4096C171.751 21.7895 172.475 18.4395 174.1 11.4737L183.981 11.3738L184.077 11.8233C184.131 12.071 184.985 18.2957 185.977 25.657C186.97 33.0183 187.782 39.1991 187.782 39.3908C187.782 39.7105 187.47 39.7404 180.281 39.7444L180.053 37.8946C179.926 36.8778 179.476 32.7407 179.052 28.7034C178.628 24.6642 178.212 21.36 178.13 21.362C178.048 21.362 177.486 23.4296 176.88 25.9566C176.276 28.4837 175.286 32.6188 173.579 39.7404L168.279 39.7384L166.002 30.6991C164.75 25.7289 163.658 21.5259 163.578 21.362C163.472 21.1463 163.4 21.2302 163.326 21.6617C163.27 21.9913 162.83 26.1944 161.477 39.7404H157.827C155.819 39.7404 154.176 39.6725 154.178 39.5906C154.178 39.5087 154.988 33.1702 155.979 25.5072C156.967 17.8442 157.777 11.5296 157.777 11.4737C157.777 11.4177 159.937 11.3738 162.578 11.3738V11.3738ZM202.084 11.4737L202.502 13.1717C202.73 14.1046 203.45 17.4546 204.102 20.6169C204.753 23.7772 205.329 26.3602 205.385 26.3582C205.441 26.3562 205.737 25.0297 206.047 23.4096C206.357 21.7895 207.085 18.4395 208.725 11.4737L218.587 11.3738L218.685 11.8233C218.739 12.071 219.595 18.2957 220.587 25.657C221.579 33.0183 222.389 39.1991 222.389 39.3908C222.387 39.7125 222.073 39.7404 218.587 39.7404C216.496 39.7404 214.788 39.6725 214.79 39.5906C214.794 39.5087 214.366 35.3736 213.84 30.3994C213.316 25.4273 212.818 21.36 212.736 21.36C212.654 21.362 212.186 23.0481 211.696 25.1076C211.208 27.1672 210.217 31.3023 208.185 39.7404L202.884 39.6405L200.584 30.5233C199.318 25.5112 198.223 21.3301 198.149 21.2342C198.075 21.1403 197.967 21.376 197.911 21.7616C197.855 22.1471 197.421 26.3482 196.083 39.7404H192.433C190.424 39.7404 188.782 39.6945 188.782 39.6405C188.782 39.5846 189.592 33.2481 190.582 25.5571C191.572 17.8662 192.385 11.5276 192.387 11.4697C192.389 11.4138 194.571 11.3898 202.084 11.4737ZM224.592 11.3698L240.09 11.4737V17.4666L232.389 17.5665V22.7604H238.99V28.5536H232.389V33.7475H240.19V39.7404H224.588L224.592 11.3698ZM246.973 11.3758C249.458 11.3778 252.302 11.4717 253.292 11.5836C254.283 11.6974 255.587 11.9311 256.193 12.1049C256.797 12.2767 257.829 12.7002 258.483 13.0458C259.139 13.3894 260.086 14.0766 260.588 14.57C261.088 15.0655 261.768 16.0083 262.096 16.6676C262.644 17.7703 262.694 18.038 262.694 19.9637C262.694 21.7955 262.628 22.2011 262.182 23.1599C261.9 23.7652 261.316 24.6542 260.882 25.1356C260.448 25.617 259.678 26.2463 258.243 27.0553L261.122 33.0483C262.704 36.3444 264.044 39.1991 264.096 39.3908C264.186 39.7164 263.918 39.7384 256.113 39.6405L253.236 33.6476C251.654 30.3515 250.276 27.5647 250.172 27.4549C250.056 27.331 249.986 29.5904 249.992 39.7404H242.191L242.157 25.691C242.139 17.964 242.199 11.5816 242.291 11.5076C242.381 11.4337 244.489 11.3758 246.973 11.3758V11.3758ZM249.988 23.6593C252.006 23.4276 252.952 23.1799 253.392 22.9602C253.833 22.7404 254.325 22.3589 254.485 22.1112C254.647 21.8655 254.835 21.392 254.903 21.0624C254.973 20.7328 254.919 20.0596 254.785 19.5642C254.651 19.0707 254.305 18.4295 254.017 18.1418C253.729 17.8542 253.132 17.5226 252.692 17.4067C252.252 17.2888 251.476 17.133 250.968 17.0571L250.044 16.9233L249.988 23.6593ZM300 11.3738V17.5665H292.199V22.7604H299V28.5536H292.199V33.7475H300V39.7404H284.398L284.364 25.689C284.346 17.962 284.406 11.5796 284.498 11.5056C284.59 11.4337 288.114 11.3738 300 11.3738Z" fill="#FF6C0E"/>
<path d="M40.2233 8.07756C40.8854 6.84102 41.2575 6.37956 41.8676 6.03397C42.3377 5.76828 43.0018 5.58649 43.5079 5.5845C43.9759 5.5825 44.65 5.70436 45.0081 5.85618C45.3662 6.008 45.9723 6.46346 46.3583 6.86899C46.9584 7.49825 47.0684 7.76793 47.1345 8.73879C47.2005 9.72562 47.1044 10.1132 46.4083 11.6733C45.9663 12.6622 45.3782 14.1904 45.1021 15.0693C44.8241 15.9483 44.358 17.7462 44.062 19.0646C43.7679 20.3831 43.3138 22.7203 43.0538 24.2585C42.7937 25.7967 42.3857 28.6733 42.1496 30.651C41.8616 33.0722 41.6996 35.747 41.6596 38.8414C41.6035 42.9286 41.5535 43.5239 41.2035 44.235C40.9875 44.6745 40.5974 45.1799 40.3333 45.3557C40.0713 45.5335 39.5872 45.7412 39.2572 45.8192C38.9211 45.8991 38.261 45.8511 37.7569 45.7093C37.0648 45.5175 36.5067 45.108 35.3505 43.9474C34.5224 43.1163 33.2742 41.5821 32.5761 40.5394C31.878 39.4946 30.8238 37.6747 30.2317 36.4941C29.6396 35.3135 28.8055 33.4697 28.3774 32.3989C27.9493 31.3282 27.3632 29.6642 27.0772 28.7033C26.7891 27.7424 26.5091 26.9553 26.4551 26.9553C26.3991 26.9553 24.9208 29.81 23.1665 33.2979C21.4123 36.7858 19.536 40.3596 18.9939 41.2385C18.4518 42.1175 17.4776 43.404 16.8295 44.0972C16.1214 44.8583 15.3353 45.4796 14.8532 45.6653C14.1131 45.951 13.995 45.945 13.2829 45.6034C12.8069 45.3757 12.2948 44.8902 11.9467 44.3349C11.6367 43.8395 11.0246 42.3572 10.5845 41.0388C10.1464 39.7203 9.4163 37.1573 8.96223 35.3455C8.50815 33.5336 7.73603 30.0717 7.24795 27.6545C6.75787 25.2374 5.90773 20.6068 5.35564 17.3666C4.80355 14.1244 4.35348 11.114 4.35548 10.6745C4.35748 10.223 4.55351 9.52786 4.80555 9.07639C5.1036 8.54701 5.55567 8.12551 6.15177 7.82586C6.72986 7.5362 7.41197 7.37439 8.05208 7.37639C8.64418 7.37639 9.33829 7.53021 9.75236 7.74995C10.1364 7.95571 10.6065 8.3832 10.7965 8.69883C11.0126 9.06041 11.5226 11.5615 12.1587 15.369C12.7188 18.719 13.579 23.3935 14.0711 25.7568C14.5651 28.118 15.0772 30.5232 15.2092 31.0985C15.3433 31.6758 15.5173 32.0793 15.5933 31.9974C15.6713 31.9155 17.7677 27.9841 20.2541 23.2597C22.7405 18.5353 25.0168 14.3662 25.3149 13.9946C25.6109 13.625 26.169 13.1516 26.5551 12.9458C26.9412 12.7401 27.5693 12.5703 27.9553 12.5703C28.3414 12.5703 28.9695 12.7381 29.3556 12.9438C29.7876 13.1756 30.2257 13.653 30.5017 14.1944C30.7458 14.6758 31.2219 16.3738 31.5579 17.9659C31.892 19.5581 32.394 21.7175 32.6721 22.7603C32.9501 23.8031 33.5322 25.7588 33.9663 27.1052C34.4004 28.4516 34.8244 29.5903 34.9065 29.6362C34.9885 29.6841 35.1745 28.7612 35.3185 27.5886C35.4646 26.416 35.7946 24.1986 36.0546 22.6604C36.3127 21.1222 36.7668 18.785 37.0608 17.4665C37.3549 16.1481 37.995 13.8548 38.483 12.3725C38.9691 10.8883 39.7533 8.95653 40.2233 8.07756Z" fill="white"/>
<path d="M55.1098 11.068C55.6878 10.7964 56.498 10.4947 56.91 10.3948C57.3221 10.297 58.4243 10.2071 59.3605 10.1991C60.3266 10.1891 61.5788 10.3189 62.2609 10.4987C62.921 10.6725 63.9112 11.0441 64.4613 11.3257C65.0114 11.6074 65.8975 12.2507 66.4296 12.7541C66.9617 13.2595 67.7218 14.1644 68.1179 14.7697C68.5119 15.373 69.08 16.5416 69.3781 17.3666C69.6761 18.1897 70.0322 19.584 70.1722 20.463C70.3342 21.4978 70.3822 22.9421 70.3042 24.5582C70.2342 26.0384 70.0122 27.7464 69.7621 28.7532C69.5301 29.6881 69.068 31.1244 68.736 31.9495C68.4039 32.7725 67.7118 34.1649 67.1977 35.0438C66.6456 35.9827 65.6455 37.2572 64.7613 38.1402C63.8532 39.0491 62.827 39.8522 62.1609 40.1758C61.5568 40.4695 60.5206 40.853 59.8605 41.0248C59.2004 41.1986 58.1203 41.3404 57.4601 41.3424C56.8 41.3424 55.5398 41.1586 54.6597 40.9329C53.7795 40.7052 52.6193 40.2777 52.0833 39.98C51.5452 39.6844 50.597 38.9013 49.9749 38.2421C49.3248 37.5529 48.5287 36.4062 48.1006 35.5452C47.6925 34.7202 47.1665 33.3279 46.9344 32.4489C46.6024 31.2024 46.5063 30.2355 46.4963 28.0541C46.4863 26.0764 46.5884 24.7599 46.8444 23.5593C47.0424 22.6244 47.4285 21.2321 47.7025 20.463C47.9786 19.6939 48.5527 18.3894 48.9808 17.5664C49.4088 16.7414 50.231 15.4429 50.809 14.6798C51.3871 13.9167 52.3553 12.9039 52.9594 12.4284C53.5635 11.953 54.5317 11.3417 55.1098 11.068Z" fill="white"/>
<path d="M80.5859 11.3877C81.29 11.0121 82.2682 10.5926 82.7643 10.4568C83.2603 10.3209 84.4285 10.2031 85.3647 10.1911C86.3288 10.1811 87.5851 10.3089 88.2652 10.4867C88.9253 10.6585 89.9954 11.086 90.6455 11.4356C91.3017 11.7912 92.3438 12.6262 92.9959 13.3214C93.7121 14.0845 94.4322 15.1333 94.8502 16.0182C95.2283 16.8153 95.6844 18.0059 95.8664 18.6651C96.0504 19.3303 96.2485 21.0203 96.3105 22.4606C96.3785 24.0428 96.3265 25.7208 96.1805 26.7556C96.0484 27.6905 95.6264 29.3965 95.2423 30.5511C94.8582 31.7038 94.1801 33.3219 93.7341 34.1469C93.286 34.9699 92.5399 36.1385 92.0758 36.7438C91.6097 37.3471 90.7436 38.268 90.1475 38.7874C89.5514 39.3088 88.6152 39.958 88.0651 40.2297C87.515 40.5034 86.5249 40.865 85.8648 41.0328C85.2047 41.2026 84.1245 41.3404 83.4644 41.3424C82.8043 41.3424 81.5441 41.1606 80.6639 40.9369C79.7838 40.7112 78.5816 40.2397 77.9935 39.8841C77.4034 39.5306 76.4352 38.7235 75.8431 38.0922C75.211 37.421 74.4789 36.3423 74.0788 35.4953C73.7008 34.6982 73.2527 33.5516 73.0807 32.9483C72.9087 32.343 72.6786 30.9946 72.5726 29.9518C72.4466 28.7153 72.4486 27.3229 72.5766 25.9565C72.6866 24.8019 72.9667 23.1398 73.1987 22.2609C73.4307 21.3819 73.9468 19.8997 74.3469 18.9648C74.7449 18.0299 75.4851 16.6375 75.9932 15.8684C76.5012 15.0993 77.4534 13.9307 78.1135 13.2715C78.7716 12.6122 79.8838 11.7652 80.5859 11.3877Z" fill="white"/>
<path d="M56.4102 19.1646C56.9202 18.5194 57.6444 17.8802 58.1684 17.6165C58.6585 17.3688 59.3086 17.167 59.6107 17.167C59.9127 17.167 60.4308 17.3008 60.7609 17.4666C61.0909 17.6324 61.575 18.0579 61.835 18.4155C62.0971 18.7731 62.5212 19.6041 62.7772 20.2633C63.1673 21.2642 63.2453 21.8395 63.2493 23.7592C63.2533 25.0277 63.1373 26.548 62.9892 27.1552C62.8412 27.7605 62.3791 28.9731 61.9631 29.8521C61.517 30.795 60.8289 31.8397 60.2848 32.3991C59.7767 32.9205 59.0006 33.5277 58.5605 33.7475C58.1204 33.9672 57.3783 34.145 56.9102 34.141C56.1941 34.135 55.9481 34.0172 55.352 33.3919C54.9619 32.9824 54.4278 32.1094 54.1658 31.4502C53.7917 30.5073 53.6717 29.7622 53.6037 27.9543C53.5397 26.2603 53.6017 25.3154 53.8397 24.3585C54.0178 23.6454 54.4738 22.4308 54.8539 21.6617C55.234 20.8926 55.9341 19.7699 56.4102 19.1646Z" fill="#FF6C0E"/>
<path d="M82.8565 18.7152C83.3566 18.1938 84.0567 17.6304 84.4147 17.4626C84.8248 17.2729 85.3969 17.195 85.965 17.2549C86.5991 17.3208 87.0332 17.5146 87.4332 17.9081C87.7453 18.2138 88.1653 18.7811 88.3634 19.1646C88.5634 19.5482 88.8795 20.4491 89.0675 21.1623C89.3235 22.1411 89.3835 22.9522 89.3055 24.4584C89.2495 25.5571 89.0535 26.9954 88.8715 27.6547C88.6874 28.3139 88.2994 29.3467 88.0073 29.9519C87.7153 30.5572 87.1352 31.4782 86.7211 31.9995C86.305 32.5209 85.4929 33.2181 84.9148 33.5457C84.3167 33.8853 83.5626 34.147 83.1645 34.151C82.7605 34.155 82.1744 33.9652 81.7763 33.7035C81.3982 33.4538 80.8781 32.8425 80.6221 32.3491C80.3661 31.8557 80.026 30.9568 79.864 30.3515C79.702 29.7462 79.5699 28.4437 79.5699 27.4549C79.5699 26.4661 79.71 25.0717 79.88 24.3585C80.05 23.6454 80.5841 22.297 81.0682 21.3621C81.5523 20.4272 82.3564 19.2366 82.8565 18.7152Z" fill="#FF6C0E"/>
</svg>
